<svg xmlns="http://www.w3.org/2000/svg" xmlns:xlink="http://www.w3.org/1999/xlink" version="1.2" width="210.00mm" height="297.00mm" viewBox="0 0 119.5016 169.0094">
<style text="style/css">
<![CDATA[
tspan { white-space: pre; }
]]>
</style>
<!-- Page: 1/1 -->
<text transform="translate(5.6906, 2.8453)" font-family="serif" font-size="2.2001" text-anchor="start" fill="currentColor">
<tspan/>
</text>
<text transform="translate(38.9063, 6.4989)" font-family="serif" font-weight="bold" font-size="3.4927" text-anchor="start" fill="currentColor">
<tspan>Suite 1 for Cello Solo</tspan>
</text>
<text transform="translate(49.6785, 9.9989)" font-family="serif" font-weight="bold" font-size="2.4696" text-anchor="start" fill="currentColor">
<tspan>Low-G Ukulele</tspan>
</text>
<text transform="translate(88.2718, 9.9989)" font-family="serif" font-size="2.2001" text-anchor="start" fill="currentColor">
<tspan>Johann Sebastian Bach</tspan>
</text>
<text transform="translate(5.6906, 12.5894)" font-family="serif" font-size="2.2001" text-anchor="start" fill="currentColor">
<tspan>Menuet 2</tspan>
</text>
<text transform="translate(102.0657, 12.5894)" font-family="serif" font-size="2.2001" text-anchor="start" fill="currentColor">
<tspan>BWV 1007</tspan>
</text>
<line transform="translate(14.2264, 20.1318)" stroke-linejoin="round" stroke-linecap="round" stroke-width="0.1000" stroke="currentColor" x1="0.0500" y1="-0.0000" x2="99.5346" y2="-0.0000"/>
<line transform="translate(14.2264, 18.6318)" stroke-linejoin="round" stroke-linecap="round" stroke-width="0.1000" stroke="currentColor" x1="0.0500" y1="-0.0000" x2="99.5346" y2="-0.0000"/>
<line transform="translate(14.2264, 17.1318)" stroke-linejoin="round" stroke-linecap="round" stroke-width="0.1000" stroke="currentColor" x1="0.0500" y1="-0.0000" x2="99.5346" y2="-0.0000"/>
<line transform="translate(14.2264, 15.6318)" stroke-linejoin="round" stroke-linecap="round" stroke-width="0.1000" stroke="currentColor" x1="0.0500" y1="-0.0000" x2="99.5346" y2="-0.0000"/>
<rect transform="translate(113.6210, 17.8818)" x="0.0000" y="-2.2500" width="0.1900" height="4.5000" ry="0.0000" fill="currentColor"/>
<rect transform="translate(65.0188, 17.8818)" x="0.0000" y="-2.2500" width="0.1900" height="4.5000" ry="0.0000" fill="currentColor"/>
<rect transform="translate(89.2060, 17.8818)" x="0.0000" y="-2.2500" width="0.1900" height="4.5000" ry="0.0000" fill="currentColor"/>
<rect transform="translate(44.6759, 17.8818)" x="0.0000" y="-2.2500" width="0.1900" height="4.5000" ry="0.0000" fill="currentColor"/>
<g color="rgb(100.0000%, 100.0000%, 100.0000%)">
<rect transform="translate(81.5907, 18.6318)" x="0.1229" y="-0.6603" width="1.2292" height="1.3207" ry="0.0000" fill="currentColor"/>
</g>
<text transform="translate(81.7136, 19.2674)" font-family="serif" font-weight="bold" font-size="1.7461" text-anchor="start" fill="currentColor">
<tspan>0</tspan>
</text>
<rect transform="translate(86.0857, 17.8818)" x="-0.0650" y="-4.5000" width="0.1300" height="4.3586" ry="0.0400" fill="currentColor"/>
<g color="rgb(100.0000%, 100.0000%, 100.0000%)">
<rect transform="translate(85.3482, 18.6318)" x="0.1229" y="-0.6603" width="1.2292" height="1.3207" ry="0.0000" fill="currentColor"/>
</g>
<text transform="translate(85.4711, 19.2674)" font-family="serif" font-weight="bold" font-size="1.7461" text-anchor="start" fill="currentColor">
<tspan>3</tspan>
</text>
<rect transform="translate(82.3282, 17.8818)" x="-0.0650" y="-4.5000" width="0.1300" height="4.3586" ry="0.0400" fill="currentColor"/>
<g color="rgb(100.0000%, 100.0000%, 100.0000%)">
<rect transform="translate(90.7481, 18.6318)" x="0.1229" y="-0.6480" width="1.2292" height="1.2959" ry="0.0000" fill="currentColor"/>
</g>
<text transform="translate(90.8710, 19.2797)" font-family="serif" font-weight="bold" font-size="1.7461" text-anchor="start" fill="currentColor">
<tspan>2</tspan>
</text>
<rect transform="translate(91.4856, 17.8818)" x="-0.0650" y="1.6248" width="0.1300" height="4.3696" ry="0.0400" fill="currentColor"/>
<g color="rgb(100.0000%, 100.0000%, 100.0000%)">
<rect transform="translate(74.0758, 17.1318)" x="0.1229" y="-0.6603" width="1.2292" height="1.3207" ry="0.0000" fill="currentColor"/>
</g>
<text transform="translate(74.1987, 17.7674)" font-family="serif" font-weight="bold" font-size="1.7461" text-anchor="start" fill="currentColor">
<tspan>3</tspan>
</text>
<path transform="translate(22.6311, 17.8818)" stroke-width="0.0800" stroke-linejoin="round" stroke-linecap="round" stroke="currentColor" fill="currentColor" d="M0.7375 -3.6480C2.4641 -5.1923 6.5258 -5.1923 8.2524 -3.6480L8.2524 -3.6480C6.5258 -5.0723 2.4641 -5.0723 0.7375 -3.6480z"/>
<g color="rgb(100.0000%, 100.0000%, 100.0000%)">
<rect transform="translate(70.3183, 17.1318)" x="0.1229" y="-0.6480" width="1.2292" height="1.2959" ry="0.0000" fill="currentColor"/>
</g>
<text transform="translate(70.4412, 17.7797)" font-family="serif" font-weight="bold" font-size="1.7461" text-anchor="start" fill="currentColor">
<tspan>2</tspan>
</text>
<rect transform="translate(71.0558, 17.8818)" x="-0.0650" y="-4.5000" width="0.1300" height="2.8752" ry="0.0400" fill="currentColor"/>
<rect transform="translate(74.8133, 17.8818)" x="-0.0650" y="-4.5000" width="0.1300" height="2.8586" ry="0.0400" fill="currentColor"/>
<g color="rgb(100.0000%, 100.0000%, 100.0000%)">
<rect transform="translate(77.5832, 20.1318)" x="0.1229" y="-0.6603" width="1.2292" height="1.3207" ry="0.0000" fill="currentColor"/>
</g>
<text transform="translate(77.7061, 20.7674)" font-family="serif" font-weight="bold" font-size="1.7461" text-anchor="start" fill="currentColor">
<tspan>3</tspan>
</text>
<rect transform="translate(78.3207, 17.8818)" x="-0.0650" y="-4.5000" width="0.1300" height="5.8586" ry="0.0400" fill="currentColor"/>
<g color="rgb(100.0000%, 100.0000%, 100.0000%)">
<rect transform="translate(110.0354, 15.6318)" x="0.1229" y="-0.6603" width="1.2292" height="1.3207" ry="0.0000" fill="currentColor"/>
</g>
<text transform="translate(110.1583, 16.2674)" font-family="serif" font-weight="bold" font-size="1.7461" text-anchor="start" fill="currentColor">
<tspan>0</tspan>
</text>
<rect transform="translate(110.7729, 17.8818)" x="-0.0650" y="-1.3586" width="0.1300" height="5.6742" ry="0.0400" fill="currentColor"/>
<rect transform="translate(106.7654, 17.8818)" x="-0.0650" y="0.1248" width="0.1300" height="4.5397" ry="0.0400" fill="currentColor"/>
<polygon transform="translate(91.4206, 23.8818)" stroke-linejoin="round" stroke-linecap="round" stroke-width="0.0800" fill="currentColor" stroke="currentColor" points="19.3773 -1.8900 19.3773 -1.4900 0.0400 0.2000 0.0400 -0.2000"/>
<path transform="translate(90.7481, 17.8818)" stroke-width="0.0800" stroke-linejoin="round" stroke-linecap="round" stroke="currentColor" fill="currentColor" d="M0.7375 -0.8730C2.4641 -2.4173 6.5258 -2.4173 8.2524 -0.8730L8.2524 -0.8730C6.5258 -2.2973 2.4641 -2.2973 0.7375 -0.8730z"/>
<polygon transform="translate(67.2333, 13.3818)" stroke-linejoin="round" stroke-linecap="round" stroke-width="0.0800" fill="currentColor" stroke="currentColor" points="18.8773 -0.2000 18.8773 0.2000 0.0400 0.2000 0.0400 -0.2000"/>
<path transform="translate(66.5608, 17.8818)" stroke-width="0.0800" stroke-linejoin="round" stroke-linecap="round" stroke="currentColor" fill="currentColor" d="M0.7375 0.8853C2.4641 2.4296 6.5258 2.4296 8.2524 0.8853L8.2524 0.8853C6.5258 2.3096 2.4641 2.3096 0.7375 0.8853z"/>
<polygon transform="translate(23.3036, 20.8818)" stroke-linejoin="round" stroke-linecap="round" stroke-width="0.0800" fill="currentColor" stroke="currentColor" points="18.3773 2.6100 18.3773 3.0100 0.0400 0.2000 0.0400 -0.2000"/>
<rect transform="translate(99.0005, 17.8818)" x="-0.0650" y="1.6248" width="0.1300" height="3.7155" ry="0.0400" fill="currentColor"/>
<g color="rgb(100.0000%, 100.0000%, 100.0000%)">
<rect transform="translate(94.2555, 20.1318)" x="0.1229" y="-0.6480" width="1.2292" height="1.2959" ry="0.0000" fill="currentColor"/>
</g>
<text transform="translate(94.3784, 20.7797)" font-family="serif" font-weight="bold" font-size="1.7461" text-anchor="start" fill="currentColor">
<tspan>2</tspan>
</text>
<rect transform="translate(94.9930, 17.8818)" x="-0.0650" y="3.1248" width="0.1300" height="2.5643" ry="0.0400" fill="currentColor"/>
<g color="rgb(100.0000%, 100.0000%, 100.0000%)">
<rect transform="translate(98.2630, 18.6318)" x="0.1229" y="-0.6480" width="1.2292" height="1.2959" ry="0.0000" fill="currentColor"/>
</g>
<text transform="translate(98.3859, 19.2797)" font-family="serif" font-weight="bold" font-size="1.7461" text-anchor="start" fill="currentColor">
<tspan>2</tspan>
</text>
<g color="rgb(100.0000%, 100.0000%, 100.0000%)">
<rect transform="translate(102.2705, 17.1318)" x="0.1229" y="-0.6603" width="1.2292" height="1.3207" ry="0.0000" fill="currentColor"/>
</g>
<text transform="translate(102.3934, 17.7674)" font-family="serif" font-weight="bold" font-size="1.7461" text-anchor="start" fill="currentColor">
<tspan>3</tspan>
</text>
<rect transform="translate(103.0080, 17.8818)" x="-0.0650" y="0.1414" width="0.1300" height="4.8500" ry="0.0400" fill="currentColor"/>
<g color="rgb(100.0000%, 100.0000%, 100.0000%)">
<rect transform="translate(106.0279, 17.1318)" x="0.1229" y="-0.6480" width="1.2292" height="1.2959" ry="0.0000" fill="currentColor"/>
</g>
<text transform="translate(106.1508, 17.7797)" font-family="serif" font-weight="bold" font-size="1.7461" text-anchor="start" fill="currentColor">
<tspan>2</tspan>
</text>
<g color="rgb(100.0000%, 100.0000%, 100.0000%)">
<rect transform="translate(30.1461, 15.6318)" x="0.1229" y="-0.6480" width="1.2292" height="1.2959" ry="0.0000" fill="currentColor"/>
</g>
<text transform="translate(30.2690, 16.2797)" font-family="serif" font-weight="bold" font-size="1.7461" text-anchor="start" fill="currentColor">
<tspan>1</tspan>
</text>
<rect transform="translate(30.8835, 17.8818)" x="-0.0650" y="-1.3752" width="0.1300" height="5.5317" ry="0.0400" fill="currentColor"/>
<g color="rgb(100.0000%, 100.0000%, 100.0000%)">
<rect transform="translate(33.6535, 18.6318)" x="0.1229" y="-0.6480" width="1.2292" height="1.2959" ry="0.0000" fill="currentColor"/>
</g>
<text transform="translate(33.7764, 19.2797)" font-family="serif" font-weight="bold" font-size="1.7461" text-anchor="start" fill="currentColor">
<tspan>2</tspan>
</text>
<rect transform="translate(34.3910, 17.8818)" x="-0.0650" y="1.6248" width="0.1300" height="3.0669" ry="0.0400" fill="currentColor"/>
<g color="rgb(100.0000%, 100.0000%, 100.0000%)">
<rect transform="translate(37.4110, 18.6318)" x="0.1229" y="-0.6603" width="1.2292" height="1.3207" ry="0.0000" fill="currentColor"/>
</g>
<text transform="translate(37.5339, 19.2674)" font-family="serif" font-weight="bold" font-size="1.7461" text-anchor="start" fill="currentColor">
<tspan>3</tspan>
</text>
<rect transform="translate(38.1485, 17.8818)" x="-0.0650" y="1.6414" width="0.1300" height="3.6235" ry="0.0400" fill="currentColor"/>
<g color="rgb(100.0000%, 100.0000%, 100.0000%)">
<rect transform="translate(40.9185, 20.1318)" x="0.1229" y="-0.6603" width="1.2292" height="1.3207" ry="0.0000" fill="currentColor"/>
</g>
<text transform="translate(41.0414, 20.7674)" font-family="serif" font-weight="bold" font-size="1.7461" text-anchor="start" fill="currentColor">
<tspan>0</tspan>
</text>
<rect transform="translate(41.6559, 17.8818)" x="-0.0650" y="3.1414" width="0.1300" height="2.6586" ry="0.0400" fill="currentColor"/>
<g color="rgb(100.0000%, 100.0000%, 100.0000%)">
<rect transform="translate(22.6311, 15.6318)" x="0.1229" y="-0.6480" width="1.2292" height="1.2959" ry="0.0000" fill="currentColor"/>
</g>
<text transform="translate(22.7540, 16.2797)" font-family="serif" font-weight="bold" font-size="1.7461" text-anchor="start" fill="currentColor">
<tspan>1</tspan>
</text>
<path transform="translate(14.8264, 17.8818) scale(0.0040, -0.0040)" d="M267 -425c0 -24 -23 -27 -43 -27c-45 0 -84 31 -84 75c0 82 118 130 234 130c104 0 215 -22 215 -103c0 -51 -31 -86 -69 -110c58 -11 102 -36 102 -91c0 -90 -94 -158 -179 -158c-41 0 -80 15 -108 52c-2 2 -3 5 -3 8c0 12 16 25 28 25c4 0 8 -1 10 -4
c11 -15 27 -21 44 -21c43 0 95 40 95 93c0 46 -49 63 -100 63h-1c-6 0 -8 8 -8 16c0 11 5 24 18 24h1c36 0 68 39 68 77c0 45 -36 68 -80 76c-11 -62 -31 -173 -40 -220c-20 -102 -84 -202 -159 -202c-44 0 -68 34 -96 53c-3 2 -4 5 -4 9c0 11 12 26 24 26c3 0 5 0 7 -2
c20 -13 36 -35 65 -35c65 0 89 99 89 195v8c0 35 9 109 18 163c-39 -13 -70 -40 -70 -70c0 -15 8 -28 19 -34c4 -3 7 -9 7 -16zM301 -83c-43 -41 -114 -105 -173 -105c-33 0 -52 21 -78 32c-3 1 -5 5 -5 9c0 11 11 28 25 28c2 0 5 -1 7 -2c16 -7 30 -18 50 -18
c34 0 65 27 91 54c100 102 175 219 214 336c9 27 33 37 57 37c29 0 57 -15 57 -31c0 -2 -1 -4 -2 -6c-4 -116 -9 -233 -16 -350v-9c0 -16 3 -30 21 -30c16 0 35 13 53 19l2 1c5 0 9 -8 9 -17c0 -8 -3 -16 -12 -19c-29 -9 -54 -34 -87 -34c-32 0 -45 29 -53 58
c-16 61 -26 125 -31 191c-27 -35 -56 -68 -87 -101c11 -20 33 -33 64 -33c4 0 8 1 12 1c5 0 8 -7 8 -15c0 -25 -34 -29 -56 -29c-32 0 -56 12 -70 33zM288 540c0 -23 -23 -24 -42 -24c-49 0 -91 36 -91 84c0 95 125 120 232 120c49 0 119 -41 171 -41c38 0 77 15 110 41
c3 2 6 3 9 3c11 0 23 -11 23 -19c0 -2 -1 -3 -2 -4c-40 -45 -95 -71 -148 -71c-15 0 -31 2 -44 6c-9 -59 -26 -151 -35 -193c-22 -96 -88 -185 -163 -185c-52 0 -81 42 -115 64c-3 2 -4 5 -4 9c0 11 12 26 23 26c2 0 5 -1 7 -2c23 -15 43 -46 75 -46c56 0 82 77 85 150
c2 45 13 150 22 208c-12 3 -31 5 -32 5c-51 0 -113 -21 -113 -70c0 -18 10 -36 24 -43c5 -3 8 -10 8 -18z" fill="currentColor"/>
<path transform="translate(19.1630, 17.8818) scale(0.0040, -0.0040)" d="M150 477c-29 0 -59 -8 -59 -33c0 -22 36 -25 36 -47c0 -32 -26 -58 -58 -58s-57 26 -57 58c0 65 67 103 138 103c91 0 169 -33 169 -114c0 -43 -4 -82 -42 -100c-9 -4 -14 -12 -14 -21s5 -18 14 -22c41 -19 56 -57 56 -103c0 -92 -79 -140 -179 -140
c-79 0 -154 42 -154 113c0 36 30 66 66 66s65 -30 65 -66c0 -25 -40 -28 -40 -53c0 -27 32 -37 63 -37c49 0 63 61 63 117v16c0 54 -2 94 -50 94h-80c-10 0 -14 8 -14 15s4 14 14 14h80c49 0 50 43 50 99v8c0 54 -18 91 -67 91z" fill="currentColor"/>
<path transform="translate(19.0264, 19.8978) scale(0.0040, -0.0040)" d="M196 117h117c0 -48 27 -94 72 -94c8 0 12 -5 12 -11s-4 -12 -12 -12c-44 0 -87 13 -131 13s-87 -13 -131 -13c-8 0 -12 6 -12 12s4 11 12 11c45 0 73 46 73 94zM204 307c22 14 44 29 60 50c11 15 19 33 27 50c2 4 5 6 9 6c6 0 13 -5 13 -14v-245h72c10 0 15 -7 15 -14
s-5 -15 -15 -15h-72v-8h-117v8h-167c-23 0 -31 14 -31 23c0 3 1 5 2 6c80 93 138 207 138 330c0 10 7 19 16 16c23 -7 47 -13 71 -13s48 6 71 13c14 4 23 -9 17 -16l-284 -330h167v131c0 8 1 17 8 22z" fill="currentColor"/>
<rect transform="translate(23.3686, 17.8818)" x="-0.0650" y="-1.3752" width="0.1300" height="4.3852" ry="0.0400" fill="currentColor"/>
<g color="rgb(100.0000%, 100.0000%, 100.0000%)">
<rect transform="translate(26.3886, 15.6318)" x="0.1229" y="-0.6603" width="1.2292" height="1.3207" ry="0.0000" fill="currentColor"/>
</g>
<text transform="translate(26.5115, 16.2674)" font-family="serif" font-weight="bold" font-size="1.7461" text-anchor="start" fill="currentColor">
<tspan>0</tspan>
</text>
<rect transform="translate(27.1261, 17.8818)" x="-0.0650" y="-1.3586" width="0.1300" height="4.9418" ry="0.0400" fill="currentColor"/>
<g color="rgb(100.0000%, 100.0000%, 100.0000%)">
<rect transform="translate(52.7094, 15.6318)" x="0.1229" y="-0.6603" width="1.2292" height="1.3207" ry="0.0000" fill="currentColor"/>
</g>
<text transform="translate(52.8323, 16.2674)" font-family="serif" font-weight="bold" font-size="1.7461" text-anchor="start" fill="currentColor">
<tspan>0</tspan>
</text>
<rect transform="translate(53.4469, 17.8818)" x="-0.0650" y="-1.3586" width="0.1300" height="4.3586" ry="0.0400" fill="currentColor"/>
<g color="rgb(100.0000%, 100.0000%, 100.0000%)">
<rect transform="translate(58.7547, 18.6318)" x="0.1229" y="-0.6480" width="1.2292" height="1.2959" ry="0.0000" fill="currentColor"/>
</g>
<text transform="translate(58.8777, 19.2797)" font-family="serif" font-weight="bold" font-size="1.7461" text-anchor="start" fill="currentColor">
<tspan>2</tspan>
</text>
<rect transform="translate(59.4922, 17.8818)" x="-0.0650" y="-4.5000" width="0.1300" height="4.3752" ry="0.0400" fill="currentColor"/>
<g color="rgb(100.0000%, 100.0000%, 100.0000%)">
<rect transform="translate(66.5608, 17.1318)" x="0.1229" y="-0.6603" width="1.2292" height="1.3207" ry="0.0000" fill="currentColor"/>
</g>
<text transform="translate(66.6837, 17.7674)" font-family="serif" font-weight="bold" font-size="1.7461" text-anchor="start" fill="currentColor">
<tspan>3</tspan>
</text>
<rect transform="translate(67.2983, 17.8818)" x="-0.0650" y="-4.5000" width="0.1300" height="2.8586" ry="0.0400" fill="currentColor"/>
<rect transform="translate(47.0340, 17.8818)" x="-0.0650" y="0.1248" width="0.1300" height="4.3752" ry="0.0400" fill="currentColor"/>
<g color="rgb(100.0000%, 100.0000%, 100.0000%)">
<rect transform="translate(46.2965, 17.1318)" x="0.1229" y="-0.6480" width="1.2292" height="1.2959" ry="0.0000" fill="currentColor"/>
</g>
<text transform="translate(46.4194, 17.7797)" font-family="serif" font-weight="bold" font-size="1.7461" text-anchor="start" fill="currentColor">
<tspan>1</tspan>
</text>
<line transform="translate(5.6906, 32.1318)" stroke-linejoin="round" stroke-linecap="round" stroke-width="0.1000" stroke="currentColor" x1="0.0500" y1="-0.0000" x2="108.0705" y2="-0.0000"/>
<line transform="translate(5.6906, 30.6318)" stroke-linejoin="round" stroke-linecap="round" stroke-width="0.1000" stroke="currentColor" x1="0.0500" y1="-0.0000" x2="108.0705" y2="-0.0000"/>
<line transform="translate(5.6906, 29.1318)" stroke-linejoin="round" stroke-linecap="round" stroke-width="0.1000" stroke="currentColor" x1="0.0500" y1="-0.0000" x2="108.0705" y2="-0.0000"/>
<line transform="translate(5.6906, 27.6318)" stroke-linejoin="round" stroke-linecap="round" stroke-width="0.1000" stroke="currentColor" x1="0.0500" y1="-0.0000" x2="108.0705" y2="-0.0000"/>
<rect transform="translate(37.5222, 29.8818)" x="0.0000" y="-2.2500" width="0.1900" height="4.5000" ry="0.0000" fill="currentColor"/>
<rect transform="translate(62.1011, 29.8818)" x="0.0000" y="-2.2500" width="0.1900" height="4.5000" ry="0.0000" fill="currentColor"/>
<rect transform="translate(90.5243, 29.8818)" x="0.0000" y="-2.2500" width="0.1900" height="4.5000" ry="0.0000" fill="currentColor"/>
<path transform="translate(111.9710, 28.3818) scale(0.0040, -0.0040)" d="M0 0c0 31 25 56 56 56s56 -25 56 -56s-25 -56 -56 -56s-56 25 -56 56z" fill="currentColor"/>
<path transform="translate(111.9710, 31.3818) scale(0.0040, -0.0040)" d="M0 0c0 31 25 56 56 56s56 -25 56 -56s-25 -56 -56 -56s-56 25 -56 56z" fill="currentColor"/>
<rect transform="translate(113.2110, 29.8818)" x="0.0000" y="-2.2500" width="0.6000" height="4.5000" ry="0.0000" fill="currentColor"/>
<rect transform="translate(112.7210, 29.8818)" x="0.0000" y="-2.2500" width="0.1900" height="4.5000" ry="0.0000" fill="currentColor"/>
<rect transform="translate(73.4736, 29.8818)" x="-0.0650" y="-4.5000" width="0.1300" height="2.8586" ry="0.0400" fill="currentColor"/>
<rect transform="translate(86.7394, 29.8818)" x="-0.0650" y="-4.5000" width="0.1300" height="4.3586" ry="0.0400" fill="currentColor"/>
<g color="rgb(100.0000%, 100.0000%, 100.0000%)">
<rect transform="translate(76.9081, 32.1318)" x="0.1229" y="-0.6603" width="1.2292" height="1.3207" ry="0.0000" fill="currentColor"/>
</g>
<text transform="translate(77.0310, 32.7674)" font-family="serif" font-weight="bold" font-size="1.7461" text-anchor="start" fill="currentColor">
<tspan>3</tspan>
</text>
<rect transform="translate(77.6456, 29.8818)" x="-0.0650" y="-4.5000" width="0.1300" height="5.8586" ry="0.0400" fill="currentColor"/>
<g color="rgb(100.0000%, 100.0000%, 100.0000%)">
<rect transform="translate(81.5800, 30.6318)" x="0.1229" y="-0.6603" width="1.2292" height="1.3207" ry="0.0000" fill="currentColor"/>
</g>
<text transform="translate(81.7029, 31.2674)" font-family="serif" font-weight="bold" font-size="1.7461" text-anchor="start" fill="currentColor">
<tspan>0</tspan>
</text>
<rect transform="translate(82.3175, 29.8818)" x="-0.0650" y="-4.5000" width="0.1300" height="4.3586" ry="0.0400" fill="currentColor"/>
<g color="rgb(100.0000%, 100.0000%, 100.0000%)">
<rect transform="translate(86.0019, 30.6318)" x="0.1229" y="-0.6603" width="1.2292" height="1.3207" ry="0.0000" fill="currentColor"/>
</g>
<text transform="translate(86.1249, 31.2674)" font-family="serif" font-weight="bold" font-size="1.7461" text-anchor="start" fill="currentColor">
<tspan>3</tspan>
</text>
<g color="rgb(100.0000%, 100.0000%, 100.0000%)">
<rect transform="translate(63.8923, 29.1318)" x="0.1229" y="-0.6603" width="1.2292" height="1.3207" ry="0.0000" fill="currentColor"/>
</g>
<text transform="translate(64.0152, 29.7674)" font-family="serif" font-weight="bold" font-size="1.7461" text-anchor="start" fill="currentColor">
<tspan>3</tspan>
</text>
<path transform="translate(11.4906, 29.8818)" stroke-width="0.0800" stroke-linejoin="round" stroke-linecap="round" stroke="currentColor" fill="currentColor" d="M0.7375 -3.6480C2.6710 -5.3473 7.6479 -5.3473 9.5814 -3.6480L9.5814 -3.6480C7.6479 -5.2273 2.6710 -5.2273 0.7375 -3.6480z"/>
<rect transform="translate(64.6298, 29.8818)" x="-0.0650" y="-4.5000" width="0.1300" height="2.8586" ry="0.0400" fill="currentColor"/>
<g color="rgb(100.0000%, 100.0000%, 100.0000%)">
<rect transform="translate(72.7361, 29.1318)" x="0.1229" y="-0.6603" width="1.2292" height="1.3207" ry="0.0000" fill="currentColor"/>
</g>
<text transform="translate(72.8590, 29.7674)" font-family="serif" font-weight="bold" font-size="1.7461" text-anchor="start" fill="currentColor">
<tspan>3</tspan>
</text>
<g color="rgb(100.0000%, 100.0000%, 100.0000%)">
<rect transform="translate(68.3142, 29.1318)" x="0.1229" y="-0.6480" width="1.2292" height="1.2959" ry="0.0000" fill="currentColor"/>
</g>
<text transform="translate(68.4371, 29.7797)" font-family="serif" font-weight="bold" font-size="1.7461" text-anchor="start" fill="currentColor">
<tspan>2</tspan>
</text>
<rect transform="translate(69.0517, 29.8818)" x="-0.0650" y="-4.5000" width="0.1300" height="2.8752" ry="0.0400" fill="currentColor"/>
<g color="rgb(100.0000%, 100.0000%, 100.0000%)">
<rect transform="translate(101.4094, 29.1318)" x="0.1229" y="-0.6480" width="1.2292" height="1.2959" ry="0.0000" fill="currentColor"/>
</g>
<text transform="translate(101.5323, 29.7797)" font-family="serif" font-weight="bold" font-size="1.7461" text-anchor="start" fill="currentColor">
<tspan>2</tspan>
</text>
<rect transform="translate(101.8969, 29.8818)" x="-0.0650" y="0.1248" width="0.1300" height="4.3752" ry="0.0400" fill="currentColor"/>
<rect transform="translate(102.3969, 29.8818)" x="-0.0650" y="0.1248" width="0.1300" height="4.3752" ry="0.0400" fill="currentColor"/>
<polygon transform="translate(92.9880, 34.5718)" stroke-linejoin="round" stroke-linecap="round" stroke-width="0.0800" fill="currentColor" stroke="currentColor" points="4.7619 -1.1400 4.7619 -0.7400 0.0400 0.2000 0.0400 -0.2000"/>
<path transform="translate(92.3155, 29.8818)" stroke-width="0.0800" stroke-linejoin="round" stroke-linecap="round" stroke="currentColor" fill="currentColor" d="M0.6113 -0.8730C1.4491 -2.3541 3.7364 -3.0945 5.2832 -2.3853L5.2832 -2.3853C3.7734 -2.9803 1.4861 -2.2399 0.6113 -0.8730z"/>
<polygon transform="translate(64.5648, 25.3818)" stroke-linejoin="round" stroke-linecap="round" stroke-width="0.0800" fill="currentColor" stroke="currentColor" points="22.1997 -0.2000 22.1997 0.2000 0.0400 0.2000 0.0400 -0.2000"/>
<path transform="translate(63.8923, 29.8818)" stroke-width="0.0800" stroke-linejoin="round" stroke-linecap="round" stroke="currentColor" fill="currentColor" d="M0.7375 0.8579C2.6710 2.4474 7.6479 2.4474 9.5814 0.8579L9.5814 0.8579C7.6479 2.3274 2.6710 2.3274 0.7375 0.8579z"/>
<polygon transform="translate(12.1630, 32.6918)" stroke-linejoin="round" stroke-linecap="round" stroke-width="0.0800" fill="currentColor" stroke="currentColor" points="21.6997 2.8000 21.6997 3.2000 0.0400 0.2000 0.0400 -0.2000"/>
<g color="rgb(100.0000%, 100.0000%, 100.0000%)">
<rect transform="translate(92.3155, 30.6318)" x="0.1229" y="-0.6480" width="1.2292" height="1.2959" ry="0.0000" fill="currentColor"/>
</g>
<text transform="translate(92.4384, 31.2797)" font-family="serif" font-weight="bold" font-size="1.7461" text-anchor="start" fill="currentColor">
<tspan>2</tspan>
</text>
<rect transform="translate(93.0530, 29.8818)" x="-0.0650" y="1.6248" width="0.1300" height="3.0525" ry="0.0400" fill="currentColor"/>
<g color="rgb(100.0000%, 100.0000%, 100.0000%)">
<rect transform="translate(96.9874, 29.1318)" x="0.1229" y="-0.6603" width="1.2292" height="1.3207" ry="0.0000" fill="currentColor"/>
</g>
<text transform="translate(97.1103, 29.7674)" font-family="serif" font-weight="bold" font-size="1.7461" text-anchor="start" fill="currentColor">
<tspan>3</tspan>
</text>
<rect transform="translate(97.7249, 29.8818)" x="-0.0650" y="0.1414" width="0.1300" height="3.6213" ry="0.0400" fill="currentColor"/>
<g color="rgb(100.0000%, 100.0000%, 100.0000%)">
<rect transform="translate(15.9125, 27.6318)" x="0.1229" y="-0.6603" width="1.2292" height="1.3207" ry="0.0000" fill="currentColor"/>
</g>
<text transform="translate(16.0354, 28.2674)" font-family="serif" font-weight="bold" font-size="1.7461" text-anchor="start" fill="currentColor">
<tspan>0</tspan>
</text>
<rect transform="translate(16.6500, 29.8818)" x="-0.0650" y="-1.3586" width="0.1300" height="4.7877" ry="0.0400" fill="currentColor"/>
<g color="rgb(100.0000%, 100.0000%, 100.0000%)">
<rect transform="translate(20.3344, 27.6318)" x="0.1229" y="-0.6480" width="1.2292" height="1.2959" ry="0.0000" fill="currentColor"/>
</g>
<text transform="translate(20.4573, 28.2797)" font-family="serif" font-weight="bold" font-size="1.7461" text-anchor="start" fill="currentColor">
<tspan>1</tspan>
</text>
<rect transform="translate(21.0719, 29.8818)" x="-0.0650" y="-1.3752" width="0.1300" height="5.4146" ry="0.0400" fill="currentColor"/>
<g color="rgb(100.0000%, 100.0000%, 100.0000%)">
<rect transform="translate(24.5064, 30.6318)" x="0.1229" y="-0.6480" width="1.2292" height="1.2959" ry="0.0000" fill="currentColor"/>
</g>
<text transform="translate(24.6293, 31.2797)" font-family="serif" font-weight="bold" font-size="1.7461" text-anchor="start" fill="currentColor">
<tspan>2</tspan>
</text>
<rect transform="translate(25.2439, 29.8818)" x="-0.0650" y="1.6248" width="0.1300" height="2.9903" ry="0.0400" fill="currentColor"/>
<g color="rgb(100.0000%, 100.0000%, 100.0000%)">
<rect transform="translate(28.9283, 30.6318)" x="0.1229" y="-0.6603" width="1.2292" height="1.3207" ry="0.0000" fill="currentColor"/>
</g>
<text transform="translate(29.0512, 31.2674)" font-family="serif" font-weight="bold" font-size="1.7461" text-anchor="start" fill="currentColor">
<tspan>3</tspan>
</text>
<rect transform="translate(29.6658, 29.8818)" x="-0.0650" y="1.6414" width="0.1300" height="3.5839" ry="0.0400" fill="currentColor"/>
<text transform="translate(4.5638, 26.5570)" font-family="serif" font-size="1.7461" text-anchor="start" fill="currentColor">
<tspan>5</tspan>
</text>
<path transform="translate(6.2906, 29.8818) scale(0.0040, -0.0040)" d="M267 -425c0 -24 -23 -27 -43 -27c-45 0 -84 31 -84 75c0 82 118 130 234 130c104 0 215 -22 215 -103c0 -51 -31 -86 -69 -110c58 -11 102 -36 102 -91c0 -90 -94 -158 -179 -158c-41 0 -80 15 -108 52c-2 2 -3 5 -3 8c0 12 16 25 28 25c4 0 8 -1 10 -4
c11 -15 27 -21 44 -21c43 0 95 40 95 93c0 46 -49 63 -100 63h-1c-6 0 -8 8 -8 16c0 11 5 24 18 24h1c36 0 68 39 68 77c0 45 -36 68 -80 76c-11 -62 -31 -173 -40 -220c-20 -102 -84 -202 -159 -202c-44 0 -68 34 -96 53c-3 2 -4 5 -4 9c0 11 12 26 24 26c3 0 5 0 7 -2
c20 -13 36 -35 65 -35c65 0 89 99 89 195v8c0 35 9 109 18 163c-39 -13 -70 -40 -70 -70c0 -15 8 -28 19 -34c4 -3 7 -9 7 -16zM301 -83c-43 -41 -114 -105 -173 -105c-33 0 -52 21 -78 32c-3 1 -5 5 -5 9c0 11 11 28 25 28c2 0 5 -1 7 -2c16 -7 30 -18 50 -18
c34 0 65 27 91 54c100 102 175 219 214 336c9 27 33 37 57 37c29 0 57 -15 57 -31c0 -2 -1 -4 -2 -6c-4 -116 -9 -233 -16 -350v-9c0 -16 3 -30 21 -30c16 0 35 13 53 19l2 1c5 0 9 -8 9 -17c0 -8 -3 -16 -12 -19c-29 -9 -54 -34 -87 -34c-32 0 -45 29 -53 58
c-16 61 -26 125 -31 191c-27 -35 -56 -68 -87 -101c11 -20 33 -33 64 -33c4 0 8 1 12 1c5 0 8 -7 8 -15c0 -25 -34 -29 -56 -29c-32 0 -56 12 -70 33zM288 540c0 -23 -23 -24 -42 -24c-49 0 -91 36 -91 84c0 95 125 120 232 120c49 0 119 -41 171 -41c38 0 77 15 110 41
c3 2 6 3 9 3c11 0 23 -11 23 -19c0 -2 -1 -3 -2 -4c-40 -45 -95 -71 -148 -71c-15 0 -31 2 -44 6c-9 -59 -26 -151 -35 -193c-22 -96 -88 -185 -163 -185c-52 0 -81 42 -115 64c-3 2 -4 5 -4 9c0 11 12 26 23 26c2 0 5 -1 7 -2c23 -15 43 -46 75 -46c56 0 82 77 85 150
c2 45 13 150 22 208c-12 3 -31 5 -32 5c-51 0 -113 -21 -113 -70c0 -18 10 -36 24 -43c5 -3 8 -10 8 -18z" fill="currentColor"/>
<g color="rgb(100.0000%, 100.0000%, 100.0000%)">
<rect transform="translate(11.4906, 27.6318)" x="0.1229" y="-0.6480" width="1.2292" height="1.2959" ry="0.0000" fill="currentColor"/>
</g>
<text transform="translate(11.6135, 28.2797)" font-family="serif" font-weight="bold" font-size="1.7461" text-anchor="start" fill="currentColor">
<tspan>1</tspan>
</text>
<rect transform="translate(12.2280, 29.8818)" x="-0.0650" y="-1.3752" width="0.1300" height="4.1942" ry="0.0400" fill="currentColor"/>
<g color="rgb(100.0000%, 100.0000%, 100.0000%)">
<rect transform="translate(39.3920, 29.1318)" x="0.1229" y="-0.6480" width="1.2292" height="1.2959" ry="0.0000" fill="currentColor"/>
</g>
<text transform="translate(39.5149, 29.7797)" font-family="serif" font-weight="bold" font-size="1.7461" text-anchor="start" fill="currentColor">
<tspan>1</tspan>
</text>
<rect transform="translate(47.8713, 29.8818)" x="-0.0650" y="-1.3586" width="0.1300" height="4.3586" ry="0.0400" fill="currentColor"/>
<rect transform="translate(40.1295, 29.8818)" x="-0.0650" y="0.1248" width="0.1300" height="4.3752" ry="0.0400" fill="currentColor"/>
<g color="rgb(100.0000%, 100.0000%, 100.0000%)">
<rect transform="translate(47.1338, 27.6318)" x="0.1229" y="-0.6603" width="1.2292" height="1.3207" ry="0.0000" fill="currentColor"/>
</g>
<text transform="translate(47.2567, 28.2674)" font-family="serif" font-weight="bold" font-size="1.7461" text-anchor="start" fill="currentColor">
<tspan>0</tspan>
</text>
<rect transform="translate(33.8377, 29.8818)" x="-0.0650" y="3.1414" width="0.1300" height="2.6596" ry="0.0400" fill="currentColor"/>
<g color="rgb(100.0000%, 100.0000%, 100.0000%)">
<rect transform="translate(54.5081, 30.6318)" x="0.1229" y="-0.6480" width="1.2292" height="1.2959" ry="0.0000" fill="currentColor"/>
</g>
<text transform="translate(54.6310, 31.2797)" font-family="serif" font-weight="bold" font-size="1.7461" text-anchor="start" fill="currentColor">
<tspan>2</tspan>
</text>
<rect transform="translate(55.2456, 29.8818)" x="-0.0650" y="-4.5000" width="0.1300" height="4.3752" ry="0.0400" fill="currentColor"/>
<g color="rgb(100.0000%, 100.0000%, 100.0000%)">
<rect transform="translate(33.1002, 32.1318)" x="0.1229" y="-0.6603" width="1.2292" height="1.3207" ry="0.0000" fill="currentColor"/>
</g>
<text transform="translate(33.2232, 32.7674)" font-family="serif" font-weight="bold" font-size="1.7461" text-anchor="start" fill="currentColor">
<tspan>0</tspan>
</text>
<line transform="translate(5.6906, 44.1318)" stroke-linejoin="round" stroke-linecap="round" stroke-width="0.1000" stroke="currentColor" x1="0.0500" y1="-0.0000" x2="108.0705" y2="-0.0000"/>
<line transform="translate(5.6906, 42.6318)" stroke-linejoin="round" stroke-linecap="round" stroke-width="0.1000" stroke="currentColor" x1="0.0500" y1="-0.0000" x2="108.0705" y2="-0.0000"/>
<line transform="translate(5.6906, 41.1318)" stroke-linejoin="round" stroke-linecap="round" stroke-width="0.1000" stroke="currentColor" x1="0.0500" y1="-0.0000" x2="108.0705" y2="-0.0000"/>
<line transform="translate(5.6906, 39.6318)" stroke-linejoin="round" stroke-linecap="round" stroke-width="0.1000" stroke="currentColor" x1="0.0500" y1="-0.0000" x2="108.0705" y2="-0.0000"/>
<rect transform="translate(113.6210, 41.8818)" x="0.0000" y="-2.2500" width="0.1900" height="4.5000" ry="0.0000" fill="currentColor"/>
<rect transform="translate(88.0889, 41.8818)" x="0.0000" y="-2.2500" width="0.1900" height="4.5000" ry="0.0000" fill="currentColor"/>
<rect transform="translate(61.8639, 41.8818)" x="0.0000" y="-2.2500" width="0.1900" height="4.5000" ry="0.0000" fill="currentColor"/>
<rect transform="translate(37.5063, 41.8818)" x="0.0000" y="-2.2500" width="0.1900" height="4.5000" ry="0.0000" fill="currentColor"/>
<path transform="translate(11.1806, 40.3818) scale(0.0040, -0.0040)" d="M0 0c0 31 25 56 56 56s56 -25 56 -56s-25 -56 -56 -56s-56 25 -56 56z" fill="currentColor"/>
<path transform="translate(11.1806, 43.3818) scale(0.0040, -0.0040)" d="M0 0c0 31 25 56 56 56s56 -25 56 -56s-25 -56 -56 -56s-56 25 -56 56z" fill="currentColor"/>
<rect transform="translate(10.6906, 41.8818)" x="0.0000" y="-2.2500" width="0.1900" height="4.5000" ry="0.0000" fill="currentColor"/>
<rect transform="translate(9.7906, 41.8818)" x="0.0000" y="-2.2500" width="0.6000" height="4.5000" ry="0.0000" fill="currentColor"/>
<g color="rgb(100.0000%, 100.0000%, 100.0000%)">
<rect transform="translate(80.1780, 39.6318)" x="0.1229" y="-0.6488" width="1.2292" height="1.2976" ry="0.0000" fill="currentColor"/>
</g>
<text transform="translate(80.3009, 40.2559)" font-family="serif" font-weight="bold" font-size="1.7461" text-anchor="start" fill="currentColor">
<tspan>5</tspan>
</text>
<rect transform="translate(80.9155, 41.8818)" x="-0.0650" y="-1.3741" width="0.1300" height="4.5546" ry="0.0400" fill="currentColor"/>
<g color="rgb(100.0000%, 100.0000%, 100.0000%)">
<rect transform="translate(84.2194, 39.6318)" x="0.1229" y="-0.6603" width="1.2292" height="1.3207" ry="0.0000" fill="currentColor"/>
</g>
<text transform="translate(84.3423, 40.2674)" font-family="serif" font-weight="bold" font-size="1.7461" text-anchor="start" fill="currentColor">
<tspan>3</tspan>
</text>
<rect transform="translate(84.9569, 41.8818)" x="-0.0650" y="-1.3586" width="0.1300" height="4.1744" ry="0.0400" fill="currentColor"/>
<rect transform="translate(76.8741, 41.8818)" x="-0.0650" y="-1.3752" width="0.1300" height="4.9204" ry="0.0400" fill="currentColor"/>
<g color="rgb(100.0000%, 100.0000%, 100.0000%)">
<rect transform="translate(89.9017, 39.6318)" x="0.1229" y="-0.6480" width="1.2292" height="1.2959" ry="0.0000" fill="currentColor"/>
</g>
<text transform="translate(90.0246, 40.2797)" font-family="serif" font-weight="bold" font-size="1.7461" text-anchor="start" fill="currentColor">
<tspan>1</tspan>
</text>
<rect transform="translate(90.6392, 41.8818)" x="-0.0650" y="-1.3752" width="0.1300" height="4.1902" ry="0.0400" fill="currentColor"/>
<rect transform="translate(68.5413, 41.8818)" x="-0.0650" y="0.1414" width="0.1300" height="4.1555" ry="0.0400" fill="currentColor"/>
<g color="rgb(100.0000%, 100.0000%, 100.0000%)">
<rect transform="translate(67.8038, 41.1318)" x="0.1229" y="-0.6603" width="1.2292" height="1.3207" ry="0.0000" fill="currentColor"/>
</g>
<text transform="translate(67.9267, 41.7674)" font-family="serif" font-weight="bold" font-size="1.7461" text-anchor="start" fill="currentColor">
<tspan>0</tspan>
</text>
<g color="rgb(100.0000%, 100.0000%, 100.0000%)">
<rect transform="translate(71.8452, 41.1318)" x="0.1229" y="-0.6603" width="1.2292" height="1.3207" ry="0.0000" fill="currentColor"/>
</g>
<text transform="translate(71.9681, 41.7674)" font-family="serif" font-weight="bold" font-size="1.7461" text-anchor="start" fill="currentColor">
<tspan>3</tspan>
</text>
<rect transform="translate(72.5827, 41.8818)" x="-0.0650" y="0.1414" width="0.1300" height="3.7909" ry="0.0400" fill="currentColor"/>
<g color="rgb(100.0000%, 100.0000%, 100.0000%)">
<rect transform="translate(76.1366, 39.6318)" x="0.1229" y="-0.6480" width="1.2292" height="1.2959" ry="0.0000" fill="currentColor"/>
</g>
<text transform="translate(76.2595, 40.2797)" font-family="serif" font-weight="bold" font-size="1.7461" text-anchor="start" fill="currentColor">
<tspan>1</tspan>
</text>
<g color="rgb(100.0000%, 100.0000%, 100.0000%)">
<rect transform="translate(109.6086, 42.6318)" x="0.1229" y="-0.6603" width="1.2292" height="1.3207" ry="0.0000" fill="currentColor"/>
</g>
<text transform="translate(109.7315, 43.2674)" font-family="serif" font-weight="bold" font-size="1.7461" text-anchor="start" fill="currentColor">
<tspan>3</tspan>
</text>
<rect transform="translate(110.3461, 41.8818)" x="-0.0650" y="1.6414" width="0.1300" height="2.6636" ry="0.0400" fill="currentColor"/>
<polygon transform="translate(90.5742, 44.6918)" stroke-linejoin="round" stroke-linecap="round" stroke-width="0.0800" fill="currentColor" stroke="currentColor" points="19.7969 1.3000 19.7969 1.7000 0.0400 0.2000 0.0400 -0.2000"/>
<path transform="translate(89.9017, 41.8818)" stroke-width="0.0800" stroke-linejoin="round" stroke-linecap="round" stroke="currentColor" fill="currentColor" d="M0.7371 -3.6480C3.1027 -5.6365 10.4915 -5.6441 12.8612 -3.6603L12.8612 -3.6603C10.4917 -5.5241 3.1029 -5.5165 0.7371 -3.6480z"/>
<polygon transform="translate(64.1849, 46.5718)" stroke-linejoin="round" stroke-linecap="round" stroke-width="0.0800" fill="currentColor" stroke="currentColor" points="20.7969 -2.0800 20.7969 -1.6800 0.0400 0.2000 0.0400 -0.2000"/>
<path transform="translate(63.5124, 41.8818)" stroke-width="0.0800" stroke-linejoin="round" stroke-linecap="round" stroke="currentColor" fill="currentColor" d="M0.6649 -0.8853C2.2183 -2.8496 6.8568 -3.6846 8.9977 -2.3853L8.9977 -2.3853C6.8780 -3.5665 2.2396 -2.7315 0.6649 -0.8853z"/>
<polygon transform="translate(39.9906, 44.1318)" stroke-linejoin="round" stroke-linecap="round" stroke-width="0.0800" fill="currentColor" stroke="currentColor" points="12.2142 -0.2000 12.2142 0.2000 0.0400 0.2000 0.0400 -0.2000"/>
<path transform="translate(39.3181, 41.8818)" stroke-width="0.0800" stroke-linejoin="round" stroke-linecap="round" stroke="currentColor" fill="currentColor" d="M0.7379 -3.6603C3.1076 -5.6441 10.4964 -5.6365 12.8621 -3.6480L12.8621 -3.6480C10.4963 -5.5165 3.1075 -5.5241 0.7379 -3.6603z"/>
<polygon transform="translate(13.6031, 46.3818)" stroke-linejoin="round" stroke-linecap="round" stroke-width="0.0800" fill="currentColor" stroke="currentColor" points="20.7969 -1.8900 20.7969 -1.4900 0.0400 0.2000 0.0400 -0.2000"/>
<path transform="translate(12.9306, 41.8818)" stroke-width="0.0800" stroke-linejoin="round" stroke-linecap="round" stroke="currentColor" fill="currentColor" d="M0.6109 -0.8730C1.9444 -3.1127 6.7988 -4.6892 9.1937 -3.6603L9.1937 -3.6603C6.8358 -4.5751 1.9814 -2.9986 0.6109 -0.8730z"/>
<g color="rgb(100.0000%, 100.0000%, 100.0000%)">
<rect transform="translate(93.9431, 39.6318)" x="0.1229" y="-0.6603" width="1.2292" height="1.3207" ry="0.0000" fill="currentColor"/>
</g>
<text transform="translate(94.0660, 40.2674)" font-family="serif" font-weight="bold" font-size="1.7461" text-anchor="start" fill="currentColor">
<tspan>0</tspan>
</text>
<rect transform="translate(94.6806, 41.8818)" x="-0.0650" y="-1.3586" width="0.1300" height="4.4791" ry="0.0400" fill="currentColor"/>
<g color="rgb(100.0000%, 100.0000%, 100.0000%)">
<rect transform="translate(97.7345, 41.1318)" x="0.1229" y="-0.6603" width="1.2292" height="1.3207" ry="0.0000" fill="currentColor"/>
</g>
<text transform="translate(97.8574, 41.7674)" font-family="serif" font-weight="bold" font-size="1.7461" text-anchor="start" fill="currentColor">
<tspan>3</tspan>
</text>
<rect transform="translate(98.4720, 41.8818)" x="-0.0650" y="0.1414" width="0.1300" height="3.2658" ry="0.0400" fill="currentColor"/>
<g color="rgb(100.0000%, 100.0000%, 100.0000%)">
<rect transform="translate(102.0258, 39.6318)" x="0.1229" y="-0.6603" width="1.2292" height="1.3207" ry="0.0000" fill="currentColor"/>
</g>
<text transform="translate(102.1488, 40.2674)" font-family="serif" font-weight="bold" font-size="1.7461" text-anchor="start" fill="currentColor">
<tspan>0</tspan>
</text>
<rect transform="translate(102.7633, 41.8818)" x="-0.0650" y="-1.3586" width="0.1300" height="5.0903" ry="0.0400" fill="currentColor"/>
<g color="rgb(100.0000%, 100.0000%, 100.0000%)">
<rect transform="translate(105.8172, 41.1318)" x="0.1229" y="-0.6480" width="1.2292" height="1.2959" ry="0.0000" fill="currentColor"/>
</g>
<text transform="translate(105.9401, 41.7797)" font-family="serif" font-weight="bold" font-size="1.7461" text-anchor="start" fill="currentColor">
<tspan>1</tspan>
</text>
<rect transform="translate(106.5547, 41.8818)" x="-0.0650" y="0.1248" width="0.1300" height="3.8936" ry="0.0400" fill="currentColor"/>
<g color="rgb(100.0000%, 100.0000%, 100.0000%)">
<rect transform="translate(25.5547, 39.6318)" x="0.1229" y="-0.6603" width="1.2292" height="1.3207" ry="0.0000" fill="currentColor"/>
</g>
<text transform="translate(25.6776, 40.2674)" font-family="serif" font-weight="bold" font-size="1.7461" text-anchor="start" fill="currentColor">
<tspan>3</tspan>
</text>
<rect transform="translate(26.2922, 41.8818)" x="-0.0650" y="-1.3586" width="0.1300" height="4.8294" ry="0.0400" fill="currentColor"/>
<g color="rgb(100.0000%, 100.0000%, 100.0000%)">
<rect transform="translate(29.5961, 39.6318)" x="0.1229" y="-0.6603" width="1.2292" height="1.3207" ry="0.0000" fill="currentColor"/>
</g>
<text transform="translate(29.7190, 40.2674)" font-family="serif" font-weight="bold" font-size="1.7461" text-anchor="start" fill="currentColor">
<tspan>6</tspan>
</text>
<rect transform="translate(30.3336, 41.8818)" x="-0.0650" y="-1.3586" width="0.1300" height="4.5016" ry="0.0400" fill="currentColor"/>
<g color="rgb(100.0000%, 100.0000%, 100.0000%)">
<rect transform="translate(33.6375, 39.6318)" x="0.1229" y="-0.6488" width="1.2292" height="1.2976" ry="0.0000" fill="currentColor"/>
</g>
<text transform="translate(33.7604, 40.2559)" font-family="serif" font-weight="bold" font-size="1.7461" text-anchor="start" fill="currentColor">
<tspan>5</tspan>
</text>
<rect transform="translate(34.3750, 41.8818)" x="-0.0650" y="-1.3741" width="0.1300" height="4.1894" ry="0.0400" fill="currentColor"/>
<g color="rgb(100.0000%, 100.0000%, 100.0000%)">
<rect transform="translate(39.3181, 39.6318)" x="0.1229" y="-0.6603" width="1.2292" height="1.3207" ry="0.0000" fill="currentColor"/>
</g>
<text transform="translate(39.4410, 40.2674)" font-family="serif" font-weight="bold" font-size="1.7461" text-anchor="start" fill="currentColor">
<tspan>3</tspan>
</text>
<rect transform="translate(40.0556, 41.8818)" x="-0.0650" y="-1.3586" width="0.1300" height="3.6086" ry="0.0400" fill="currentColor"/>
<text transform="translate(4.5638, 38.5571)" font-family="serif" font-size="1.7461" text-anchor="start" fill="currentColor">
<tspan>9</tspan>
</text>
<path transform="translate(6.2906, 41.8818) scale(0.0040, -0.0040)" d="M267 -425c0 -24 -23 -27 -43 -27c-45 0 -84 31 -84 75c0 82 118 130 234 130c104 0 215 -22 215 -103c0 -51 -31 -86 -69 -110c58 -11 102 -36 102 -91c0 -90 -94 -158 -179 -158c-41 0 -80 15 -108 52c-2 2 -3 5 -3 8c0 12 16 25 28 25c4 0 8 -1 10 -4
c11 -15 27 -21 44 -21c43 0 95 40 95 93c0 46 -49 63 -100 63h-1c-6 0 -8 8 -8 16c0 11 5 24 18 24h1c36 0 68 39 68 77c0 45 -36 68 -80 76c-11 -62 -31 -173 -40 -220c-20 -102 -84 -202 -159 -202c-44 0 -68 34 -96 53c-3 2 -4 5 -4 9c0 11 12 26 24 26c3 0 5 0 7 -2
c20 -13 36 -35 65 -35c65 0 89 99 89 195v8c0 35 9 109 18 163c-39 -13 -70 -40 -70 -70c0 -15 8 -28 19 -34c4 -3 7 -9 7 -16zM301 -83c-43 -41 -114 -105 -173 -105c-33 0 -52 21 -78 32c-3 1 -5 5 -5 9c0 11 11 28 25 28c2 0 5 -1 7 -2c16 -7 30 -18 50 -18
c34 0 65 27 91 54c100 102 175 219 214 336c9 27 33 37 57 37c29 0 57 -15 57 -31c0 -2 -1 -4 -2 -6c-4 -116 -9 -233 -16 -350v-9c0 -16 3 -30 21 -30c16 0 35 13 53 19l2 1c5 0 9 -8 9 -17c0 -8 -3 -16 -12 -19c-29 -9 -54 -34 -87 -34c-32 0 -45 29 -53 58
c-16 61 -26 125 -31 191c-27 -35 -56 -68 -87 -101c11 -20 33 -33 64 -33c4 0 8 1 12 1c5 0 8 -7 8 -15c0 -25 -34 -29 -56 -29c-32 0 -56 12 -70 33zM288 540c0 -23 -23 -24 -42 -24c-49 0 -91 36 -91 84c0 95 125 120 232 120c49 0 119 -41 171 -41c38 0 77 15 110 41
c3 2 6 3 9 3c11 0 23 -11 23 -19c0 -2 -1 -3 -2 -4c-40 -45 -95 -71 -148 -71c-15 0 -31 2 -44 6c-9 -59 -26 -151 -35 -193c-22 -96 -88 -185 -163 -185c-52 0 -81 42 -115 64c-3 2 -4 5 -4 9c0 11 12 26 23 26c2 0 5 -1 7 -2c23 -15 43 -46 75 -46c56 0 82 77 85 150
c2 45 13 150 22 208c-12 3 -31 5 -32 5c-51 0 -113 -21 -113 -70c0 -18 10 -36 24 -43c5 -3 8 -10 8 -18z" fill="currentColor"/>
<g color="rgb(100.0000%, 100.0000%, 100.0000%)">
<rect transform="translate(12.9306, 42.6318)" x="0.1229" y="-0.6480" width="1.2292" height="1.2959" ry="0.0000" fill="currentColor"/>
</g>
<text transform="translate(13.0535, 43.2797)" font-family="serif" font-weight="bold" font-size="1.7461" text-anchor="start" fill="currentColor">
<tspan>2</tspan>
</text>
<rect transform="translate(13.6681, 41.8818)" x="-0.0650" y="1.6248" width="0.1300" height="2.8700" ry="0.0400" fill="currentColor"/>
<g color="rgb(100.0000%, 100.0000%, 100.0000%)">
<rect transform="translate(17.2219, 41.1318)" x="0.1229" y="-0.6480" width="1.2292" height="1.2959" ry="0.0000" fill="currentColor"/>
</g>
<text transform="translate(17.3449, 41.7797)" font-family="serif" font-weight="bold" font-size="1.7461" text-anchor="start" fill="currentColor">
<tspan>2</tspan>
</text>
<rect transform="translate(17.9594, 41.8818)" x="-0.0650" y="0.1248" width="0.1300" height="4.0219" ry="0.0400" fill="currentColor"/>
<g color="rgb(100.0000%, 100.0000%, 100.0000%)">
<rect transform="translate(21.5133, 39.6318)" x="0.1229" y="-0.6603" width="1.2292" height="1.3207" ry="0.0000" fill="currentColor"/>
</g>
<text transform="translate(21.6362, 40.2674)" font-family="serif" font-weight="bold" font-size="1.7461" text-anchor="start" fill="currentColor">
<tspan>0</tspan>
</text>
<rect transform="translate(22.2508, 41.8818)" x="-0.0650" y="-1.3586" width="0.1300" height="5.1572" ry="0.0400" fill="currentColor"/>
<g color="rgb(100.0000%, 100.0000%, 100.0000%)">
<rect transform="translate(47.4009, 39.6318)" x="0.1229" y="-0.6603" width="1.2292" height="1.3207" ry="0.0000" fill="currentColor"/>
</g>
<text transform="translate(47.5238, 40.2674)" font-family="serif" font-weight="bold" font-size="1.7461" text-anchor="start" fill="currentColor">
<tspan>0</tspan>
</text>
<g color="rgb(100.0000%, 100.0000%, 100.0000%)">
<rect transform="translate(51.4423, 39.6318)" x="0.1229" y="-0.6480" width="1.2292" height="1.2959" ry="0.0000" fill="currentColor"/>
</g>
<text transform="translate(51.5652, 40.2797)" font-family="serif" font-weight="bold" font-size="1.7461" text-anchor="start" fill="currentColor">
<tspan>1</tspan>
</text>
<rect transform="translate(52.1798, 41.8818)" x="-0.0650" y="-1.3752" width="0.1300" height="3.6252" ry="0.0400" fill="currentColor"/>
<rect transform="translate(48.1384, 41.8818)" x="-0.0650" y="-1.3586" width="0.1300" height="3.6086" ry="0.0400" fill="currentColor"/>
<g color="rgb(100.0000%, 100.0000%, 100.0000%)">
<rect transform="translate(55.2337, 41.1318)" x="0.1229" y="-0.6603" width="1.2292" height="1.3207" ry="0.0000" fill="currentColor"/>
</g>
<text transform="translate(55.3566, 41.7674)" font-family="serif" font-weight="bold" font-size="1.7461" text-anchor="start" fill="currentColor">
<tspan>3</tspan>
</text>
<rect transform="translate(55.9712, 41.8818)" x="-0.0650" y="0.1414" width="0.1300" height="4.3586" ry="0.0400" fill="currentColor"/>
<g color="rgb(100.0000%, 100.0000%, 100.0000%)">
<rect transform="translate(63.5124, 42.6318)" x="0.1229" y="-0.6603" width="1.2292" height="1.3207" ry="0.0000" fill="currentColor"/>
</g>
<text transform="translate(63.6354, 43.2674)" font-family="serif" font-weight="bold" font-size="1.7461" text-anchor="start" fill="currentColor">
<tspan>0</tspan>
</text>
<rect transform="translate(64.2499, 41.8818)" x="-0.0650" y="1.6414" width="0.1300" height="3.0427" ry="0.0400" fill="currentColor"/>
<rect transform="translate(44.0970, 41.8818)" x="-0.0650" y="-1.3752" width="0.1300" height="3.6252" ry="0.0400" fill="currentColor"/>
<g color="rgb(100.0000%, 100.0000%, 100.0000%)">
<rect transform="translate(43.3595, 39.6318)" x="0.1229" y="-0.6480" width="1.2292" height="1.2959" ry="0.0000" fill="currentColor"/>
</g>
<text transform="translate(43.4824, 40.2797)" font-family="serif" font-weight="bold" font-size="1.7461" text-anchor="start" fill="currentColor">
<tspan>1</tspan>
</text>
<line transform="translate(5.6906, 56.1318)" stroke-linejoin="round" stroke-linecap="round" stroke-width="0.1000" stroke="currentColor" x1="0.0500" y1="-0.0000" x2="108.0705" y2="-0.0000"/>
<line transform="translate(5.6906, 54.6318)" stroke-linejoin="round" stroke-linecap="round" stroke-width="0.1000" stroke="currentColor" x1="0.0500" y1="-0.0000" x2="108.0705" y2="-0.0000"/>
<line transform="translate(5.6906, 53.1318)" stroke-linejoin="round" stroke-linecap="round" stroke-width="0.1000" stroke="currentColor" x1="0.0500" y1="-0.0000" x2="108.0705" y2="-0.0000"/>
<line transform="translate(5.6906, 51.6318)" stroke-linejoin="round" stroke-linecap="round" stroke-width="0.1000" stroke="currentColor" x1="0.0500" y1="-0.0000" x2="108.0705" y2="-0.0000"/>
<rect transform="translate(36.2065, 53.8818)" x="0.0000" y="-2.2500" width="0.1900" height="4.5000" ry="0.0000" fill="currentColor"/>
<rect transform="translate(62.6936, 53.8818)" x="0.0000" y="-2.2500" width="0.1900" height="4.5000" ry="0.0000" fill="currentColor"/>
<rect transform="translate(113.6210, 53.8818)" x="0.0000" y="-2.2500" width="0.1900" height="4.5000" ry="0.0000" fill="currentColor"/>
<rect transform="translate(88.8448, 53.8818)" x="0.0000" y="-2.2500" width="0.1900" height="4.5000" ry="0.0000" fill="currentColor"/>
<g color="rgb(100.0000%, 100.0000%, 100.0000%)">
<rect transform="translate(72.6861, 51.6318)" x="0.1229" y="-0.6488" width="1.2292" height="1.2976" ry="0.0000" fill="currentColor"/>
</g>
<text transform="translate(72.8091, 52.2559)" font-family="serif" font-weight="bold" font-size="1.7461" text-anchor="start" fill="currentColor">
<tspan>5</tspan>
</text>
<rect transform="translate(73.4236, 53.8818)" x="-0.0650" y="-1.3741" width="0.1300" height="4.1841" ry="0.0400" fill="currentColor"/>
<g color="rgb(100.0000%, 100.0000%, 100.0000%)">
<rect transform="translate(76.7688, 51.6318)" x="0.1229" y="-0.6480" width="1.2292" height="1.2959" ry="0.0000" fill="currentColor"/>
</g>
<text transform="translate(76.8917, 52.2797)" font-family="serif" font-weight="bold" font-size="1.7461" text-anchor="start" fill="currentColor">
<tspan>1</tspan>
</text>
<rect transform="translate(77.5063, 53.8818)" x="-0.0650" y="-1.3752" width="0.1300" height="4.1852" ry="0.0400" fill="currentColor"/>
<rect transform="translate(59.5211, 53.8818)" x="-0.0650" y="-1.3741" width="0.1300" height="4.1893" ry="0.0400" fill="currentColor"/>
<g color="rgb(100.0000%, 100.0000%, 100.0000%)">
<rect transform="translate(80.6014, 53.1318)" x="0.1229" y="-0.6480" width="1.2292" height="1.2959" ry="0.0000" fill="currentColor"/>
</g>
<text transform="translate(80.7243, 53.7797)" font-family="serif" font-weight="bold" font-size="1.7461" text-anchor="start" fill="currentColor">
<tspan>1</tspan>
</text>
<rect transform="translate(81.3389, 53.8818)" x="-0.0650" y="0.1248" width="0.1300" height="2.6852" ry="0.0400" fill="currentColor"/>
<g color="rgb(100.0000%, 100.0000%, 100.0000%)">
<rect transform="translate(84.9340, 51.6318)" x="0.1229" y="-0.6603" width="1.2292" height="1.3207" ry="0.0000" fill="currentColor"/>
</g>
<text transform="translate(85.0569, 52.2674)" font-family="serif" font-weight="bold" font-size="1.7461" text-anchor="start" fill="currentColor">
<tspan>0</tspan>
</text>
<rect transform="translate(85.6715, 53.8818)" x="-0.0650" y="-1.3586" width="0.1300" height="4.1686" ry="0.0400" fill="currentColor"/>
<path transform="translate(20.1558, 53.8818)" stroke-width="0.0800" stroke-linejoin="round" stroke-linecap="round" stroke="currentColor" fill="currentColor" d="M0.7375 -3.6480C2.5679 -5.2715 7.0723 -5.2715 8.9027 -3.6480L8.9027 -3.6480C7.0723 -5.1515 2.5679 -5.1515 0.7375 -3.6480z"/>
<g color="rgb(100.0000%, 100.0000%, 100.0000%)">
<rect transform="translate(64.5209, 51.6318)" x="0.1229" y="-0.6603" width="1.2292" height="1.3207" ry="0.0000" fill="currentColor"/>
</g>
<text transform="translate(64.6438, 52.2674)" font-family="serif" font-weight="bold" font-size="1.7461" text-anchor="start" fill="currentColor">
<tspan>3</tspan>
</text>
<rect transform="translate(65.2584, 53.8818)" x="-0.0650" y="-1.3586" width="0.1300" height="4.1686" ry="0.0400" fill="currentColor"/>
<g color="rgb(100.0000%, 100.0000%, 100.0000%)">
<rect transform="translate(68.6035, 51.6318)" x="0.1229" y="-0.6603" width="1.2292" height="1.3207" ry="0.0000" fill="currentColor"/>
</g>
<text transform="translate(68.7264, 52.2674)" font-family="serif" font-weight="bold" font-size="1.7461" text-anchor="start" fill="currentColor">
<tspan>6</tspan>
</text>
<rect transform="translate(69.3410, 53.8818)" x="-0.0650" y="-1.3586" width="0.1300" height="4.1686" ry="0.0400" fill="currentColor"/>
<g color="rgb(100.0000%, 100.0000%, 100.0000%)">
<rect transform="translate(102.6709, 53.1318)" x="0.1229" y="-0.6480" width="1.2292" height="1.2959" ry="0.0000" fill="currentColor"/>
</g>
<text transform="translate(102.7938, 53.7797)" font-family="serif" font-weight="bold" font-size="1.7461" text-anchor="start" fill="currentColor">
<tspan>1</tspan>
</text>
<rect transform="translate(103.4084, 53.8818)" x="-0.0650" y="0.1248" width="0.1300" height="4.3712" ry="0.0400" fill="currentColor"/>
<g color="rgb(100.0000%, 100.0000%, 100.0000%)">
<rect transform="translate(106.6360, 56.1318)" x="0.1229" y="-0.6603" width="1.2292" height="1.3207" ry="0.0000" fill="currentColor"/>
</g>
<text transform="translate(106.7589, 56.7674)" font-family="serif" font-weight="bold" font-size="1.7461" text-anchor="start" fill="currentColor">
<tspan>3</tspan>
</text>
<rect transform="translate(107.3735, 53.8818)" x="-0.0650" y="-3.0000" width="0.1300" height="4.3586" ry="0.0400" fill="currentColor"/>
<polygon transform="translate(91.3455, 57.6318)" stroke-linejoin="round" stroke-linecap="round" stroke-width="0.0800" fill="currentColor" stroke="currentColor" points="12.0879 0.5500 12.0879 0.9500 0.0400 0.2000 0.0400 -0.2000"/>
<polygon transform="translate(65.1934, 56.6918)" stroke-linejoin="round" stroke-linecap="round" stroke-width="0.0800" fill="currentColor" stroke="currentColor" points="20.5031 -0.2000 20.5031 0.2000 0.0400 0.2000 0.0400 -0.2000"/>
<polygon transform="translate(38.5430, 58.3818)" stroke-linejoin="round" stroke-linecap="round" stroke-width="0.0800" fill="currentColor" stroke="currentColor" points="21.0031 -1.8900 21.0031 -1.4900 0.0400 0.2000 0.0400 -0.2000"/>
<path transform="translate(46.5357, 53.8818)" stroke-width="0.0800" stroke-linejoin="round" stroke-linecap="round" stroke="currentColor" fill="currentColor" d="M0.7375 -3.6480C2.5679 -5.2715 7.0723 -5.2715 8.9027 -3.6480L8.9027 -3.6480C7.0723 -5.1515 2.5679 -5.1515 0.7375 -3.6480z"/>
<polygon transform="translate(12.1630, 58.1918)" stroke-linejoin="round" stroke-linecap="round" stroke-width="0.0800" fill="currentColor" stroke="currentColor" points="20.7531 -0.2000 20.7531 0.2000 0.0400 0.2000 0.0400 -0.2000"/>
<g color="rgb(100.0000%, 100.0000%, 100.0000%)">
<rect transform="translate(90.6730, 51.6318)" x="0.1229" y="-0.6480" width="1.2292" height="1.2959" ry="0.0000" fill="currentColor"/>
</g>
<text transform="translate(90.7960, 52.2797)" font-family="serif" font-weight="bold" font-size="1.7461" text-anchor="start" fill="currentColor">
<tspan>1</tspan>
</text>
<rect transform="translate(91.4105, 53.8818)" x="-0.0650" y="-1.3752" width="0.1300" height="5.1293" ry="0.0400" fill="currentColor"/>
<g color="rgb(100.0000%, 100.0000%, 100.0000%)">
<rect transform="translate(94.5057, 53.1318)" x="0.1229" y="-0.6480" width="1.2292" height="1.2959" ry="0.0000" fill="currentColor"/>
</g>
<text transform="translate(94.6286, 53.7797)" font-family="serif" font-weight="bold" font-size="1.7461" text-anchor="start" fill="currentColor">
<tspan>1</tspan>
</text>
<rect transform="translate(95.2432, 53.8818)" x="-0.0650" y="0.1248" width="0.1300" height="3.8663" ry="0.0400" fill="currentColor"/>
<g color="rgb(100.0000%, 100.0000%, 100.0000%)">
<rect transform="translate(98.3383, 54.6318)" x="0.1229" y="-0.6480" width="1.2292" height="1.2959" ry="0.0000" fill="currentColor"/>
</g>
<text transform="translate(98.4612, 55.2797)" font-family="serif" font-weight="bold" font-size="1.7461" text-anchor="start" fill="currentColor">
<tspan>2</tspan>
</text>
<rect transform="translate(99.0758, 53.8818)" x="-0.0650" y="1.6248" width="0.1300" height="2.6033" ry="0.0400" fill="currentColor"/>
<rect transform="translate(32.8911, 53.8818)" x="-0.0650" y="1.6248" width="0.1300" height="2.6852" ry="0.0400" fill="currentColor"/>
<g color="rgb(100.0000%, 100.0000%, 100.0000%)">
<rect transform="translate(28.3210, 51.6318)" x="0.1229" y="-0.6480" width="1.2292" height="1.2959" ry="0.0000" fill="currentColor"/>
</g>
<text transform="translate(28.4439, 52.2797)" font-family="serif" font-weight="bold" font-size="1.7461" text-anchor="start" fill="currentColor">
<tspan>1</tspan>
</text>
<rect transform="translate(29.0585, 53.8818)" x="-0.0650" y="-1.3752" width="0.1300" height="5.6852" ry="0.0400" fill="currentColor"/>
<g color="rgb(100.0000%, 100.0000%, 100.0000%)">
<rect transform="translate(32.1537, 54.6318)" x="0.1229" y="-0.6480" width="1.2292" height="1.2959" ry="0.0000" fill="currentColor"/>
</g>
<text transform="translate(32.2766, 55.2797)" font-family="serif" font-weight="bold" font-size="1.7461" text-anchor="start" fill="currentColor">
<tspan>2</tspan>
</text>
<g color="rgb(100.0000%, 100.0000%, 100.0000%)">
<rect transform="translate(58.7836, 51.6318)" x="0.1229" y="-0.6488" width="1.2292" height="1.2976" ry="0.0000" fill="currentColor"/>
</g>
<text transform="translate(58.9065, 52.2559)" font-family="serif" font-weight="bold" font-size="1.7461" text-anchor="start" fill="currentColor">
<tspan>5</tspan>
</text>
<g color="rgb(100.0000%, 100.0000%, 100.0000%)">
<rect transform="translate(37.8705, 54.6318)" x="0.1229" y="-0.6603" width="1.2292" height="1.3207" ry="0.0000" fill="currentColor"/>
</g>
<text transform="translate(37.9934, 55.2674)" font-family="serif" font-weight="bold" font-size="1.7461" text-anchor="start" fill="currentColor">
<tspan>3</tspan>
</text>
<rect transform="translate(12.2280, 53.8818)" x="-0.0650" y="1.6248" width="0.1300" height="2.6852" ry="0.0400" fill="currentColor"/>
<g color="rgb(100.0000%, 100.0000%, 100.0000%)">
<rect transform="translate(15.8232, 53.1318)" x="0.1229" y="-0.6480" width="1.2292" height="1.2959" ry="0.0000" fill="currentColor"/>
</g>
<text transform="translate(15.9461, 53.7797)" font-family="serif" font-weight="bold" font-size="1.7461" text-anchor="start" fill="currentColor">
<tspan>1</tspan>
</text>
<rect transform="translate(16.5607, 53.8818)" x="-0.0650" y="0.1248" width="0.1300" height="4.1852" ry="0.0400" fill="currentColor"/>
<g color="rgb(100.0000%, 100.0000%, 100.0000%)">
<rect transform="translate(20.1558, 51.6318)" x="0.1229" y="-0.6480" width="1.2292" height="1.2959" ry="0.0000" fill="currentColor"/>
</g>
<text transform="translate(20.2787, 52.2797)" font-family="serif" font-weight="bold" font-size="1.7461" text-anchor="start" fill="currentColor">
<tspan>1</tspan>
</text>
<rect transform="translate(38.6080, 53.8818)" x="-0.0650" y="1.6414" width="0.1300" height="2.8533" ry="0.0400" fill="currentColor"/>
<rect transform="translate(20.8933, 53.8818)" x="-0.0650" y="-1.3752" width="0.1300" height="5.6852" ry="0.0400" fill="currentColor"/>
<g color="rgb(100.0000%, 100.0000%, 100.0000%)">
<rect transform="translate(11.4906, 54.6318)" x="0.1229" y="-0.6480" width="1.2292" height="1.2959" ry="0.0000" fill="currentColor"/>
</g>
<text transform="translate(11.6135, 55.2797)" font-family="serif" font-weight="bold" font-size="1.7461" text-anchor="start" fill="currentColor">
<tspan>2</tspan>
</text>
<g color="rgb(100.0000%, 100.0000%, 100.0000%)">
<rect transform="translate(24.2384, 51.6318)" x="0.1229" y="-0.6603" width="1.2292" height="1.3207" ry="0.0000" fill="currentColor"/>
</g>
<text transform="translate(24.3613, 52.2674)" font-family="serif" font-weight="bold" font-size="1.7461" text-anchor="start" fill="currentColor">
<tspan>0</tspan>
</text>
<rect transform="translate(24.9759, 53.8818)" x="-0.0650" y="-1.3586" width="0.1300" height="5.6686" ry="0.0400" fill="currentColor"/>
<rect transform="translate(47.2732, 53.8818)" x="-0.0650" y="-1.3752" width="0.1300" height="5.1741" ry="0.0400" fill="currentColor"/>
<g color="rgb(100.0000%, 100.0000%, 100.0000%)">
<rect transform="translate(50.6183, 51.6318)" x="0.1229" y="-0.6603" width="1.2292" height="1.3207" ry="0.0000" fill="currentColor"/>
</g>
<text transform="translate(50.7412, 52.2674)" font-family="serif" font-weight="bold" font-size="1.7461" text-anchor="start" fill="currentColor">
<tspan>0</tspan>
</text>
<rect transform="translate(51.3558, 53.8818)" x="-0.0650" y="-1.3586" width="0.1300" height="4.8295" ry="0.0400" fill="currentColor"/>
<g color="rgb(100.0000%, 100.0000%, 100.0000%)">
<rect transform="translate(54.7009, 51.6318)" x="0.1229" y="-0.6480" width="1.2292" height="1.2959" ry="0.0000" fill="currentColor"/>
</g>
<text transform="translate(54.8239, 52.2797)" font-family="serif" font-weight="bold" font-size="1.7461" text-anchor="start" fill="currentColor">
<tspan>1</tspan>
</text>
<rect transform="translate(55.4384, 53.8818)" x="-0.0650" y="-1.3752" width="0.1300" height="4.5183" ry="0.0400" fill="currentColor"/>
<g color="rgb(100.0000%, 100.0000%, 100.0000%)">
<rect transform="translate(42.2031, 53.1318)" x="0.1229" y="-0.6603" width="1.2292" height="1.3207" ry="0.0000" fill="currentColor"/>
</g>
<text transform="translate(42.3260, 53.7674)" font-family="serif" font-weight="bold" font-size="1.7461" text-anchor="start" fill="currentColor">
<tspan>3</tspan>
</text>
<rect transform="translate(42.9406, 53.8818)" x="-0.0650" y="0.1414" width="0.1300" height="4.0054" ry="0.0400" fill="currentColor"/>
<text transform="translate(3.4371, 50.5571)" font-family="serif" font-size="1.7461" text-anchor="start" fill="currentColor">
<tspan>13</tspan>
</text>
<path transform="translate(6.2906, 53.8818) scale(0.0040, -0.0040)" d="M267 -425c0 -24 -23 -27 -43 -27c-45 0 -84 31 -84 75c0 82 118 130 234 130c104 0 215 -22 215 -103c0 -51 -31 -86 -69 -110c58 -11 102 -36 102 -91c0 -90 -94 -158 -179 -158c-41 0 -80 15 -108 52c-2 2 -3 5 -3 8c0 12 16 25 28 25c4 0 8 -1 10 -4
c11 -15 27 -21 44 -21c43 0 95 40 95 93c0 46 -49 63 -100 63h-1c-6 0 -8 8 -8 16c0 11 5 24 18 24h1c36 0 68 39 68 77c0 45 -36 68 -80 76c-11 -62 -31 -173 -40 -220c-20 -102 -84 -202 -159 -202c-44 0 -68 34 -96 53c-3 2 -4 5 -4 9c0 11 12 26 24 26c3 0 5 0 7 -2
c20 -13 36 -35 65 -35c65 0 89 99 89 195v8c0 35 9 109 18 163c-39 -13 -70 -40 -70 -70c0 -15 8 -28 19 -34c4 -3 7 -9 7 -16zM301 -83c-43 -41 -114 -105 -173 -105c-33 0 -52 21 -78 32c-3 1 -5 5 -5 9c0 11 11 28 25 28c2 0 5 -1 7 -2c16 -7 30 -18 50 -18
c34 0 65 27 91 54c100 102 175 219 214 336c9 27 33 37 57 37c29 0 57 -15 57 -31c0 -2 -1 -4 -2 -6c-4 -116 -9 -233 -16 -350v-9c0 -16 3 -30 21 -30c16 0 35 13 53 19l2 1c5 0 9 -8 9 -17c0 -8 -3 -16 -12 -19c-29 -9 -54 -34 -87 -34c-32 0 -45 29 -53 58
c-16 61 -26 125 -31 191c-27 -35 -56 -68 -87 -101c11 -20 33 -33 64 -33c4 0 8 1 12 1c5 0 8 -7 8 -15c0 -25 -34 -29 -56 -29c-32 0 -56 12 -70 33zM288 540c0 -23 -23 -24 -42 -24c-49 0 -91 36 -91 84c0 95 125 120 232 120c49 0 119 -41 171 -41c38 0 77 15 110 41
c3 2 6 3 9 3c11 0 23 -11 23 -19c0 -2 -1 -3 -2 -4c-40 -45 -95 -71 -148 -71c-15 0 -31 2 -44 6c-9 -59 -26 -151 -35 -193c-22 -96 -88 -185 -163 -185c-52 0 -81 42 -115 64c-3 2 -4 5 -4 9c0 11 12 26 23 26c2 0 5 -1 7 -2c23 -15 43 -46 75 -46c56 0 82 77 85 150
c2 45 13 150 22 208c-12 3 -31 5 -32 5c-51 0 -113 -21 -113 -70c0 -18 10 -36 24 -43c5 -3 8 -10 8 -18z" fill="currentColor"/>
<g color="rgb(100.0000%, 100.0000%, 100.0000%)">
<rect transform="translate(46.5357, 51.6318)" x="0.1229" y="-0.6480" width="1.2292" height="1.2959" ry="0.0000" fill="currentColor"/>
</g>
<text transform="translate(46.6586, 52.2797)" font-family="serif" font-weight="bold" font-size="1.7461" text-anchor="start" fill="currentColor">
<tspan>1</tspan>
</text>
<line transform="translate(5.6906, 69.9446)" stroke-linejoin="round" stroke-linecap="round" stroke-width="0.1000" stroke="currentColor" x1="0.0500" y1="-0.0000" x2="108.0705" y2="-0.0000"/>
<line transform="translate(5.6906, 68.4446)" stroke-linejoin="round" stroke-linecap="round" stroke-width="0.1000" stroke="currentColor" x1="0.0500" y1="-0.0000" x2="108.0705" y2="-0.0000"/>
<line transform="translate(5.6906, 66.9446)" stroke-linejoin="round" stroke-linecap="round" stroke-width="0.1000" stroke="currentColor" x1="0.0500" y1="-0.0000" x2="108.0705" y2="-0.0000"/>
<line transform="translate(5.6906, 65.4446)" stroke-linejoin="round" stroke-linecap="round" stroke-width="0.1000" stroke="currentColor" x1="0.0500" y1="-0.0000" x2="108.0705" y2="-0.0000"/>
<rect transform="translate(113.6210, 67.6946)" x="0.0000" y="-2.2500" width="0.1900" height="4.5000" ry="0.0000" fill="currentColor"/>
<rect transform="translate(88.4038, 67.6946)" x="0.0000" y="-2.2500" width="0.1900" height="4.5000" ry="0.0000" fill="currentColor"/>
<rect transform="translate(36.5934, 67.6946)" x="0.0000" y="-2.2500" width="0.1900" height="4.5000" ry="0.0000" fill="currentColor"/>
<rect transform="translate(61.8114, 67.6946)" x="0.0000" y="-2.2500" width="0.1900" height="4.5000" ry="0.0000" fill="currentColor"/>
<rect transform="translate(81.0998, 67.6946)" x="-0.0650" y="-4.3100" width="0.1300" height="2.6852" ry="0.0400" fill="currentColor"/>
<g color="rgb(100.0000%, 100.0000%, 100.0000%)">
<rect transform="translate(80.3623, 66.9446)" x="0.1229" y="-0.6480" width="1.2292" height="1.2959" ry="0.0000" fill="currentColor"/>
</g>
<text transform="translate(80.4852, 67.5925)" font-family="serif" font-weight="bold" font-size="1.7461" text-anchor="start" fill="currentColor">
<tspan>1</tspan>
</text>
<rect transform="translate(77.0043, 67.6946)" x="-0.0650" y="-4.3100" width="0.1300" height="2.6686" ry="0.0400" fill="currentColor"/>
<g color="rgb(100.0000%, 100.0000%, 100.0000%)">
<rect transform="translate(76.2668, 66.9446)" x="0.1229" y="-0.6603" width="1.2292" height="1.3207" ry="0.0000" fill="currentColor"/>
</g>
<text transform="translate(76.3897, 67.5801)" font-family="serif" font-weight="bold" font-size="1.7461" text-anchor="start" fill="currentColor">
<tspan>3</tspan>
</text>
<rect transform="translate(90.8101, 67.6946)" x="-0.0650" y="1.6248" width="0.1300" height="3.0558" ry="0.0400" fill="currentColor"/>
<g color="rgb(100.0000%, 100.0000%, 100.0000%)">
<rect transform="translate(84.2078, 68.4446)" x="0.1229" y="-0.6603" width="1.2292" height="1.3207" ry="0.0000" fill="currentColor"/>
</g>
<text transform="translate(84.3308, 69.0801)" font-family="serif" font-weight="bold" font-size="1.7461" text-anchor="start" fill="currentColor">
<tspan>3</tspan>
</text>
<rect transform="translate(84.9453, 67.6946)" x="-0.0650" y="-4.3100" width="0.1300" height="4.1686" ry="0.0400" fill="currentColor"/>
<g color="rgb(100.0000%, 100.0000%, 100.0000%)">
<rect transform="translate(90.0726, 68.4446)" x="0.1229" y="-0.6480" width="1.2292" height="1.2959" ry="0.0000" fill="currentColor"/>
</g>
<text transform="translate(90.1955, 69.0925)" font-family="serif" font-weight="bold" font-size="1.7461" text-anchor="start" fill="currentColor">
<tspan>2</tspan>
</text>
<g color="rgb(100.0000%, 100.0000%, 100.0000%)">
<rect transform="translate(63.4802, 69.9446)" x="0.1229" y="-0.6480" width="1.2292" height="1.2959" ry="0.0000" fill="currentColor"/>
</g>
<text transform="translate(63.6032, 70.5925)" font-family="serif" font-weight="bold" font-size="1.7461" text-anchor="start" fill="currentColor">
<tspan>2</tspan>
</text>
<path transform="translate(11.4906, 67.6946)" stroke-width="0.0800" stroke-linejoin="round" stroke-linecap="round" stroke="currentColor" fill="currentColor" d="M0.8621 3.6480C3.2689 4.6941 8.1980 3.1203 9.5532 0.8730L9.5532 0.8730C8.1615 3.0060 3.2324 4.5798 0.8621 3.6480z"/>
<rect transform="translate(64.2177, 67.6946)" x="-0.0650" y="-4.3100" width="0.1300" height="5.6852" ry="0.0400" fill="currentColor"/>
<g color="rgb(100.0000%, 100.0000%, 100.0000%)">
<rect transform="translate(67.8258, 68.4446)" x="0.1229" y="-0.6603" width="1.2292" height="1.3207" ry="0.0000" fill="currentColor"/>
</g>
<text transform="translate(67.9487, 69.0801)" font-family="serif" font-weight="bold" font-size="1.7461" text-anchor="start" fill="currentColor">
<tspan>0</tspan>
</text>
<rect transform="translate(68.5633, 67.6946)" x="-0.0650" y="-4.3100" width="0.1300" height="4.1686" ry="0.0400" fill="currentColor"/>
<g color="rgb(100.0000%, 100.0000%, 100.0000%)">
<rect transform="translate(71.9213, 68.4446)" x="0.1229" y="-0.6603" width="1.2292" height="1.3207" ry="0.0000" fill="currentColor"/>
</g>
<text transform="translate(72.0442, 69.0801)" font-family="serif" font-weight="bold" font-size="1.7461" text-anchor="start" fill="currentColor">
<tspan>3</tspan>
</text>
<rect transform="translate(72.6588, 67.6946)" x="-0.0650" y="-4.3100" width="0.1300" height="4.1686" ry="0.0400" fill="currentColor"/>
<g color="rgb(100.0000%, 100.0000%, 100.0000%)">
<rect transform="translate(106.9546, 65.4446)" x="0.1229" y="-0.6488" width="1.2292" height="1.2976" ry="0.0000" fill="currentColor"/>
</g>
<text transform="translate(107.0776, 66.0686)" font-family="serif" font-weight="bold" font-size="1.7461" text-anchor="start" fill="currentColor">
<tspan>5</tspan>
</text>
<rect transform="translate(107.6921, 67.6946)" x="-0.0650" y="-1.3741" width="0.1300" height="4.3741" ry="0.0400" fill="currentColor"/>
<polygon transform="translate(90.7451, 72.3846)" stroke-linejoin="round" stroke-linecap="round" stroke-width="0.0800" fill="currentColor" stroke="currentColor" points="12.8766 -2.0800 12.8766 -1.6800 0.0400 0.2000 0.0400 -0.2000"/>
<path transform="translate(90.0726, 67.6946)" stroke-width="0.0800" stroke-linejoin="round" stroke-linecap="round" stroke="currentColor" fill="currentColor" d="M0.6502 -0.8730C2.6346 -3.4046 10.5788 -5.1363 13.4368 -3.6603L13.4368 -3.6603C10.6044 -5.0191 2.6602 -3.2873 0.6502 -0.8730z"/>
<polygon transform="translate(64.1527, 63.3846)" stroke-linejoin="round" stroke-linecap="round" stroke-width="0.0800" fill="currentColor" stroke="currentColor" points="20.8176 -0.2000 20.8176 0.2000 0.0400 0.2000 0.0400 -0.2000"/>
<path transform="translate(63.4802, 67.6946)" stroke-width="0.0800" stroke-linejoin="round" stroke-linecap="round" stroke="currentColor" fill="currentColor" d="M0.7981 3.6480C2.9110 5.0161 7.6191 4.3118 9.2391 2.3853L9.2391 2.3853C7.6013 4.1931 2.8932 4.8974 0.7981 3.6480z"/>
<polygon transform="translate(38.9347, 72.3846)" stroke-linejoin="round" stroke-linecap="round" stroke-width="0.0800" fill="currentColor" stroke="currentColor" points="12.8766 -2.0800 12.8766 -1.6800 0.0400 0.2000 0.0400 -0.2000"/>
<path transform="translate(38.2622, 67.6946)" stroke-width="0.0800" stroke-linejoin="round" stroke-linecap="round" stroke="currentColor" fill="currentColor" d="M0.6509 -0.8853C2.6393 -3.4129 10.5828 -5.1297 13.4375 -3.6488L13.4375 -3.6488C10.6081 -5.0124 2.6647 -3.2957 0.6509 -0.8853z"/>
<polygon transform="translate(12.1630, 63.3846)" stroke-linejoin="round" stroke-linecap="round" stroke-width="0.0800" fill="currentColor" stroke="currentColor" points="21.0676 -0.2000 21.0676 0.2000 0.0400 0.2000 0.0400 -0.2000"/>
<line transform="translate(5.6906, 60.8946)" stroke-linejoin="round" stroke-linecap="round" stroke-width="0.1000" stroke="currentColor" x1="36.2245" y1="-0.0000" x2="51.1720" y2="-0.0000"/>
<line transform="translate(56.9125, 60.8946)" stroke-linejoin="round" stroke-linecap="round" stroke-width="0.1000" stroke="currentColor" x1="0" y1="0" x2="0" y2="0.5000"/>
<text transform="translate(37.9690, 60.8946)" font-family="serif" font-size="1.7461" text-anchor="start" fill="currentColor">
<tspan>B</tspan>
</text>
<text transform="translate(39.8664, 60.8946)" font-family="serif" font-size="1.7461" text-anchor="start" fill="currentColor">
<tspan>III</tspan>
</text>
<g color="rgb(100.0000%, 100.0000%, 100.0000%)">
<rect transform="translate(94.4181, 66.9446)" x="0.1229" y="-0.6480" width="1.2292" height="1.2959" ry="0.0000" fill="currentColor"/>
</g>
<text transform="translate(94.5410, 67.5925)" font-family="serif" font-weight="bold" font-size="1.7461" text-anchor="start" fill="currentColor">
<tspan>1</tspan>
</text>
<rect transform="translate(95.1556, 67.6946)" x="-0.0650" y="0.1248" width="0.1300" height="3.9233" ry="0.0400" fill="currentColor"/>
<g color="rgb(100.0000%, 100.0000%, 100.0000%)">
<rect transform="translate(98.7636, 65.4446)" x="0.1229" y="-0.6480" width="1.2292" height="1.2959" ry="0.0000" fill="currentColor"/>
</g>
<text transform="translate(98.8865, 66.0925)" font-family="serif" font-weight="bold" font-size="1.7461" text-anchor="start" fill="currentColor">
<tspan>1</tspan>
</text>
<rect transform="translate(99.5011, 67.6946)" x="-0.0650" y="-1.3752" width="0.1300" height="4.7908" ry="0.0400" fill="currentColor"/>
<g color="rgb(100.0000%, 100.0000%, 100.0000%)">
<rect transform="translate(102.8591, 65.4446)" x="0.1229" y="-0.6603" width="1.2292" height="1.3207" ry="0.0000" fill="currentColor"/>
</g>
<text transform="translate(102.9820, 66.0801)" font-family="serif" font-weight="bold" font-size="1.7461" text-anchor="start" fill="currentColor">
<tspan>3</tspan>
</text>
<rect transform="translate(103.5966, 67.6946)" x="-0.0650" y="-1.3586" width="0.1300" height="4.1780" ry="0.0400" fill="currentColor"/>
<g color="rgb(100.0000%, 100.0000%, 100.0000%)">
<rect transform="translate(20.1816, 66.9446)" x="0.1229" y="-0.6480" width="1.2292" height="1.2959" ry="0.0000" fill="currentColor"/>
</g>
<text transform="translate(20.3045, 67.5925)" font-family="serif" font-weight="bold" font-size="1.7461" text-anchor="start" fill="currentColor">
<tspan>1</tspan>
</text>
<rect transform="translate(20.9191, 67.6946)" x="-0.0650" y="-4.3100" width="0.1300" height="2.6852" ry="0.0400" fill="currentColor"/>
<g color="rgb(100.0000%, 100.0000%, 100.0000%)">
<rect transform="translate(24.2771, 66.9446)" x="0.1229" y="-0.6480" width="1.2292" height="1.2959" ry="0.0000" fill="currentColor"/>
</g>
<text transform="translate(24.4000, 67.5925)" font-family="serif" font-weight="bold" font-size="1.7461" text-anchor="start" fill="currentColor">
<tspan>4</tspan>
</text>
<rect transform="translate(25.0146, 67.6946)" x="-0.0650" y="-4.3100" width="0.1300" height="2.6852" ry="0.0400" fill="currentColor"/>
<g color="rgb(100.0000%, 100.0000%, 100.0000%)">
<rect transform="translate(28.3726, 66.9446)" x="0.1229" y="-0.6603" width="1.2292" height="1.3207" ry="0.0000" fill="currentColor"/>
</g>
<text transform="translate(28.4955, 67.5801)" font-family="serif" font-weight="bold" font-size="1.7461" text-anchor="start" fill="currentColor">
<tspan>3</tspan>
</text>
<rect transform="translate(29.1101, 67.6946)" x="-0.0650" y="-4.3100" width="0.1300" height="2.6686" ry="0.0400" fill="currentColor"/>
<rect transform="translate(33.2056, 67.6946)" x="-0.0650" y="-4.3100" width="0.1300" height="2.6852" ry="0.0400" fill="currentColor"/>
<text transform="translate(3.4371, 64.3945)" font-family="serif" font-size="1.7461" text-anchor="start" fill="currentColor">
<tspan>17</tspan>
</text>
<path transform="translate(6.2906, 67.6946) scale(0.0040, -0.0040)" d="M267 -425c0 -24 -23 -27 -43 -27c-45 0 -84 31 -84 75c0 82 118 130 234 130c104 0 215 -22 215 -103c0 -51 -31 -86 -69 -110c58 -11 102 -36 102 -91c0 -90 -94 -158 -179 -158c-41 0 -80 15 -108 52c-2 2 -3 5 -3 8c0 12 16 25 28 25c4 0 8 -1 10 -4
c11 -15 27 -21 44 -21c43 0 95 40 95 93c0 46 -49 63 -100 63h-1c-6 0 -8 8 -8 16c0 11 5 24 18 24h1c36 0 68 39 68 77c0 45 -36 68 -80 76c-11 -62 -31 -173 -40 -220c-20 -102 -84 -202 -159 -202c-44 0 -68 34 -96 53c-3 2 -4 5 -4 9c0 11 12 26 24 26c3 0 5 0 7 -2
c20 -13 36 -35 65 -35c65 0 89 99 89 195v8c0 35 9 109 18 163c-39 -13 -70 -40 -70 -70c0 -15 8 -28 19 -34c4 -3 7 -9 7 -16zM301 -83c-43 -41 -114 -105 -173 -105c-33 0 -52 21 -78 32c-3 1 -5 5 -5 9c0 11 11 28 25 28c2 0 5 -1 7 -2c16 -7 30 -18 50 -18
c34 0 65 27 91 54c100 102 175 219 214 336c9 27 33 37 57 37c29 0 57 -15 57 -31c0 -2 -1 -4 -2 -6c-4 -116 -9 -233 -16 -350v-9c0 -16 3 -30 21 -30c16 0 35 13 53 19l2 1c5 0 9 -8 9 -17c0 -8 -3 -16 -12 -19c-29 -9 -54 -34 -87 -34c-32 0 -45 29 -53 58
c-16 61 -26 125 -31 191c-27 -35 -56 -68 -87 -101c11 -20 33 -33 64 -33c4 0 8 1 12 1c5 0 8 -7 8 -15c0 -25 -34 -29 -56 -29c-32 0 -56 12 -70 33zM288 540c0 -23 -23 -24 -42 -24c-49 0 -91 36 -91 84c0 95 125 120 232 120c49 0 119 -41 171 -41c38 0 77 15 110 41
c3 2 6 3 9 3c11 0 23 -11 23 -19c0 -2 -1 -3 -2 -4c-40 -45 -95 -71 -148 -71c-15 0 -31 2 -44 6c-9 -59 -26 -151 -35 -193c-22 -96 -88 -185 -163 -185c-52 0 -81 42 -115 64c-3 2 -4 5 -4 9c0 11 12 26 23 26c2 0 5 -1 7 -2c23 -15 43 -46 75 -46c56 0 82 77 85 150
c2 45 13 150 22 208c-12 3 -31 5 -32 5c-51 0 -113 -21 -113 -70c0 -18 10 -36 24 -43c5 -3 8 -10 8 -18z" fill="currentColor"/>
<g color="rgb(100.0000%, 100.0000%, 100.0000%)">
<rect transform="translate(32.4682, 66.9446)" x="0.1229" y="-0.6480" width="1.2292" height="1.2959" ry="0.0000" fill="currentColor"/>
</g>
<text transform="translate(32.5911, 67.5925)" font-family="serif" font-weight="bold" font-size="1.7461" text-anchor="start" fill="currentColor">
<tspan>1</tspan>
</text>
<g color="rgb(100.0000%, 100.0000%, 100.0000%)">
<rect transform="translate(11.4906, 69.9446)" x="0.1229" y="-0.6480" width="1.2292" height="1.2959" ry="0.0000" fill="currentColor"/>
</g>
<text transform="translate(11.6135, 70.5925)" font-family="serif" font-weight="bold" font-size="1.7461" text-anchor="start" fill="currentColor">
<tspan>4</tspan>
</text>
<rect transform="translate(12.2280, 67.6946)" x="-0.0650" y="-4.3100" width="0.1300" height="5.6852" ry="0.0400" fill="currentColor"/>
<g color="rgb(100.0000%, 100.0000%, 100.0000%)">
<rect transform="translate(15.8361, 68.4446)" x="0.1229" y="-0.6480" width="1.2292" height="1.2959" ry="0.0000" fill="currentColor"/>
</g>
<text transform="translate(15.9590, 69.0925)" font-family="serif" font-weight="bold" font-size="1.7461" text-anchor="start" fill="currentColor">
<tspan>2</tspan>
</text>
<rect transform="translate(16.5736, 67.6946)" x="-0.0650" y="-4.3100" width="0.1300" height="4.1852" ry="0.0400" fill="currentColor"/>
<rect transform="translate(51.7863, 67.6946)" x="-0.0650" y="-1.3741" width="0.1300" height="4.1935" ry="0.0400" fill="currentColor"/>
<g color="rgb(100.0000%, 100.0000%, 100.0000%)">
<rect transform="translate(51.0488, 65.4446)" x="0.1229" y="-0.6488" width="1.2292" height="1.2976" ry="0.0000" fill="currentColor"/>
</g>
<text transform="translate(51.1717, 66.0686)" font-family="serif" font-weight="bold" font-size="1.7461" text-anchor="start" fill="currentColor">
<tspan>5</tspan>
</text>
<g color="rgb(100.0000%, 100.0000%, 100.0000%)">
<rect transform="translate(42.6078, 66.9446)" x="0.1229" y="-0.6603" width="1.2292" height="1.3207" ry="0.0000" fill="currentColor"/>
</g>
<text transform="translate(42.7307, 67.5801)" font-family="serif" font-weight="bold" font-size="1.7461" text-anchor="start" fill="currentColor">
<tspan>3</tspan>
</text>
<rect transform="translate(43.3453, 67.6946)" x="-0.0650" y="0.1414" width="0.1300" height="3.9066" ry="0.0400" fill="currentColor"/>
<g color="rgb(100.0000%, 100.0000%, 100.0000%)">
<rect transform="translate(46.9533, 65.4446)" x="0.1229" y="-0.6603" width="1.2292" height="1.3207" ry="0.0000" fill="currentColor"/>
</g>
<text transform="translate(47.0762, 66.0801)" font-family="serif" font-weight="bold" font-size="1.7461" text-anchor="start" fill="currentColor">
<tspan>3</tspan>
</text>
<rect transform="translate(47.6908, 67.6946)" x="-0.0650" y="-1.3586" width="0.1300" height="4.7741" ry="0.0400" fill="currentColor"/>
<rect transform="translate(38.9997, 67.6946)" x="-0.0650" y="1.6414" width="0.1300" height="3.0391" ry="0.0400" fill="currentColor"/>
<g color="rgb(100.0000%, 100.0000%, 100.0000%)">
<rect transform="translate(38.2622, 68.4446)" x="0.1229" y="-0.6603" width="1.2292" height="1.3207" ry="0.0000" fill="currentColor"/>
</g>
<text transform="translate(38.3852, 69.0801)" font-family="serif" font-weight="bold" font-size="1.7461" text-anchor="start" fill="currentColor">
<tspan>3</tspan>
</text>
<rect transform="translate(55.8818, 67.6946)" x="-0.0650" y="-1.3586" width="0.1300" height="4.3586" ry="0.0400" fill="currentColor"/>
<g color="rgb(100.0000%, 100.0000%, 100.0000%)">
<rect transform="translate(55.1443, 65.4446)" x="0.1229" y="-0.6603" width="1.2292" height="1.3207" ry="0.0000" fill="currentColor"/>
</g>
<text transform="translate(55.2672, 66.0801)" font-family="serif" font-weight="bold" font-size="1.7461" text-anchor="start" fill="currentColor">
<tspan>6</tspan>
</text>
<line transform="translate(5.6906, 81.9446)" stroke-linejoin="round" stroke-linecap="round" stroke-width="0.1000" stroke="currentColor" x1="0.0500" y1="-0.0000" x2="108.0705" y2="-0.0000"/>
<line transform="translate(5.6906, 80.4446)" stroke-linejoin="round" stroke-linecap="round" stroke-width="0.1000" stroke="currentColor" x1="0.0500" y1="-0.0000" x2="108.0705" y2="-0.0000"/>
<line transform="translate(5.6906, 78.9446)" stroke-linejoin="round" stroke-linecap="round" stroke-width="0.1000" stroke="currentColor" x1="0.0500" y1="-0.0000" x2="108.0705" y2="-0.0000"/>
<line transform="translate(5.6906, 77.4446)" stroke-linejoin="round" stroke-linecap="round" stroke-width="0.1000" stroke="currentColor" x1="0.0500" y1="-0.0000" x2="108.0705" y2="-0.0000"/>
<rect transform="translate(38.5865, 79.6946)" x="0.0000" y="-2.2500" width="0.1900" height="4.5000" ry="0.0000" fill="currentColor"/>
<rect transform="translate(67.8018, 79.6946)" x="0.0000" y="-2.2500" width="0.1900" height="4.5000" ry="0.0000" fill="currentColor"/>
<rect transform="translate(96.5163, 79.6946)" x="0.0000" y="-2.2500" width="0.1900" height="4.5000" ry="0.0000" fill="currentColor"/>
<path transform="translate(111.9710, 78.1946) scale(0.0040, -0.0040)" d="M0 0c0 31 25 56 56 56s56 -25 56 -56s-25 -56 -56 -56s-56 25 -56 56z" fill="currentColor"/>
<path transform="translate(111.9710, 81.1946) scale(0.0040, -0.0040)" d="M0 0c0 31 25 56 56 56s56 -25 56 -56s-25 -56 -56 -56s-56 25 -56 56z" fill="currentColor"/>
<rect transform="translate(113.2110, 79.6946)" x="0.0000" y="-2.2500" width="0.6000" height="4.5000" ry="0.0000" fill="currentColor"/>
<rect transform="translate(112.7210, 79.6946)" x="0.0000" y="-2.2500" width="0.1900" height="4.5000" ry="0.0000" fill="currentColor"/>
<g color="rgb(100.0000%, 100.0000%, 100.0000%)">
<rect transform="translate(74.3712, 77.4446)" x="0.1229" y="-0.6480" width="1.2292" height="1.2959" ry="0.0000" fill="currentColor"/>
</g>
<text transform="translate(74.4941, 78.0925)" font-family="serif" font-weight="bold" font-size="1.7461" text-anchor="start" fill="currentColor">
<tspan>1</tspan>
</text>
<rect transform="translate(75.1087, 79.6946)" x="-0.0650" y="-1.3752" width="0.1300" height="5.6852" ry="0.0400" fill="currentColor"/>
<rect transform="translate(83.8572, 79.6946)" x="-0.0650" y="0.1414" width="0.1300" height="4.1686" ry="0.0400" fill="currentColor"/>
<g color="rgb(100.0000%, 100.0000%, 100.0000%)">
<rect transform="translate(78.8704, 77.4446)" x="0.1229" y="-0.6603" width="1.2292" height="1.3207" ry="0.0000" fill="currentColor"/>
</g>
<text transform="translate(78.9934, 78.0801)" font-family="serif" font-weight="bold" font-size="1.7461" text-anchor="start" fill="currentColor">
<tspan>0</tspan>
</text>
<rect transform="translate(79.6079, 79.6946)" x="-0.0650" y="-1.3586" width="0.1300" height="5.6686" ry="0.0400" fill="currentColor"/>
<g color="rgb(100.0000%, 100.0000%, 100.0000%)">
<rect transform="translate(83.1197, 78.9446)" x="0.1229" y="-0.6603" width="1.2292" height="1.3207" ry="0.0000" fill="currentColor"/>
</g>
<text transform="translate(83.2426, 79.5801)" font-family="serif" font-weight="bold" font-size="1.7461" text-anchor="start" fill="currentColor">
<tspan>3</tspan>
</text>
<g color="rgb(100.0000%, 100.0000%, 100.0000%)">
<rect transform="translate(59.1537, 77.4446)" x="0.1229" y="-0.6480" width="1.2292" height="1.2959" ry="0.0000" fill="currentColor"/>
</g>
<text transform="translate(59.2766, 78.0925)" font-family="serif" font-weight="bold" font-size="1.7461" text-anchor="start" fill="currentColor">
<tspan>1</tspan>
</text>
<rect transform="translate(59.8912, 79.6946)" x="-0.0650" y="-1.3752" width="0.1300" height="5.5450" ry="0.0400" fill="currentColor"/>
<g color="rgb(100.0000%, 100.0000%, 100.0000%)">
<rect transform="translate(63.4029, 78.9446)" x="0.1229" y="-0.6603" width="1.2292" height="1.3207" ry="0.0000" fill="currentColor"/>
</g>
<text transform="translate(63.5258, 79.5801)" font-family="serif" font-weight="bold" font-size="1.7461" text-anchor="start" fill="currentColor">
<tspan>3</tspan>
</text>
<rect transform="translate(64.1404, 79.6946)" x="-0.0650" y="0.1414" width="0.1300" height="3.6149" ry="0.0400" fill="currentColor"/>
<g color="rgb(100.0000%, 100.0000%, 100.0000%)">
<rect transform="translate(69.6219, 80.4446)" x="0.1229" y="-0.6603" width="1.2292" height="1.3207" ry="0.0000" fill="currentColor"/>
</g>
<text transform="translate(69.7449, 81.0801)" font-family="serif" font-weight="bold" font-size="1.7461" text-anchor="start" fill="currentColor">
<tspan>0</tspan>
</text>
<rect transform="translate(70.3594, 79.6946)" x="-0.0650" y="1.6414" width="0.1300" height="2.6686" ry="0.0400" fill="currentColor"/>
<path transform="translate(11.4906, 79.6946)" stroke-width="0.0800" stroke-linejoin="round" stroke-linecap="round" stroke="currentColor" fill="currentColor" d="M0.7369 2.3730C2.6909 4.0913 7.7768 4.0983 9.7354 2.3853L9.7354 2.3853C7.7769 3.9783 2.6910 3.9713 0.7369 2.3730z"/>
<polygon transform="translate(70.2944, 84.0046)" stroke-linejoin="round" stroke-linecap="round" stroke-width="0.0800" fill="currentColor" stroke="currentColor" points="22.5863 -0.2000 22.5863 0.2000 0.0400 0.2000 0.0400 -0.2000"/>
<path transform="translate(74.3712, 79.6946)" stroke-width="0.0800" stroke-linejoin="round" stroke-linecap="round" stroke="currentColor" fill="currentColor" d="M0.7960 -3.6480C2.9517 -5.0533 7.8742 -4.3428 9.5445 -2.3853L9.5445 -2.3853C7.8571 -4.2240 2.9345 -4.9345 0.7960 -3.6480z"/>
<polygon transform="translate(41.0792, 85.6946)" stroke-linejoin="round" stroke-linecap="round" stroke-width="0.0800" fill="currentColor" stroke="currentColor" points="23.0863 -2.4500 23.0863 -2.0500 0.0400 0.2000 0.0400 -0.2000"/>
<path transform="translate(49.9052, 79.6946)" stroke-width="0.0800" stroke-linejoin="round" stroke-linecap="round" stroke="currentColor" fill="currentColor" d="M0.6821 -2.3853C2.4318 -4.3905 7.7074 -5.1108 9.9306 -3.6480L9.9306 -3.6480C7.7236 -4.9919 2.4481 -4.2716 0.6821 -2.3853z"/>
<polygon transform="translate(12.1630, 75.1946)" stroke-linejoin="round" stroke-linecap="round" stroke-width="0.0800" fill="currentColor" stroke="currentColor" points="22.5863 -0.0100 22.5863 0.3900 0.0400 0.2000 0.0400 -0.2000"/>
<rect transform="translate(92.8557, 79.6946)" x="-0.0650" y="0.1248" width="0.1300" height="4.1852" ry="0.0400" fill="currentColor"/>
<g color="rgb(100.0000%, 100.0000%, 100.0000%)">
<rect transform="translate(87.3690, 80.4446)" x="0.1229" y="-0.6480" width="1.2292" height="1.2959" ry="0.0000" fill="currentColor"/>
</g>
<text transform="translate(87.4919, 81.0925)" font-family="serif" font-weight="bold" font-size="1.7461" text-anchor="start" fill="currentColor">
<tspan>2</tspan>
</text>
<rect transform="translate(88.1064, 79.6946)" x="-0.0650" y="1.6248" width="0.1300" height="2.6852" ry="0.0400" fill="currentColor"/>
<g color="rgb(100.0000%, 100.0000%, 100.0000%)">
<rect transform="translate(92.1182, 78.9446)" x="0.1229" y="-0.6480" width="1.2292" height="1.2959" ry="0.0000" fill="currentColor"/>
</g>
<text transform="translate(92.2411, 79.5925)" font-family="serif" font-weight="bold" font-size="1.7461" text-anchor="start" fill="currentColor">
<tspan>2</tspan>
</text>
<path transform="translate(100.0739, 76.3186) scale(0.0040, -0.0040)" d="M-67 48c0 37 30 67 67 67s67 -30 67 -67s-30 -67 -67 -67s-67 30 -67 67zM0 363c157 0 332 -176 332 -366c0 -9 -10 -15 -19 -15s-17 5 -19 18c-26 148 -146 262 -294 262s-268 -114 -294 -262c-2 -13 -10 -18 -19 -18s-19 6 -19 15c0 190 175 366 332 366z" fill="currentColor"/>
<g color="rgb(100.0000%, 100.0000%, 100.0000%)">
<rect transform="translate(99.3364, 81.9446)" x="0.1229" y="-0.6603" width="1.2292" height="1.3207" ry="0.0000" fill="currentColor"/>
</g>
<text transform="translate(99.4594, 82.5801)" font-family="serif" font-weight="bold" font-size="1.7461" text-anchor="start" fill="currentColor">
<tspan>0</tspan>
</text>
<path transform="translate(101.1385, 81.1946) scale(0.0040, -0.0040)" d="M0 0c0 31 25 56 56 56s56 -25 56 -56s-25 -56 -56 -56s-56 25 -56 56z" fill="currentColor"/>
<rect transform="translate(99.8239, 79.6946)" x="-0.0650" y="-3.0000" width="0.1300" height="4.3586" ry="0.0400" fill="currentColor"/>
<rect transform="translate(100.3239, 79.6946)" x="-0.0650" y="-3.0000" width="0.1300" height="4.3586" ry="0.0400" fill="currentColor"/>
<rect transform="translate(25.7258, 79.6946)" x="-0.0650" y="-4.3861" width="0.1300" height="4.2447" ry="0.0400" fill="currentColor"/>
<g color="rgb(100.0000%, 100.0000%, 100.0000%)">
<rect transform="translate(20.4891, 80.4446)" x="0.1229" y="-0.6603" width="1.2292" height="1.3207" ry="0.0000" fill="currentColor"/>
</g>
<text transform="translate(20.6120, 81.0801)" font-family="serif" font-weight="bold" font-size="1.7461" text-anchor="start" fill="currentColor">
<tspan>0</tspan>
</text>
<rect transform="translate(21.2265, 79.6946)" x="-0.0650" y="-4.4239" width="0.1300" height="4.2825" ry="0.0400" fill="currentColor"/>
<g color="rgb(100.0000%, 100.0000%, 100.0000%)">
<rect transform="translate(24.9883, 80.4446)" x="0.1229" y="-0.6603" width="1.2292" height="1.3207" ry="0.0000" fill="currentColor"/>
</g>
<text transform="translate(25.1112, 81.0801)" font-family="serif" font-weight="bold" font-size="1.7461" text-anchor="start" fill="currentColor">
<tspan>3</tspan>
</text>
<rect transform="translate(16.4773, 79.6946)" x="-0.0650" y="-4.4638" width="0.1300" height="5.8390" ry="0.0400" fill="currentColor"/>
<g color="rgb(100.0000%, 100.0000%, 100.0000%)">
<rect transform="translate(29.4876, 80.4446)" x="0.1229" y="-0.6480" width="1.2292" height="1.2959" ry="0.0000" fill="currentColor"/>
</g>
<text transform="translate(29.6105, 81.0925)" font-family="serif" font-weight="bold" font-size="1.7461" text-anchor="start" fill="currentColor">
<tspan>2</tspan>
</text>
<text transform="translate(3.4371, 76.3945)" font-family="serif" font-size="1.7461" text-anchor="start" fill="currentColor">
<tspan>21</tspan>
</text>
<path transform="translate(6.2906, 79.6946) scale(0.0040, -0.0040)" d="M267 -425c0 -24 -23 -27 -43 -27c-45 0 -84 31 -84 75c0 82 118 130 234 130c104 0 215 -22 215 -103c0 -51 -31 -86 -69 -110c58 -11 102 -36 102 -91c0 -90 -94 -158 -179 -158c-41 0 -80 15 -108 52c-2 2 -3 5 -3 8c0 12 16 25 28 25c4 0 8 -1 10 -4
c11 -15 27 -21 44 -21c43 0 95 40 95 93c0 46 -49 63 -100 63h-1c-6 0 -8 8 -8 16c0 11 5 24 18 24h1c36 0 68 39 68 77c0 45 -36 68 -80 76c-11 -62 -31 -173 -40 -220c-20 -102 -84 -202 -159 -202c-44 0 -68 34 -96 53c-3 2 -4 5 -4 9c0 11 12 26 24 26c3 0 5 0 7 -2
c20 -13 36 -35 65 -35c65 0 89 99 89 195v8c0 35 9 109 18 163c-39 -13 -70 -40 -70 -70c0 -15 8 -28 19 -34c4 -3 7 -9 7 -16zM301 -83c-43 -41 -114 -105 -173 -105c-33 0 -52 21 -78 32c-3 1 -5 5 -5 9c0 11 11 28 25 28c2 0 5 -1 7 -2c16 -7 30 -18 50 -18
c34 0 65 27 91 54c100 102 175 219 214 336c9 27 33 37 57 37c29 0 57 -15 57 -31c0 -2 -1 -4 -2 -6c-4 -116 -9 -233 -16 -350v-9c0 -16 3 -30 21 -30c16 0 35 13 53 19l2 1c5 0 9 -8 9 -17c0 -8 -3 -16 -12 -19c-29 -9 -54 -34 -87 -34c-32 0 -45 29 -53 58
c-16 61 -26 125 -31 191c-27 -35 -56 -68 -87 -101c11 -20 33 -33 64 -33c4 0 8 1 12 1c5 0 8 -7 8 -15c0 -25 -34 -29 -56 -29c-32 0 -56 12 -70 33zM288 540c0 -23 -23 -24 -42 -24c-49 0 -91 36 -91 84c0 95 125 120 232 120c49 0 119 -41 171 -41c38 0 77 15 110 41
c3 2 6 3 9 3c11 0 23 -11 23 -19c0 -2 -1 -3 -2 -4c-40 -45 -95 -71 -148 -71c-15 0 -31 2 -44 6c-9 -59 -26 -151 -35 -193c-22 -96 -88 -185 -163 -185c-52 0 -81 42 -115 64c-3 2 -4 5 -4 9c0 11 12 26 23 26c2 0 5 -1 7 -2c23 -15 43 -46 75 -46c56 0 82 77 85 150
c2 45 13 150 22 208c-12 3 -31 5 -32 5c-51 0 -113 -21 -113 -70c0 -18 10 -36 24 -43c5 -3 8 -10 8 -18z" fill="currentColor"/>
<rect transform="translate(30.2251, 79.6946)" x="-0.0650" y="-4.3483" width="0.1300" height="4.2236" ry="0.0400" fill="currentColor"/>
<g color="rgb(100.0000%, 100.0000%, 100.0000%)">
<rect transform="translate(11.4906, 78.9446)" x="0.1229" y="-0.6480" width="1.2292" height="1.2959" ry="0.0000" fill="currentColor"/>
</g>
<text transform="translate(11.6135, 79.5925)" font-family="serif" font-weight="bold" font-size="1.7461" text-anchor="start" fill="currentColor">
<tspan>2</tspan>
</text>
<rect transform="translate(12.2280, 79.6946)" x="-0.0650" y="-4.4995" width="0.1300" height="2.8747" ry="0.0400" fill="currentColor"/>
<g color="rgb(100.0000%, 100.0000%, 100.0000%)">
<rect transform="translate(15.7398, 81.9446)" x="0.1229" y="-0.6480" width="1.2292" height="1.2959" ry="0.0000" fill="currentColor"/>
</g>
<text transform="translate(15.8627, 82.5925)" font-family="serif" font-weight="bold" font-size="1.7461" text-anchor="start" fill="currentColor">
<tspan>2</tspan>
</text>
<g color="rgb(100.0000%, 100.0000%, 100.0000%)">
<rect transform="translate(45.1559, 80.4446)" x="0.1229" y="-0.6480" width="1.2292" height="1.2959" ry="0.0000" fill="currentColor"/>
</g>
<text transform="translate(45.2788, 81.0925)" font-family="serif" font-weight="bold" font-size="1.7461" text-anchor="start" fill="currentColor">
<tspan>2</tspan>
</text>
<rect transform="translate(45.8934, 79.6946)" x="-0.0650" y="1.6248" width="0.1300" height="3.9068" ry="0.0400" fill="currentColor"/>
<g color="rgb(100.0000%, 100.0000%, 100.0000%)">
<rect transform="translate(49.9052, 78.9446)" x="0.1229" y="-0.6603" width="1.2292" height="1.3207" ry="0.0000" fill="currentColor"/>
</g>
<text transform="translate(50.0281, 79.5801)" font-family="serif" font-weight="bold" font-size="1.7461" text-anchor="start" fill="currentColor">
<tspan>3</tspan>
</text>
<rect transform="translate(50.6427, 79.6946)" x="-0.0650" y="0.1414" width="0.1300" height="4.9281" ry="0.0400" fill="currentColor"/>
<g color="rgb(100.0000%, 100.0000%, 100.0000%)">
<rect transform="translate(54.6544, 77.4446)" x="0.1229" y="-0.6603" width="1.2292" height="1.3207" ry="0.0000" fill="currentColor"/>
</g>
<text transform="translate(54.7773, 78.0801)" font-family="serif" font-weight="bold" font-size="1.7461" text-anchor="start" fill="currentColor">
<tspan>0</tspan>
</text>
<rect transform="translate(55.3919, 79.6946)" x="-0.0650" y="-1.3586" width="0.1300" height="5.9660" ry="0.0400" fill="currentColor"/>
<g color="rgb(100.0000%, 100.0000%, 100.0000%)">
<rect transform="translate(40.4067, 81.9446)" x="0.1229" y="-0.6603" width="1.2292" height="1.3207" ry="0.0000" fill="currentColor"/>
</g>
<text transform="translate(40.5296, 82.5801)" font-family="serif" font-weight="bold" font-size="1.7461" text-anchor="start" fill="currentColor">
<tspan>3</tspan>
</text>
<rect transform="translate(34.7243, 79.6946)" x="-0.0650" y="-4.3105" width="0.1300" height="4.1691" ry="0.0400" fill="currentColor"/>
<rect transform="translate(41.1442, 79.6946)" x="-0.0650" y="3.1414" width="0.1300" height="2.8522" ry="0.0400" fill="currentColor"/>
<g color="rgb(100.0000%, 100.0000%, 100.0000%)">
<rect transform="translate(33.9868, 80.4446)" x="0.1229" y="-0.6603" width="1.2292" height="1.3207" ry="0.0000" fill="currentColor"/>
</g>
<text transform="translate(34.1097, 81.0801)" font-family="serif" font-weight="bold" font-size="1.7461" text-anchor="start" fill="currentColor">
<tspan>0</tspan>
</text>
<a transform="translate(14.2011, 162.8258)" xlink:href="http://www.MutopiaProject.org">
<rect x="0.0000" y="-0.3744" width="8.9114" height="1.7420" fill="none" stroke="none" stroke-width="0.0"/>
</a>
<text transform="translate(14.2011, 162.8258)" font-family="DejaVu Sans" font-weight="bold" font-size="1.8000" text-anchor="start" fill="currentColor">
<tspan>Mutopia </tspan>
</text>
<a transform="translate(14.4060, 164.9499)" xlink:href="http://www.MutopiaProject.org">
<rect x="0.0000" y="-0.4993" width="8.7065" height="2.2490" fill="none" stroke="none" stroke-width="0.0"/>
</a>
<g color="rgb(100.0000%, 100.0000%, 100.0000%)">
<text transform="translate(14.4060, 164.9499)" font-family="DejaVu Sans" font-weight="bold" font-size="2.4001" text-anchor="start" fill="currentColor">
<tspan></tspan>
</text>
</g>
<text transform="translate(15.2937, 164.9499)" font-family="DejaVu Sans" font-weight="bold" font-size="1.8000" text-anchor="start" fill="currentColor">
<tspan>Project </tspan>
</text>
<g color="rgb(50.0000%, 50.0000%, 50.0000%)">
<text transform="translate(23.7125, 162.8258)" font-family="DejaVu Sans" font-weight="bold" font-size="2.3801" text-anchor="start" fill="currentColor">
<tspan></tspan>
</text>
</g>
<g color="rgb(50.0000%, 50.0000%, 50.0000%)">
<text transform="translate(23.7125, 165.0560)" font-family="DejaVu Sans" font-weight="bold" font-size="2.3801" text-anchor="start" fill="currentColor">
<tspan></tspan>
</text>
</g>
<text transform="translate(25.2003, 162.8258)" font-family="DejaVu Sans,sans-serif" font-size="1.5999" text-anchor="start" fill="currentColor">
<tspan>Typeset using </tspan>
</text>
<a transform="translate(36.6724, 162.8258)" xlink:href="http://www.lilypond.org">
<rect x="0.0000" y="-0.3328" width="7.2042" height="1.5484" fill="none" stroke="none" stroke-width="0.0"/>
</a>
<text transform="translate(36.6724, 162.8258)" font-family="DejaVu Sans,sans-serif" font-size="1.5999" text-anchor="start" fill="currentColor">
<tspan>LilyPond </tspan>
</text>
<text transform="translate(43.8766, 162.8258)" font-family="DejaVu Sans,sans-serif" font-size="1.5999" text-anchor="start" fill="currentColor">
<tspan>by Andreas Scherer, ukulele by Jordan Anderson  Mutopia-2018/01/19-517</tspan>
</text>
<text transform="translate(25.2003, 165.0541)" font-family="DejaVu Sans,sans-serif" font-size="1.5999" text-anchor="start" fill="currentColor">
<tspan>Placed in the </tspan>
</text>
<a transform="translate(36.1261, 165.0541)" xlink:href="http://creativecommons.org/licenses/publicdomain">
<rect x="0.0000" y="-0.0227" width="11.5063" height="1.2382" fill="none" stroke="none" stroke-width="0.0"/>
</a>
<text transform="translate(36.1261, 165.0541)" font-family="DejaVu Sans,sans-serif" font-size="1.5999" text-anchor="start" fill="currentColor">
<tspan>Public Domain</tspan>
</text>
<text transform="translate(47.6324, 165.0541)" font-family="DejaVu Sans,sans-serif" font-size="1.5999" text-anchor="start" fill="currentColor">
<tspan> by the typesetter </tspan>
</text>
<text transform="translate(62.5530, 165.0541)" font-family="DejaVu Sans,sans-serif" font-size="1.5999" text-anchor="start" fill="currentColor">
<tspan>  free to distribute, modify, and perform</tspan>
</text>
<g color="rgb(100.0000%, 100.0000%, 100.0000%)">
<text transform="translate(96.1159, 165.0541)" font-family="DejaVu Sans,sans-serif" font-size="2.6002" text-anchor="start" fill="currentColor">
<tspan></tspan>
</text>
</g>
</svg>
