<svg xmlns="http://www.w3.org/2000/svg" xmlns:xlink="http://www.w3.org/1999/xlink" version="1.2" width="210.00mm" height="297.00mm" viewBox="0 0 119.5016 169.0094">
<style text="style/css">
<![CDATA[
tspan { white-space: pre; }
]]>
</style>
<!-- Page: 2/2 -->
<text transform="translate(5.6906, 4.5168)" font-family="serif" font-size="2.2001" text-anchor="start" fill="currentColor">
<tspan>2</tspan>
</text>
<text transform="translate(51.5223, 4.5168)" font-family="serif" font-size="2.2001" text-anchor="start" fill="currentColor">
<tspan>Low-G Ukulele</tspan>
</text>
<text transform="translate(113.8110, 4.5168)" font-family="serif" font-size="2.2001" text-anchor="start" fill="currentColor">
<tspan/>
</text>
<line transform="translate(5.6906, 16.3511)" stroke-linejoin="round" stroke-linecap="round" stroke-width="0.1000" stroke="currentColor" x1="0.0500" y1="-0.0000" x2="108.0705" y2="-0.0000"/>
<line transform="translate(5.6906, 14.8511)" stroke-linejoin="round" stroke-linecap="round" stroke-width="0.1000" stroke="currentColor" x1="0.0500" y1="-0.0000" x2="108.0705" y2="-0.0000"/>
<line transform="translate(5.6906, 13.3511)" stroke-linejoin="round" stroke-linecap="round" stroke-width="0.1000" stroke="currentColor" x1="0.0500" y1="-0.0000" x2="108.0705" y2="-0.0000"/>
<line transform="translate(5.6906, 11.8511)" stroke-linejoin="round" stroke-linecap="round" stroke-width="0.1000" stroke="currentColor" x1="0.0500" y1="-0.0000" x2="108.0705" y2="-0.0000"/>
<rect transform="translate(91.8545, 14.1011)" x="0.0000" y="-2.2500" width="0.1900" height="4.5000" ry="0.0000" fill="currentColor"/>
<path transform="translate(111.9710, 12.6011) scale(0.0040, -0.0040)" d="M0 0c0 31 25 56 56 56s56 -25 56 -56s-25 -56 -56 -56s-56 25 -56 56z" fill="currentColor"/>
<path transform="translate(111.9710, 15.6011) scale(0.0040, -0.0040)" d="M0 0c0 31 25 56 56 56s56 -25 56 -56s-25 -56 -56 -56s-56 25 -56 56z" fill="currentColor"/>
<rect transform="translate(113.2110, 14.1011)" x="0.0000" y="-2.2500" width="0.6000" height="4.5000" ry="0.0000" fill="currentColor"/>
<rect transform="translate(112.7210, 14.1011)" x="0.0000" y="-2.2500" width="0.1900" height="4.5000" ry="0.0000" fill="currentColor"/>
<rect transform="translate(53.9338, 14.1011)" x="0.0000" y="-2.2500" width="0.1900" height="4.5000" ry="0.0000" fill="currentColor"/>
<g color="rgb(100.0000%, 100.0000%, 100.0000%)">
<rect transform="translate(66.7277, 16.3511)" x="0.1229" y="-0.6480" width="1.2292" height="1.2959" ry="0.0000" fill="currentColor"/>
</g>
<text transform="translate(66.8506, 16.9990)" font-family="serif" font-weight="bold" font-size="1.7461" text-anchor="start" fill="currentColor">
<tspan>2</tspan>
</text>
<rect transform="translate(67.4652, 14.1011)" x="-0.0650" y="-3.5859" width="0.1300" height="4.9612" ry="0.0400" fill="currentColor"/>
<g color="rgb(100.0000%, 100.0000%, 100.0000%)">
<rect transform="translate(72.8782, 14.8511)" x="0.1229" y="-0.6480" width="1.2292" height="1.2959" ry="0.0000" fill="currentColor"/>
</g>
<text transform="translate(73.0011, 15.4990)" font-family="serif" font-weight="bold" font-size="1.7461" text-anchor="start" fill="currentColor">
<tspan>2</tspan>
</text>
<rect transform="translate(73.6157, 14.1011)" x="-0.0650" y="-3.1941" width="0.1300" height="3.0694" ry="0.0400" fill="currentColor"/>
<rect transform="translate(85.1668, 14.1011)" x="-0.0650" y="-2.8100" width="0.1300" height="4.1841" ry="0.0400" fill="currentColor"/>
<g color="rgb(100.0000%, 100.0000%, 100.0000%)">
<rect transform="translate(78.5287, 16.3511)" x="0.1229" y="-0.6603" width="1.2292" height="1.3207" ry="0.0000" fill="currentColor"/>
</g>
<text transform="translate(78.6517, 16.9867)" font-family="serif" font-weight="bold" font-size="1.7461" text-anchor="start" fill="currentColor">
<tspan>0</tspan>
</text>
<rect transform="translate(79.2662, 14.1011)" x="-0.0650" y="-2.8100" width="0.1300" height="4.1686" ry="0.0400" fill="currentColor"/>
<g color="rgb(100.0000%, 100.0000%, 100.0000%)">
<rect transform="translate(84.4293, 16.3511)" x="0.1229" y="-0.6488" width="1.2292" height="1.2976" ry="0.0000" fill="currentColor"/>
</g>
<text transform="translate(84.5522, 16.9751)" font-family="serif" font-weight="bold" font-size="1.7461" text-anchor="start" fill="currentColor">
<tspan>5</tspan>
</text>
<path transform="translate(17.6411, 14.1011)" stroke-width="0.0800" stroke-linejoin="round" stroke-linecap="round" stroke="currentColor" fill="currentColor" d="M0.7066 -5.9605C1.6164 -6.9406 3.2858 -7.0670 4.3329 -6.2351L4.3329 -6.2351C3.2949 -6.9473 1.6255 -6.8209 0.7066 -5.9605z"/>
<g color="rgb(100.0000%, 100.0000%, 100.0000%)">
<rect transform="translate(55.4267, 13.3511)" x="0.1229" y="-0.6603" width="1.2292" height="1.3207" ry="0.0000" fill="currentColor"/>
</g>
<text transform="translate(55.5496, 13.9867)" font-family="serif" font-weight="bold" font-size="1.7461" text-anchor="start" fill="currentColor">
<tspan>0</tspan>
</text>
<rect transform="translate(56.1642, 14.1011)" x="-0.0650" y="-4.3059" width="0.1300" height="2.6644" ry="0.0400" fill="currentColor"/>
<g color="rgb(100.0000%, 100.0000%, 100.0000%)">
<rect transform="translate(61.0772, 14.8511)" x="0.1229" y="-0.6603" width="1.2292" height="1.3207" ry="0.0000" fill="currentColor"/>
</g>
<text transform="translate(61.2001, 15.4867)" font-family="serif" font-weight="bold" font-size="1.7461" text-anchor="start" fill="currentColor">
<tspan>0</tspan>
</text>
<rect transform="translate(61.8147, 14.1011)" x="-0.0650" y="-3.9459" width="0.1300" height="3.8045" ry="0.0400" fill="currentColor"/>
<g color="rgb(100.0000%, 100.0000%, 100.0000%)">
<rect transform="translate(101.5221, 13.3511)" x="0.1229" y="-0.6603" width="1.2292" height="1.3207" ry="0.0000" fill="currentColor"/>
</g>
<text transform="translate(101.6450, 13.9867)" font-family="serif" font-weight="bold" font-size="1.7461" text-anchor="start" fill="currentColor">
<tspan>0</tspan>
</text>
<g color="rgb(100.0000%, 100.0000%, 100.0000%)">
<rect transform="translate(101.5221, 11.8511)" x="0.1229" y="-0.6603" width="1.2292" height="1.3207" ry="0.0000" fill="currentColor"/>
</g>
<text transform="translate(101.6450, 12.4867)" font-family="serif" font-weight="bold" font-size="1.7461" text-anchor="start" fill="currentColor">
<tspan>3</tspan>
</text>
<rect transform="translate(102.0096, 14.1011)" x="-0.0650" y="3.1414" width="0.1300" height="3.3586" ry="0.0400" fill="currentColor"/>
<rect transform="translate(102.5096, 14.1011)" x="-0.0650" y="3.1414" width="0.1300" height="3.3586" ry="0.0400" fill="currentColor"/>
<g color="rgb(100.0000%, 100.0000%, 100.0000%)">
<rect transform="translate(101.5221, 16.3511)" x="0.1229" y="-0.6603" width="1.2292" height="1.3207" ry="0.0000" fill="currentColor"/>
</g>
<text transform="translate(101.6450, 16.9867)" font-family="serif" font-weight="bold" font-size="1.7461" text-anchor="start" fill="currentColor">
<tspan>0</tspan>
</text>
<path transform="translate(84.4293, 14.1011)" stroke-width="0.0800" stroke-linejoin="round" stroke-linecap="round" stroke="currentColor" fill="currentColor" d="M0.7376 3.6488C1.7167 4.5550 3.3852 4.5546 4.3639 3.6480L4.3639 3.6480C3.3852 4.4346 1.7167 4.4350 0.7376 3.6488z"/>
<polygon transform="translate(79.2012, 11.2911)" stroke-linejoin="round" stroke-linecap="round" stroke-width="0.0800" fill="currentColor" stroke="currentColor" points="9.6168 -0.2000 9.6168 0.2000 0.0400 0.2000 0.0400 -0.2000"/>
<polygon transform="translate(85.1018, 12.0121)" stroke-linejoin="round" stroke-linecap="round" stroke-width="0.0800" fill="currentColor" stroke="currentColor" points="3.7163 -0.2000 3.7163 0.2000 0.0400 0.2000 0.0400 -0.2000"/>
<polygon transform="translate(40.0714, 8.8511)" stroke-linejoin="round" stroke-linecap="round" stroke-width="0.0800" fill="currentColor" stroke="currentColor" points="10.9689 -0.2000 10.9689 0.2000 0.0400 0.2000 0.0400 -0.2000"/>
<polygon transform="translate(40.0714, 9.5721)" stroke-linejoin="round" stroke-linecap="round" stroke-width="0.0800" fill="currentColor" stroke="currentColor" points="10.9689 -0.2000 10.9689 0.2000 0.0400 0.2000 0.0400 -0.2000"/>
<polygon transform="translate(56.0992, 9.7911)" stroke-linejoin="round" stroke-linecap="round" stroke-width="0.0800" fill="currentColor" stroke="currentColor" points="17.5416 0.9200 17.5416 1.3200 0.0400 0.2000 0.0400 -0.2000"/>
<path transform="translate(39.3989, 14.1011)" stroke-width="0.0800" stroke-linejoin="round" stroke-linecap="round" stroke="currentColor" fill="currentColor" d="M0.7375 -6.2400C2.9517 -8.1307 9.4021 -8.1307 11.6164 -6.2400L11.6164 -6.2400C9.4021 -8.0107 2.9517 -8.0107 0.7375 -6.2400z"/>
<polygon transform="translate(12.1630, 9.6011)" stroke-linejoin="round" stroke-linecap="round" stroke-width="0.0800" fill="currentColor" stroke="currentColor" points="9.8668 -0.9500 9.8668 -0.5500 0.0400 0.2000 0.0400 -0.2000"/>
<polygon transform="translate(18.3136, 9.8564)" stroke-linejoin="round" stroke-linecap="round" stroke-width="0.0800" fill="currentColor" stroke="currentColor" points="3.7163 -0.4844 3.7163 -0.0844 0.0400 0.2000 0.0400 -0.2000"/>
<path transform="translate(25.1437, 14.1011)" stroke-width="0.0800" stroke-linejoin="round" stroke-linecap="round" stroke="currentColor" fill="currentColor" d="M0.7375 -7.1800C2.9517 -9.0707 9.4021 -9.0707 11.6164 -7.1800L11.6164 -7.1800C9.4021 -8.9507 2.9517 -8.9507 0.7375 -7.1800z"/>
<polygon transform="translate(25.8162, 7.9111)" stroke-linejoin="round" stroke-linecap="round" stroke-width="0.0800" fill="currentColor" stroke="currentColor" points="10.9689 -0.2000 10.9689 0.2000 0.0400 0.2000 0.0400 -0.2000"/>
<polygon transform="translate(25.8162, 8.6321)" stroke-linejoin="round" stroke-linecap="round" stroke-width="0.0800" fill="currentColor" stroke="currentColor" points="10.9689 -0.2000 10.9689 0.2000 0.0400 0.2000 0.0400 -0.2000"/>
<g color="rgb(100.0000%, 100.0000%, 100.0000%)">
<rect transform="translate(88.0556, 16.3511)" x="0.1229" y="-0.6480" width="1.2292" height="1.2959" ry="0.0000" fill="currentColor"/>
</g>
<text transform="translate(88.1785, 16.9990)" font-family="serif" font-weight="bold" font-size="1.7461" text-anchor="start" fill="currentColor">
<tspan>4</tspan>
</text>
<rect transform="translate(88.7931, 14.1011)" x="-0.0650" y="-2.8100" width="0.1300" height="4.1852" ry="0.0400" fill="currentColor"/>
<g color="rgb(100.0000%, 100.0000%, 100.0000%)">
<rect transform="translate(93.3473, 16.3511)" x="0.1229" y="-0.6488" width="1.2292" height="1.2976" ry="0.0000" fill="currentColor"/>
</g>
<text transform="translate(93.4702, 16.9751)" font-family="serif" font-weight="bold" font-size="1.7461" text-anchor="start" fill="currentColor">
<tspan>5</tspan>
</text>
<rect transform="translate(94.0848, 14.1011)" x="-0.0650" y="-3.0000" width="0.1300" height="4.3741" ry="0.0400" fill="currentColor"/>
<g color="rgb(100.0000%, 100.0000%, 100.0000%)">
<rect transform="translate(101.5221, 14.8511)" x="0.1229" y="-0.6603" width="1.2292" height="1.3207" ry="0.0000" fill="currentColor"/>
</g>
<text transform="translate(101.6450, 15.4867)" font-family="serif" font-weight="bold" font-size="1.7461" text-anchor="start" fill="currentColor">
<tspan>0</tspan>
</text>
<rect transform="translate(25.8812, 14.1011)" x="-0.0650" y="-6.1900" width="0.1300" height="3.0486" ry="0.0400" fill="currentColor"/>
<g color="rgb(100.0000%, 100.0000%, 100.0000%)">
<rect transform="translate(21.2674, 13.3511)" x="0.1229" y="-0.6603" width="1.2292" height="1.3207" ry="0.0000" fill="currentColor"/>
</g>
<text transform="translate(21.3903, 13.9867)" font-family="serif" font-weight="bold" font-size="1.7461" text-anchor="start" fill="currentColor">
<tspan>3</tspan>
</text>
<rect transform="translate(22.0049, 14.1011)" x="-0.0650" y="-5.2451" width="0.1300" height="3.6036" ry="0.0400" fill="currentColor"/>
<g color="rgb(100.0000%, 100.0000%, 100.0000%)">
<rect transform="translate(25.1437, 11.8511)" x="0.1229" y="-0.6603" width="1.2292" height="1.3207" ry="0.0000" fill="currentColor"/>
</g>
<text transform="translate(25.2666, 12.4867)" font-family="serif" font-weight="bold" font-size="1.7461" text-anchor="start" fill="currentColor">
<tspan>0</tspan>
</text>
<g color="rgb(100.0000%, 100.0000%, 100.0000%)">
<rect transform="translate(25.1437, 16.3511)" x="0.1229" y="-0.6480" width="1.2292" height="1.2959" ry="0.0000" fill="currentColor"/>
</g>
<text transform="translate(25.2666, 16.9990)" font-family="serif" font-weight="bold" font-size="1.7461" text-anchor="start" fill="currentColor">
<tspan>4</tspan>
</text>
<rect transform="translate(25.8812, 14.1011)" x="-0.0650" y="3.1248" width="0.1300" height="3.3752" ry="0.0400" fill="currentColor"/>
<rect transform="translate(51.0152, 14.1011)" x="-0.0650" y="-5.2500" width="0.1300" height="3.6252" ry="0.0400" fill="currentColor"/>
<g color="rgb(100.0000%, 100.0000%, 100.0000%)">
<rect transform="translate(28.5200, 13.3511)" x="0.1229" y="-0.6603" width="1.2292" height="1.3207" ry="0.0000" fill="currentColor"/>
</g>
<text transform="translate(28.6429, 13.9867)" font-family="serif" font-weight="bold" font-size="1.7461" text-anchor="start" fill="currentColor">
<tspan>3</tspan>
</text>
<rect transform="translate(29.2575, 14.1011)" x="-0.0650" y="-6.1900" width="0.1300" height="4.5486" ry="0.0400" fill="currentColor"/>
<text transform="translate(3.4371, 10.8010)" font-family="serif" font-size="1.7461" text-anchor="start" fill="currentColor">
<tspan>22</tspan>
</text>
<path transform="translate(6.2906, 14.1011) scale(0.0040, -0.0040)" d="M267 -425c0 -24 -23 -27 -43 -27c-45 0 -84 31 -84 75c0 82 118 130 234 130c104 0 215 -22 215 -103c0 -51 -31 -86 -69 -110c58 -11 102 -36 102 -91c0 -90 -94 -158 -179 -158c-41 0 -80 15 -108 52c-2 2 -3 5 -3 8c0 12 16 25 28 25c4 0 8 -1 10 -4
c11 -15 27 -21 44 -21c43 0 95 40 95 93c0 46 -49 63 -100 63h-1c-6 0 -8 8 -8 16c0 11 5 24 18 24h1c36 0 68 39 68 77c0 45 -36 68 -80 76c-11 -62 -31 -173 -40 -220c-20 -102 -84 -202 -159 -202c-44 0 -68 34 -96 53c-3 2 -4 5 -4 9c0 11 12 26 24 26c3 0 5 0 7 -2
c20 -13 36 -35 65 -35c65 0 89 99 89 195v8c0 35 9 109 18 163c-39 -13 -70 -40 -70 -70c0 -15 8 -28 19 -34c4 -3 7 -9 7 -16zM301 -83c-43 -41 -114 -105 -173 -105c-33 0 -52 21 -78 32c-3 1 -5 5 -5 9c0 11 11 28 25 28c2 0 5 -1 7 -2c16 -7 30 -18 50 -18
c34 0 65 27 91 54c100 102 175 219 214 336c9 27 33 37 57 37c29 0 57 -15 57 -31c0 -2 -1 -4 -2 -6c-4 -116 -9 -233 -16 -350v-9c0 -16 3 -30 21 -30c16 0 35 13 53 19l2 1c5 0 9 -8 9 -17c0 -8 -3 -16 -12 -19c-29 -9 -54 -34 -87 -34c-32 0 -45 29 -53 58
c-16 61 -26 125 -31 191c-27 -35 -56 -68 -87 -101c11 -20 33 -33 64 -33c4 0 8 1 12 1c5 0 8 -7 8 -15c0 -25 -34 -29 -56 -29c-32 0 -56 12 -70 33zM288 540c0 -23 -23 -24 -42 -24c-49 0 -91 36 -91 84c0 95 125 120 232 120c49 0 119 -41 171 -41c38 0 77 15 110 41
c3 2 6 3 9 3c11 0 23 -11 23 -19c0 -2 -1 -3 -2 -4c-40 -45 -95 -71 -148 -71c-15 0 -31 2 -44 6c-9 -59 -26 -151 -35 -193c-22 -96 -88 -185 -163 -185c-52 0 -81 42 -115 64c-3 2 -4 5 -4 9c0 11 12 26 23 26c2 0 5 -1 7 -2c23 -15 43 -46 75 -46c56 0 82 77 85 150
c2 45 13 150 22 208c-12 3 -31 5 -32 5c-51 0 -113 -21 -113 -70c0 -18 10 -36 24 -43c5 -3 8 -10 8 -18z" fill="currentColor"/>
<g color="rgb(100.0000%, 100.0000%, 100.0000%)">
<rect transform="translate(11.4906, 14.8511)" x="0.1229" y="-0.6603" width="1.2292" height="1.3207" ry="0.0000" fill="currentColor"/>
</g>
<text transform="translate(11.6135, 15.4867)" font-family="serif" font-weight="bold" font-size="1.7461" text-anchor="start" fill="currentColor">
<tspan>0</tspan>
</text>
<rect transform="translate(12.2280, 14.1011)" x="-0.0650" y="-4.5049" width="0.1300" height="4.3635" ry="0.0400" fill="currentColor"/>
<g color="rgb(100.0000%, 100.0000%, 100.0000%)">
<rect transform="translate(17.6411, 13.3511)" x="0.1229" y="-0.6480" width="1.2292" height="1.2959" ry="0.0000" fill="currentColor"/>
</g>
<text transform="translate(17.7640, 13.9990)" font-family="serif" font-weight="bold" font-size="1.7461" text-anchor="start" fill="currentColor">
<tspan>2</tspan>
</text>
<rect transform="translate(18.3786, 14.1011)" x="-0.0650" y="-4.9705" width="0.1300" height="3.3458" ry="0.0400" fill="currentColor"/>
<rect transform="translate(40.1364, 14.1011)" x="-0.0650" y="-5.2500" width="0.1300" height="3.6086" ry="0.0400" fill="currentColor"/>
<g color="rgb(100.0000%, 100.0000%, 100.0000%)">
<rect transform="translate(43.2752, 11.8511)" x="0.1229" y="-0.6488" width="1.2292" height="1.2976" ry="0.0000" fill="currentColor"/>
</g>
<text transform="translate(43.3981, 12.4751)" font-family="serif" font-weight="bold" font-size="1.7461" text-anchor="start" fill="currentColor">
<tspan>5</tspan>
</text>
<rect transform="translate(44.0127, 14.1011)" x="-0.0650" y="-5.2500" width="0.1300" height="2.1241" ry="0.0400" fill="currentColor"/>
<g color="rgb(100.0000%, 100.0000%, 100.0000%)">
<rect transform="translate(39.3989, 13.3511)" x="0.1229" y="-0.6603" width="1.2292" height="1.3207" ry="0.0000" fill="currentColor"/>
</g>
<text transform="translate(39.5218, 13.9867)" font-family="serif" font-weight="bold" font-size="1.7461" text-anchor="start" fill="currentColor">
<tspan>3</tspan>
</text>
<g color="rgb(100.0000%, 100.0000%, 100.0000%)">
<rect transform="translate(46.6515, 13.3511)" x="0.1229" y="-0.6603" width="1.2292" height="1.3207" ry="0.0000" fill="currentColor"/>
</g>
<text transform="translate(46.7744, 13.9867)" font-family="serif" font-weight="bold" font-size="1.7461" text-anchor="start" fill="currentColor">
<tspan>3</tspan>
</text>
<rect transform="translate(47.3889, 14.1011)" x="-0.0650" y="-5.2500" width="0.1300" height="3.6086" ry="0.0400" fill="currentColor"/>
<g color="rgb(100.0000%, 100.0000%, 100.0000%)">
<rect transform="translate(50.2778, 13.3511)" x="0.1229" y="-0.6480" width="1.2292" height="1.2959" ry="0.0000" fill="currentColor"/>
</g>
<text transform="translate(50.4007, 13.9990)" font-family="serif" font-weight="bold" font-size="1.7461" text-anchor="start" fill="currentColor">
<tspan>1</tspan>
</text>
<rect transform="translate(36.7601, 14.1011)" x="-0.0650" y="-6.1900" width="0.1300" height="3.0486" ry="0.0400" fill="currentColor"/>
<g color="rgb(100.0000%, 100.0000%, 100.0000%)">
<rect transform="translate(32.1463, 13.3511)" x="0.1229" y="-0.6480" width="1.2292" height="1.2959" ry="0.0000" fill="currentColor"/>
</g>
<text transform="translate(32.2692, 13.9990)" font-family="serif" font-weight="bold" font-size="1.7461" text-anchor="start" fill="currentColor">
<tspan>2</tspan>
</text>
<rect transform="translate(32.8838, 14.1011)" x="-0.0650" y="-6.1900" width="0.1300" height="4.5652" ry="0.0400" fill="currentColor"/>
<g color="rgb(100.0000%, 100.0000%, 100.0000%)">
<rect transform="translate(36.0226, 11.8511)" x="0.1229" y="-0.6603" width="1.2292" height="1.3207" ry="0.0000" fill="currentColor"/>
</g>
<text transform="translate(36.1455, 12.4867)" font-family="serif" font-weight="bold" font-size="1.7461" text-anchor="start" fill="currentColor">
<tspan>0</tspan>
</text>
</svg>
