<svg xmlns="http://www.w3.org/2000/svg" xmlns:xlink="http://www.w3.org/1999/xlink" version="1.2" width="210.00mm" height="297.00mm" viewBox="0 0 119.5016 169.0094">
<style text="style/css">
<![CDATA[
tspan { white-space: pre; }
]]>
</style>
<!-- Page: 2/2 -->
<text transform="translate(5.6906, 4.5168)" font-family="serif" font-size="2.2001" text-anchor="start" fill="currentColor">
<tspan>2</tspan>
</text>
<text transform="translate(51.5223, 4.5168)" font-family="serif" font-size="2.2001" text-anchor="start" fill="currentColor">
<tspan>Low-G Ukulele</tspan>
</text>
<text transform="translate(113.8110, 4.5168)" font-family="serif" font-size="2.2001" text-anchor="start" fill="currentColor">
<tspan/>
</text>
<line transform="translate(5.6906, 14.2277)" stroke-linejoin="round" stroke-linecap="round" stroke-width="0.1000" stroke="currentColor" x1="0.0500" y1="-0.0000" x2="108.0705" y2="-0.0000"/>
<line transform="translate(5.6906, 12.7277)" stroke-linejoin="round" stroke-linecap="round" stroke-width="0.1000" stroke="currentColor" x1="0.0500" y1="-0.0000" x2="108.0705" y2="-0.0000"/>
<line transform="translate(5.6906, 11.2277)" stroke-linejoin="round" stroke-linecap="round" stroke-width="0.1000" stroke="currentColor" x1="0.0500" y1="-0.0000" x2="108.0705" y2="-0.0000"/>
<line transform="translate(5.6906, 9.7277)" stroke-linejoin="round" stroke-linecap="round" stroke-width="0.1000" stroke="currentColor" x1="0.0500" y1="-0.0000" x2="108.0705" y2="-0.0000"/>
<rect transform="translate(113.6210, 11.9777)" x="0.0000" y="-2.2500" width="0.1900" height="4.5000" ry="0.0000" fill="currentColor"/>
<rect transform="translate(60.4991, 11.9777)" x="0.0000" y="-2.2500" width="0.1900" height="4.5000" ry="0.0000" fill="currentColor"/>
<rect transform="translate(82.9853, 11.9777)" x="-0.0650" y="1.6248" width="0.1300" height="2.8705" ry="0.0400" fill="currentColor"/>
<rect transform="translate(76.3362, 11.9777)" x="-0.0650" y="0.1248" width="0.1300" height="3.8829" ry="0.0400" fill="currentColor"/>
<g color="rgb(100.0000%, 100.0000%, 100.0000%)">
<rect transform="translate(82.2478, 12.7277)" x="0.1229" y="-0.6480" width="1.2292" height="1.2959" ry="0.0000" fill="currentColor"/>
</g>
<text transform="translate(82.3707, 13.3756)" font-family="serif" font-weight="bold" font-size="1.7461" text-anchor="start" fill="currentColor">
<tspan>2</tspan>
</text>
<rect transform="translate(79.7857, 11.9777)" x="-0.0650" y="0.1414" width="0.1300" height="4.1192" ry="0.0400" fill="currentColor"/>
<g color="rgb(100.0000%, 100.0000%, 100.0000%)">
<rect transform="translate(79.0482, 11.2277)" x="0.1229" y="-0.6603" width="1.2292" height="1.3207" ry="0.0000" fill="currentColor"/>
</g>
<text transform="translate(79.1711, 11.8632)" font-family="serif" font-weight="bold" font-size="1.7461" text-anchor="start" fill="currentColor">
<tspan>0</tspan>
</text>
<g color="rgb(100.0000%, 100.0000%, 100.0000%)">
<rect transform="translate(85.6973, 12.7277)" x="0.1229" y="-0.6603" width="1.2292" height="1.3207" ry="0.0000" fill="currentColor"/>
</g>
<text transform="translate(85.8202, 13.3632)" font-family="serif" font-weight="bold" font-size="1.7461" text-anchor="start" fill="currentColor">
<tspan>0</tspan>
</text>
<rect transform="translate(86.4348, 11.9777)" x="-0.0650" y="-4.6842" width="0.1300" height="4.5427" ry="0.0400" fill="currentColor"/>
<g color="rgb(100.0000%, 100.0000%, 100.0000%)">
<rect transform="translate(89.3968, 11.2277)" x="0.1229" y="-0.6480" width="1.2292" height="1.2959" ry="0.0000" fill="currentColor"/>
</g>
<text transform="translate(89.5198, 11.8756)" font-family="serif" font-weight="bold" font-size="1.7461" text-anchor="start" fill="currentColor">
<tspan>1</tspan>
</text>
<rect transform="translate(90.1343, 11.9777)" x="-0.0650" y="-4.3523" width="0.1300" height="2.7275" ry="0.0400" fill="currentColor"/>
<path transform="translate(63.7277, 10.4777) scale(0.0040, -0.0040)" d="M0 0c0 31 25 56 56 56s56 -25 56 -56s-25 -56 -56 -56s-56 25 -56 56z" fill="currentColor"/>
<polygon transform="translate(12.1630, 8.2277)" stroke-linejoin="round" stroke-linecap="round" stroke-width="0.0800" fill="currentColor" stroke="currentColor" points="10.6886 -0.2000 10.6886 0.2000 0.0400 0.2000 0.0400 -0.2000"/>
<polygon transform="translate(12.1630, 8.9487)" stroke-linejoin="round" stroke-linecap="round" stroke-width="0.0800" fill="currentColor" stroke="currentColor" points="10.6886 -0.2000 10.6886 0.2000 0.0400 0.2000 0.0400 -0.2000"/>
<rect transform="translate(62.6631, 11.9777)" x="-0.0650" y="-5.2500" width="0.1300" height="3.6086" ry="0.0400" fill="currentColor"/>
<path transform="translate(63.7277, 13.4777) scale(0.0040, -0.0040)" d="M0 0c0 31 25 56 56 56s56 -25 56 -56s-25 -56 -56 -56s-56 25 -56 56z" fill="currentColor"/>
<g color="rgb(100.0000%, 100.0000%, 100.0000%)">
<rect transform="translate(75.5987, 11.2277)" x="0.1229" y="-0.6480" width="1.2292" height="1.2959" ry="0.0000" fill="currentColor"/>
</g>
<text transform="translate(75.7216, 11.8756)" font-family="serif" font-weight="bold" font-size="1.7461" text-anchor="start" fill="currentColor">
<tspan>1</tspan>
</text>
<g color="rgb(100.0000%, 100.0000%, 100.0000%)">
<rect transform="translate(68.6996, 11.2277)" x="0.1229" y="-0.6480" width="1.2292" height="1.2959" ry="0.0000" fill="currentColor"/>
</g>
<text transform="translate(68.8225, 11.8756)" font-family="serif" font-weight="bold" font-size="1.7461" text-anchor="start" fill="currentColor">
<tspan>1</tspan>
</text>
<rect transform="translate(69.4371, 11.9777)" x="-0.0650" y="-5.2500" width="0.1300" height="3.6252" ry="0.0400" fill="currentColor"/>
<g color="rgb(100.0000%, 100.0000%, 100.0000%)">
<rect transform="translate(72.1491, 11.2277)" x="0.1229" y="-0.6603" width="1.2292" height="1.3207" ry="0.0000" fill="currentColor"/>
</g>
<text transform="translate(72.2720, 11.8632)" font-family="serif" font-weight="bold" font-size="1.7461" text-anchor="start" fill="currentColor">
<tspan>3</tspan>
</text>
<rect transform="translate(72.8866, 11.9777)" x="-0.0650" y="0.1414" width="0.1300" height="3.6133" ry="0.0400" fill="currentColor"/>
<g color="rgb(100.0000%, 100.0000%, 100.0000%)">
<rect transform="translate(110.3441, 9.7277)" x="0.1229" y="-0.6480" width="1.2292" height="1.2959" ry="0.0000" fill="currentColor"/>
</g>
<text transform="translate(110.4670, 10.3756)" font-family="serif" font-weight="bold" font-size="1.7461" text-anchor="start" fill="currentColor">
<tspan>1</tspan>
</text>
<rect transform="translate(111.0816, 11.9777)" x="-0.0650" y="-1.3752" width="0.1300" height="4.5807" ry="0.0400" fill="currentColor"/>
<polygon transform="translate(86.3698, 7.2877)" stroke-linejoin="round" stroke-linecap="round" stroke-width="0.0800" fill="currentColor" stroke="currentColor" points="10.4386 0.7400 10.4386 1.1400 0.0400 0.2000 0.0400 -0.2000"/>
<polygon transform="translate(86.3698, 8.0087)" stroke-linejoin="round" stroke-linecap="round" stroke-width="0.0800" fill="currentColor" stroke="currentColor" points="10.4386 0.7400 10.4386 1.1400 0.0400 0.2000 0.0400 -0.2000"/>
<polygon transform="translate(100.1680, 17.0667)" stroke-linejoin="round" stroke-linecap="round" stroke-width="0.0800" fill="currentColor" stroke="currentColor" points="10.9386 -2.8200 10.9386 -2.4200 0.0400 0.2000 0.0400 -0.2000"/>
<polygon transform="translate(100.1680, 17.7877)" stroke-linejoin="round" stroke-linecap="round" stroke-width="0.0800" fill="currentColor" stroke="currentColor" points="10.9386 -2.8200 10.9386 -2.4200 0.0400 0.2000 0.0400 -0.2000"/>
<path transform="translate(92.5964, 11.9777)" stroke-width="0.0800" stroke-linejoin="round" stroke-linecap="round" stroke="currentColor" fill="currentColor" d="M0.7390 3.6603C1.6807 4.5270 3.2530 4.5214 4.1885 3.6480L4.1885 3.6480C3.2525 4.4014 1.6803 4.4070 0.7390 3.6603z"/>
<polygon transform="translate(72.8216, 15.0067)" stroke-linejoin="round" stroke-linecap="round" stroke-width="0.0800" fill="currentColor" stroke="currentColor" points="10.1886 0.5500 10.1886 0.9500 0.0400 0.2000 0.0400 -0.2000"/>
<polygon transform="translate(72.8216, 15.7277)" stroke-linejoin="round" stroke-linecap="round" stroke-width="0.0800" fill="currentColor" stroke="currentColor" points="10.1886 0.5500 10.1886 0.9500 0.0400 0.2000 0.0400 -0.2000"/>
<path transform="translate(82.2478, 11.9777)" stroke-width="0.0800" stroke-linejoin="round" stroke-linecap="round" stroke="currentColor" fill="currentColor" d="M0.7359 -0.8730C1.5865 -1.6696 2.9650 -1.6752 3.8220 -0.8853L3.8220 -0.8853C2.9655 -1.5552 1.5870 -1.5496 0.7359 -0.8730z"/>
<path transform="translate(75.5987, 11.9777)" stroke-width="0.0800" stroke-linejoin="round" stroke-linecap="round" stroke="currentColor" fill="currentColor" d="M0.7360 -2.3730C1.6716 -3.2464 3.2438 -3.2520 4.1856 -2.3853L4.1856 -2.3853C3.2442 -3.1320 1.6720 -3.1264 0.7360 -2.3730z"/>
<polygon transform="translate(62.5981, 6.7277)" stroke-linejoin="round" stroke-linecap="round" stroke-width="0.0800" fill="currentColor" stroke="currentColor" points="6.8640 -0.2000 6.8640 0.2000 0.0400 0.2000 0.0400 -0.2000"/>
<polygon transform="translate(68.3371, 7.4487)" stroke-linejoin="round" stroke-linecap="round" stroke-width="0.0800" fill="currentColor" stroke="currentColor" points="1.1250 -0.2000 1.1250 0.2000 0.0400 0.2000 0.0400 -0.2000"/>
<path transform="translate(68.6996, 11.9777)" stroke-width="0.0800" stroke-linejoin="round" stroke-linecap="round" stroke="currentColor" fill="currentColor" d="M1.1025 -2.3730C1.9524 -3.1689 3.3291 -3.1745 4.1854 -2.3853L4.1854 -2.3853C3.3296 -3.0545 1.9529 -3.0489 1.1025 -2.3730z"/>
<polygon transform="translate(37.4032, 6.7277)" stroke-linejoin="round" stroke-linecap="round" stroke-width="0.0800" fill="currentColor" stroke="currentColor" points="7.1140 -1.1400 7.1140 -0.7400 0.0400 0.2000 0.0400 -0.2000"/>
<polygon transform="translate(43.3921, 6.6617)" stroke-linejoin="round" stroke-linecap="round" stroke-width="0.0800" fill="currentColor" stroke="currentColor" points="1.1250 -0.3531 1.1250 0.0469 0.0400 0.2000 0.0400 -0.2000"/>
<polygon transform="translate(47.7246, 14.0667)" stroke-linejoin="round" stroke-linecap="round" stroke-width="0.0800" fill="currentColor" stroke="currentColor" points="10.1886 0.7400 10.1886 1.1400 0.0400 0.2000 0.0400 -0.2000"/>
<polygon transform="translate(47.7246, 14.7877)" stroke-linejoin="round" stroke-linecap="round" stroke-width="0.0800" fill="currentColor" stroke="currentColor" points="10.1886 0.7400 10.1886 1.1400 0.0400 0.2000 0.0400 -0.2000"/>
<polygon transform="translate(26.2112, 8.9777)" stroke-linejoin="round" stroke-linecap="round" stroke-width="0.0800" fill="currentColor" stroke="currentColor" points="5.8870 -1.8900 5.8870 -1.4900 0.0400 0.2000 0.0400 -0.2000"/>
<g color="rgb(100.0000%, 100.0000%, 100.0000%)">
<rect transform="translate(99.4955, 14.2277)" x="0.1229" y="-0.6603" width="1.2292" height="1.3207" ry="0.0000" fill="currentColor"/>
</g>
<text transform="translate(99.6184, 14.8632)" font-family="serif" font-weight="bold" font-size="1.7461" text-anchor="start" fill="currentColor">
<tspan>0</tspan>
</text>
<g color="rgb(100.0000%, 100.0000%, 100.0000%)">
<rect transform="translate(92.5964, 14.2277)" x="0.1229" y="-0.6603" width="1.2292" height="1.3207" ry="0.0000" fill="currentColor"/>
</g>
<text transform="translate(92.7193, 14.8632)" font-family="serif" font-weight="bold" font-size="1.7461" text-anchor="start" fill="currentColor">
<tspan>3</tspan>
</text>
<rect transform="translate(93.3339, 11.9777)" x="-0.0650" y="-4.0653" width="0.1300" height="5.4238" ry="0.0400" fill="currentColor"/>
<g color="rgb(100.0000%, 100.0000%, 100.0000%)">
<rect transform="translate(96.0459, 14.2277)" x="0.1229" y="-0.6480" width="1.2292" height="1.2959" ry="0.0000" fill="currentColor"/>
</g>
<text transform="translate(96.1688, 14.8756)" font-family="serif" font-weight="bold" font-size="1.7461" text-anchor="start" fill="currentColor">
<tspan>2</tspan>
</text>
<rect transform="translate(96.7834, 11.9777)" x="-0.0650" y="-3.7558" width="0.1300" height="5.1311" ry="0.0400" fill="currentColor"/>
<rect transform="translate(100.2330, 11.9777)" x="-0.0650" y="3.1414" width="0.1300" height="2.6530" ry="0.0400" fill="currentColor"/>
<g color="rgb(100.0000%, 100.0000%, 100.0000%)">
<rect transform="translate(103.1950, 11.2277)" x="0.1229" y="-0.6603" width="1.2292" height="1.3207" ry="0.0000" fill="currentColor"/>
</g>
<text transform="translate(103.3179, 11.8632)" font-family="serif" font-weight="bold" font-size="1.7461" text-anchor="start" fill="currentColor">
<tspan>3</tspan>
</text>
<rect transform="translate(103.9325, 11.9777)" x="-0.0650" y="0.1414" width="0.1300" height="4.7702" ry="0.0400" fill="currentColor"/>
<g color="rgb(100.0000%, 100.0000%, 100.0000%)">
<rect transform="translate(106.8946, 9.7277)" x="0.1229" y="-0.6603" width="1.2292" height="1.3207" ry="0.0000" fill="currentColor"/>
</g>
<text transform="translate(107.0175, 10.3632)" font-family="serif" font-weight="bold" font-size="1.7461" text-anchor="start" fill="currentColor">
<tspan>0</tspan>
</text>
<rect transform="translate(107.6321, 11.9777)" x="-0.0650" y="-1.3586" width="0.1300" height="5.3873" ry="0.0400" fill="currentColor"/>
<rect transform="translate(19.6271, 11.9777)" x="-0.0650" y="-3.7500" width="0.1300" height="2.1086" ry="0.0400" fill="currentColor"/>
<g color="rgb(100.0000%, 100.0000%, 100.0000%)">
<rect transform="translate(22.0892, 14.2277)" x="0.1229" y="-0.6603" width="1.2292" height="1.3207" ry="0.0000" fill="currentColor"/>
</g>
<text transform="translate(22.2121, 14.8632)" font-family="serif" font-weight="bold" font-size="1.7461" text-anchor="start" fill="currentColor">
<tspan>3</tspan>
</text>
<rect transform="translate(22.8267, 11.9777)" x="-0.0650" y="-3.7500" width="0.1300" height="5.1086" ry="0.0400" fill="currentColor"/>
<g color="rgb(100.0000%, 100.0000%, 100.0000%)">
<rect transform="translate(25.5387, 14.2277)" x="0.1229" y="-0.6480" width="1.2292" height="1.2959" ry="0.0000" fill="currentColor"/>
</g>
<text transform="translate(25.6616, 14.8756)" font-family="serif" font-weight="bold" font-size="1.7461" text-anchor="start" fill="currentColor">
<tspan>2</tspan>
</text>
<rect transform="translate(26.2762, 11.9777)" x="-0.0650" y="-3.0185" width="0.1300" height="4.3938" ry="0.0400" fill="currentColor"/>
<g color="rgb(100.0000%, 100.0000%, 100.0000%)">
<rect transform="translate(18.8896, 11.2277)" x="0.1229" y="-0.6603" width="1.2292" height="1.3207" ry="0.0000" fill="currentColor"/>
</g>
<text transform="translate(19.0126, 11.8632)" font-family="serif" font-weight="bold" font-size="1.7461" text-anchor="start" fill="currentColor">
<tspan>3</tspan>
</text>
<g color="rgb(100.0000%, 100.0000%, 100.0000%)">
<rect transform="translate(31.3357, 11.2277)" x="0.1229" y="-0.6480" width="1.2292" height="1.2959" ry="0.0000" fill="currentColor"/>
</g>
<text transform="translate(31.4587, 11.8756)" font-family="serif" font-weight="bold" font-size="1.7461" text-anchor="start" fill="currentColor">
<tspan>2</tspan>
</text>
<rect transform="translate(32.0732, 11.9777)" x="-0.0650" y="-4.6715" width="0.1300" height="3.0467" ry="0.0400" fill="currentColor"/>
<g color="rgb(100.0000%, 100.0000%, 100.0000%)">
<rect transform="translate(36.7307, 11.2277)" x="0.1229" y="-0.6603" width="1.2292" height="1.3207" ry="0.0000" fill="currentColor"/>
</g>
<text transform="translate(36.8536, 11.8632)" font-family="serif" font-weight="bold" font-size="1.7461" text-anchor="start" fill="currentColor">
<tspan>3</tspan>
</text>
<g color="rgb(100.0000%, 100.0000%, 100.0000%)">
<rect transform="translate(36.7307, 14.2277)" x="0.1229" y="-0.6603" width="1.2292" height="1.3207" ry="0.0000" fill="currentColor"/>
</g>
<text transform="translate(36.8536, 14.8632)" font-family="serif" font-weight="bold" font-size="1.7461" text-anchor="start" fill="currentColor">
<tspan>0</tspan>
</text>
<path transform="translate(38.5327, 10.4777) scale(0.0040, -0.0040)" d="M0 0c0 31 25 56 56 56s56 -25 56 -56s-25 -56 -56 -56s-56 25 -56 56z" fill="currentColor"/>
<rect transform="translate(37.4682, 11.9777)" x="-0.0650" y="-5.2585" width="0.1300" height="3.6171" ry="0.0400" fill="currentColor"/>
<text transform="translate(3.4371, 8.6529)" font-family="serif" font-size="1.7461" text-anchor="start" fill="currentColor">
<tspan>18</tspan>
</text>
<path transform="translate(6.2906, 11.9777) scale(0.0040, -0.0040)" d="M267 -425c0 -24 -23 -27 -43 -27c-45 0 -84 31 -84 75c0 82 118 130 234 130c104 0 215 -22 215 -103c0 -51 -31 -86 -69 -110c58 -11 102 -36 102 -91c0 -90 -94 -158 -179 -158c-41 0 -80 15 -108 52c-2 2 -3 5 -3 8c0 12 16 25 28 25c4 0 8 -1 10 -4
c11 -15 27 -21 44 -21c43 0 95 40 95 93c0 46 -49 63 -100 63h-1c-6 0 -8 8 -8 16c0 11 5 24 18 24h1c36 0 68 39 68 77c0 45 -36 68 -80 76c-11 -62 -31 -173 -40 -220c-20 -102 -84 -202 -159 -202c-44 0 -68 34 -96 53c-3 2 -4 5 -4 9c0 11 12 26 24 26c3 0 5 0 7 -2
c20 -13 36 -35 65 -35c65 0 89 99 89 195v8c0 35 9 109 18 163c-39 -13 -70 -40 -70 -70c0 -15 8 -28 19 -34c4 -3 7 -9 7 -16zM301 -83c-43 -41 -114 -105 -173 -105c-33 0 -52 21 -78 32c-3 1 -5 5 -5 9c0 11 11 28 25 28c2 0 5 -1 7 -2c16 -7 30 -18 50 -18
c34 0 65 27 91 54c100 102 175 219 214 336c9 27 33 37 57 37c29 0 57 -15 57 -31c0 -2 -1 -4 -2 -6c-4 -116 -9 -233 -16 -350v-9c0 -16 3 -30 21 -30c16 0 35 13 53 19l2 1c5 0 9 -8 9 -17c0 -8 -3 -16 -12 -19c-29 -9 -54 -34 -87 -34c-32 0 -45 29 -53 58
c-16 61 -26 125 -31 191c-27 -35 -56 -68 -87 -101c11 -20 33 -33 64 -33c4 0 8 1 12 1c5 0 8 -7 8 -15c0 -25 -34 -29 -56 -29c-32 0 -56 12 -70 33zM288 540c0 -23 -23 -24 -42 -24c-49 0 -91 36 -91 84c0 95 125 120 232 120c49 0 119 -41 171 -41c38 0 77 15 110 41
c3 2 6 3 9 3c11 0 23 -11 23 -19c0 -2 -1 -3 -2 -4c-40 -45 -95 -71 -148 -71c-15 0 -31 2 -44 6c-9 -59 -26 -151 -35 -193c-22 -96 -88 -185 -163 -185c-52 0 -81 42 -115 64c-3 2 -4 5 -4 9c0 11 12 26 23 26c2 0 5 -1 7 -2c23 -15 43 -46 75 -46c56 0 82 77 85 150
c2 45 13 150 22 208c-12 3 -31 5 -32 5c-51 0 -113 -21 -113 -70c0 -18 10 -36 24 -43c5 -3 8 -10 8 -18z" fill="currentColor"/>
<g color="rgb(100.0000%, 100.0000%, 100.0000%)">
<rect transform="translate(11.4906, 14.2277)" x="0.1229" y="-0.6603" width="1.2292" height="1.3207" ry="0.0000" fill="currentColor"/>
</g>
<text transform="translate(11.6135, 14.8632)" font-family="serif" font-weight="bold" font-size="1.7461" text-anchor="start" fill="currentColor">
<tspan>3</tspan>
</text>
<rect transform="translate(12.2280, 11.9777)" x="-0.0650" y="-3.7500" width="0.1300" height="5.1086" ry="0.0400" fill="currentColor"/>
<g color="rgb(100.0000%, 100.0000%, 100.0000%)">
<rect transform="translate(15.1901, 12.7277)" x="0.1229" y="-0.6480" width="1.2292" height="1.2959" ry="0.0000" fill="currentColor"/>
</g>
<text transform="translate(15.3130, 13.3756)" font-family="serif" font-weight="bold" font-size="1.7461" text-anchor="start" fill="currentColor">
<tspan>2</tspan>
</text>
<rect transform="translate(15.9276, 11.9777)" x="-0.0650" y="-3.7500" width="0.1300" height="3.6252" ry="0.0400" fill="currentColor"/>
<g color="rgb(100.0000%, 100.0000%, 100.0000%)">
<rect transform="translate(57.1507, 11.2277)" x="0.1229" y="-0.6480" width="1.2292" height="1.2959" ry="0.0000" fill="currentColor"/>
</g>
<text transform="translate(57.2736, 11.8756)" font-family="serif" font-weight="bold" font-size="1.7461" text-anchor="start" fill="currentColor">
<tspan>1</tspan>
</text>
<g color="rgb(100.0000%, 100.0000%, 100.0000%)">
<rect transform="translate(47.0521, 9.7277)" x="0.1229" y="-0.6480" width="1.2292" height="1.2959" ry="0.0000" fill="currentColor"/>
</g>
<text transform="translate(47.1750, 10.3756)" font-family="serif" font-weight="bold" font-size="1.7461" text-anchor="start" fill="currentColor">
<tspan>1</tspan>
</text>
<rect transform="translate(47.7896, 11.9777)" x="-0.0650" y="-1.3752" width="0.1300" height="4.1912" ry="0.0400" fill="currentColor"/>
<g color="rgb(100.0000%, 100.0000%, 100.0000%)">
<rect transform="translate(61.9256, 14.2277)" x="0.1229" y="-0.6603" width="1.2292" height="1.3207" ry="0.0000" fill="currentColor"/>
</g>
<text transform="translate(62.0485, 14.8632)" font-family="serif" font-weight="bold" font-size="1.7461" text-anchor="start" fill="currentColor">
<tspan>3</tspan>
</text>
<g color="rgb(100.0000%, 100.0000%, 100.0000%)">
<rect transform="translate(50.5016, 9.7277)" x="0.1229" y="-0.6488" width="1.2292" height="1.2976" ry="0.0000" fill="currentColor"/>
</g>
<text transform="translate(50.6246, 10.3517)" font-family="serif" font-weight="bold" font-size="1.7461" text-anchor="start" fill="currentColor">
<tspan>5</tspan>
</text>
<rect transform="translate(51.2391, 11.9777)" x="-0.0650" y="-1.3741" width="0.1300" height="4.5071" ry="0.0400" fill="currentColor"/>
<rect transform="translate(54.4387, 11.9777)" x="-0.0650" y="0.1414" width="0.1300" height="3.2856" ry="0.0400" fill="currentColor"/>
<g color="rgb(100.0000%, 100.0000%, 100.0000%)">
<rect transform="translate(53.7012, 11.2277)" x="0.1229" y="-0.6603" width="1.2292" height="1.3207" ry="0.0000" fill="currentColor"/>
</g>
<text transform="translate(53.8241, 11.8632)" font-family="serif" font-weight="bold" font-size="1.7461" text-anchor="start" fill="currentColor">
<tspan>3</tspan>
</text>
<path transform="translate(38.5327, 14.9777) scale(0.0040, -0.0040)" d="M0 0c0 31 25 56 56 56s56 -25 56 -56s-25 -56 -56 -56s-56 25 -56 56z" fill="currentColor"/>
<rect transform="translate(37.4682, 11.9777)" x="-0.0650" y="3.1414" width="0.1300" height="3.6086" ry="0.0400" fill="currentColor"/>
<g color="rgb(100.0000%, 100.0000%, 100.0000%)">
<rect transform="translate(61.9256, 11.2277)" x="0.1229" y="-0.6603" width="1.2292" height="1.3207" ry="0.0000" fill="currentColor"/>
</g>
<text transform="translate(62.0485, 11.8632)" font-family="serif" font-weight="bold" font-size="1.7461" text-anchor="start" fill="currentColor">
<tspan>0</tspan>
</text>
<path transform="translate(37.5332, 18.6877) scale(0.0040, -0.0040)" d="M0 0h-16v250h16v-250zM0 0v250c97 59 224 148 224 259c0 57 -15 112 -40 163c-3 16 10 27 23 27c7 0 15 -3 20 -11c25 -56 40 -117 40 -179c0 -203 -267 -306 -267 -509z" fill="currentColor"/>
<g color="rgb(100.0000%, 100.0000%, 100.0000%)">
<rect transform="translate(43.7546, 9.7277)" x="0.1229" y="-0.6603" width="1.2292" height="1.3207" ry="0.0000" fill="currentColor"/>
</g>
<text transform="translate(43.8775, 10.3632)" font-family="serif" font-weight="bold" font-size="1.7461" text-anchor="start" fill="currentColor">
<tspan>0</tspan>
</text>
<rect transform="translate(44.4921, 11.9777)" x="-0.0650" y="-6.1815" width="0.1300" height="3.0400" ry="0.0400" fill="currentColor"/>
<rect transform="translate(57.8882, 11.9777)" x="-0.0650" y="0.1248" width="0.1300" height="3.6193" ry="0.0400" fill="currentColor"/>
<line transform="translate(5.6906, 30.7651)" stroke-linejoin="round" stroke-linecap="round" stroke-width="0.1000" stroke="currentColor" x1="0.0500" y1="-0.0000" x2="108.0705" y2="-0.0000"/>
<line transform="translate(5.6906, 29.2651)" stroke-linejoin="round" stroke-linecap="round" stroke-width="0.1000" stroke="currentColor" x1="0.0500" y1="-0.0000" x2="108.0705" y2="-0.0000"/>
<line transform="translate(5.6906, 27.7651)" stroke-linejoin="round" stroke-linecap="round" stroke-width="0.1000" stroke="currentColor" x1="0.0500" y1="-0.0000" x2="108.0705" y2="-0.0000"/>
<line transform="translate(5.6906, 26.2651)" stroke-linejoin="round" stroke-linecap="round" stroke-width="0.1000" stroke="currentColor" x1="0.0500" y1="-0.0000" x2="108.0705" y2="-0.0000"/>
<rect transform="translate(61.7949, 28.5151)" x="0.0000" y="-2.2500" width="0.1900" height="4.5000" ry="0.0000" fill="currentColor"/>
<rect transform="translate(113.6210, 28.5151)" x="0.0000" y="-2.2500" width="0.1900" height="4.5000" ry="0.0000" fill="currentColor"/>
<rect transform="translate(83.3481, 28.5151)" x="-0.0650" y="-1.3586" width="0.1300" height="5.6686" ry="0.0400" fill="currentColor"/>
<g color="rgb(100.0000%, 100.0000%, 100.0000%)">
<rect transform="translate(82.6106, 26.2651)" x="0.1229" y="-0.6603" width="1.2292" height="1.3207" ry="0.0000" fill="currentColor"/>
</g>
<text transform="translate(82.7335, 26.9007)" font-family="serif" font-weight="bold" font-size="1.7461" text-anchor="start" fill="currentColor">
<tspan>0</tspan>
</text>
<rect transform="translate(79.9322, 28.5151)" x="-0.0650" y="0.1414" width="0.1300" height="4.1686" ry="0.0400" fill="currentColor"/>
<g color="rgb(100.0000%, 100.0000%, 100.0000%)">
<rect transform="translate(79.1947, 27.7651)" x="0.1229" y="-0.6603" width="1.2292" height="1.3207" ry="0.0000" fill="currentColor"/>
</g>
<text transform="translate(79.3176, 28.4007)" font-family="serif" font-weight="bold" font-size="1.7461" text-anchor="start" fill="currentColor">
<tspan>3</tspan>
</text>
<g color="rgb(100.0000%, 100.0000%, 100.0000%)">
<rect transform="translate(85.5265, 27.7651)" x="0.1229" y="-0.6603" width="1.2292" height="1.3207" ry="0.0000" fill="currentColor"/>
</g>
<text transform="translate(85.6494, 28.4007)" font-family="serif" font-weight="bold" font-size="1.7461" text-anchor="start" fill="currentColor">
<tspan>0</tspan>
</text>
<rect transform="translate(86.2640, 28.5151)" x="-0.0650" y="0.1414" width="0.1300" height="4.1686" ry="0.0400" fill="currentColor"/>
<g color="rgb(100.0000%, 100.0000%, 100.0000%)">
<rect transform="translate(88.6925, 27.7651)" x="0.1229" y="-0.6480" width="1.2292" height="1.2959" ry="0.0000" fill="currentColor"/>
</g>
<text transform="translate(88.8154, 28.4130)" font-family="serif" font-weight="bold" font-size="1.7461" text-anchor="start" fill="currentColor">
<tspan>1</tspan>
</text>
<rect transform="translate(89.4299, 28.5151)" x="-0.0650" y="-4.6835" width="0.1300" height="3.0587" ry="0.0400" fill="currentColor"/>
<g color="rgb(100.0000%, 100.0000%, 100.0000%)">
<rect transform="translate(91.6084, 29.2651)" x="0.1229" y="-0.6480" width="1.2292" height="1.2959" ry="0.0000" fill="currentColor"/>
</g>
<text transform="translate(91.7313, 29.9130)" font-family="serif" font-weight="bold" font-size="1.7461" text-anchor="start" fill="currentColor">
<tspan>2</tspan>
</text>
<rect transform="translate(92.3459, 28.5151)" x="-0.0650" y="-4.3912" width="0.1300" height="4.2664" ry="0.0400" fill="currentColor"/>
<rect transform="translate(63.8526, 28.5151)" x="-0.0650" y="3.1248" width="0.1300" height="2.6684" ry="0.0400" fill="currentColor"/>
<polygon transform="translate(12.1630, 30.6041)" stroke-linejoin="round" stroke-linecap="round" stroke-width="0.0800" fill="currentColor" stroke="currentColor" points="9.3378 0.7400 9.3378 1.1400 0.0400 0.2000 0.0400 -0.2000"/>
<polygon transform="translate(12.1630, 31.3251)" stroke-linejoin="round" stroke-linecap="round" stroke-width="0.0800" fill="currentColor" stroke="currentColor" points="9.3378 0.7400 9.3378 1.1400 0.0400 0.2000 0.0400 -0.2000"/>
<g color="rgb(100.0000%, 100.0000%, 100.0000%)">
<rect transform="translate(66.5310, 27.7651)" x="0.1229" y="-0.6603" width="1.2292" height="1.3207" ry="0.0000" fill="currentColor"/>
</g>
<text transform="translate(66.6539, 28.4007)" font-family="serif" font-weight="bold" font-size="1.7461" text-anchor="start" fill="currentColor">
<tspan>3</tspan>
</text>
<rect transform="translate(67.2685, 28.5151)" x="-0.0650" y="0.1414" width="0.1300" height="4.7681" ry="0.0400" fill="currentColor"/>
<rect transform="translate(77.0163, 28.5151)" x="-0.0650" y="-1.3908" width="0.1300" height="5.7008" ry="0.0400" fill="currentColor"/>
<g color="rgb(100.0000%, 100.0000%, 100.0000%)">
<rect transform="translate(69.9469, 26.2651)" x="0.1229" y="-0.6480" width="1.2292" height="1.2959" ry="0.0000" fill="currentColor"/>
</g>
<text transform="translate(70.0698, 26.9130)" font-family="serif" font-weight="bold" font-size="1.7461" text-anchor="start" fill="currentColor">
<tspan>4</tspan>
</text>
<rect transform="translate(70.6844, 28.5151)" x="-0.0650" y="-1.3752" width="0.1300" height="5.4011" ry="0.0400" fill="currentColor"/>
<g color="rgb(100.0000%, 100.0000%, 100.0000%)">
<rect transform="translate(73.1128, 26.2651)" x="0.1229" y="-0.6488" width="1.2292" height="1.2976" ry="0.0000" fill="currentColor"/>
</g>
<text transform="translate(73.2358, 26.8892)" font-family="serif" font-weight="bold" font-size="1.7461" text-anchor="start" fill="currentColor">
<tspan>5</tspan>
</text>
<rect transform="translate(73.8503, 28.5151)" x="-0.0650" y="-1.3741" width="0.1300" height="4.5809" ry="0.0400" fill="currentColor"/>
<g color="rgb(100.0000%, 100.0000%, 100.0000%)">
<rect transform="translate(76.2788, 26.2651)" x="0.1229" y="-0.6365" width="1.2292" height="1.2729" ry="0.0000" fill="currentColor"/>
</g>
<text transform="translate(76.4017, 26.9015)" font-family="serif" font-weight="bold" font-size="1.7461" text-anchor="start" fill="currentColor">
<tspan>7</tspan>
</text>
<path transform="translate(97.9402, 28.5151)" stroke-width="0.0800" stroke-linejoin="round" stroke-linecap="round" stroke="currentColor" fill="currentColor" d="M0.5733 2.3730C1.0505 3.4699 2.3600 4.0425 3.4893 3.6480L3.4893 3.6480C2.4081 3.9325 1.0986 3.3599 0.5733 2.3730z"/>
<polygon transform="translate(101.5286, 23.2651)" stroke-linejoin="round" stroke-linecap="round" stroke-width="0.0800" fill="currentColor" stroke="currentColor" points="9.5878 -0.2000 9.5878 0.2000 0.0400 0.2000 0.0400 -0.2000"/>
<polygon transform="translate(101.5286, 23.9861)" stroke-linejoin="round" stroke-linecap="round" stroke-width="0.0800" fill="currentColor" stroke="currentColor" points="9.5878 -0.2000 9.5878 0.2000 0.0400 0.2000 0.0400 -0.2000"/>
<path transform="translate(91.6084, 28.5151)" stroke-width="0.0800" stroke-linejoin="round" stroke-linecap="round" stroke="currentColor" fill="currentColor" d="M0.5720 2.3730C1.0459 3.4730 2.3558 4.0513 3.4879 3.6603L3.4879 3.6603C2.4043 3.9415 1.0944 3.3632 0.5720 2.3730z"/>
<rect transform="translate(111.0914, 28.5151)" x="-0.0650" y="-5.2500" width="0.1300" height="5.1252" ry="0.0400" fill="currentColor"/>
<g color="rgb(100.0000%, 100.0000%, 100.0000%)">
<rect transform="translate(110.3539, 29.2651)" x="0.1229" y="-0.6480" width="1.2292" height="1.2959" ry="0.0000" fill="currentColor"/>
</g>
<text transform="translate(110.4768, 29.9130)" font-family="serif" font-weight="bold" font-size="1.7461" text-anchor="start" fill="currentColor">
<tspan>2</tspan>
</text>
<polygon transform="translate(89.3649, 23.8251)" stroke-linejoin="round" stroke-linecap="round" stroke-width="0.0800" fill="currentColor" stroke="currentColor" points="9.3378 0.7400 9.3378 1.1400 0.0400 0.2000 0.0400 -0.2000"/>
<polygon transform="translate(89.3649, 24.5461)" stroke-linejoin="round" stroke-linecap="round" stroke-width="0.0800" fill="currentColor" stroke="currentColor" points="9.3378 0.7400 9.3378 1.1400 0.0400 0.2000 0.0400 -0.2000"/>
<path transform="translate(85.5265, 28.5151)" stroke-width="0.0800" stroke-linejoin="round" stroke-linecap="round" stroke="currentColor" fill="currentColor" d="M0.7393 -2.3853C1.5274 -3.1126 2.7568 -3.1072 3.5384 -2.3730L3.5384 -2.3730C2.7563 -2.9872 1.5268 -2.9926 0.7393 -2.3853z"/>
<path transform="translate(79.1947, 28.5151)" stroke-width="0.0800" stroke-linejoin="round" stroke-linecap="round" stroke="currentColor" fill="currentColor" d="M0.5942 -2.3853C1.1972 -3.5822 2.7705 -4.1694 4.0101 -3.6603L4.0101 -3.6603C2.8124 -4.0570 1.2391 -3.4698 0.5942 -2.3853z"/>
<polygon transform="translate(76.9513, 32.1041)" stroke-linejoin="round" stroke-linecap="round" stroke-width="0.0800" fill="currentColor" stroke="currentColor" points="9.3378 -0.2000 9.3378 0.2000 0.0400 0.2000 0.0400 -0.2000"/>
<polygon transform="translate(76.9513, 32.8251)" stroke-linejoin="round" stroke-linecap="round" stroke-width="0.0800" fill="currentColor" stroke="currentColor" points="9.3378 -0.2000 9.3378 0.2000 0.0400 0.2000 0.0400 -0.2000"/>
<path transform="translate(66.5310, 28.5151)" stroke-width="0.0800" stroke-linejoin="round" stroke-linecap="round" stroke="currentColor" fill="currentColor" d="M0.6603 -2.3853C1.9504 -4.0945 5.4107 -4.7588 7.2421 -3.6488L7.2421 -3.6488C5.4333 -4.6410 1.9731 -3.9767 0.6603 -2.3853z"/>
<polygon transform="translate(63.7876, 33.6041)" stroke-linejoin="round" stroke-linecap="round" stroke-width="0.0800" fill="currentColor" stroke="currentColor" points="10.0878 -2.8200 10.0878 -2.4200 0.0400 0.2000 0.0400 -0.2000"/>
<polygon transform="translate(63.7876, 34.3251)" stroke-linejoin="round" stroke-linecap="round" stroke-width="0.0800" fill="currentColor" stroke="currentColor" points="10.0878 -2.8200 10.0878 -2.4200 0.0400 0.2000 0.0400 -0.2000"/>
<path transform="translate(55.8135, 28.5151)" stroke-width="0.0800" stroke-linejoin="round" stroke-linecap="round" stroke="currentColor" fill="currentColor" d="M0.9003 -3.6480C2.0267 -4.0460 3.3358 -3.4791 3.8162 -2.3853L3.8162 -2.3853C3.2881 -3.3690 1.9790 -3.9359 0.9003 -3.6480z"/>
<path transform="translate(49.4816, 28.5151)" stroke-width="0.0800" stroke-linejoin="round" stroke-linecap="round" stroke="currentColor" fill="currentColor" d="M0.7360 -3.6488C1.6058 -4.4623 3.0263 -4.4675 3.9019 -3.6603L3.9019 -3.6603C3.0267 -4.3475 1.6062 -4.3423 0.7360 -3.6488z"/>
<polygon transform="translate(50.1541, 30.7941)" stroke-linejoin="round" stroke-linecap="round" stroke-width="0.0800" fill="currentColor" stroke="currentColor" points="9.3378 0.5500 9.3378 0.9500 0.0400 0.2000 0.0400 -0.2000"/>
<polygon transform="translate(50.1541, 31.5151)" stroke-linejoin="round" stroke-linecap="round" stroke-width="0.0800" fill="currentColor" stroke="currentColor" points="9.3378 0.5500 9.3378 0.9500 0.0400 0.2000 0.0400 -0.2000"/>
<path transform="translate(39.4838, 28.5151)" stroke-width="0.0800" stroke-linejoin="round" stroke-linecap="round" stroke="currentColor" fill="currentColor" d="M0.5827 -0.8730C1.5838 -2.9304 5.2599 -4.4303 7.4146 -3.6603L7.4146 -3.6603C5.3052 -4.3191 1.6291 -2.8193 0.5827 -0.8730z"/>
<polygon transform="translate(36.7404, 33.6041)" stroke-linejoin="round" stroke-linecap="round" stroke-width="0.0800" fill="currentColor" stroke="currentColor" points="10.3378 -2.8200 10.3378 -2.4200 0.0400 0.2000 0.0400 -0.2000"/>
<polygon transform="translate(36.7404, 34.3251)" stroke-linejoin="round" stroke-linecap="round" stroke-width="0.0800" fill="currentColor" stroke="currentColor" points="10.3378 -2.8200 10.3378 -2.4200 0.0400 0.2000 0.0400 -0.2000"/>
<path transform="translate(30.2361, 28.5151)" stroke-width="0.0800" stroke-linejoin="round" stroke-linecap="round" stroke="currentColor" fill="currentColor" d="M0.9249 -2.4578C2.1062 -2.9264 3.4229 -2.2491 3.8408 -0.9578L3.8408 -0.9578C3.3680 -2.1424 2.0513 -2.8197 0.9249 -2.4578z"/>
<path transform="translate(24.1542, 28.5151)" stroke-width="0.0800" stroke-linejoin="round" stroke-linecap="round" stroke="currentColor" fill="currentColor" d="M0.9016 -3.6603C2.0309 -4.0548 3.3404 -3.4822 3.8176 -2.3853L3.8176 -2.3853C3.2924 -3.3723 1.9828 -3.9449 0.9016 -3.6603z"/>
<polygon transform="translate(24.8267, 31.5441)" stroke-linejoin="round" stroke-linecap="round" stroke-width="0.0800" fill="currentColor" stroke="currentColor" points="9.0878 1.3000 9.0878 1.7000 0.0400 0.2000 0.0400 -0.2000"/>
<polygon transform="translate(24.8267, 32.2651)" stroke-linejoin="round" stroke-linecap="round" stroke-width="0.0800" fill="currentColor" stroke="currentColor" points="9.0878 1.3000 9.0878 1.7000 0.0400 0.2000 0.0400 -0.2000"/>
<path transform="translate(14.6565, 28.5151)" stroke-width="0.0800" stroke-linejoin="round" stroke-linecap="round" stroke="currentColor" fill="currentColor" d="M0.8223 -3.6603C2.5753 -4.6841 5.7163 -4.0192 6.9042 -2.3730L6.9042 -2.3730C5.6915 -3.9018 2.5505 -4.5667 0.8223 -3.6603z"/>
<rect transform="translate(101.5936, 28.5151)" x="-0.0650" y="-5.2500" width="0.1300" height="6.6252" ry="0.0400" fill="currentColor"/>
<g color="rgb(100.0000%, 100.0000%, 100.0000%)">
<rect transform="translate(94.5243, 30.7651)" x="0.1229" y="-0.6603" width="1.2292" height="1.3207" ry="0.0000" fill="currentColor"/>
</g>
<text transform="translate(94.6472, 31.4007)" font-family="serif" font-weight="bold" font-size="1.7461" text-anchor="start" fill="currentColor">
<tspan>3</tspan>
</text>
<rect transform="translate(95.2618, 28.5151)" x="-0.0650" y="-4.0989" width="0.1300" height="5.4575" ry="0.0400" fill="currentColor"/>
<g color="rgb(100.0000%, 100.0000%, 100.0000%)">
<rect transform="translate(97.9402, 29.2651)" x="0.1229" y="-0.6480" width="1.2292" height="1.2959" ry="0.0000" fill="currentColor"/>
</g>
<text transform="translate(98.0631, 29.9130)" font-family="serif" font-weight="bold" font-size="1.7461" text-anchor="start" fill="currentColor">
<tspan>2</tspan>
</text>
<rect transform="translate(98.6777, 28.5151)" x="-0.0650" y="-3.7565" width="0.1300" height="3.6318" ry="0.0400" fill="currentColor"/>
<g color="rgb(100.0000%, 100.0000%, 100.0000%)">
<rect transform="translate(100.8561, 30.7651)" x="0.1229" y="-0.6480" width="1.2292" height="1.2959" ry="0.0000" fill="currentColor"/>
</g>
<text transform="translate(100.9791, 31.4130)" font-family="serif" font-weight="bold" font-size="1.7461" text-anchor="start" fill="currentColor">
<tspan>1</tspan>
</text>
<g color="rgb(100.0000%, 100.0000%, 100.0000%)">
<rect transform="translate(104.2721, 27.7651)" x="0.1229" y="-0.6480" width="1.2292" height="1.2959" ry="0.0000" fill="currentColor"/>
</g>
<text transform="translate(104.3950, 28.4130)" font-family="serif" font-weight="bold" font-size="1.7461" text-anchor="start" fill="currentColor">
<tspan>1</tspan>
</text>
<rect transform="translate(105.0096, 28.5151)" x="-0.0650" y="-5.2500" width="0.1300" height="3.6252" ry="0.0400" fill="currentColor"/>
<g color="rgb(100.0000%, 100.0000%, 100.0000%)">
<rect transform="translate(107.4380, 27.7651)" x="0.1229" y="-0.6603" width="1.2292" height="1.3207" ry="0.0000" fill="currentColor"/>
</g>
<text transform="translate(107.5609, 28.4007)" font-family="serif" font-weight="bold" font-size="1.7461" text-anchor="start" fill="currentColor">
<tspan>0</tspan>
</text>
<rect transform="translate(108.1755, 28.5151)" x="-0.0650" y="-5.2500" width="0.1300" height="3.6086" ry="0.0400" fill="currentColor"/>
<g color="rgb(100.0000%, 100.0000%, 100.0000%)">
<rect transform="translate(24.1542, 26.2651)" x="0.1229" y="-0.6603" width="1.2292" height="1.3207" ry="0.0000" fill="currentColor"/>
</g>
<text transform="translate(24.2772, 26.9007)" font-family="serif" font-weight="bold" font-size="1.7461" text-anchor="start" fill="currentColor">
<tspan>0</tspan>
</text>
<rect transform="translate(27.8077, 28.5151)" x="-0.0650" y="0.1414" width="0.1300" height="4.0984" ry="0.0400" fill="currentColor"/>
<g color="rgb(100.0000%, 100.0000%, 100.0000%)">
<rect transform="translate(27.0702, 27.7651)" x="0.1229" y="-0.6603" width="1.2292" height="1.3207" ry="0.0000" fill="currentColor"/>
</g>
<text transform="translate(27.1931, 28.4007)" font-family="serif" font-weight="bold" font-size="1.7461" text-anchor="start" fill="currentColor">
<tspan>0</tspan>
</text>
<rect transform="translate(24.8917, 28.5151)" x="-0.0650" y="-1.3586" width="0.1300" height="5.1192" ry="0.0400" fill="currentColor"/>
<rect transform="translate(21.4758, 28.5151)" x="-0.0650" y="0.1248" width="0.1300" height="3.6187" ry="0.0400" fill="currentColor"/>
<g color="rgb(100.0000%, 100.0000%, 100.0000%)">
<rect transform="translate(20.7383, 27.7651)" x="0.1229" y="-0.6480" width="1.2292" height="1.2959" ry="0.0000" fill="currentColor"/>
</g>
<text transform="translate(20.8612, 28.4130)" font-family="serif" font-weight="bold" font-size="1.7461" text-anchor="start" fill="currentColor">
<tspan>1</tspan>
</text>
<g color="rgb(100.0000%, 100.0000%, 100.0000%)">
<rect transform="translate(30.2361, 27.7651)" x="0.1229" y="-0.6480" width="1.2292" height="1.2959" ry="0.0000" fill="currentColor"/>
</g>
<text transform="translate(30.3590, 28.4130)" font-family="serif" font-weight="bold" font-size="1.7461" text-anchor="start" fill="currentColor">
<tspan>1</tspan>
</text>
<rect transform="translate(30.9736, 28.5151)" x="-0.0650" y="0.1248" width="0.1300" height="4.6354" ry="0.0400" fill="currentColor"/>
<rect transform="translate(33.8895, 28.5151)" x="-0.0650" y="1.6248" width="0.1300" height="3.6146" ry="0.0400" fill="currentColor"/>
<g color="rgb(100.0000%, 100.0000%, 100.0000%)">
<rect transform="translate(36.0679, 30.7651)" x="0.1229" y="-0.6603" width="1.2292" height="1.3207" ry="0.0000" fill="currentColor"/>
</g>
<text transform="translate(36.1908, 31.4007)" font-family="serif" font-weight="bold" font-size="1.7461" text-anchor="start" fill="currentColor">
<tspan>3</tspan>
</text>
<g color="rgb(100.0000%, 100.0000%, 100.0000%)">
<rect transform="translate(11.4906, 26.2651)" x="0.1229" y="-0.6480" width="1.2292" height="1.2959" ry="0.0000" fill="currentColor"/>
</g>
<text transform="translate(11.6135, 26.9130)" font-family="serif" font-weight="bold" font-size="1.7461" text-anchor="start" fill="currentColor">
<tspan>1</tspan>
</text>
<text transform="translate(3.4371, 25.1904)" font-family="serif" font-size="1.7461" text-anchor="start" fill="currentColor">
<tspan>20</tspan>
</text>
<path transform="translate(6.2906, 28.5151) scale(0.0040, -0.0040)" d="M267 -425c0 -24 -23 -27 -43 -27c-45 0 -84 31 -84 75c0 82 118 130 234 130c104 0 215 -22 215 -103c0 -51 -31 -86 -69 -110c58 -11 102 -36 102 -91c0 -90 -94 -158 -179 -158c-41 0 -80 15 -108 52c-2 2 -3 5 -3 8c0 12 16 25 28 25c4 0 8 -1 10 -4
c11 -15 27 -21 44 -21c43 0 95 40 95 93c0 46 -49 63 -100 63h-1c-6 0 -8 8 -8 16c0 11 5 24 18 24h1c36 0 68 39 68 77c0 45 -36 68 -80 76c-11 -62 -31 -173 -40 -220c-20 -102 -84 -202 -159 -202c-44 0 -68 34 -96 53c-3 2 -4 5 -4 9c0 11 12 26 24 26c3 0 5 0 7 -2
c20 -13 36 -35 65 -35c65 0 89 99 89 195v8c0 35 9 109 18 163c-39 -13 -70 -40 -70 -70c0 -15 8 -28 19 -34c4 -3 7 -9 7 -16zM301 -83c-43 -41 -114 -105 -173 -105c-33 0 -52 21 -78 32c-3 1 -5 5 -5 9c0 11 11 28 25 28c2 0 5 -1 7 -2c16 -7 30 -18 50 -18
c34 0 65 27 91 54c100 102 175 219 214 336c9 27 33 37 57 37c29 0 57 -15 57 -31c0 -2 -1 -4 -2 -6c-4 -116 -9 -233 -16 -350v-9c0 -16 3 -30 21 -30c16 0 35 13 53 19l2 1c5 0 9 -8 9 -17c0 -8 -3 -16 -12 -19c-29 -9 -54 -34 -87 -34c-32 0 -45 29 -53 58
c-16 61 -26 125 -31 191c-27 -35 -56 -68 -87 -101c11 -20 33 -33 64 -33c4 0 8 1 12 1c5 0 8 -7 8 -15c0 -25 -34 -29 -56 -29c-32 0 -56 12 -70 33zM288 540c0 -23 -23 -24 -42 -24c-49 0 -91 36 -91 84c0 95 125 120 232 120c49 0 119 -41 171 -41c38 0 77 15 110 41
c3 2 6 3 9 3c11 0 23 -11 23 -19c0 -2 -1 -3 -2 -4c-40 -45 -95 -71 -148 -71c-15 0 -31 2 -44 6c-9 -59 -26 -151 -35 -193c-22 -96 -88 -185 -163 -185c-52 0 -81 42 -115 64c-3 2 -4 5 -4 9c0 11 12 26 23 26c2 0 5 -1 7 -2c23 -15 43 -46 75 -46c56 0 82 77 85 150
c2 45 13 150 22 208c-12 3 -31 5 -32 5c-51 0 -113 -21 -113 -70c0 -18 10 -36 24 -43c5 -3 8 -10 8 -18z" fill="currentColor"/>
<g color="rgb(100.0000%, 100.0000%, 100.0000%)">
<rect transform="translate(33.1520, 29.2651)" x="0.1229" y="-0.6480" width="1.2292" height="1.2959" ry="0.0000" fill="currentColor"/>
</g>
<text transform="translate(33.2749, 29.9130)" font-family="serif" font-weight="bold" font-size="1.7461" text-anchor="start" fill="currentColor">
<tspan>2</tspan>
</text>
<rect transform="translate(12.2280, 28.5151)" x="-0.0650" y="-1.3752" width="0.1300" height="4.1918" ry="0.0400" fill="currentColor"/>
<g color="rgb(100.0000%, 100.0000%, 100.0000%)">
<rect transform="translate(14.6565, 26.2651)" x="0.1229" y="-0.6603" width="1.2292" height="1.3207" ry="0.0000" fill="currentColor"/>
</g>
<text transform="translate(14.7794, 26.9007)" font-family="serif" font-weight="bold" font-size="1.7461" text-anchor="start" fill="currentColor">
<tspan>0</tspan>
</text>
<rect transform="translate(15.3940, 28.5151)" x="-0.0650" y="-1.3586" width="0.1300" height="4.4924" ry="0.0400" fill="currentColor"/>
<g color="rgb(100.0000%, 100.0000%, 100.0000%)">
<rect transform="translate(17.5724, 27.7651)" x="0.1229" y="-0.6603" width="1.2292" height="1.3207" ry="0.0000" fill="currentColor"/>
</g>
<text transform="translate(17.6953, 28.4007)" font-family="serif" font-weight="bold" font-size="1.7461" text-anchor="start" fill="currentColor">
<tspan>3</tspan>
</text>
<rect transform="translate(18.3099, 28.5151)" x="-0.0650" y="0.1414" width="0.1300" height="3.2847" ry="0.0400" fill="currentColor"/>
<g color="rgb(100.0000%, 100.0000%, 100.0000%)">
<rect transform="translate(46.3157, 26.2651)" x="0.1229" y="-0.6603" width="1.2292" height="1.3207" ry="0.0000" fill="currentColor"/>
</g>
<text transform="translate(46.4386, 26.9007)" font-family="serif" font-weight="bold" font-size="1.7461" text-anchor="start" fill="currentColor">
<tspan>0</tspan>
</text>
<rect transform="translate(47.0532, 28.5151)" x="-0.0650" y="-1.3586" width="0.1300" height="4.5650" ry="0.0400" fill="currentColor"/>
<g color="rgb(100.0000%, 100.0000%, 100.0000%)">
<rect transform="translate(49.4816, 26.2651)" x="0.1229" y="-0.6488" width="1.2292" height="1.2976" ry="0.0000" fill="currentColor"/>
</g>
<text transform="translate(49.6045, 26.8892)" font-family="serif" font-weight="bold" font-size="1.7461" text-anchor="start" fill="currentColor">
<tspan>5</tspan>
</text>
<rect transform="translate(50.2191, 28.5151)" x="-0.0650" y="-1.3741" width="0.1300" height="4.3793" ry="0.0400" fill="currentColor"/>
<g color="rgb(100.0000%, 100.0000%, 100.0000%)">
<rect transform="translate(52.6475, 26.2651)" x="0.1229" y="-0.6603" width="1.2292" height="1.3207" ry="0.0000" fill="currentColor"/>
</g>
<text transform="translate(52.7704, 26.9007)" font-family="serif" font-weight="bold" font-size="1.7461" text-anchor="start" fill="currentColor">
<tspan>0</tspan>
</text>
<rect transform="translate(53.3850, 28.5151)" x="-0.0650" y="-1.3586" width="0.1300" height="4.6170" ry="0.0400" fill="currentColor"/>
<g color="rgb(100.0000%, 100.0000%, 100.0000%)">
<rect transform="translate(55.8135, 26.2651)" x="0.1229" y="-0.6480" width="1.2292" height="1.2959" ry="0.0000" fill="currentColor"/>
</g>
<text transform="translate(55.9364, 26.9130)" font-family="serif" font-weight="bold" font-size="1.7461" text-anchor="start" fill="currentColor">
<tspan>1</tspan>
</text>
<rect transform="translate(56.5509, 28.5151)" x="-0.0650" y="-1.3752" width="0.1300" height="4.8868" ry="0.0400" fill="currentColor"/>
<g color="rgb(100.0000%, 100.0000%, 100.0000%)">
<rect transform="translate(58.7294, 27.7651)" x="0.1229" y="-0.6603" width="1.2292" height="1.3207" ry="0.0000" fill="currentColor"/>
</g>
<text transform="translate(58.8523, 28.4007)" font-family="serif" font-weight="bold" font-size="1.7461" text-anchor="start" fill="currentColor">
<tspan>3</tspan>
</text>
<rect transform="translate(59.4669, 28.5151)" x="-0.0650" y="0.1414" width="0.1300" height="3.6034" ry="0.0400" fill="currentColor"/>
<g color="rgb(100.0000%, 100.0000%, 100.0000%)">
<rect transform="translate(63.1151, 30.7651)" x="0.1229" y="-0.6480" width="1.2292" height="1.2959" ry="0.0000" fill="currentColor"/>
</g>
<text transform="translate(63.2380, 31.4130)" font-family="serif" font-weight="bold" font-size="1.7461" text-anchor="start" fill="currentColor">
<tspan>2</tspan>
</text>
<rect transform="translate(36.8054, 28.5151)" x="-0.0650" y="3.1414" width="0.1300" height="2.6521" ry="0.0400" fill="currentColor"/>
<g color="rgb(100.0000%, 100.0000%, 100.0000%)">
<rect transform="translate(39.4838, 29.2651)" x="0.1229" y="-0.6480" width="1.2292" height="1.2959" ry="0.0000" fill="currentColor"/>
</g>
<text transform="translate(39.6068, 29.9130)" font-family="serif" font-weight="bold" font-size="1.7461" text-anchor="start" fill="currentColor">
<tspan>2</tspan>
</text>
<rect transform="translate(40.2213, 28.5151)" x="-0.0650" y="1.6248" width="0.1300" height="3.3064" ry="0.0400" fill="currentColor"/>
<g color="rgb(100.0000%, 100.0000%, 100.0000%)">
<rect transform="translate(42.8998, 27.7651)" x="0.1229" y="-0.6480" width="1.2292" height="1.2959" ry="0.0000" fill="currentColor"/>
</g>
<text transform="translate(43.0227, 28.4130)" font-family="serif" font-weight="bold" font-size="1.7461" text-anchor="start" fill="currentColor">
<tspan>1</tspan>
</text>
<rect transform="translate(43.6373, 28.5151)" x="-0.0650" y="0.1248" width="0.1300" height="3.9440" ry="0.0400" fill="currentColor"/>
<line transform="translate(5.6906, 47.3026)" stroke-linejoin="round" stroke-linecap="round" stroke-width="0.1000" stroke="currentColor" x1="0.0500" y1="-0.0000" x2="108.0705" y2="-0.0000"/>
<line transform="translate(5.6906, 45.8026)" stroke-linejoin="round" stroke-linecap="round" stroke-width="0.1000" stroke="currentColor" x1="0.0500" y1="-0.0000" x2="108.0705" y2="-0.0000"/>
<line transform="translate(5.6906, 44.3026)" stroke-linejoin="round" stroke-linecap="round" stroke-width="0.1000" stroke="currentColor" x1="0.0500" y1="-0.0000" x2="108.0705" y2="-0.0000"/>
<line transform="translate(5.6906, 42.8026)" stroke-linejoin="round" stroke-linecap="round" stroke-width="0.1000" stroke="currentColor" x1="0.0500" y1="-0.0000" x2="108.0705" y2="-0.0000"/>
<rect transform="translate(62.9833, 45.0526)" x="0.0000" y="-2.2500" width="0.1900" height="4.5000" ry="0.0000" fill="currentColor"/>
<rect transform="translate(113.6210, 45.0526)" x="0.0000" y="-2.2500" width="0.1900" height="4.5000" ry="0.0000" fill="currentColor"/>
<rect transform="translate(81.7860, 45.0526)" x="-0.0650" y="-1.3586" width="0.1300" height="4.6168" ry="0.0400" fill="currentColor"/>
<g color="rgb(100.0000%, 100.0000%, 100.0000%)">
<rect transform="translate(74.3121, 44.3026)" x="0.1229" y="-0.6603" width="1.2292" height="1.3207" ry="0.0000" fill="currentColor"/>
</g>
<text transform="translate(74.4350, 44.9381)" font-family="serif" font-weight="bold" font-size="1.7461" text-anchor="start" fill="currentColor">
<tspan>6</tspan>
</text>
<g color="rgb(100.0000%, 100.0000%, 100.0000%)">
<rect transform="translate(81.0486, 42.8026)" x="0.1229" y="-0.6603" width="1.2292" height="1.3207" ry="0.0000" fill="currentColor"/>
</g>
<text transform="translate(81.1715, 43.4381)" font-family="serif" font-weight="bold" font-size="1.7461" text-anchor="start" fill="currentColor">
<tspan>0</tspan>
</text>
<rect transform="translate(78.5428, 45.0526)" x="-0.0650" y="-1.3908" width="0.1300" height="4.3959" ry="0.0400" fill="currentColor"/>
<g color="rgb(100.0000%, 100.0000%, 100.0000%)">
<rect transform="translate(77.8053, 42.8026)" x="0.1229" y="-0.6365" width="1.2292" height="1.2729" ry="0.0000" fill="currentColor"/>
</g>
<text transform="translate(77.9282, 43.4390)" font-family="serif" font-weight="bold" font-size="1.7461" text-anchor="start" fill="currentColor">
<tspan>7</tspan>
</text>
<rect transform="translate(75.0496, 45.0526)" x="-0.0650" y="0.1414" width="0.1300" height="3.6134" ry="0.0400" fill="currentColor"/>
<g color="rgb(100.0000%, 100.0000%, 100.0000%)">
<rect transform="translate(84.2918, 42.8026)" x="0.1229" y="-0.6480" width="1.2292" height="1.2959" ry="0.0000" fill="currentColor"/>
</g>
<text transform="translate(84.4147, 43.4505)" font-family="serif" font-weight="bold" font-size="1.7461" text-anchor="start" fill="currentColor">
<tspan>1</tspan>
</text>
<rect transform="translate(85.0293, 45.0526)" x="-0.0650" y="-1.3752" width="0.1300" height="4.8866" ry="0.0400" fill="currentColor"/>
<g color="rgb(100.0000%, 100.0000%, 100.0000%)">
<rect transform="translate(87.2850, 44.3026)" x="0.1229" y="-0.6603" width="1.2292" height="1.3207" ry="0.0000" fill="currentColor"/>
</g>
<text transform="translate(87.4079, 44.9381)" font-family="serif" font-weight="bold" font-size="1.7461" text-anchor="start" fill="currentColor">
<tspan>3</tspan>
</text>
<rect transform="translate(88.0225, 45.0526)" x="-0.0650" y="0.1414" width="0.1300" height="3.6035" ry="0.0400" fill="currentColor"/>
<polygon transform="translate(12.1630, 41.3026)" stroke-linejoin="round" stroke-linecap="round" stroke-width="0.0800" fill="currentColor" stroke="currentColor" points="9.5697 0.7400 9.5697 1.1400 0.0400 0.2000 0.0400 -0.2000"/>
<polygon transform="translate(12.1630, 42.0236)" stroke-linejoin="round" stroke-linecap="round" stroke-width="0.0800" fill="currentColor" stroke="currentColor" points="9.5697 0.7400 9.5697 1.1400 0.0400 0.2000 0.0400 -0.2000"/>
<g color="rgb(100.0000%, 100.0000%, 100.0000%)">
<rect transform="translate(64.3325, 45.8026)" x="0.1229" y="-0.6480" width="1.2292" height="1.2959" ry="0.0000" fill="currentColor"/>
</g>
<text transform="translate(64.4554, 46.4505)" font-family="serif" font-weight="bold" font-size="1.7461" text-anchor="start" fill="currentColor">
<tspan>1</tspan>
</text>
<rect transform="translate(65.0699, 45.0526)" x="-0.0650" y="1.6248" width="0.1300" height="2.8704" ry="0.0400" fill="currentColor"/>
<g color="rgb(100.0000%, 100.0000%, 100.0000%)">
<rect transform="translate(67.8257, 44.3026)" x="0.1229" y="-0.6603" width="1.2292" height="1.3207" ry="0.0000" fill="currentColor"/>
</g>
<text transform="translate(67.9486, 44.9381)" font-family="serif" font-weight="bold" font-size="1.7461" text-anchor="start" fill="currentColor">
<tspan>0</tspan>
</text>
<rect transform="translate(68.5632, 45.0526)" x="-0.0650" y="0.1414" width="0.1300" height="4.0946" ry="0.0400" fill="currentColor"/>
<g color="rgb(100.0000%, 100.0000%, 100.0000%)">
<rect transform="translate(71.0689, 44.3026)" x="0.1229" y="-0.6603" width="1.2292" height="1.3207" ry="0.0000" fill="currentColor"/>
</g>
<text transform="translate(71.1918, 44.9381)" font-family="serif" font-weight="bold" font-size="1.7461" text-anchor="start" fill="currentColor">
<tspan>3</tspan>
</text>
<rect transform="translate(71.8064, 45.0526)" x="-0.0650" y="0.1414" width="0.1300" height="3.8540" ry="0.0400" fill="currentColor"/>
<path transform="translate(99.7579, 45.0526)" stroke-width="0.0800" stroke-linejoin="round" stroke-linecap="round" stroke="currentColor" fill="currentColor" d="M0.7375 3.6480C1.6284 4.4747 3.0899 4.4747 3.9807 3.6480L3.9807 3.6480C3.0899 4.3547 1.6284 4.3547 0.7375 3.6480z"/>
<g color="rgb(100.0000%, 100.0000%, 100.0000%)">
<rect transform="translate(108.3855, 45.8026)" x="0.1229" y="-0.6480" width="1.2292" height="1.2959" ry="0.0000" fill="currentColor"/>
</g>
<text transform="translate(108.5084, 46.4505)" font-family="serif" font-weight="bold" font-size="1.7461" text-anchor="start" fill="currentColor">
<tspan>1</tspan>
</text>
<rect transform="translate(109.1230, 45.0526)" x="-0.0650" y="-3.7389" width="0.1300" height="3.6142" ry="0.0400" fill="currentColor"/>
<polygon transform="translate(103.6736, 42.2426)" stroke-linejoin="round" stroke-linecap="round" stroke-width="0.0800" fill="currentColor" stroke="currentColor" points="5.4744 -1.1400 5.4744 -0.7400 0.0400 0.2000 0.0400 -0.2000"/>
<path transform="translate(93.5214, 45.0526)" stroke-width="0.0800" stroke-linejoin="round" stroke-linecap="round" stroke="currentColor" fill="currentColor" d="M0.7375 2.3730C1.6284 3.1997 3.0899 3.1997 3.9807 2.3730L3.9807 2.3730C3.0899 3.0797 1.6284 3.0797 0.7375 2.3730z"/>
<polygon transform="translate(91.2007, 39.8026)" stroke-linejoin="round" stroke-linecap="round" stroke-width="0.0800" fill="currentColor" stroke="currentColor" points="9.3197 1.3000 9.3197 1.7000 0.0400 0.2000 0.0400 -0.2000"/>
<polygon transform="translate(91.2007, 40.5236)" stroke-linejoin="round" stroke-linecap="round" stroke-width="0.0800" fill="currentColor" stroke="currentColor" points="9.3197 1.3000 9.3197 1.7000 0.0400 0.2000 0.0400 -0.2000"/>
<path transform="translate(87.2850, 45.0526)" stroke-width="0.0800" stroke-linejoin="round" stroke-linecap="round" stroke="currentColor" fill="currentColor" d="M0.7393 -2.3853C1.5461 -3.1296 2.8153 -3.1242 3.6157 -2.3730L3.6157 -2.3730C2.8148 -3.0042 1.5456 -3.0096 0.7393 -2.3853z"/>
<path transform="translate(81.0486, 45.0526)" stroke-width="0.0800" stroke-linejoin="round" stroke-linecap="round" stroke="currentColor" fill="currentColor" d="M0.7391 -3.6603C1.6331 -4.4837 3.0946 -4.4781 3.9823 -3.6480L3.9823 -3.6480C3.0941 -4.3581 1.6326 -4.3637 0.7391 -3.6603z"/>
<polygon transform="translate(78.4778, 47.3316)" stroke-linejoin="round" stroke-linecap="round" stroke-width="0.0800" fill="currentColor" stroke="currentColor" points="9.5697 0.5500 9.5697 0.9500 0.0400 0.2000 0.0400 -0.2000"/>
<polygon transform="translate(78.4778, 48.0526)" stroke-linejoin="round" stroke-linecap="round" stroke-width="0.0800" fill="currentColor" stroke="currentColor" points="9.5697 0.5500 9.5697 0.9500 0.0400 0.2000 0.0400 -0.2000"/>
<path transform="translate(64.3325, 45.0526)" stroke-width="0.0800" stroke-linejoin="round" stroke-linecap="round" stroke="currentColor" fill="currentColor" d="M0.6477 -0.8730C1.9119 -2.6567 5.4788 -3.4575 7.3842 -2.3853L7.3842 -2.3853C5.5051 -3.3404 1.9382 -2.5397 0.6477 -0.8730z"/>
<polygon transform="translate(65.0049, 48.8316)" stroke-linejoin="round" stroke-linecap="round" stroke-width="0.0800" fill="currentColor" stroke="currentColor" points="10.0697 -0.9500 10.0697 -0.5500 0.0400 0.2000 0.0400 -0.2000"/>
<polygon transform="translate(65.0049, 49.5526)" stroke-linejoin="round" stroke-linecap="round" stroke-width="0.0800" fill="currentColor" stroke="currentColor" points="10.0697 -0.9500 10.0697 -0.5500 0.0400 0.2000 0.0400 -0.2000"/>
<path transform="translate(53.1524, 45.0526)" stroke-width="0.0800" stroke-linejoin="round" stroke-linecap="round" stroke="currentColor" fill="currentColor" d="M0.5769 2.3730C1.0739 3.4857 2.4235 4.0605 3.5702 3.6480L3.5702 3.6480C2.4705 3.9501 1.1209 3.3753 0.5769 2.3730z"/>
<polygon transform="translate(50.8317, 40.3626)" stroke-linejoin="round" stroke-linecap="round" stroke-width="0.0800" fill="currentColor" stroke="currentColor" points="9.5697 0.7400 9.5697 1.1400 0.0400 0.2000 0.0400 -0.2000"/>
<polygon transform="translate(50.8317, 41.0836)" stroke-linejoin="round" stroke-linecap="round" stroke-width="0.0800" fill="currentColor" stroke="currentColor" points="9.5697 0.7400 9.5697 1.1400 0.0400 0.2000 0.0400 -0.2000"/>
<path transform="translate(36.9363, 45.0526)" stroke-width="0.0800" stroke-linejoin="round" stroke-linecap="round" stroke="currentColor" fill="currentColor" d="M0.6562 2.3853C1.8800 4.0476 5.1186 4.7033 6.8926 3.6480L6.8926 3.6480C5.1424 4.5857 1.9039 3.9300 0.6562 2.3853z"/>
<polygon transform="translate(37.6088, 40.7426)" stroke-linejoin="round" stroke-linecap="round" stroke-width="0.0800" fill="currentColor" stroke="currentColor" points="9.8197 -0.2000 9.8197 0.2000 0.0400 0.2000 0.0400 -0.2000"/>
<polygon transform="translate(37.6088, 41.4636)" stroke-linejoin="round" stroke-linecap="round" stroke-width="0.0800" fill="currentColor" stroke="currentColor" points="9.8197 -0.2000 9.8197 0.2000 0.0400 0.2000 0.0400 -0.2000"/>
<path transform="translate(24.2134, 45.0526)" stroke-width="0.0800" stroke-linejoin="round" stroke-linecap="round" stroke="currentColor" fill="currentColor" d="M0.6459 -1.6353C1.8676 -3.3813 5.2719 -4.1620 7.1323 -3.1230L7.1323 -3.1230C5.2988 -4.0451 1.8944 -3.2643 0.6459 -1.6353z"/>
<polygon transform="translate(24.8859, 49.5816)" stroke-linejoin="round" stroke-linecap="round" stroke-width="0.0800" fill="currentColor" stroke="currentColor" points="9.5697 -0.2000 9.5697 0.2000 0.0400 0.2000 0.0400 -0.2000"/>
<polygon transform="translate(24.8859, 50.3026)" stroke-linejoin="round" stroke-linecap="round" stroke-width="0.0800" fill="currentColor" stroke="currentColor" points="9.5697 -0.2000 9.5697 0.2000 0.0400 0.2000 0.0400 -0.2000"/>
<path transform="translate(14.7338, 45.0526)" stroke-width="0.0800" stroke-linejoin="round" stroke-linecap="round" stroke="currentColor" fill="currentColor" d="M0.6554 2.3730C1.8765 4.0380 5.1153 4.7002 6.8919 3.6480L6.8919 3.6480C5.1393 4.5826 1.9005 3.9205 0.6554 2.3730z"/>
<g color="rgb(100.0000%, 100.0000%, 100.0000%)">
<rect transform="translate(90.5282, 44.3026)" x="0.1229" y="-0.6480" width="1.2292" height="1.2959" ry="0.0000" fill="currentColor"/>
</g>
<text transform="translate(90.6511, 44.9505)" font-family="serif" font-weight="bold" font-size="1.7461" text-anchor="start" fill="currentColor">
<tspan>1</tspan>
</text>
<rect transform="translate(91.2657, 45.0526)" x="-0.0650" y="-5.2396" width="0.1300" height="3.6148" ry="0.0400" fill="currentColor"/>
<g color="rgb(100.0000%, 100.0000%, 100.0000%)">
<rect transform="translate(93.5214, 45.8026)" x="0.1229" y="-0.6480" width="1.2292" height="1.2959" ry="0.0000" fill="currentColor"/>
</g>
<text transform="translate(93.6443, 46.4505)" font-family="serif" font-weight="bold" font-size="1.7461" text-anchor="start" fill="currentColor">
<tspan>1</tspan>
</text>
<rect transform="translate(94.2589, 45.0526)" x="-0.0650" y="-4.7599" width="0.1300" height="4.6351" ry="0.0400" fill="currentColor"/>
<g color="rgb(100.0000%, 100.0000%, 100.0000%)">
<rect transform="translate(96.7647, 45.8026)" x="0.1229" y="-0.6480" width="1.2292" height="1.2959" ry="0.0000" fill="currentColor"/>
</g>
<text transform="translate(96.8876, 46.4505)" font-family="serif" font-weight="bold" font-size="1.7461" text-anchor="start" fill="currentColor">
<tspan>2</tspan>
</text>
<rect transform="translate(97.5021, 45.0526)" x="-0.0650" y="-4.2401" width="0.1300" height="4.1154" ry="0.0400" fill="currentColor"/>
<g color="rgb(100.0000%, 100.0000%, 100.0000%)">
<rect transform="translate(99.7579, 47.3026)" x="0.1229" y="-0.6480" width="1.2292" height="1.2959" ry="0.0000" fill="currentColor"/>
</g>
<text transform="translate(99.8808, 47.9505)" font-family="serif" font-weight="bold" font-size="1.7461" text-anchor="start" fill="currentColor">
<tspan>1</tspan>
</text>
<rect transform="translate(100.4954, 45.0526)" x="-0.0650" y="-3.7604" width="0.1300" height="5.1357" ry="0.0400" fill="currentColor"/>
<g color="rgb(100.0000%, 100.0000%, 100.0000%)">
<rect transform="translate(103.0011, 47.3026)" x="0.1229" y="-0.6480" width="1.2292" height="1.2959" ry="0.0000" fill="currentColor"/>
</g>
<text transform="translate(103.1240, 47.9505)" font-family="serif" font-weight="bold" font-size="1.7461" text-anchor="start" fill="currentColor">
<tspan>2</tspan>
</text>
<rect transform="translate(103.7386, 45.0526)" x="-0.0650" y="-2.8211" width="0.1300" height="4.1963" ry="0.0400" fill="currentColor"/>
<rect transform="translate(28.4441, 45.0526)" x="-0.0650" y="-1.3586" width="0.1300" height="6.6086" ry="0.0400" fill="currentColor"/>
<g color="rgb(100.0000%, 100.0000%, 100.0000%)">
<rect transform="translate(20.9702, 47.3026)" x="0.1229" y="-0.6480" width="1.2292" height="1.2959" ry="0.0000" fill="currentColor"/>
</g>
<text transform="translate(21.0931, 47.9505)" font-family="serif" font-weight="bold" font-size="1.7461" text-anchor="start" fill="currentColor">
<tspan>2</tspan>
</text>
<rect transform="translate(21.7077, 45.0526)" x="-0.0650" y="-2.8164" width="0.1300" height="4.1916" ry="0.0400" fill="currentColor"/>
<g color="rgb(100.0000%, 100.0000%, 100.0000%)">
<rect transform="translate(24.2134, 45.8026)" x="0.1229" y="-0.6603" width="1.2292" height="1.3207" ry="0.0000" fill="currentColor"/>
</g>
<text transform="translate(24.3363, 46.4381)" font-family="serif" font-weight="bold" font-size="1.7461" text-anchor="start" fill="currentColor">
<tspan>0</tspan>
</text>
<rect transform="translate(24.9509, 45.0526)" x="-0.0650" y="1.6414" width="0.1300" height="3.6086" ry="0.0400" fill="currentColor"/>
<g color="rgb(100.0000%, 100.0000%, 100.0000%)">
<rect transform="translate(27.7067, 42.8026)" x="0.1229" y="-0.6603" width="1.2292" height="1.3207" ry="0.0000" fill="currentColor"/>
</g>
<text transform="translate(27.8296, 43.4381)" font-family="serif" font-weight="bold" font-size="1.7461" text-anchor="start" fill="currentColor">
<tspan>0</tspan>
</text>
<g color="rgb(100.0000%, 100.0000%, 100.0000%)">
<rect transform="translate(30.6999, 44.3026)" x="0.1229" y="-0.6480" width="1.2292" height="1.2959" ry="0.0000" fill="currentColor"/>
</g>
<text transform="translate(30.8228, 44.9505)" font-family="serif" font-weight="bold" font-size="1.7461" text-anchor="start" fill="currentColor">
<tspan>2</tspan>
</text>
<rect transform="translate(31.4374, 45.0526)" x="-0.0650" y="0.1248" width="0.1300" height="5.1252" ry="0.0400" fill="currentColor"/>
<rect transform="translate(60.3763, 45.0526)" x="-0.0650" y="-3.7564" width="0.1300" height="3.6316" ry="0.0400" fill="currentColor"/>
<g color="rgb(100.0000%, 100.0000%, 100.0000%)">
<rect transform="translate(33.6931, 45.8026)" x="0.1229" y="-0.6480" width="1.2292" height="1.2959" ry="0.0000" fill="currentColor"/>
</g>
<text transform="translate(33.8160, 46.4505)" font-family="serif" font-weight="bold" font-size="1.7461" text-anchor="start" fill="currentColor">
<tspan>2</tspan>
</text>
<rect transform="translate(34.4306, 45.0526)" x="-0.0650" y="1.6248" width="0.1300" height="3.6252" ry="0.0400" fill="currentColor"/>
<g color="rgb(100.0000%, 100.0000%, 100.0000%)">
<rect transform="translate(11.4906, 45.8026)" x="0.1229" y="-0.6480" width="1.2292" height="1.2959" ry="0.0000" fill="currentColor"/>
</g>
<text transform="translate(11.6135, 46.4505)" font-family="serif" font-weight="bold" font-size="1.7461" text-anchor="start" fill="currentColor">
<tspan>2</tspan>
</text>
<text transform="translate(3.4371, 41.7525)" font-family="serif" font-size="1.7461" text-anchor="start" fill="currentColor">
<tspan>22</tspan>
</text>
<path transform="translate(6.2906, 45.0526) scale(0.0040, -0.0040)" d="M267 -425c0 -24 -23 -27 -43 -27c-45 0 -84 31 -84 75c0 82 118 130 234 130c104 0 215 -22 215 -103c0 -51 -31 -86 -69 -110c58 -11 102 -36 102 -91c0 -90 -94 -158 -179 -158c-41 0 -80 15 -108 52c-2 2 -3 5 -3 8c0 12 16 25 28 25c4 0 8 -1 10 -4
c11 -15 27 -21 44 -21c43 0 95 40 95 93c0 46 -49 63 -100 63h-1c-6 0 -8 8 -8 16c0 11 5 24 18 24h1c36 0 68 39 68 77c0 45 -36 68 -80 76c-11 -62 -31 -173 -40 -220c-20 -102 -84 -202 -159 -202c-44 0 -68 34 -96 53c-3 2 -4 5 -4 9c0 11 12 26 24 26c3 0 5 0 7 -2
c20 -13 36 -35 65 -35c65 0 89 99 89 195v8c0 35 9 109 18 163c-39 -13 -70 -40 -70 -70c0 -15 8 -28 19 -34c4 -3 7 -9 7 -16zM301 -83c-43 -41 -114 -105 -173 -105c-33 0 -52 21 -78 32c-3 1 -5 5 -5 9c0 11 11 28 25 28c2 0 5 -1 7 -2c16 -7 30 -18 50 -18
c34 0 65 27 91 54c100 102 175 219 214 336c9 27 33 37 57 37c29 0 57 -15 57 -31c0 -2 -1 -4 -2 -6c-4 -116 -9 -233 -16 -350v-9c0 -16 3 -30 21 -30c16 0 35 13 53 19l2 1c5 0 9 -8 9 -17c0 -8 -3 -16 -12 -19c-29 -9 -54 -34 -87 -34c-32 0 -45 29 -53 58
c-16 61 -26 125 -31 191c-27 -35 -56 -68 -87 -101c11 -20 33 -33 64 -33c4 0 8 1 12 1c5 0 8 -7 8 -15c0 -25 -34 -29 -56 -29c-32 0 -56 12 -70 33zM288 540c0 -23 -23 -24 -42 -24c-49 0 -91 36 -91 84c0 95 125 120 232 120c49 0 119 -41 171 -41c38 0 77 15 110 41
c3 2 6 3 9 3c11 0 23 -11 23 -19c0 -2 -1 -3 -2 -4c-40 -45 -95 -71 -148 -71c-15 0 -31 2 -44 6c-9 -59 -26 -151 -35 -193c-22 -96 -88 -185 -163 -185c-52 0 -81 42 -115 64c-3 2 -4 5 -4 9c0 11 12 26 23 26c2 0 5 -1 7 -2c23 -15 43 -46 75 -46c56 0 82 77 85 150
c2 45 13 150 22 208c-12 3 -31 5 -32 5c-51 0 -113 -21 -113 -70c0 -18 10 -36 24 -43c5 -3 8 -10 8 -18z" fill="currentColor"/>
<rect transform="translate(12.2280, 45.0526)" x="-0.0650" y="-3.7436" width="0.1300" height="3.6189" ry="0.0400" fill="currentColor"/>
<g color="rgb(100.0000%, 100.0000%, 100.0000%)">
<rect transform="translate(14.7338, 45.8026)" x="0.1229" y="-0.6480" width="1.2292" height="1.2959" ry="0.0000" fill="currentColor"/>
</g>
<text transform="translate(14.8567, 46.4505)" font-family="serif" font-weight="bold" font-size="1.7461" text-anchor="start" fill="currentColor">
<tspan>1</tspan>
</text>
<rect transform="translate(15.4713, 45.0526)" x="-0.0650" y="-3.4264" width="0.1300" height="3.3016" ry="0.0400" fill="currentColor"/>
<g color="rgb(100.0000%, 100.0000%, 100.0000%)">
<rect transform="translate(17.7270, 47.3026)" x="0.1229" y="-0.6480" width="1.2292" height="1.2959" ry="0.0000" fill="currentColor"/>
</g>
<text transform="translate(17.8499, 47.9505)" font-family="serif" font-weight="bold" font-size="1.7461" text-anchor="start" fill="currentColor">
<tspan>4</tspan>
</text>
<rect transform="translate(18.4645, 45.0526)" x="-0.0650" y="-3.1336" width="0.1300" height="4.5088" ry="0.0400" fill="currentColor"/>
<rect transform="translate(47.4035, 45.0526)" x="-0.0650" y="-4.3100" width="0.1300" height="4.1852" ry="0.0400" fill="currentColor"/>
<g color="rgb(100.0000%, 100.0000%, 100.0000%)">
<rect transform="translate(50.1592, 44.3026)" x="0.1229" y="-0.6480" width="1.2292" height="1.2959" ry="0.0000" fill="currentColor"/>
</g>
<text transform="translate(50.2821, 44.9505)" font-family="serif" font-weight="bold" font-size="1.7461" text-anchor="start" fill="currentColor">
<tspan>1</tspan>
</text>
<rect transform="translate(50.8967, 45.0526)" x="-0.0650" y="-4.6836" width="0.1300" height="3.0589" ry="0.0400" fill="currentColor"/>
<g color="rgb(100.0000%, 100.0000%, 100.0000%)">
<rect transform="translate(46.6660, 45.8026)" x="0.1229" y="-0.6480" width="1.2292" height="1.2959" ry="0.0000" fill="currentColor"/>
</g>
<text transform="translate(46.7889, 46.4505)" font-family="serif" font-weight="bold" font-size="1.7461" text-anchor="start" fill="currentColor">
<tspan>2</tspan>
</text>
<g color="rgb(100.0000%, 100.0000%, 100.0000%)">
<rect transform="translate(53.1524, 45.8026)" x="0.1229" y="-0.6480" width="1.2292" height="1.2959" ry="0.0000" fill="currentColor"/>
</g>
<text transform="translate(53.2753, 46.4505)" font-family="serif" font-weight="bold" font-size="1.7461" text-anchor="start" fill="currentColor">
<tspan>2</tspan>
</text>
<rect transform="translate(53.8899, 45.0526)" x="-0.0650" y="-4.3909" width="0.1300" height="4.2661" ry="0.0400" fill="currentColor"/>
<g color="rgb(100.0000%, 100.0000%, 100.0000%)">
<rect transform="translate(56.1456, 47.3026)" x="0.1229" y="-0.6480" width="1.2292" height="1.2959" ry="0.0000" fill="currentColor"/>
</g>
<text transform="translate(56.2685, 47.9505)" font-family="serif" font-weight="bold" font-size="1.7461" text-anchor="start" fill="currentColor">
<tspan>1</tspan>
</text>
<rect transform="translate(56.8831, 45.0526)" x="-0.0650" y="-4.0981" width="0.1300" height="5.4733" ry="0.0400" fill="currentColor"/>
<g color="rgb(100.0000%, 100.0000%, 100.0000%)">
<rect transform="translate(59.6389, 45.8026)" x="0.1229" y="-0.6480" width="1.2292" height="1.2959" ry="0.0000" fill="currentColor"/>
</g>
<text transform="translate(59.7618, 46.4505)" font-family="serif" font-weight="bold" font-size="1.7461" text-anchor="start" fill="currentColor">
<tspan>2</tspan>
</text>
<g color="rgb(100.0000%, 100.0000%, 100.0000%)">
<rect transform="translate(39.9295, 47.3026)" x="0.1229" y="-0.6480" width="1.2292" height="1.2959" ry="0.0000" fill="currentColor"/>
</g>
<text transform="translate(40.0524, 47.9505)" font-family="serif" font-weight="bold" font-size="1.7461" text-anchor="start" fill="currentColor">
<tspan>2</tspan>
</text>
<rect transform="translate(37.6738, 45.0526)" x="-0.0650" y="-4.3100" width="0.1300" height="4.1686" ry="0.0400" fill="currentColor"/>
<rect transform="translate(40.6670, 45.0526)" x="-0.0650" y="-4.3100" width="0.1300" height="5.6852" ry="0.0400" fill="currentColor"/>
<g color="rgb(100.0000%, 100.0000%, 100.0000%)">
<rect transform="translate(36.9363, 45.8026)" x="0.1229" y="-0.6603" width="1.2292" height="1.3207" ry="0.0000" fill="currentColor"/>
</g>
<text transform="translate(37.0592, 46.4381)" font-family="serif" font-weight="bold" font-size="1.7461" text-anchor="start" fill="currentColor">
<tspan>0</tspan>
</text>
<g color="rgb(100.0000%, 100.0000%, 100.0000%)">
<rect transform="translate(43.1728, 47.3026)" x="0.1229" y="-0.6480" width="1.2292" height="1.2959" ry="0.0000" fill="currentColor"/>
</g>
<text transform="translate(43.2957, 47.9505)" font-family="serif" font-weight="bold" font-size="1.7461" text-anchor="start" fill="currentColor">
<tspan>4</tspan>
</text>
<rect transform="translate(43.9102, 45.0526)" x="-0.0650" y="-4.3100" width="0.1300" height="5.6852" ry="0.0400" fill="currentColor"/>
<line transform="translate(5.6906, 63.8400)" stroke-linejoin="round" stroke-linecap="round" stroke-width="0.1000" stroke="currentColor" x1="0.0500" y1="-0.0000" x2="108.0705" y2="-0.0000"/>
<line transform="translate(5.6906, 62.3400)" stroke-linejoin="round" stroke-linecap="round" stroke-width="0.1000" stroke="currentColor" x1="0.0500" y1="-0.0000" x2="108.0705" y2="-0.0000"/>
<line transform="translate(5.6906, 60.8400)" stroke-linejoin="round" stroke-linecap="round" stroke-width="0.1000" stroke="currentColor" x1="0.0500" y1="-0.0000" x2="108.0705" y2="-0.0000"/>
<line transform="translate(5.6906, 59.3400)" stroke-linejoin="round" stroke-linecap="round" stroke-width="0.1000" stroke="currentColor" x1="0.0500" y1="-0.0000" x2="108.0705" y2="-0.0000"/>
<path transform="translate(111.9710, 60.0900) scale(0.0040, -0.0040)" d="M0 0c0 31 25 56 56 56s56 -25 56 -56s-25 -56 -56 -56s-56 25 -56 56z" fill="currentColor"/>
<path transform="translate(111.9710, 63.0900) scale(0.0040, -0.0040)" d="M0 0c0 31 25 56 56 56s56 -25 56 -56s-25 -56 -56 -56s-56 25 -56 56z" fill="currentColor"/>
<rect transform="translate(113.2110, 61.5900)" x="0.0000" y="-2.2500" width="0.6000" height="4.5000" ry="0.0000" fill="currentColor"/>
<rect transform="translate(112.7210, 61.5900)" x="0.0000" y="-2.2500" width="0.1900" height="4.5000" ry="0.0000" fill="currentColor"/>
<rect transform="translate(68.7681, 61.5900)" x="-0.0650" y="-1.3741" width="0.1300" height="4.1900" ry="0.0400" fill="currentColor"/>
<rect transform="translate(82.5906, 61.5900)" x="-0.0650" y="0.1248" width="0.1300" height="3.9442" ry="0.0400" fill="currentColor"/>
<g color="rgb(100.0000%, 100.0000%, 100.0000%)">
<rect transform="translate(81.8531, 60.8400)" x="0.1229" y="-0.6480" width="1.2292" height="1.2959" ry="0.0000" fill="currentColor"/>
</g>
<text transform="translate(81.9760, 61.4880)" font-family="serif" font-weight="bold" font-size="1.7461" text-anchor="start" fill="currentColor">
<tspan>1</tspan>
</text>
<rect transform="translate(75.8043, 61.5900)" x="-0.0650" y="-1.3586" width="0.1300" height="4.8123" ry="0.0400" fill="currentColor"/>
<g color="rgb(100.0000%, 100.0000%, 100.0000%)">
<rect transform="translate(75.0668, 59.3400)" x="0.1229" y="-0.6603" width="1.2292" height="1.3207" ry="0.0000" fill="currentColor"/>
</g>
<text transform="translate(75.1897, 59.9756)" font-family="serif" font-weight="bold" font-size="1.7461" text-anchor="start" fill="currentColor">
<tspan>0</tspan>
</text>
<g color="rgb(100.0000%, 100.0000%, 100.0000%)">
<rect transform="translate(53.7081, 60.8400)" x="0.1229" y="-0.6603" width="1.2292" height="1.3207" ry="0.0000" fill="currentColor"/>
</g>
<text transform="translate(53.8310, 61.4756)" font-family="serif" font-weight="bold" font-size="1.7461" text-anchor="start" fill="currentColor">
<tspan>0</tspan>
</text>
<g color="rgb(100.0000%, 100.0000%, 100.0000%)">
<rect transform="translate(68.0306, 59.3400)" x="0.1229" y="-0.6488" width="1.2292" height="1.2976" ry="0.0000" fill="currentColor"/>
</g>
<text transform="translate(68.1535, 59.9641)" font-family="serif" font-weight="bold" font-size="1.7461" text-anchor="start" fill="currentColor">
<tspan>5</tspan>
</text>
<rect transform="translate(61.7318, 61.5900)" x="-0.0650" y="-1.3752" width="0.1300" height="5.6852" ry="0.0400" fill="currentColor"/>
<g color="rgb(100.0000%, 100.0000%, 100.0000%)">
<rect transform="translate(60.9943, 59.3400)" x="0.1229" y="-0.6480" width="1.2292" height="1.2959" ry="0.0000" fill="currentColor"/>
</g>
<text transform="translate(61.1172, 59.9880)" font-family="serif" font-weight="bold" font-size="1.7461" text-anchor="start" fill="currentColor">
<tspan>4</tspan>
</text>
<rect transform="translate(54.4456, 61.5900)" x="-0.0650" y="0.1414" width="0.1300" height="4.1686" ry="0.0400" fill="currentColor"/>
<polygon transform="translate(12.1630, 65.3690)" stroke-linejoin="round" stroke-linecap="round" stroke-width="0.0800" fill="currentColor" stroke="currentColor" points="21.4488 -1.8900 21.4488 -1.4900 0.0400 0.2000 0.0400 -0.2000"/>
<polygon transform="translate(12.1630, 66.0900)" stroke-linejoin="round" stroke-linecap="round" stroke-width="0.0800" fill="currentColor" stroke="currentColor" points="21.4488 -1.8900 21.4488 -1.4900 0.0400 0.2000 0.0400 -0.2000"/>
<path transform="translate(18.7768, 61.5900)" stroke-width="0.0800" stroke-linejoin="round" stroke-linecap="round" stroke="currentColor" fill="currentColor" d="M0.7368 -3.6488C2.3812 -5.1331 6.1239 -5.1392 7.7731 -3.6603L7.7731 -3.6603C6.1241 -5.0192 2.3814 -5.0131 0.7368 -3.6488z"/>
<path transform="translate(32.8493, 61.5900)" stroke-width="0.0800" stroke-linejoin="round" stroke-linecap="round" stroke="currentColor" fill="currentColor" d="M0.7382 -3.6603C2.3876 -5.1390 6.1303 -5.1324 7.7745 -3.6480L7.7745 -3.6480C6.1301 -5.0124 2.3874 -5.0190 0.7382 -3.6603z"/>
<polygon transform="translate(40.5581, 65.1790)" stroke-linejoin="round" stroke-linecap="round" stroke-width="0.0800" fill="currentColor" stroke="currentColor" points="21.1988 -0.2000 21.1988 0.2000 0.0400 0.2000 0.0400 -0.2000"/>
<polygon transform="translate(40.5581, 65.9000)" stroke-linejoin="round" stroke-linecap="round" stroke-width="0.0800" fill="currentColor" stroke="currentColor" points="21.1988 -0.2000 21.1988 0.2000 0.0400 0.2000 0.0400 -0.2000"/>
<path transform="translate(46.6718, 61.5900)" stroke-width="0.0800" stroke-linejoin="round" stroke-linecap="round" stroke="currentColor" fill="currentColor" d="M0.7375 -2.3853C2.3843 -3.8669 6.1270 -3.8669 7.7737 -2.3853L7.7737 -2.3853C6.1270 -3.7469 2.3843 -3.7469 0.7375 -2.3853z"/>
<path transform="translate(60.9943, 61.5900)" stroke-width="0.0800" stroke-linejoin="round" stroke-linecap="round" stroke="currentColor" fill="currentColor" d="M0.7374 -3.6480C2.3841 -5.1297 6.1267 -5.1302 7.7737 -3.6488L7.7737 -3.6488C6.1267 -5.0102 2.3841 -5.0097 0.7374 -3.6480z"/>
<polygon transform="translate(68.7031, 63.6790)" stroke-linejoin="round" stroke-linecap="round" stroke-width="0.0800" fill="currentColor" stroke="currentColor" points="20.6988 1.6800 20.6988 2.0800 0.0400 0.2000 0.0400 -0.2000"/>
<polygon transform="translate(68.7031, 64.4000)" stroke-linejoin="round" stroke-linecap="round" stroke-width="0.0800" fill="currentColor" stroke="currentColor" points="20.6988 1.6800 20.6988 2.0800 0.0400 0.2000 0.0400 -0.2000"/>
<path transform="translate(96.7281, 64.5500) scale(0.0040, -0.0040)" d="M0 0h-16v250h16v-250zM0 0v250c97 59 224 148 224 259c0 57 -15 112 -40 163c-3 16 10 27 23 27c7 0 15 -3 20 -11c25 -56 40 -117 40 -179c0 -203 -267 -306 -267 -509z" fill="currentColor"/>
<rect transform="translate(96.6631, 61.5900)" x="-0.0650" y="-1.3741" width="0.1300" height="4.3741" ry="0.0400" fill="currentColor"/>
<path transform="translate(97.7276, 58.5900) scale(0.0040, -0.0040)" d="M0 0c0 31 25 56 56 56s56 -25 56 -56s-25 -56 -56 -56s-56 25 -56 56z" fill="currentColor"/>
<g color="rgb(100.0000%, 100.0000%, 100.0000%)">
<rect transform="translate(95.9256, 59.3400)" x="0.1229" y="-0.6488" width="1.2292" height="1.2976" ry="0.0000" fill="currentColor"/>
</g>
<text transform="translate(96.0485, 59.9641)" font-family="serif" font-weight="bold" font-size="1.7461" text-anchor="start" fill="currentColor">
<tspan>5</tspan>
</text>
<rect transform="translate(89.3768, 61.5900)" x="-0.0650" y="1.6248" width="0.1300" height="3.0593" ry="0.0400" fill="currentColor"/>
<g color="rgb(100.0000%, 100.0000%, 100.0000%)">
<rect transform="translate(88.6393, 62.3400)" x="0.1229" y="-0.6480" width="1.2292" height="1.2959" ry="0.0000" fill="currentColor"/>
</g>
<text transform="translate(88.7622, 62.9880)" font-family="serif" font-weight="bold" font-size="1.7461" text-anchor="start" fill="currentColor">
<tspan>2</tspan>
</text>
<rect transform="translate(26.5505, 61.5900)" x="-0.0650" y="-1.3586" width="0.1300" height="4.7270" ry="0.0400" fill="currentColor"/>
<g color="rgb(100.0000%, 100.0000%, 100.0000%)">
<rect transform="translate(25.8131, 59.3400)" x="0.1229" y="-0.6603" width="1.2292" height="1.3207" ry="0.0000" fill="currentColor"/>
</g>
<text transform="translate(25.9360, 59.9756)" font-family="serif" font-weight="bold" font-size="1.7461" text-anchor="start" fill="currentColor">
<tspan>3</tspan>
</text>
<rect transform="translate(19.5143, 61.5900)" x="-0.0650" y="-1.3741" width="0.1300" height="5.2959" ry="0.0400" fill="currentColor"/>
<g color="rgb(100.0000%, 100.0000%, 100.0000%)">
<rect transform="translate(18.7768, 59.3400)" x="0.1229" y="-0.6488" width="1.2292" height="1.2976" ry="0.0000" fill="currentColor"/>
</g>
<text transform="translate(18.8997, 59.9641)" font-family="serif" font-weight="bold" font-size="1.7461" text-anchor="start" fill="currentColor">
<tspan>5</tspan>
</text>
<rect transform="translate(12.2280, 61.5900)" x="-0.0650" y="1.6248" width="0.1300" height="2.8701" ry="0.0400" fill="currentColor"/>
<g color="rgb(100.0000%, 100.0000%, 100.0000%)">
<rect transform="translate(11.4906, 62.3400)" x="0.1229" y="-0.6480" width="1.2292" height="1.2959" ry="0.0000" fill="currentColor"/>
</g>
<text transform="translate(11.6135, 62.9880)" font-family="serif" font-weight="bold" font-size="1.7461" text-anchor="start" fill="currentColor">
<tspan>2</tspan>
</text>
<path transform="translate(6.2906, 61.5900) scale(0.0040, -0.0040)" d="M267 -425c0 -24 -23 -27 -43 -27c-45 0 -84 31 -84 75c0 82 118 130 234 130c104 0 215 -22 215 -103c0 -51 -31 -86 -69 -110c58 -11 102 -36 102 -91c0 -90 -94 -158 -179 -158c-41 0 -80 15 -108 52c-2 2 -3 5 -3 8c0 12 16 25 28 25c4 0 8 -1 10 -4
c11 -15 27 -21 44 -21c43 0 95 40 95 93c0 46 -49 63 -100 63h-1c-6 0 -8 8 -8 16c0 11 5 24 18 24h1c36 0 68 39 68 77c0 45 -36 68 -80 76c-11 -62 -31 -173 -40 -220c-20 -102 -84 -202 -159 -202c-44 0 -68 34 -96 53c-3 2 -4 5 -4 9c0 11 12 26 24 26c3 0 5 0 7 -2
c20 -13 36 -35 65 -35c65 0 89 99 89 195v8c0 35 9 109 18 163c-39 -13 -70 -40 -70 -70c0 -15 8 -28 19 -34c4 -3 7 -9 7 -16zM301 -83c-43 -41 -114 -105 -173 -105c-33 0 -52 21 -78 32c-3 1 -5 5 -5 9c0 11 11 28 25 28c2 0 5 -1 7 -2c16 -7 30 -18 50 -18
c34 0 65 27 91 54c100 102 175 219 214 336c9 27 33 37 57 37c29 0 57 -15 57 -31c0 -2 -1 -4 -2 -6c-4 -116 -9 -233 -16 -350v-9c0 -16 3 -30 21 -30c16 0 35 13 53 19l2 1c5 0 9 -8 9 -17c0 -8 -3 -16 -12 -19c-29 -9 -54 -34 -87 -34c-32 0 -45 29 -53 58
c-16 61 -26 125 -31 191c-27 -35 -56 -68 -87 -101c11 -20 33 -33 64 -33c4 0 8 1 12 1c5 0 8 -7 8 -15c0 -25 -34 -29 -56 -29c-32 0 -56 12 -70 33zM288 540c0 -23 -23 -24 -42 -24c-49 0 -91 36 -91 84c0 95 125 120 232 120c49 0 119 -41 171 -41c38 0 77 15 110 41
c3 2 6 3 9 3c11 0 23 -11 23 -19c0 -2 -1 -3 -2 -4c-40 -45 -95 -71 -148 -71c-15 0 -31 2 -44 6c-9 -59 -26 -151 -35 -193c-22 -96 -88 -185 -163 -185c-52 0 -81 42 -115 64c-3 2 -4 5 -4 9c0 11 12 26 23 26c2 0 5 -1 7 -2c23 -15 43 -46 75 -46c56 0 82 77 85 150
c2 45 13 150 22 208c-12 3 -31 5 -32 5c-51 0 -113 -21 -113 -70c0 -18 10 -36 24 -43c5 -3 8 -10 8 -18z" fill="currentColor"/>
<text transform="translate(3.4371, 58.2900)" font-family="serif" font-size="1.7461" text-anchor="start" fill="currentColor">
<tspan>24</tspan>
</text>
<rect transform="translate(47.4093, 61.5900)" x="-0.0650" y="0.1414" width="0.1300" height="4.1686" ry="0.0400" fill="currentColor"/>
<g color="rgb(100.0000%, 100.0000%, 100.0000%)">
<rect transform="translate(46.6718, 60.8400)" x="0.1229" y="-0.6603" width="1.2292" height="1.3207" ry="0.0000" fill="currentColor"/>
</g>
<text transform="translate(46.7947, 61.4756)" font-family="serif" font-weight="bold" font-size="1.7461" text-anchor="start" fill="currentColor">
<tspan>3</tspan>
</text>
<rect transform="translate(40.6231, 61.5900)" x="-0.0650" y="-1.3752" width="0.1300" height="5.6852" ry="0.0400" fill="currentColor"/>
<g color="rgb(100.0000%, 100.0000%, 100.0000%)">
<rect transform="translate(39.8856, 59.3400)" x="0.1229" y="-0.6480" width="1.2292" height="1.2959" ry="0.0000" fill="currentColor"/>
</g>
<text transform="translate(40.0085, 59.9880)" font-family="serif" font-weight="bold" font-size="1.7461" text-anchor="start" fill="currentColor">
<tspan>1</tspan>
</text>
<rect transform="translate(33.5868, 61.5900)" x="-0.0650" y="-1.3586" width="0.1300" height="4.1737" ry="0.0400" fill="currentColor"/>
<g color="rgb(100.0000%, 100.0000%, 100.0000%)">
<rect transform="translate(32.8493, 59.3400)" x="0.1229" y="-0.6603" width="1.2292" height="1.3207" ry="0.0000" fill="currentColor"/>
</g>
<text transform="translate(32.9722, 59.9756)" font-family="serif" font-weight="bold" font-size="1.7461" text-anchor="start" fill="currentColor">
<tspan>0</tspan>
</text>
</svg>
