<svg xmlns="http://www.w3.org/2000/svg" xmlns:xlink="http://www.w3.org/1999/xlink" version="1.2" width="210.00mm" height="297.00mm" viewBox="0 0 121.9404 172.4585">
<style text="style/css">
<![CDATA[
tspan { white-space: pre; }
]]>
</style>
<!-- Page: 2/2 -->
<text transform="translate(5.8067, 4.5750)" font-family="serif" font-size="2.2002" text-anchor="start" fill="currentColor">
<tspan>2</tspan>
</text>
<text transform="translate(52.7653, 4.5750)" font-family="serif" font-size="2.2002" text-anchor="start" fill="currentColor">
<tspan>Low-G Ukulele</tspan>
</text>
<text transform="translate(116.1337, 4.5750)" font-family="serif" font-size="2.2002" text-anchor="start" fill="currentColor">
<tspan/>
</text>
<rect transform="translate(5.8067, 14.4184)" x="98.6098" y="-0.1007" width="2.0660" height="0.2013" ry="0.1007" fill="currentColor"/>
<rect transform="translate(5.8067, 15.4184)" x="98.6098" y="-0.1007" width="2.0660" height="0.2013" ry="0.1007" fill="currentColor"/>
<rect transform="translate(5.8067, 14.4184)" x="84.8691" y="-0.1007" width="2.0660" height="0.2013" ry="0.1007" fill="currentColor"/>
<rect transform="translate(5.8067, 15.4184)" x="84.8691" y="-0.1007" width="2.0660" height="0.2013" ry="0.1007" fill="currentColor"/>
<rect transform="translate(5.8067, 14.4184)" x="61.1420" y="-0.1007" width="2.0660" height="0.2013" ry="0.1007" fill="currentColor"/>
<rect transform="translate(5.8067, 14.4184)" x="41.1701" y="-0.1007" width="1.9563" height="0.2013" ry="0.1007" fill="currentColor"/>
<rect transform="translate(5.8067, 14.4184)" x="7.0057" y="-0.1007" width="2.0660" height="0.2013" ry="0.1007" fill="currentColor"/>
<rect transform="translate(78.5221, 9.4766)" x="0.0000" y="3.9925" width="0.1925" height="20.7209" ry="0.0000" fill="currentColor"/>
<rect transform="translate(35.3401, 36.4400)" x="0.0000" y="-2.3007" width="0.1925" height="4.5507" ry="0.0000" fill="currentColor"/>
<rect transform="translate(52.8309, 9.4766)" x="0.0000" y="3.9925" width="0.1925" height="20.7209" ry="0.0000" fill="currentColor"/>
<rect transform="translate(78.5221, 36.4400)" x="0.0000" y="-2.3007" width="0.1925" height="4.5507" ry="0.0000" fill="currentColor"/>
<rect transform="translate(35.3401, 9.4766)" x="0.0000" y="3.9925" width="0.1925" height="20.7209" ry="0.0000" fill="currentColor"/>
<rect transform="translate(52.8309, 36.4400)" x="0.0000" y="-2.3007" width="0.1925" height="4.5507" ry="0.0000" fill="currentColor"/>
<rect transform="translate(115.5257, 9.4766)" x="0.0000" y="3.9925" width="0.6080" height="20.7209" ry="0.0000" fill="currentColor"/>
<rect transform="translate(115.0291, 9.4766)" x="0.0000" y="3.9925" width="0.1925" height="20.7209" ry="0.0000" fill="currentColor"/>
<rect transform="translate(102.0128, 36.4400)" x="0.0000" y="-2.3007" width="0.1925" height="4.5507" ry="0.0000" fill="currentColor"/>
<rect transform="translate(115.5257, 36.4400)" x="0.0000" y="-2.3007" width="0.6080" height="4.5507" ry="0.0000" fill="currentColor"/>
<rect transform="translate(115.0291, 36.4400)" x="0.0000" y="-2.3007" width="0.1925" height="4.5507" ry="0.0000" fill="currentColor"/>
<rect transform="translate(102.0128, 9.4766)" x="0.0000" y="3.9925" width="0.1925" height="20.7209" ry="0.0000" fill="currentColor"/>
<rect transform="translate(115.5257, 11.4184)" x="0.0000" y="-2.0000" width="0.6080" height="4.0507" ry="0.0000" fill="currentColor"/>
<rect transform="translate(115.0291, 11.4184)" x="0.0000" y="-2.0000" width="0.1925" height="4.0507" ry="0.0000" fill="currentColor"/>
<line transform="translate(5.8067, 38.6900)" stroke-linejoin="round" stroke-linecap="round" stroke-width="0.1013" stroke="currentColor" x1="0.0507" y1="-0.0000" x2="110.2763" y2="-0.0000"/>
<line transform="translate(5.8067, 37.1900)" stroke-linejoin="round" stroke-linecap="round" stroke-width="0.1013" stroke="currentColor" x1="0.0507" y1="-0.0000" x2="110.2763" y2="-0.0000"/>
<line transform="translate(5.8067, 35.6900)" stroke-linejoin="round" stroke-linecap="round" stroke-width="0.1013" stroke="currentColor" x1="0.0507" y1="-0.0000" x2="110.2763" y2="-0.0000"/>
<line transform="translate(5.8067, 34.1900)" stroke-linejoin="round" stroke-linecap="round" stroke-width="0.1013" stroke="currentColor" x1="0.0507" y1="-0.0000" x2="110.2763" y2="-0.0000"/>
<rect transform="translate(35.3401, 11.4184)" x="0.0000" y="-2.0000" width="0.1925" height="4.0507" ry="0.0000" fill="currentColor"/>
<rect transform="translate(52.8309, 11.4184)" x="0.0000" y="-2.0000" width="0.1925" height="4.0507" ry="0.0000" fill="currentColor"/>
<rect transform="translate(102.0128, 11.4184)" x="0.0000" y="-2.0000" width="0.1925" height="4.0507" ry="0.0000" fill="currentColor"/>
<rect transform="translate(78.5221, 11.4184)" x="0.0000" y="-2.0000" width="0.1925" height="4.0507" ry="0.0000" fill="currentColor"/>
<line transform="translate(5.8067, 13.4184)" stroke-linejoin="round" stroke-linecap="round" stroke-width="0.1013" stroke="currentColor" x1="0.0507" y1="-0.0000" x2="110.2763" y2="-0.0000"/>
<line transform="translate(5.8067, 12.4184)" stroke-linejoin="round" stroke-linecap="round" stroke-width="0.1013" stroke="currentColor" x1="0.0507" y1="-0.0000" x2="110.2763" y2="-0.0000"/>
<line transform="translate(5.8067, 11.4184)" stroke-linejoin="round" stroke-linecap="round" stroke-width="0.1013" stroke="currentColor" x1="0.0507" y1="-0.0000" x2="110.2763" y2="-0.0000"/>
<line transform="translate(5.8067, 10.4184)" stroke-linejoin="round" stroke-linecap="round" stroke-width="0.1013" stroke="currentColor" x1="0.0507" y1="-0.0000" x2="110.2763" y2="-0.0000"/>
<line transform="translate(5.8067, 9.4184)" stroke-linejoin="round" stroke-linecap="round" stroke-width="0.1013" stroke="currentColor" x1="0.0507" y1="-0.0000" x2="110.2763" y2="-0.0000"/>
<rect transform="translate(92.2585, 11.4184)" x="-0.0659" y="-1.5000" width="0.1317" height="3.3139" ry="0.0408" fill="currentColor"/>
<rect transform="translate(91.0860, 11.4184)" x="-0.0659" y="4.2590" width="0.1317" height="2.2410" ry="0.0408" fill="currentColor"/>
<g color="rgb(100.0000%, 100.0000%, 100.0000%)">
<rect transform="translate(91.0201, 38.6900)" x="0.1219" y="-0.6479" width="1.2194" height="1.2959" ry="0.0000" fill="currentColor"/>
</g>
<text transform="translate(91.1421, 39.3379)" font-family="serif" font-weight="bold" font-size="1.7460" text-anchor="start" fill="currentColor">
<tspan>2</tspan>
</text>
<g color="rgb(100.0000%, 100.0000%, 100.0000%)">
<rect transform="translate(91.0201, 35.6900)" x="0.1219" y="-0.6603" width="1.2194" height="1.3206" ry="0.0000" fill="currentColor"/>
</g>
<text transform="translate(91.1421, 36.3255)" font-family="serif" font-weight="bold" font-size="1.7460" text-anchor="start" fill="currentColor">
<tspan>0</tspan>
</text>
<path transform="translate(91.0201, 15.4184) scale(0.0040, -0.0040)" d="M314 65c0 24 -21 41 -42 41c-4 0 -8 0 -12 -1c-31 -9 -78 -40 -115 -64s-84 -53 -104 -78c-7 -8 -10 -18 -10 -28c0 -24 21 -41 42 -41c4 0 8 0 12 1c31 9 77 40 114 64s84 53 104 78c7 8 11 18 11 28zM262 136c46 0 82 -21 82 -71c0 -19 -4 -39 -10 -57
c-12 -37 -32 -72 -64 -94c-53 -36 -113 -50 -187 -50c-46 0 -83 21 -83 71c0 19 5 39 11 57c12 37 31 72 63 94c53 36 114 50 188 50z" fill="currentColor"/>
<path transform="translate(91.0201, 13.4184) scale(0.0040, -0.0040)" d="M218 136c55 0 108 -28 108 -89c0 -71 -55 -121 -102 -149c-35 -21 -75 -34 -116 -34c-55 0 -108 28 -108 89c0 71 55 121 102 149c35 21 75 34 116 34z" fill="currentColor"/>
<text transform="translate(91.0201, 7.5480)" font-family="sans-serif" font-size="2.6164" text-anchor="start" fill="currentColor">
<tspan>A</tspan>
</text>
<text transform="translate(92.7970, 7.5480)" font-family="sans-serif" font-size="2.6164" text-anchor="start" fill="currentColor">
<tspan/>
</text>
<text transform="translate(92.7970, 7.5480)" font-family="sans-serif" font-size="2.6164" text-anchor="start" fill="currentColor">
<tspan>m</tspan>
</text>
<text transform="translate(95.3403, 6.3588)" font-family="sans-serif" font-size="1.8503" text-anchor="start" fill="currentColor">
<tspan/>
</text>
<rect transform="translate(86.7645, 11.4184)" x="-0.0659" y="-2.0000" width="0.1317" height="3.3139" ry="0.0408" fill="currentColor"/>
<g color="rgb(100.0000%, 100.0000%, 100.0000%)">
<rect transform="translate(85.5262, 35.6900)" x="0.1219" y="-0.6479" width="1.2194" height="1.2959" ry="0.0000" fill="currentColor"/>
</g>
<text transform="translate(85.6481, 36.3379)" font-family="serif" font-weight="bold" font-size="1.7460" text-anchor="start" fill="currentColor">
<tspan>2</tspan>
</text>
<path transform="translate(85.5262, 12.9184) scale(0.0040, -0.0040)" d="M218 136c55 0 108 -28 108 -89c0 -71 -55 -121 -102 -149c-35 -21 -75 -34 -116 -34c-55 0 -108 28 -108 89c0 71 55 121 102 149c35 21 75 34 116 34z" fill="currentColor"/>
<rect transform="translate(67.3589, 11.4184)" x="-0.0659" y="3.7590" width="0.1317" height="2.2410" ry="0.0408" fill="currentColor"/>
<text transform="translate(72.5537, 23.5947)" font-family="serif" font-size="2.4695" text-anchor="start" fill="currentColor">
<tspan>O</tspan>
</text>
<text transform="translate(72.5537, 20.7947)" font-family="serif" font-size="2.4695" text-anchor="start" fill="currentColor">
<tspan>O</tspan>
</text>
<path transform="translate(72.9120, 12.4184) scale(0.0040, -0.0040)" d="M218 136c55 0 108 -28 108 -89c0 -71 -55 -121 -102 -149c-35 -21 -75 -34 -116 -34c-55 0 -108 28 -108 89c0 71 55 121 102 149c35 21 75 34 116 34z" fill="currentColor"/>
<text transform="translate(72.5537, 26.3947)" font-family="serif" font-size="2.4695" text-anchor="start" fill="currentColor">
<tspan>O</tspan>
</text>
<rect transform="translate(68.5314, 11.4184)" x="-0.0659" y="-1.5000" width="0.1317" height="3.3139" ry="0.0408" fill="currentColor"/>
<g color="rgb(100.0000%, 100.0000%, 100.0000%)">
<rect transform="translate(67.2930, 38.6900)" x="0.1219" y="-0.6479" width="1.2194" height="1.2959" ry="0.0000" fill="currentColor"/>
</g>
<text transform="translate(67.4150, 39.3379)" font-family="serif" font-weight="bold" font-size="1.7460" text-anchor="start" fill="currentColor">
<tspan>4</tspan>
</text>
<g color="rgb(100.0000%, 100.0000%, 100.0000%)">
<rect transform="translate(67.2930, 35.6900)" x="0.1219" y="-0.6603" width="1.2194" height="1.3206" ry="0.0000" fill="currentColor"/>
</g>
<text transform="translate(67.4150, 36.3255)" font-family="serif" font-weight="bold" font-size="1.7460" text-anchor="start" fill="currentColor">
<tspan>0</tspan>
</text>
<text transform="translate(64.7921, 31.9947)" font-family="serif" font-size="2.4695" text-anchor="start" fill="currentColor">
<tspan>thee,</tspan>
</text>
<text transform="translate(64.7921, 29.1947)" font-family="serif" font-size="2.4695" text-anchor="start" fill="currentColor">
<tspan>thee,</tspan>
</text>
<text transform="translate(64.7921, 26.3947)" font-family="serif" font-size="2.4695" text-anchor="start" fill="currentColor">
<tspan>thee,</tspan>
</text>
<text transform="translate(64.7921, 23.5947)" font-family="serif" font-size="2.4695" text-anchor="start" fill="currentColor">
<tspan>thee,</tspan>
</text>
<text transform="translate(64.7921, 20.7947)" font-family="serif" font-size="2.4695" text-anchor="start" fill="currentColor">
<tspan>thee,</tspan>
</text>
<path transform="translate(67.2930, 14.9184) scale(0.0040, -0.0040)" d="M314 65c0 24 -21 41 -42 41c-4 0 -8 0 -12 -1c-31 -9 -78 -40 -115 -64s-84 -53 -104 -78c-7 -8 -10 -18 -10 -28c0 -24 21 -41 42 -41c4 0 8 0 12 1c31 9 77 40 114 64s84 53 104 78c7 8 11 18 11 28zM262 136c46 0 82 -21 82 -71c0 -19 -4 -39 -10 -57
c-12 -37 -32 -72 -64 -94c-53 -36 -113 -50 -187 -50c-46 0 -83 21 -83 71c0 19 5 39 11 57c12 37 31 72 63 94c53 36 114 50 188 50z" fill="currentColor"/>
<path transform="translate(67.2930, 13.4184) scale(0.0040, -0.0040)" d="M218 136c55 0 108 -28 108 -89c0 -71 -55 -121 -102 -149c-35 -21 -75 -34 -116 -34c-55 0 -108 28 -108 89c0 71 55 121 102 149c35 21 75 34 116 34z" fill="currentColor"/>
<rect transform="translate(23.7556, 20.7947)" x="0.0000" y="-0.5517" width="0.6600" height="0.1317" ry="0.0405" fill="currentColor"/>
<text transform="translate(80.2823, 20.7947)" font-family="serif" font-size="2.4695" text-anchor="start" fill="currentColor">
<tspan>Is</tspan>
</text>
<rect transform="translate(80.3481, 11.4184)" x="-0.0659" y="2.7590" width="0.1317" height="2.2410" ry="0.0408" fill="currentColor"/>
<rect transform="translate(81.5206, 11.4184)" x="-0.0659" y="-3.0000" width="0.1317" height="3.3139" ry="0.0408" fill="currentColor"/>
<g color="rgb(100.0000%, 100.0000%, 100.0000%)">
<rect transform="translate(80.2823, 37.1900)" x="0.1219" y="-0.6479" width="1.2194" height="1.2959" ry="0.0000" fill="currentColor"/>
</g>
<text transform="translate(80.4042, 37.8379)" font-family="serif" font-weight="bold" font-size="1.7460" text-anchor="start" fill="currentColor">
<tspan>2</tspan>
</text>
<g color="rgb(100.0000%, 100.0000%, 100.0000%)">
<rect transform="translate(80.2823, 34.1900)" x="0.1219" y="-0.6603" width="1.2194" height="1.3206" ry="0.0000" fill="currentColor"/>
</g>
<text transform="translate(80.4042, 34.8255)" font-family="serif" font-weight="bold" font-size="1.7460" text-anchor="start" fill="currentColor">
<tspan>0</tspan>
</text>
<text transform="translate(80.2823, 31.9947)" font-family="serif" font-size="2.4695" text-anchor="start" fill="currentColor">
<tspan>Is</tspan>
</text>
<text transform="translate(80.2823, 29.1947)" font-family="serif" font-size="2.4695" text-anchor="start" fill="currentColor">
<tspan>Is</tspan>
</text>
<text transform="translate(80.2823, 26.3947)" font-family="serif" font-size="2.4695" text-anchor="start" fill="currentColor">
<tspan>Is</tspan>
</text>
<text transform="translate(80.2823, 23.5947)" font-family="serif" font-size="2.4695" text-anchor="start" fill="currentColor">
<tspan>Is</tspan>
</text>
<path transform="translate(80.2823, 13.9184) scale(0.0040, -0.0040)" d="M314 65c0 24 -21 41 -42 41c-4 0 -8 0 -12 -1c-31 -9 -78 -40 -115 -64s-84 -53 -104 -78c-7 -8 -10 -18 -10 -28c0 -24 21 -41 42 -41c4 0 8 0 12 1c31 9 77 40 114 64s84 53 104 78c7 8 11 18 11 28zM262 136c46 0 82 -21 82 -71c0 -19 -4 -39 -10 -57
c-12 -37 -32 -72 -64 -94c-53 -36 -113 -50 -187 -50c-46 0 -83 21 -83 71c0 19 5 39 11 57c12 37 31 72 63 94c53 36 114 50 188 50z" fill="currentColor"/>
<path transform="translate(80.2823, 11.9184) scale(0.0040, -0.0040)" d="M218 136c55 0 108 -28 108 -89c0 -71 -55 -121 -102 -149c-35 -21 -75 -34 -116 -34c-55 0 -108 28 -108 89c0 71 55 121 102 149c35 21 75 34 116 34z" fill="currentColor"/>
<text transform="translate(80.2823, 7.5480)" font-family="sans-serif" font-size="2.6164" text-anchor="start" fill="currentColor">
<tspan>D</tspan>
</text>
<text transform="translate(82.3030, 7.5480)" font-family="sans-serif" font-size="2.6164" text-anchor="start" fill="currentColor">
<tspan/>
</text>
<text transform="translate(82.3030, 7.5480)" font-family="sans-serif" font-size="2.6164" text-anchor="start" fill="currentColor">
<tspan/>
</text>
<text transform="translate(82.3030, 6.3588)" font-family="sans-serif" font-size="1.8503" text-anchor="start" fill="currentColor">
<tspan/>
</text>
<rect transform="translate(74.1503, 11.4184)" x="-0.0659" y="-2.5000" width="0.1317" height="3.3139" ry="0.0408" fill="currentColor"/>
<g color="rgb(100.0000%, 100.0000%, 100.0000%)">
<rect transform="translate(72.9120, 35.6900)" x="0.1219" y="-0.6603" width="1.2194" height="1.3206" ry="0.0000" fill="currentColor"/>
</g>
<text transform="translate(73.0339, 36.3255)" font-family="serif" font-weight="bold" font-size="1.7460" text-anchor="start" fill="currentColor">
<tspan>3</tspan>
</text>
<text transform="translate(72.5537, 31.9947)" font-family="serif" font-size="2.4695" text-anchor="start" fill="currentColor">
<tspan>O</tspan>
</text>
<text transform="translate(72.5537, 29.1947)" font-family="serif" font-size="2.4695" text-anchor="start" fill="currentColor">
<tspan>O</tspan>
</text>
<rect transform="translate(100.8108, 26.3947)" x="0.0000" y="-0.5517" width="0.6600" height="0.1317" ry="0.0405" fill="currentColor"/>
<rect transform="translate(88.7846, 20.7947)" x="0.0000" y="-0.5517" width="0.6600" height="0.1317" ry="0.0405" fill="currentColor"/>
<rect transform="translate(88.7846, 23.5947)" x="0.0000" y="-0.5517" width="0.6600" height="0.1317" ry="0.0405" fill="currentColor"/>
<rect transform="translate(88.7846, 26.3947)" x="0.0000" y="-0.5517" width="0.6600" height="0.1317" ry="0.0405" fill="currentColor"/>
<rect transform="translate(88.7846, 29.1947)" x="0.0000" y="-0.5517" width="0.6600" height="0.1317" ry="0.0405" fill="currentColor"/>
<rect transform="translate(88.7846, 31.9947)" x="0.0000" y="-0.5517" width="0.6600" height="0.1317" ry="0.0405" fill="currentColor"/>
<rect transform="translate(100.8108, 20.7947)" x="0.0000" y="-0.5517" width="0.6600" height="0.1317" ry="0.0405" fill="currentColor"/>
<rect transform="translate(100.8108, 23.5947)" x="0.0000" y="-0.5517" width="0.6600" height="0.1317" ry="0.0405" fill="currentColor"/>
<rect transform="translate(100.8108, 29.1947)" x="0.0000" y="-0.5517" width="0.6600" height="0.1317" ry="0.0405" fill="currentColor"/>
<rect transform="translate(100.8108, 31.9947)" x="0.0000" y="-0.5517" width="0.6600" height="0.1317" ry="0.0405" fill="currentColor"/>
<rect transform="translate(23.7556, 23.5947)" x="0.0000" y="-0.5517" width="0.6600" height="0.1317" ry="0.0405" fill="currentColor"/>
<rect transform="translate(23.7556, 26.3947)" x="0.0000" y="-0.5517" width="0.6600" height="0.1317" ry="0.0405" fill="currentColor"/>
<rect transform="translate(23.7556, 29.1947)" x="0.0000" y="-0.5517" width="0.6600" height="0.1317" ry="0.0405" fill="currentColor"/>
<rect transform="translate(23.7556, 31.9947)" x="0.0000" y="-0.5517" width="0.6600" height="0.1317" ry="0.0405" fill="currentColor"/>
<rect transform="translate(33.6068, 20.7947)" x="0.0000" y="-0.5517" width="0.6600" height="0.1317" ry="0.0405" fill="currentColor"/>
<rect transform="translate(33.6068, 23.5947)" x="0.0000" y="-0.5517" width="0.6600" height="0.1317" ry="0.0405" fill="currentColor"/>
<rect transform="translate(33.6068, 26.3947)" x="0.0000" y="-0.5517" width="0.6600" height="0.1317" ry="0.0405" fill="currentColor"/>
<rect transform="translate(33.6068, 29.1947)" x="0.0000" y="-0.5517" width="0.6600" height="0.1317" ry="0.0405" fill="currentColor"/>
<rect transform="translate(33.6068, 31.9947)" x="0.0000" y="-0.5517" width="0.6600" height="0.1317" ry="0.0405" fill="currentColor"/>
<text transform="translate(104.7608, 7.5480)" font-family="sans-serif" font-size="2.6164" text-anchor="start" fill="currentColor">
<tspan>E</tspan>
</text>
<text transform="translate(106.3983, 7.5480)" font-family="sans-serif" font-size="2.6164" text-anchor="start" fill="currentColor">
<tspan/>
</text>
<text transform="translate(106.3983, 7.5480)" font-family="sans-serif" font-size="2.6164" text-anchor="start" fill="currentColor">
<tspan>m</tspan>
</text>
<text transform="translate(108.9416, 6.3588)" font-family="sans-serif" font-size="1.8503" text-anchor="start" fill="currentColor">
<tspan/>
</text>
<rect transform="translate(106.0722, 11.4184)" x="-0.0659" y="-1.5000" width="0.1317" height="3.2410" ry="0.0408" fill="currentColor"/>
<path transform="translate(106.5881, 12.9184) scale(0.0040, -0.0040)" d="M0 0c0 31 25 56 56 56s56 -25 56 -56s-25 -56 -56 -56s-56 25 -56 56z" fill="currentColor"/>
<g color="rgb(100.0000%, 100.0000%, 100.0000%)">
<rect transform="translate(104.7608, 38.6900)" x="0.1219" y="-0.6603" width="1.2194" height="1.3206" ry="0.0000" fill="currentColor"/>
</g>
<text transform="translate(104.8827, 39.3255)" font-family="serif" font-weight="bold" font-size="1.7460" text-anchor="start" fill="currentColor">
<tspan>0</tspan>
</text>
<g color="rgb(100.0000%, 100.0000%, 100.0000%)">
<rect transform="translate(104.7608, 35.6900)" x="0.1219" y="-0.6603" width="1.2194" height="1.3206" ry="0.0000" fill="currentColor"/>
</g>
<text transform="translate(104.8827, 36.3255)" font-family="serif" font-weight="bold" font-size="1.7460" text-anchor="start" fill="currentColor">
<tspan>0</tspan>
</text>
<text transform="translate(103.9165, 31.9947)" font-family="serif" font-size="2.4695" text-anchor="start" fill="currentColor">
<tspan>el.</tspan>
</text>
<text transform="translate(103.9165, 29.1947)" font-family="serif" font-size="2.4695" text-anchor="start" fill="currentColor">
<tspan>el.</tspan>
</text>
<text transform="translate(103.9165, 26.3947)" font-family="serif" font-size="2.4695" text-anchor="start" fill="currentColor">
<tspan>el.</tspan>
</text>
<text transform="translate(103.9165, 23.5947)" font-family="serif" font-size="2.4695" text-anchor="start" fill="currentColor">
<tspan>el.</tspan>
</text>
<text transform="translate(103.9165, 20.7947)" font-family="serif" font-size="2.4695" text-anchor="start" fill="currentColor">
<tspan>el.</tspan>
</text>
<path transform="translate(104.7608, 15.9184) scale(0.0040, -0.0040)" d="M314 65c0 24 -21 41 -42 41c-4 0 -8 0 -12 -1c-31 -9 -78 -40 -115 -64s-84 -53 -104 -78c-7 -8 -10 -18 -10 -28c0 -24 21 -41 42 -41c4 0 8 0 12 1c31 9 77 40 114 64s84 53 104 78c7 8 11 18 11 28zM262 136c46 0 82 -21 82 -71c0 -19 -4 -39 -10 -57
c-12 -37 -32 -72 -64 -94c-53 -36 -113 -50 -187 -50c-46 0 -83 21 -83 71c0 19 5 39 11 57c12 37 31 72 63 94c53 36 114 50 188 50z" fill="currentColor"/>
<path transform="translate(104.7608, 13.4184) scale(0.0040, -0.0040)" d="M314 65c0 24 -21 41 -42 41c-4 0 -8 0 -12 -1c-31 -9 -78 -40 -115 -64s-84 -53 -104 -78c-7 -8 -10 -18 -10 -28c0 -24 21 -41 42 -41c4 0 8 0 12 1c31 9 77 40 114 64s84 53 104 78c7 8 11 18 11 28zM262 136c46 0 82 -21 82 -71c0 -19 -4 -39 -10 -57
c-12 -37 -32 -72 -64 -94c-53 -36 -113 -50 -187 -50c-46 0 -83 21 -83 71c0 19 5 39 11 57c12 37 31 72 63 94c53 36 114 50 188 50z" fill="currentColor"/>
<path transform="translate(106.5881, 15.9184) scale(0.0040, -0.0040)" d="M0 0c0 31 25 56 56 56s56 -25 56 -56s-25 -56 -56 -56s-56 25 -56 56z" fill="currentColor"/>
<rect transform="translate(97.6274, 11.4184)" x="-0.0659" y="-1.0000" width="0.1317" height="3.3139" ry="0.0408" fill="currentColor"/>
<g color="rgb(100.0000%, 100.0000%, 100.0000%)">
<rect transform="translate(96.3891, 37.1900)" x="0.1219" y="-0.6479" width="1.2194" height="1.2959" ry="0.0000" fill="currentColor"/>
</g>
<text transform="translate(96.5110, 37.8379)" font-family="serif" font-weight="bold" font-size="1.7460" text-anchor="start" fill="currentColor">
<tspan>2</tspan>
</text>
<text transform="translate(95.7173, 31.9947)" font-family="serif" font-size="2.4695" text-anchor="start" fill="currentColor">
<tspan>ra</tspan>
</text>
<text transform="translate(95.7173, 29.1947)" font-family="serif" font-size="2.4695" text-anchor="start" fill="currentColor">
<tspan>ra</tspan>
</text>
<text transform="translate(95.7173, 26.3947)" font-family="serif" font-size="2.4695" text-anchor="start" fill="currentColor">
<tspan>ra</tspan>
</text>
<text transform="translate(95.7173, 23.5947)" font-family="serif" font-size="2.4695" text-anchor="start" fill="currentColor">
<tspan>ra</tspan>
</text>
<text transform="translate(95.7173, 20.7947)" font-family="serif" font-size="2.4695" text-anchor="start" fill="currentColor">
<tspan>ra</tspan>
</text>
<path transform="translate(96.3891, 13.9184) scale(0.0040, -0.0040)" d="M218 136c55 0 108 -28 108 -89c0 -71 -55 -121 -102 -149c-35 -21 -75 -34 -116 -34c-55 0 -108 28 -108 89c0 71 55 121 102 149c35 21 75 34 116 34z" fill="currentColor"/>
<rect transform="translate(104.8266, 11.4184)" x="-0.0659" y="4.7590" width="0.1317" height="2.2410" ry="0.0408" fill="currentColor"/>
<rect transform="translate(25.5079, 11.4184)" x="-0.0659" y="-3.3333" width="0.1317" height="3.1472" ry="0.0408" fill="currentColor"/>
<rect transform="translate(24.3355, 11.4184)" x="-0.0659" y="2.7590" width="0.1317" height="2.2410" ry="0.0408" fill="currentColor"/>
<g color="rgb(100.0000%, 100.0000%, 100.0000%)">
<rect transform="translate(24.2696, 37.1900)" x="0.1219" y="-0.6479" width="1.2194" height="1.2959" ry="0.0000" fill="currentColor"/>
</g>
<text transform="translate(24.3915, 37.8379)" font-family="serif" font-weight="bold" font-size="1.7460" text-anchor="start" fill="currentColor">
<tspan>2</tspan>
</text>
<g color="rgb(100.0000%, 100.0000%, 100.0000%)">
<rect transform="translate(24.2696, 34.1900)" x="0.1219" y="-0.6479" width="1.2194" height="1.2959" ry="0.0000" fill="currentColor"/>
</g>
<text transform="translate(24.3915, 34.8379)" font-family="serif" font-weight="bold" font-size="1.7460" text-anchor="start" fill="currentColor">
<tspan>2</tspan>
</text>
<path transform="translate(24.2696, 13.9184) scale(0.0040, -0.0040)" d="M314 65c0 24 -21 41 -42 41c-4 0 -8 0 -12 -1c-31 -9 -78 -40 -115 -64s-84 -53 -104 -78c-7 -8 -10 -18 -10 -28c0 -24 21 -41 42 -41c4 0 8 0 12 1c31 9 77 40 114 64s84 53 104 78c7 8 11 18 11 28zM262 136c46 0 82 -21 82 -71c0 -19 -4 -39 -10 -57
c-12 -37 -32 -72 -64 -94c-53 -36 -113 -50 -187 -50c-46 0 -83 21 -83 71c0 19 5 39 11 57c12 37 31 72 63 94c53 36 114 50 188 50z" fill="currentColor"/>
<path transform="translate(24.2696, 11.4184) scale(0.0040, -0.0040)" d="M218 136c55 0 108 -28 108 -89c0 -71 -55 -121 -102 -149c-35 -21 -75 -34 -116 -34c-55 0 -108 28 -108 89c0 71 55 121 102 149c35 21 75 34 116 34z" fill="currentColor"/>
<rect transform="translate(20.0140, 11.4184)" x="-0.0659" y="-3.6667" width="0.1317" height="2.9806" ry="0.0408" fill="currentColor"/>
<g color="rgb(100.0000%, 100.0000%, 100.0000%)">
<rect transform="translate(18.7756, 34.1900)" x="0.1219" y="-0.6603" width="1.2194" height="1.3206" ry="0.0000" fill="currentColor"/>
</g>
<text transform="translate(18.8976, 34.8255)" font-family="serif" font-weight="bold" font-size="1.7460" text-anchor="start" fill="currentColor">
<tspan>3</tspan>
</text>
<path transform="translate(18.7756, 10.9184) scale(0.0040, -0.0040)" d="M218 136c55 0 108 -28 108 -89c0 -71 -55 -121 -102 -149c-35 -21 -75 -34 -116 -34c-55 0 -108 28 -108 89c0 71 55 121 102 149c35 21 75 34 116 34z" fill="currentColor"/>
<text transform="translate(37.1002, 7.5480)" font-family="sans-serif" font-size="2.6164" text-anchor="start" fill="currentColor">
<tspan>E</tspan>
</text>
<text transform="translate(38.7377, 7.5480)" font-family="sans-serif" font-size="2.6164" text-anchor="start" fill="currentColor">
<tspan/>
</text>
<text transform="translate(38.7377, 7.5480)" font-family="sans-serif" font-size="2.6164" text-anchor="start" fill="currentColor">
<tspan>m</tspan>
</text>
<text transform="translate(41.2811, 6.3588)" font-family="sans-serif" font-size="1.8503" text-anchor="start" fill="currentColor">
<tspan/>
</text>
<rect transform="translate(38.4117, 11.4184)" x="-0.0659" y="-2.5000" width="0.1317" height="3.2410" ry="0.0408" fill="currentColor"/>
<g color="rgb(100.0000%, 100.0000%, 100.0000%)">
<rect transform="translate(37.1002, 37.1900)" x="0.1219" y="-0.6479" width="1.2194" height="1.2959" ry="0.0000" fill="currentColor"/>
</g>
<text transform="translate(37.2222, 37.8379)" font-family="serif" font-weight="bold" font-size="1.7460" text-anchor="start" fill="currentColor">
<tspan>4</tspan>
</text>
<g color="rgb(100.0000%, 100.0000%, 100.0000%)">
<rect transform="translate(37.1002, 35.6900)" x="0.1219" y="-0.6603" width="1.2194" height="1.3206" ry="0.0000" fill="currentColor"/>
</g>
<text transform="translate(37.2222, 36.3255)" font-family="serif" font-weight="bold" font-size="1.7460" text-anchor="start" fill="currentColor">
<tspan>3</tspan>
</text>
<text transform="translate(36.6566, 31.9947)" font-family="serif" font-size="2.4695" text-anchor="start" fill="currentColor">
<tspan>el</tspan>
</text>
<text transform="translate(36.6566, 29.1947)" font-family="serif" font-size="2.4695" text-anchor="start" fill="currentColor">
<tspan>el</tspan>
</text>
<text transform="translate(36.6566, 26.3947)" font-family="serif" font-size="2.4695" text-anchor="start" fill="currentColor">
<tspan>el</tspan>
</text>
<text transform="translate(36.6566, 23.5947)" font-family="serif" font-size="2.4695" text-anchor="start" fill="currentColor">
<tspan>el</tspan>
</text>
<text transform="translate(36.6566, 20.7947)" font-family="serif" font-size="2.4695" text-anchor="start" fill="currentColor">
<tspan>el</tspan>
</text>
<path transform="translate(37.1002, 13.4184) scale(0.0040, -0.0040)" d="M314 65c0 24 -21 41 -42 41c-4 0 -8 0 -12 -1c-31 -9 -78 -40 -115 -64s-84 -53 -104 -78c-7 -8 -10 -18 -10 -28c0 -24 21 -41 42 -41c4 0 8 0 12 1c31 9 77 40 114 64s84 53 104 78c7 8 11 18 11 28zM262 136c46 0 82 -21 82 -71c0 -19 -4 -39 -10 -57
c-12 -37 -32 -72 -64 -94c-53 -36 -113 -50 -187 -50c-46 0 -83 21 -83 71c0 19 5 39 11 57c12 37 31 72 63 94c53 36 114 50 188 50z" fill="currentColor"/>
<path transform="translate(37.1002, 12.4184) scale(0.0040, -0.0040)" d="M314 65c0 24 -21 41 -42 41c-4 0 -8 0 -12 -1c-31 -9 -78 -40 -115 -64s-84 -53 -104 -78c-7 -8 -10 -18 -10 -28c0 -24 21 -41 42 -41c4 0 8 0 12 1c31 9 77 40 114 64s84 53 104 78c7 8 11 18 11 28zM262 136c46 0 82 -21 82 -71c0 -19 -4 -39 -10 -57
c-12 -37 -32 -72 -64 -94c-53 -36 -113 -50 -187 -50c-46 0 -83 21 -83 71c0 19 5 39 11 57c12 37 31 72 63 94c53 36 114 50 188 50z" fill="currentColor"/>
<rect transform="translate(31.0019, 11.4184)" x="-0.0659" y="-3.0000" width="0.1317" height="3.3139" ry="0.0408" fill="currentColor"/>
<g color="rgb(100.0000%, 100.0000%, 100.0000%)">
<rect transform="translate(29.7635, 34.1900)" x="0.1219" y="-0.6603" width="1.2194" height="1.3206" ry="0.0000" fill="currentColor"/>
</g>
<text transform="translate(29.8855, 34.8255)" font-family="serif" font-weight="bold" font-size="1.7460" text-anchor="start" fill="currentColor">
<tspan>0</tspan>
</text>
<text transform="translate(29.6143, 31.9947)" font-family="serif" font-size="2.4695" text-anchor="start" fill="currentColor">
<tspan>u</tspan>
</text>
<text transform="translate(29.6143, 29.1947)" font-family="serif" font-size="2.4695" text-anchor="start" fill="currentColor">
<tspan>u</tspan>
</text>
<text transform="translate(29.6143, 26.3947)" font-family="serif" font-size="2.4695" text-anchor="start" fill="currentColor">
<tspan>u</tspan>
</text>
<text transform="translate(29.6143, 23.5947)" font-family="serif" font-size="2.4695" text-anchor="start" fill="currentColor">
<tspan>u</tspan>
</text>
<text transform="translate(29.6143, 20.7947)" font-family="serif" font-size="2.4695" text-anchor="start" fill="currentColor">
<tspan>u</tspan>
</text>
<path transform="translate(29.7635, 11.9184) scale(0.0040, -0.0040)" d="M218 136c55 0 108 -28 108 -89c0 -71 -55 -121 -102 -149c-35 -21 -75 -34 -116 -34c-55 0 -108 28 -108 89c0 71 55 121 102 149c35 21 75 34 116 34z" fill="currentColor"/>
<path transform="translate(6.6067, 36.4400) scale(0.0040, -0.0040)" d="M267 -425c0 -24 -23 -27 -43 -27c-45 0 -84 31 -84 75c0 82 118 130 234 130c104 0 215 -22 215 -103c0 -51 -31 -86 -69 -110c58 -11 102 -36 102 -91c0 -90 -94 -158 -179 -158c-41 0 -80 15 -108 52c-2 2 -3 5 -3 8c0 12 16 25 28 25c4 0 8 -1 10 -4
c11 -15 27 -21 44 -21c43 0 95 40 95 93c0 46 -49 63 -100 63h-1c-6 0 -8 8 -8 16c0 11 5 24 18 24h1c36 0 68 39 68 77c0 45 -36 68 -80 76c-11 -62 -31 -173 -40 -220c-20 -102 -84 -202 -159 -202c-44 0 -68 34 -96 53c-3 2 -4 5 -4 9c0 11 12 26 24 26c3 0 5 0 7 -2
c20 -13 36 -35 65 -35c65 0 89 99 89 195v8c0 35 9 109 18 163c-39 -13 -70 -40 -70 -70c0 -15 8 -28 19 -34c4 -3 7 -9 7 -16zM301 -83c-43 -41 -114 -105 -173 -105c-33 0 -52 21 -78 32c-3 1 -5 5 -5 9c0 11 11 28 25 28c2 0 5 -1 7 -2c16 -7 30 -18 50 -18
c34 0 65 27 91 54c100 102 175 219 214 336c9 27 33 37 57 37c29 0 57 -15 57 -31c0 -2 -1 -4 -2 -6c-4 -116 -9 -233 -16 -350v-9c0 -16 3 -30 21 -30c16 0 35 13 53 19l2 1c5 0 9 -8 9 -17c0 -8 -3 -16 -12 -19c-29 -9 -54 -34 -87 -34c-32 0 -45 29 -53 58
c-16 61 -26 125 -31 191c-27 -35 -56 -68 -87 -101c11 -20 33 -33 64 -33c4 0 8 1 12 1c5 0 8 -7 8 -15c0 -25 -34 -29 -56 -29c-32 0 -56 12 -70 33zM288 540c0 -23 -23 -24 -42 -24c-49 0 -91 36 -91 84c0 95 125 120 232 120c49 0 119 -41 171 -41c38 0 77 15 110 41
c3 2 6 3 9 3c11 0 23 -11 23 -19c0 -2 -1 -3 -2 -4c-40 -45 -95 -71 -148 -71c-15 0 -31 2 -44 6c-9 -59 -26 -151 -35 -193c-22 -96 -88 -185 -163 -185c-52 0 -81 42 -115 64c-3 2 -4 5 -4 9c0 11 12 26 23 26c2 0 5 -1 7 -2c23 -15 43 -46 75 -46c56 0 82 77 85 150
c2 45 13 150 22 208c-12 3 -31 5 -32 5c-51 0 -113 -21 -113 -70c0 -18 10 -36 24 -43c5 -3 8 -10 8 -18z" fill="currentColor"/>
<path transform="translate(10.1067, 9.4184) scale(0.0040, -0.0040)" d="M216 -312c0 -10 -8 -19 -18 -19s-19 9 -19 19v145l-83 -31v-158c0 -10 -9 -19 -19 -19s-18 9 -18 19v145l-32 -12c-2 -1 -5 -1 -7 -1c-11 0 -20 9 -20 20v60c0 8 5 16 13 19l46 16v160l-32 -11c-2 -1 -5 -1 -7 -1c-11 0 -20 9 -20 20v60c0 8 5 15 13 18l46 17v158
c0 10 8 19 18 19s19 -9 19 -19v-145l83 31v158c0 10 9 19 19 19s18 -9 18 -19v-145l32 12c2 1 5 1 7 1c11 0 20 -9 20 -20v-60c0 -8 -5 -16 -13 -19l-46 -16v-160l32 11c2 1 5 1 7 1c11 0 20 -9 20 -20v-60c0 -8 -5 -15 -13 -18l-46 -17v-158zM96 65v-160l83 30v160z" fill="currentColor"/>
<path transform="translate(6.6067, 12.4184) scale(0.0040, -0.0040)" d="M266 -635h-6c-108 0 -195 88 -195 197c0 58 53 103 112 103c54 0 95 -47 95 -103c0 -52 -43 -95 -95 -95c-11 0 -21 2 -31 6c26 -39 68 -65 117 -65h4zM461 -203c68 24 113 95 113 164c0 90 -66 179 -173 190c24 -116 46 -231 60 -354zM74 28c0 -135 129 -247 264 -247
c28 0 55 2 82 6c-14 127 -37 245 -63 364c-79 -8 -124 -61 -124 -119c0 -44 25 -91 81 -123c5 -5 7 -10 7 -15c0 -11 -10 -22 -22 -22c-3 0 -6 1 -9 2c-80 43 -117 115 -117 185c0 88 58 174 160 197c-14 58 -29 117 -46 175c-107 -121 -213 -243 -213 -403zM335 -262
c-188 0 -333 172 -333 374c0 177 131 306 248 441c-19 62 -37 125 -45 190c-6 52 -7 104 -7 156c0 115 55 224 149 292c6 5 14 5 20 0c71 -84 133 -245 133 -358c0 -143 -86 -255 -180 -364c21 -68 39 -138 56 -207c4 0 9 1 13 1c155 0 256 -128 256 -261
c0 -76 -33 -154 -107 -210c-22 -17 -47 -28 -73 -36c3 -35 5 -70 5 -105c0 -19 -1 -39 -2 -58c-7 -119 -88 -225 -202 -228l1 43c93 2 153 92 159 191c1 18 2 37 2 55c0 31 -1 61 -4 92c-29 -5 -58 -8 -89 -8zM428 916c0 55 -4 79 -20 129c-99 -48 -162 -149 -162 -259
c0 -74 18 -133 36 -194c80 97 146 198 146 324z" fill="currentColor"/>
<text transform="translate(3.5769, 8.3437)" font-family="serif" font-size="1.7460" text-anchor="start" fill="currentColor">
<tspan>15</tspan>
</text>
<rect transform="translate(5.7445, 24.0542)" x="0.0000" y="-14.6865" width="0.1621" height="29.3729" ry="0.0507" fill="currentColor"/>
<path transform="translate(4.4945, 9.1428) scale(0.0040, -0.0040)" d="M0 -56v87c0 14 11 25 25 25h50c159 0 271 136 362 270c11 17 37 -1 26 -18c-99 -144 -215 -364 -388 -364h-75z" fill="currentColor"/>
<path transform="translate(4.4945, 38.9657) scale(0.0040, -0.0040)" d="M0 56h75c173 0 289 -220 388 -364c11 -17 -15 -35 -26 -18c-91 134 -203 270 -362 270h-50c-14 0 -25 11 -25 25v87z" fill="currentColor"/>
<rect transform="translate(4.4945, 24.0542)" x="0.0000" y="-14.7315" width="0.4500" height="29.4629" ry="0.0000" fill="currentColor"/>
<g color="rgb(100.0000%, 100.0000%, 100.0000%)">
<rect transform="translate(13.1567, 37.1900)" x="0.1219" y="-0.6603" width="1.2194" height="1.3206" ry="0.0000" fill="currentColor"/>
</g>
<text transform="translate(13.2786, 37.8255)" font-family="serif" font-weight="bold" font-size="1.7460" text-anchor="start" fill="currentColor">
<tspan>0</tspan>
</text>
<rect transform="translate(13.2226, 11.4184)" x="-0.0659" y="3.2590" width="0.1317" height="2.2410" ry="0.0408" fill="currentColor"/>
<rect transform="translate(14.3950, 11.4184)" x="-0.0659" y="-3.0000" width="0.1317" height="3.3139" ry="0.0408" fill="currentColor"/>
<path transform="translate(38.9276, 11.9184) scale(0.0040, -0.0040)" d="M0 0c0 31 25 56 56 56s56 -25 56 -56s-25 -56 -56 -56s-56 25 -56 56z" fill="currentColor"/>
<g color="rgb(100.0000%, 100.0000%, 100.0000%)">
<rect transform="translate(13.1567, 34.1900)" x="0.1219" y="-0.6603" width="1.2194" height="1.3206" ry="0.0000" fill="currentColor"/>
</g>
<text transform="translate(13.2786, 34.8255)" font-family="serif" font-weight="bold" font-size="1.7460" text-anchor="start" fill="currentColor">
<tspan>0</tspan>
</text>
<text transform="translate(13.1567, 31.9947)" font-family="serif" font-size="2.4695" text-anchor="start" fill="currentColor">
<tspan>man</tspan>
</text>
<text transform="translate(13.1567, 29.1947)" font-family="serif" font-size="2.4695" text-anchor="start" fill="currentColor">
<tspan>man</tspan>
</text>
<text transform="translate(13.1567, 26.3947)" font-family="serif" font-size="2.4695" text-anchor="start" fill="currentColor">
<tspan>man</tspan>
</text>
<text transform="translate(13.1567, 23.5947)" font-family="serif" font-size="2.4695" text-anchor="start" fill="currentColor">
<tspan>man</tspan>
</text>
<text transform="translate(13.1567, 20.7947)" font-family="serif" font-size="2.4695" text-anchor="start" fill="currentColor">
<tspan>man</tspan>
</text>
<path transform="translate(13.1567, 14.4184) scale(0.0040, -0.0040)" d="M314 65c0 24 -21 41 -42 41c-4 0 -8 0 -12 -1c-31 -9 -78 -40 -115 -64s-84 -53 -104 -78c-7 -8 -10 -18 -10 -28c0 -24 21 -41 42 -41c4 0 8 0 12 1c31 9 77 40 114 64s84 53 104 78c7 8 11 18 11 28zM262 136c46 0 82 -21 82 -71c0 -19 -4 -39 -10 -57
c-12 -37 -32 -72 -64 -94c-53 -36 -113 -50 -187 -50c-46 0 -83 21 -83 71c0 19 5 39 11 57c12 37 31 72 63 94c53 36 114 50 188 50z" fill="currentColor"/>
<path transform="translate(13.1567, 11.9184) scale(0.0040, -0.0040)" d="M218 136c55 0 108 -28 108 -89c0 -71 -55 -121 -102 -149c-35 -21 -75 -34 -116 -34c-55 0 -108 28 -108 89c0 71 55 121 102 149c35 21 75 34 116 34z" fill="currentColor"/>
<text transform="translate(13.1567, 7.5480)" font-family="sans-serif" font-size="2.6164" text-anchor="start" fill="currentColor">
<tspan>A</tspan>
</text>
<text transform="translate(14.9335, 7.5480)" font-family="sans-serif" font-size="2.6164" text-anchor="start" fill="currentColor">
<tspan/>
</text>
<text transform="translate(14.9335, 7.5480)" font-family="sans-serif" font-size="2.6164" text-anchor="start" fill="currentColor">
<tspan>m</tspan>
</text>
<text transform="translate(17.4769, 6.3588)" font-family="sans-serif" font-size="1.8503" text-anchor="start" fill="currentColor">
<tspan/>
</text>
<g color="rgb(100.0000%, 100.0000%, 100.0000%)">
<rect transform="translate(56.6801, 37.1900)" x="0.1219" y="-0.6479" width="1.2194" height="1.2959" ry="0.0000" fill="currentColor"/>
</g>
<text transform="translate(56.8021, 37.8379)" font-family="serif" font-weight="bold" font-size="1.7460" text-anchor="start" fill="currentColor">
<tspan>2</tspan>
</text>
<rect transform="translate(56.7460, 11.4184)" x="-0.0659" y="2.7590" width="0.1317" height="2.2410" ry="0.0408" fill="currentColor"/>
<rect transform="translate(57.9185, 11.4184)" x="-0.0659" y="-3.3333" width="0.1317" height="3.1472" ry="0.0408" fill="currentColor"/>
<g color="rgb(100.0000%, 100.0000%, 100.0000%)">
<rect transform="translate(56.6801, 34.1900)" x="0.1219" y="-0.6479" width="1.2194" height="1.2959" ry="0.0000" fill="currentColor"/>
</g>
<text transform="translate(56.8021, 34.8379)" font-family="serif" font-weight="bold" font-size="1.7460" text-anchor="start" fill="currentColor">
<tspan>2</tspan>
</text>
<text transform="translate(53.9876, 31.9947)" font-family="serif" font-size="2.4695" text-anchor="start" fill="currentColor">
<tspan>come</tspan>
</text>
<text transform="translate(53.9876, 29.1947)" font-family="serif" font-size="2.4695" text-anchor="start" fill="currentColor">
<tspan>come</tspan>
</text>
<text transform="translate(53.9876, 26.3947)" font-family="serif" font-size="2.4695" text-anchor="start" fill="currentColor">
<tspan>come</tspan>
</text>
<text transform="translate(53.9876, 23.5947)" font-family="serif" font-size="2.4695" text-anchor="start" fill="currentColor">
<tspan>come</tspan>
</text>
<text transform="translate(53.9876, 20.7947)" font-family="serif" font-size="2.4695" text-anchor="start" fill="currentColor">
<tspan>come</tspan>
</text>
<path transform="translate(56.6801, 13.9184) scale(0.0040, -0.0040)" d="M314 65c0 24 -21 41 -42 41c-4 0 -8 0 -12 -1c-31 -9 -78 -40 -115 -64s-84 -53 -104 -78c-7 -8 -10 -18 -10 -28c0 -24 21 -41 42 -41c4 0 8 0 12 1c31 9 77 40 114 64s84 53 104 78c7 8 11 18 11 28zM262 136c46 0 82 -21 82 -71c0 -19 -4 -39 -10 -57
c-12 -37 -32 -72 -64 -94c-53 -36 -113 -50 -187 -50c-46 0 -83 21 -83 71c0 19 5 39 11 57c12 37 31 72 63 94c53 36 114 50 188 50z" fill="currentColor"/>
<path transform="translate(56.6801, 11.4184) scale(0.0040, -0.0040)" d="M218 136c55 0 108 -28 108 -89c0 -71 -55 -121 -102 -149c-35 -21 -75 -34 -116 -34c-55 0 -108 28 -108 89c0 71 55 121 102 149c35 21 75 34 116 34z" fill="currentColor"/>
<text transform="translate(56.6801, 7.5480)" font-family="sans-serif" font-size="2.6164" text-anchor="start" fill="currentColor">
<tspan>G</tspan>
</text>
<text transform="translate(58.7009, 7.5480)" font-family="sans-serif" font-size="2.6164" text-anchor="start" fill="currentColor">
<tspan/>
</text>
<text transform="translate(58.7009, 7.5480)" font-family="sans-serif" font-size="2.6164" text-anchor="start" fill="currentColor">
<tspan/>
</text>
<text transform="translate(58.7009, 6.3588)" font-family="sans-serif" font-size="1.8503" text-anchor="start" fill="currentColor">
<tspan/>
</text>
<path transform="translate(38.9276, 13.9184) scale(0.0040, -0.0040)" d="M0 0c0 31 25 56 56 56s56 -25 56 -56s-25 -56 -56 -56s-56 25 -56 56z" fill="currentColor"/>
<rect transform="translate(63.1624, 11.4184)" x="-0.0659" y="-2.5000" width="0.1317" height="3.3139" ry="0.0408" fill="currentColor"/>
<g color="rgb(100.0000%, 100.0000%, 100.0000%)">
<rect transform="translate(61.9241, 35.6900)" x="0.1219" y="-0.6603" width="1.2194" height="1.3206" ry="0.0000" fill="currentColor"/>
</g>
<text transform="translate(62.0460, 36.3255)" font-family="serif" font-weight="bold" font-size="1.7460" text-anchor="start" fill="currentColor">
<tspan>3</tspan>
</text>
<text transform="translate(61.3394, 31.9947)" font-family="serif" font-size="2.4695" text-anchor="start" fill="currentColor">
<tspan>to</tspan>
</text>
<text transform="translate(61.3394, 29.1947)" font-family="serif" font-size="2.4695" text-anchor="start" fill="currentColor">
<tspan>to</tspan>
</text>
<text transform="translate(61.3394, 26.3947)" font-family="serif" font-size="2.4695" text-anchor="start" fill="currentColor">
<tspan>to</tspan>
</text>
<text transform="translate(61.3394, 23.5947)" font-family="serif" font-size="2.4695" text-anchor="start" fill="currentColor">
<tspan>to</tspan>
</text>
<text transform="translate(61.3394, 20.7947)" font-family="serif" font-size="2.4695" text-anchor="start" fill="currentColor">
<tspan>to</tspan>
</text>
<path transform="translate(61.9241, 12.4184) scale(0.0040, -0.0040)" d="M218 136c55 0 108 -28 108 -89c0 -71 -55 -121 -102 -149c-35 -21 -75 -34 -116 -34c-55 0 -108 28 -108 89c0 71 55 121 102 149c35 21 75 34 116 34z" fill="currentColor"/>
<rect transform="translate(37.1661, 11.4184)" x="-0.0659" y="2.2590" width="0.1317" height="2.4077" ry="0.0408" fill="currentColor"/>
<text transform="translate(44.7671, 26.3947)" font-family="serif" font-size="2.4695" text-anchor="start" fill="currentColor">
<tspan>Shall</tspan>
</text>
<rect transform="translate(47.3687, 11.4184)" x="-0.0659" y="3.1861" width="0.1317" height="2.3139" ry="0.0408" fill="currentColor"/>
<rect transform="translate(48.5412, 11.4184)" x="-0.0659" y="-3.0000" width="0.1317" height="3.3139" ry="0.0408" fill="currentColor"/>
<g color="rgb(100.0000%, 100.0000%, 100.0000%)">
<rect transform="translate(47.3028, 37.1900)" x="0.1219" y="-0.6603" width="1.2194" height="1.3206" ry="0.0000" fill="currentColor"/>
</g>
<text transform="translate(47.4248, 37.8255)" font-family="serif" font-weight="bold" font-size="1.7460" text-anchor="start" fill="currentColor">
<tspan>0</tspan>
</text>
<g color="rgb(100.0000%, 100.0000%, 100.0000%)">
<rect transform="translate(47.3028, 34.1900)" x="0.1219" y="-0.6603" width="1.2194" height="1.3206" ry="0.0000" fill="currentColor"/>
</g>
<text transform="translate(47.4248, 34.8255)" font-family="serif" font-weight="bold" font-size="1.7460" text-anchor="start" fill="currentColor">
<tspan>0</tspan>
</text>
<text transform="translate(44.7671, 31.9947)" font-family="serif" font-size="2.4695" text-anchor="start" fill="currentColor">
<tspan>Shall</tspan>
</text>
<text transform="translate(44.7671, 29.1947)" font-family="serif" font-size="2.4695" text-anchor="start" fill="currentColor">
<tspan>Shall</tspan>
</text>
<text transform="translate(44.7671, 23.5947)" font-family="serif" font-size="2.4695" text-anchor="start" fill="currentColor">
<tspan>Shall</tspan>
</text>
<path transform="translate(47.3028, 11.9184) scale(0.0040, -0.0040)" d="M218 136c55 0 108 -28 108 -89c0 -71 -55 -121 -102 -149c-35 -21 -75 -34 -116 -34c-55 0 -108 28 -108 89c0 71 55 121 102 149c35 21 75 34 116 34z" fill="currentColor"/>
<path transform="translate(47.3028, 14.4184) scale(0.0040, -0.0040)" d="M218 136c55 0 108 -28 108 -89c0 -71 -55 -121 -102 -149c-35 -21 -75 -34 -116 -34c-55 0 -108 28 -108 89c0 71 55 121 102 149c35 21 75 34 116 34z" fill="currentColor"/>
<text transform="translate(44.7671, 20.7947)" font-family="serif" font-size="2.4695" text-anchor="start" fill="currentColor">
<tspan>Shall</tspan>
</text>
<text transform="translate(60.9702, 168.9745)" font-family="serif" font-size="2.2002" text-anchor="start" fill="currentColor">
<tspan/>
</text>
</svg>
