<svg xmlns="http://www.w3.org/2000/svg" xmlns:xlink="http://www.w3.org/1999/xlink" version="1.2" width="210.00mm" height="297.00mm" viewBox="0 0 119.5016 169.0094">
<style text="style/css">
<![CDATA[
tspan { white-space: pre; }
]]>
</style>
<!-- Page: 2/2 -->
<text transform="translate(5.6906, 4.5168)" font-family="serif" font-size="2.2001" text-anchor="start" fill="currentColor">
<tspan>2</tspan>
</text>
<text transform="translate(55.4487, 4.5168)" font-family="serif" font-size="2.2001" text-anchor="start" fill="currentColor">
<tspan>Ukulele</tspan>
</text>
<text transform="translate(113.8110, 4.5168)" font-family="serif" font-size="2.2001" text-anchor="start" fill="currentColor">
<tspan/>
</text>
<rect transform="translate(104.3890, 15.3283)" x="0.0000" y="-2.2500" width="0.6000" height="4.5000" ry="0.0000" fill="currentColor"/>
<rect transform="translate(103.8990, 15.3283)" x="0.0000" y="-2.2500" width="0.1900" height="4.5000" ry="0.0000" fill="currentColor"/>
<rect transform="translate(94.3755, 15.3283)" x="0.0000" y="-2.2500" width="0.1900" height="4.5000" ry="0.0000" fill="currentColor"/>
<rect transform="translate(36.0968, 15.3283)" x="0.0000" y="-2.2500" width="0.1900" height="4.5000" ry="0.0000" fill="currentColor"/>
<rect transform="translate(51.9623, 15.3283)" x="0.0000" y="-2.2500" width="0.1900" height="4.5000" ry="0.0000" fill="currentColor"/>
<rect transform="translate(73.8810, 15.3283)" x="0.0000" y="-2.2500" width="0.1900" height="4.5000" ry="0.0000" fill="currentColor"/>
<line transform="translate(5.6906, 17.5783)" stroke-linejoin="round" stroke-linecap="round" stroke-width="0.1000" stroke="currentColor" x1="0.0500" y1="-0.0000" x2="99.2484" y2="-0.0000"/>
<line transform="translate(5.6906, 16.0783)" stroke-linejoin="round" stroke-linecap="round" stroke-width="0.1000" stroke="currentColor" x1="0.0500" y1="-0.0000" x2="99.2484" y2="-0.0000"/>
<line transform="translate(5.6906, 14.5783)" stroke-linejoin="round" stroke-linecap="round" stroke-width="0.1000" stroke="currentColor" x1="0.0500" y1="-0.0000" x2="99.2484" y2="-0.0000"/>
<line transform="translate(5.6906, 13.0783)" stroke-linejoin="round" stroke-linecap="round" stroke-width="0.1000" stroke="currentColor" x1="0.0500" y1="-0.0000" x2="99.2484" y2="-0.0000"/>
<text transform="translate(94.6644, 23.6283)" font-family="serif" font-size="2.4696" text-anchor="start" fill="currentColor">
<tspan>stall.</tspan>
</text>
<text transform="translate(93.7426, 29.2283)" font-family="serif" font-size="2.4696" text-anchor="start" fill="currentColor">
<tspan>born.”</tspan>
</text>
<text transform="translate(94.3742, 20.8283)" font-family="serif" font-size="2.4696" text-anchor="start" fill="currentColor">
<tspan>born.</tspan>
</text>
<g color="rgb(100.0000%, 100.0000%, 100.0000%)">
<rect transform="translate(96.9657, 14.5783)" x="0.1229" y="-0.6603" width="1.2292" height="1.3207" ry="0.0000" fill="currentColor"/>
</g>
<text transform="translate(97.0886, 15.2138)" font-family="serif" font-weight="bold" font-size="1.7461" text-anchor="start" fill="currentColor">
<tspan>3</tspan>
</text>
<text transform="translate(96.9657, 7.4898)" font-family="sans-serif" font-size="2.6163" text-anchor="start" fill="currentColor">
<tspan>G</tspan>
</text>
<text transform="translate(98.9802, 7.4898)" font-family="sans-serif" font-size="2.6163" text-anchor="start" fill="currentColor">
<tspan/>
</text>
<text transform="translate(98.9802, 7.4898)" font-family="sans-serif" font-size="2.6163" text-anchor="start" fill="currentColor">
<tspan/>
</text>
<text transform="translate(98.9802, 6.3006)" font-family="sans-serif" font-size="1.8500" text-anchor="start" fill="currentColor">
<tspan/>
</text>
<path transform="translate(91.2919, 9.7433) scale(0.0040, -0.0040)" d="M0 0v-250h-16v250h16zM0 0c0 -197 207 -336 207 -533c0 -71 -15 -141 -41 -207c-5 -8 -13 -12 -20 -12c-13 0 -26 11 -23 27c26 61 42 126 42 192c0 103 -94 208 -165 283v250z" fill="currentColor"/>
<rect transform="translate(91.2269, 15.3283)" x="-0.0650" y="-5.6250" width="0.1300" height="4.0002" ry="0.0400" fill="currentColor"/>
<text transform="translate(89.0588, 34.8283)" font-family="serif" font-size="2.4696" text-anchor="start" fill="currentColor">
<tspan>has</tspan>
</text>
<text transform="translate(89.7075, 32.0283)" font-family="serif" font-size="2.4696" text-anchor="start" fill="currentColor">
<tspan>all</tspan>
</text>
<text transform="translate(89.1612, 29.2283)" font-family="serif" font-size="2.4696" text-anchor="start" fill="currentColor">
<tspan>sus</tspan>
</text>
<text transform="translate(89.9807, 26.4283)" font-family="serif" font-size="2.4696" text-anchor="start" fill="currentColor">
<tspan>to</tspan>
</text>
<text transform="translate(90.2026, 23.6283)" font-family="serif" font-size="2.4696" text-anchor="start" fill="currentColor">
<tspan>’s</tspan>
</text>
<text transform="translate(89.6905, 20.8283)" font-family="serif" font-size="2.4696" text-anchor="start" fill="currentColor">
<tspan>ah</tspan>
</text>
<g color="rgb(100.0000%, 100.0000%, 100.0000%)">
<rect transform="translate(90.4894, 14.5783)" x="0.1229" y="-0.6480" width="1.2292" height="1.2959" ry="0.0000" fill="currentColor"/>
</g>
<text transform="translate(90.6123, 15.2262)" font-family="serif" font-weight="bold" font-size="1.7461" text-anchor="start" fill="currentColor">
<tspan>1</tspan>
</text>
<rect transform="translate(20.1943, 20.8283)" x="0.0000" y="-0.5500" width="0.6600" height="0.1300" ry="0.0400" fill="currentColor"/>
<text transform="translate(95.7912, 26.4283)" font-family="serif" font-size="2.4696" text-anchor="start" fill="currentColor">
<tspan>be.</tspan>
</text>
<rect transform="translate(97.4532, 15.3283)" x="-0.0650" y="-5.5000" width="0.1300" height="3.8586" ry="0.0400" fill="currentColor"/>
<rect transform="translate(97.9532, 15.3283)" x="-0.0650" y="-5.5000" width="0.1300" height="3.8586" ry="0.0400" fill="currentColor"/>
<path transform="translate(98.7678, 13.8283) scale(0.0040, -0.0040)" d="M0 0c0 31 25 56 56 56s56 -25 56 -56s-25 -56 -56 -56s-56 25 -56 56z" fill="currentColor"/>
<text transform="translate(94.2376, 34.8283)" font-family="serif" font-size="2.4696" text-anchor="start" fill="currentColor">
<tspan>giv’n.</tspan>
</text>
<text transform="translate(93.9986, 32.0283)" font-family="serif" font-size="2.4696" text-anchor="start" fill="currentColor">
<tspan>strife.</tspan>
</text>
<g color="rgb(100.0000%, 100.0000%, 100.0000%)">
<rect transform="translate(69.4024, 14.5783)" x="0.1229" y="-0.6603" width="1.2292" height="1.3207" ry="0.0000" fill="currentColor"/>
</g>
<text transform="translate(69.5253, 15.2138)" font-family="serif" font-weight="bold" font-size="1.7461" text-anchor="start" fill="currentColor">
<tspan>3</tspan>
</text>
<text transform="translate(77.9098, 20.8283)" font-family="serif" font-size="2.4696" text-anchor="start" fill="currentColor">
<tspan>Mes</tspan>
</text>
<g color="rgb(100.0000%, 100.0000%, 100.0000%)">
<rect transform="translate(79.8014, 13.0783)" x="0.1229" y="-0.6603" width="1.2292" height="1.3207" ry="0.0000" fill="currentColor"/>
</g>
<text transform="translate(79.9243, 13.7138)" font-family="serif" font-weight="bold" font-size="1.7461" text-anchor="start" fill="currentColor">
<tspan>0</tspan>
</text>
<text transform="translate(78.6268, 23.6283)" font-family="serif" font-size="2.4696" text-anchor="start" fill="currentColor">
<tspan>ble</tspan>
</text>
<rect transform="translate(75.8393, 15.3283)" x="-0.0650" y="-5.5000" width="0.1300" height="3.8586" ry="0.0400" fill="currentColor"/>
<g color="rgb(100.0000%, 100.0000%, 100.0000%)">
<rect transform="translate(75.1018, 14.5783)" x="0.1229" y="-0.6603" width="1.2292" height="1.3207" ry="0.0000" fill="currentColor"/>
</g>
<text transform="translate(75.2247, 15.2138)" font-family="serif" font-weight="bold" font-size="1.7461" text-anchor="start" fill="currentColor">
<tspan>3</tspan>
</text>
<g color="rgb(100.0000%, 100.0000%, 100.0000%)">
<rect transform="translate(85.1339, 14.5783)" x="0.1229" y="-0.6603" width="1.2292" height="1.3207" ry="0.0000" fill="currentColor"/>
</g>
<text transform="translate(85.2568, 15.2138)" font-family="serif" font-weight="bold" font-size="1.7461" text-anchor="start" fill="currentColor">
<tspan>3</tspan>
</text>
<rect transform="translate(85.8713, 15.3283)" x="-0.0650" y="-5.5000" width="0.1300" height="3.8586" ry="0.0400" fill="currentColor"/>
<path transform="translate(86.9359, 13.8283) scale(0.0040, -0.0040)" d="M0 0c0 31 25 56 56 56s56 -25 56 -56s-25 -56 -56 -56s-56 25 -56 56z" fill="currentColor"/>
<text transform="translate(83.4642, 34.8283)" font-family="serif" font-size="2.4696" text-anchor="start" fill="currentColor">
<tspan>Son</tspan>
</text>
<text transform="translate(83.5496, 32.0283)" font-family="serif" font-size="2.4696" text-anchor="start" fill="currentColor">
<tspan>end</tspan>
</text>
<text transform="translate(84.6422, 29.2283)" font-family="serif" font-size="2.4696" text-anchor="start" fill="currentColor">
<tspan>Je</tspan>
</text>
<text transform="translate(84.0618, 26.4283)" font-family="serif" font-size="2.4696" text-anchor="start" fill="currentColor">
<tspan>for</tspan>
</text>
<text transform="translate(84.4203, 23.6283)" font-family="serif" font-size="2.4696" text-anchor="start" fill="currentColor">
<tspan>ox</tspan>
</text>
<text transform="translate(84.8470, 20.8283)" font-family="serif" font-size="2.4696" text-anchor="start" fill="currentColor">
<tspan>si</tspan>
</text>
<rect transform="translate(70.1399, 15.3283)" x="-0.0650" y="-5.5000" width="0.1300" height="3.8586" ry="0.0400" fill="currentColor"/>
<text transform="translate(85.1339, 7.4898)" font-family="sans-serif" font-size="2.6163" text-anchor="start" fill="currentColor">
<tspan>F</tspan>
</text>
<text transform="translate(86.6362, 7.4898)" font-family="sans-serif" font-size="2.6163" text-anchor="start" fill="currentColor">
<tspan/>
</text>
<text transform="translate(86.6362, 7.4898)" font-family="sans-serif" font-size="2.6163" text-anchor="start" fill="currentColor">
<tspan/>
</text>
<text transform="translate(86.6362, 6.3006)" font-family="sans-serif" font-size="1.8500" text-anchor="start" fill="currentColor">
<tspan/>
</text>
<rect transform="translate(80.5389, 15.3283)" x="-0.0650" y="-6.5000" width="0.1300" height="3.3586" ry="0.0400" fill="currentColor"/>
<text transform="translate(78.4390, 34.8283)" font-family="serif" font-size="2.4696" text-anchor="start" fill="currentColor">
<tspan>His</tspan>
</text>
<text transform="translate(79.2926, 32.0283)" font-family="serif" font-size="2.4696" text-anchor="start" fill="currentColor">
<tspan>to</tspan>
</text>
<text transform="translate(76.8855, 29.2283)" font-family="serif" font-size="2.4696" text-anchor="start" fill="currentColor">
<tspan>sweet</tspan>
</text>
<text transform="translate(78.0976, 26.4283)" font-family="serif" font-size="2.4696" text-anchor="start" fill="currentColor">
<tspan>tion</tspan>
</text>
<rect transform="translate(57.0571, 34.8283)" x="0.0000" y="-0.5500" width="0.6600" height="0.1300" ry="0.0400" fill="currentColor"/>
<rect transform="translate(58.3588, 29.2283)" x="0.0000" y="-0.5500" width="0.6173" height="0.1300" ry="0.0400" fill="currentColor"/>
<rect transform="translate(62.6054, 26.4283)" x="0.0000" y="-0.5500" width="0.6600" height="0.1300" ry="0.0400" fill="currentColor"/>
<rect transform="translate(27.2083, 23.6283)" x="0.0000" y="-0.5500" width="0.6600" height="0.1300" ry="0.0400" fill="currentColor"/>
<rect transform="translate(27.8912, 29.2283)" x="0.0000" y="-0.5500" width="0.6600" height="0.1300" ry="0.0400" fill="currentColor"/>
<rect transform="translate(33.7188, 26.4283)" x="0.0000" y="-0.5500" width="0.6600" height="0.1300" ry="0.0400" fill="currentColor"/>
<rect transform="translate(87.8009, 29.2283)" x="0.0000" y="-0.5500" width="0.6600" height="0.1300" ry="0.0400" fill="currentColor"/>
<rect transform="translate(88.4325, 23.6283)" x="0.0000" y="-0.5500" width="0.6600" height="0.1300" ry="0.0400" fill="currentColor"/>
<polygon transform="translate(64.5233, 9.1383)" stroke-linejoin="round" stroke-linecap="round" stroke-width="0.0800" fill="currentColor" stroke="currentColor" points="2.7408 0.7400 2.7408 1.1400 0.0400 0.2000 0.0400 -0.2000"/>
<path transform="translate(63.8508, 15.3283)" stroke-width="0.0800" stroke-linejoin="round" stroke-linecap="round" stroke="currentColor" fill="currentColor" d="M0.8687 -7.1580C1.8459 -7.5989 3.0102 -7.2053 3.5195 -6.2620L3.5195 -6.2620C2.9718 -7.0916 1.8075 -7.4852 0.8687 -7.1580z"/>
<rect transform="translate(73.7529, 23.6283)" x="0.0000" y="-0.5500" width="0.6600" height="0.1300" ry="0.0400" fill="currentColor"/>
<rect transform="translate(72.1397, 26.4283)" x="0.0000" y="-0.5500" width="0.6600" height="0.1300" ry="0.0400" fill="currentColor"/>
<rect transform="translate(66.9217, 34.8283)" x="0.0000" y="-0.0800" width="9.5321" height="0.0800" ry="0.0320" fill="currentColor"/>
<path transform="translate(66.5016, 15.3283)" stroke-width="0.0800" stroke-linejoin="round" stroke-linecap="round" stroke="currentColor" fill="currentColor" d="M1.5521 -1.2700C1.8925 -1.7037 2.4833 -1.7037 2.8237 -1.2700L2.8237 -1.2700C2.4833 -1.5837 1.8925 -1.5837 1.5521 -1.2700z"/>
<path transform="translate(69.4024, 15.3283)" stroke-width="0.0800" stroke-linejoin="round" stroke-linecap="round" stroke="currentColor" fill="currentColor" d="M1.5521 -1.2042C2.3447 -1.9847 4.8296 -1.9847 5.6223 -1.2042L5.6223 -1.2042C4.8296 -1.8647 2.3447 -1.8647 1.5521 -1.2042z"/>
<rect transform="translate(83.6775, 20.8283)" x="0.0000" y="-0.5500" width="0.6600" height="0.1300" ry="0.0400" fill="currentColor"/>
<rect transform="translate(87.9630, 20.8283)" x="0.0000" y="-0.5500" width="0.6600" height="0.1300" ry="0.0400" fill="currentColor"/>
<g color="rgb(100.0000%, 100.0000%, 100.0000%)">
<rect transform="translate(23.3493, 13.0783)" x="0.1229" y="-0.6480" width="1.2292" height="1.2959" ry="0.0000" fill="currentColor"/>
</g>
<text transform="translate(23.4722, 13.7262)" font-family="serif" font-weight="bold" font-size="1.7461" text-anchor="start" fill="currentColor">
<tspan>2</tspan>
</text>
<rect transform="translate(24.0868, 15.3283)" x="-0.0650" y="-6.5000" width="0.1300" height="3.3752" ry="0.0400" fill="currentColor"/>
<text transform="translate(21.5602, 34.8283)" font-family="serif" font-size="2.4696" text-anchor="start" fill="currentColor">
<tspan>God</tspan>
</text>
<text transform="translate(21.1334, 32.0283)" font-family="serif" font-size="2.4696" text-anchor="start" fill="currentColor">
<tspan>Lord</tspan>
</text>
<text transform="translate(21.7650, 29.2283)" font-family="serif" font-size="2.4696" text-anchor="start" fill="currentColor">
<tspan>hap</tspan>
</text>
<text transform="translate(18.6239, 26.4283)" font-family="serif" font-size="2.4696" text-anchor="start" fill="currentColor">
<tspan>Heav’n’s</tspan>
</text>
<text transform="translate(22.2943, 23.6283)" font-family="serif" font-size="2.4696" text-anchor="start" fill="currentColor">
<tspan>ref</tspan>
</text>
<text transform="translate(22.5333, 20.8283)" font-family="serif" font-size="2.4696" text-anchor="start" fill="currentColor">
<tspan>on</tspan>
</text>
<g color="rgb(100.0000%, 100.0000%, 100.0000%)">
<rect transform="translate(30.7816, 13.0783)" x="0.1229" y="-0.6603" width="1.2292" height="1.3207" ry="0.0000" fill="currentColor"/>
</g>
<text transform="translate(30.9045, 13.7138)" font-family="serif" font-weight="bold" font-size="1.7461" text-anchor="start" fill="currentColor">
<tspan>3</tspan>
</text>
<text transform="translate(23.3493, 7.4898)" font-family="sans-serif" font-size="2.6163" text-anchor="start" fill="currentColor">
<tspan>E</tspan>
</text>
<text transform="translate(24.9882, 7.4898)" font-family="sans-serif" font-size="2.6163" text-anchor="start" fill="currentColor">
<tspan/>
</text>
<text transform="translate(24.9882, 7.4898)" font-family="sans-serif" font-size="2.6163" text-anchor="start" fill="currentColor">
<tspan>m</tspan>
</text>
<text transform="translate(27.5489, 6.3006)" font-family="sans-serif" font-size="1.8500" text-anchor="start" fill="currentColor">
<tspan/>
</text>
<rect transform="translate(16.9276, 15.3283)" x="-0.0650" y="-6.5000" width="0.1300" height="3.3586" ry="0.0400" fill="currentColor"/>
<text transform="translate(14.8961, 34.8283)" font-family="serif" font-size="2.4696" text-anchor="start" fill="currentColor">
<tspan>the</tspan>
</text>
<text transform="translate(14.8961, 32.0283)" font-family="serif" font-size="2.4696" text-anchor="start" fill="currentColor">
<tspan>the</tspan>
</text>
<text transform="translate(14.6059, 29.2283)" font-family="serif" font-size="2.4696" text-anchor="start" fill="currentColor">
<tspan>this</tspan>
</text>
<text transform="translate(15.6814, 26.4283)" font-family="serif" font-size="2.4696" text-anchor="start" fill="currentColor">
<tspan>to</tspan>
</text>
<path transform="translate(39.2819, 12.3283) scale(0.0040, -0.0040)" d="M0 0c0 31 25 56 56 56s56 -25 56 -56s-25 -56 -56 -56s-56 25 -56 56z" fill="currentColor"/>
<text transform="translate(33.3860, 34.8283)" font-family="serif" font-size="2.4696" text-anchor="start" fill="currentColor">
<tspan>Heav’n,</tspan>
</text>
<text transform="translate(34.8884, 29.2283)" font-family="serif" font-size="2.4696" text-anchor="start" fill="currentColor">
<tspan>morn</tspan>
</text>
<text transform="translate(35.0591, 26.4283)" font-family="serif" font-size="2.4696" text-anchor="start" fill="currentColor">
<tspan>cree,</tspan>
</text>
<text transform="translate(36.6979, 23.6283)" font-family="serif" font-size="2.4696" text-anchor="start" fill="currentColor">
<tspan>all</tspan>
</text>
<text transform="translate(34.4957, 20.8283)" font-family="serif" font-size="2.4696" text-anchor="start" fill="currentColor">
<tspan>morn,</tspan>
</text>
<g color="rgb(100.0000%, 100.0000%, 100.0000%)">
<rect transform="translate(37.4798, 13.0783)" x="0.1229" y="-0.6488" width="1.2292" height="1.2976" ry="0.0000" fill="currentColor"/>
</g>
<text transform="translate(37.6027, 13.7023)" font-family="serif" font-weight="bold" font-size="1.7461" text-anchor="start" fill="currentColor">
<tspan>5</tspan>
</text>
<text transform="translate(37.4798, 7.4898)" font-family="sans-serif" font-size="2.6163" text-anchor="start" fill="currentColor">
<tspan>D</tspan>
</text>
<text transform="translate(39.4943, 7.4898)" font-family="sans-serif" font-size="2.6163" text-anchor="start" fill="currentColor">
<tspan/>
</text>
<text transform="translate(39.4943, 7.4898)" font-family="sans-serif" font-size="2.6163" text-anchor="start" fill="currentColor">
<tspan/>
</text>
<text transform="translate(39.4943, 6.3006)" font-family="sans-serif" font-size="1.8500" text-anchor="start" fill="currentColor">
<tspan/>
</text>
<text transform="translate(13.9060, 23.6283)" font-family="serif" font-size="2.4696" text-anchor="start" fill="currentColor">
<tspan>their</tspan>
</text>
<rect transform="translate(31.5191, 15.3283)" x="-0.0650" y="-6.5000" width="0.1300" height="3.3586" ry="0.0400" fill="currentColor"/>
<text transform="translate(30.3070, 34.8283)" font-family="serif" font-size="2.4696" text-anchor="start" fill="currentColor">
<tspan>of</tspan>
</text>
<text transform="translate(30.3070, 32.0283)" font-family="serif" font-size="2.4696" text-anchor="start" fill="currentColor">
<tspan>of</tspan>
</text>
<text transform="translate(30.0339, 29.2283)" font-family="serif" font-size="2.4696" text-anchor="start" fill="currentColor">
<tspan>py</tspan>
</text>
<text transform="translate(29.9997, 26.4283)" font-family="serif" font-size="2.4696" text-anchor="start" fill="currentColor">
<tspan>de</tspan>
</text>
<text transform="translate(29.1974, 23.6283)" font-family="serif" font-size="2.4696" text-anchor="start" fill="currentColor">
<tspan>uge</tspan>
</text>
<text transform="translate(28.9925, 20.8283)" font-family="serif" font-size="2.4696" text-anchor="start" fill="currentColor">
<tspan>that</tspan>
</text>
<path transform="translate(5.6906, 15.3283)" stroke-width="0.0800" stroke-linejoin="round" stroke-linecap="round" stroke="currentColor" fill="currentColor" d="M3.6000 -1.2798C4.1101 -1.8731 5.2128 -1.8731 5.7229 -1.2798L5.7229 -1.2798C5.2128 -1.7531 4.1101 -1.7531 3.6000 -1.2798z"/>
<rect transform="translate(11.6935, 34.8283)" x="0.0000" y="-0.0800" width="1.4200" height="0.0800" ry="0.0320" fill="currentColor"/>
<rect transform="translate(11.6935, 32.0283)" x="0.0000" y="-0.0800" width="1.4200" height="0.0800" ry="0.0320" fill="currentColor"/>
<rect transform="translate(11.6935, 29.2283)" x="0.0000" y="-0.0800" width="1.4200" height="0.0800" ry="0.0320" fill="currentColor"/>
<rect transform="translate(12.0560, 26.4283)" x="0.0000" y="-0.5500" width="0.6600" height="0.1300" ry="0.0400" fill="currentColor"/>
<rect transform="translate(11.6935, 23.6283)" x="0.0000" y="-0.0800" width="1.4200" height="0.0800" ry="0.0320" fill="currentColor"/>
<rect transform="translate(11.6935, 20.8283)" x="0.0000" y="-0.0800" width="1.4200" height="0.0800" ry="0.0320" fill="currentColor"/>
<text transform="translate(15.3400, 20.8283)" font-family="serif" font-size="2.4696" text-anchor="start" fill="currentColor">
<tspan>up</tspan>
</text>
<g color="rgb(100.0000%, 100.0000%, 100.0000%)">
<rect transform="translate(16.1901, 13.0783)" x="0.1229" y="-0.6603" width="1.2292" height="1.3207" ry="0.0000" fill="currentColor"/>
</g>
<text transform="translate(16.3131, 13.7138)" font-family="serif" font-weight="bold" font-size="1.7461" text-anchor="start" fill="currentColor">
<tspan>0</tspan>
</text>
<rect transform="translate(12.2280, 15.3283)" x="-0.0650" y="-5.5000" width="0.1300" height="3.8586" ry="0.0400" fill="currentColor"/>
<g color="rgb(100.0000%, 100.0000%, 100.0000%)">
<rect transform="translate(11.4906, 14.5783)" x="0.1229" y="-0.6603" width="1.2292" height="1.3207" ry="0.0000" fill="currentColor"/>
</g>
<text transform="translate(11.6135, 15.2138)" font-family="serif" font-weight="bold" font-size="1.7461" text-anchor="start" fill="currentColor">
<tspan>3</tspan>
</text>
<text transform="translate(35.8102, 32.0283)" font-family="serif" font-size="2.4696" text-anchor="start" fill="currentColor">
<tspan>Life</tspan>
</text>
<path transform="translate(6.2906, 15.3283) scale(0.0040, -0.0040)" d="M267 -425c0 -24 -23 -27 -43 -27c-45 0 -84 31 -84 75c0 82 118 130 234 130c104 0 215 -22 215 -103c0 -51 -31 -86 -69 -110c58 -11 102 -36 102 -91c0 -90 -94 -158 -179 -158c-41 0 -80 15 -108 52c-2 2 -3 5 -3 8c0 12 16 25 28 25c4 0 8 -1 10 -4
c11 -15 27 -21 44 -21c43 0 95 40 95 93c0 46 -49 63 -100 63h-1c-6 0 -8 8 -8 16c0 11 5 24 18 24h1c36 0 68 39 68 77c0 45 -36 68 -80 76c-11 -62 -31 -173 -40 -220c-20 -102 -84 -202 -159 -202c-44 0 -68 34 -96 53c-3 2 -4 5 -4 9c0 11 12 26 24 26c3 0 5 0 7 -2
c20 -13 36 -35 65 -35c65 0 89 99 89 195v8c0 35 9 109 18 163c-39 -13 -70 -40 -70 -70c0 -15 8 -28 19 -34c4 -3 7 -9 7 -16zM301 -83c-43 -41 -114 -105 -173 -105c-33 0 -52 21 -78 32c-3 1 -5 5 -5 9c0 11 11 28 25 28c2 0 5 -1 7 -2c16 -7 30 -18 50 -18
c34 0 65 27 91 54c100 102 175 219 214 336c9 27 33 37 57 37c29 0 57 -15 57 -31c0 -2 -1 -4 -2 -6c-4 -116 -9 -233 -16 -350v-9c0 -16 3 -30 21 -30c16 0 35 13 53 19l2 1c5 0 9 -8 9 -17c0 -8 -3 -16 -12 -19c-29 -9 -54 -34 -87 -34c-32 0 -45 29 -53 58
c-16 61 -26 125 -31 191c-27 -35 -56 -68 -87 -101c11 -20 33 -33 64 -33c4 0 8 1 12 1c5 0 8 -7 8 -15c0 -25 -34 -29 -56 -29c-32 0 -56 12 -70 33zM288 540c0 -23 -23 -24 -42 -24c-49 0 -91 36 -91 84c0 95 125 120 232 120c49 0 119 -41 171 -41c38 0 77 15 110 41
c3 2 6 3 9 3c11 0 23 -11 23 -19c0 -2 -1 -3 -2 -4c-40 -45 -95 -71 -148 -71c-15 0 -31 2 -44 6c-9 -59 -26 -151 -35 -193c-22 -96 -88 -185 -163 -185c-52 0 -81 42 -115 64c-3 2 -4 5 -4 9c0 11 12 26 23 26c2 0 5 -1 7 -2c23 -15 43 -46 75 -46c56 0 82 77 85 150
c2 45 13 150 22 208c-12 3 -31 5 -32 5c-51 0 -113 -21 -113 -70c0 -18 10 -36 24 -43c5 -3 8 -10 8 -18z" fill="currentColor"/>
<text transform="translate(3.4371, 12.0035)" font-family="serif" font-size="1.7461" text-anchor="start" fill="currentColor">
<tspan>20</tspan>
</text>
<text transform="translate(58.8924, 34.8283)" font-family="serif" font-size="2.4696" text-anchor="start" fill="currentColor">
<tspan>to</tspan>
</text>
<text transform="translate(58.8924, 32.0283)" font-family="serif" font-size="2.4696" text-anchor="start" fill="currentColor">
<tspan>to</tspan>
</text>
<text transform="translate(59.0461, 29.2283)" font-family="serif" font-size="2.4696" text-anchor="start" fill="currentColor">
<tspan>ly</tspan>
</text>
<text transform="translate(58.3803, 26.4283)" font-family="serif" font-size="2.4696" text-anchor="start" fill="currentColor">
<tspan>sal</tspan>
</text>
<text transform="translate(59.4046, 23.6283)" font-family="serif" font-size="2.4696" text-anchor="start" fill="currentColor">
<tspan>a</tspan>
</text>
<text transform="translate(59.4046, 20.8283)" font-family="serif" font-size="2.4696" text-anchor="start" fill="currentColor">
<tspan>a</tspan>
</text>
<g color="rgb(100.0000%, 100.0000%, 100.0000%)">
<rect transform="translate(59.4012, 13.0783)" x="0.1229" y="-0.6488" width="1.2292" height="1.2976" ry="0.0000" fill="currentColor"/>
</g>
<text transform="translate(59.5241, 13.7023)" font-family="serif" font-weight="bold" font-size="1.7461" text-anchor="start" fill="currentColor">
<tspan>5</tspan>
</text>
<rect transform="translate(60.1387, 15.3283)" x="-0.0650" y="-6.5000" width="0.1300" height="3.3741" ry="0.0400" fill="currentColor"/>
<rect transform="translate(37.9673, 15.3283)" x="-0.0650" y="-6.5000" width="0.1300" height="3.3741" ry="0.0400" fill="currentColor"/>
<rect transform="translate(38.4673, 15.3283)" x="-0.0650" y="-6.5000" width="0.1300" height="3.3741" ry="0.0400" fill="currentColor"/>
<rect transform="translate(54.2770, 15.3283)" x="-0.0650" y="-6.5000" width="0.1300" height="3.3586" ry="0.0400" fill="currentColor"/>
<text transform="translate(52.6722, 34.8283)" font-family="serif" font-size="2.4696" text-anchor="start" fill="currentColor">
<tspan>un</tspan>
</text>
<text transform="translate(63.9737, 32.0283)" font-family="serif" font-size="2.4696" text-anchor="start" fill="currentColor">
<tspan>earth</tspan>
</text>
<rect transform="translate(67.2391, 15.3283)" x="-0.0650" y="-5.2720" width="0.1300" height="3.6305" ry="0.0400" fill="currentColor"/>
<g color="rgb(100.0000%, 100.0000%, 100.0000%)">
<rect transform="translate(66.5016, 14.5783)" x="0.1229" y="-0.6603" width="1.2292" height="1.3207" ry="0.0000" fill="currentColor"/>
</g>
<text transform="translate(66.6245, 15.2138)" font-family="serif" font-weight="bold" font-size="1.7461" text-anchor="start" fill="currentColor">
<tspan>3</tspan>
</text>
<rect transform="translate(64.5883, 15.3283)" x="-0.0650" y="-6.1680" width="0.1300" height="3.0433" ry="0.0400" fill="currentColor"/>
<text transform="translate(63.9737, 34.8283)" font-family="serif" font-size="2.4696" text-anchor="start" fill="currentColor">
<tspan>us</tspan>
</text>
<text transform="translate(63.9737, 29.2283)" font-family="serif" font-size="2.4696" text-anchor="start" fill="currentColor">
<tspan>babe</tspan>
</text>
<text transform="translate(63.9737, 26.4283)" font-family="serif" font-size="2.4696" text-anchor="start" fill="currentColor">
<tspan>va</tspan>
</text>
<text transform="translate(63.9737, 23.6283)" font-family="serif" font-size="2.4696" text-anchor="start" fill="currentColor">
<tspan>hum</tspan>
</text>
<text transform="translate(63.9737, 20.8283)" font-family="serif" font-size="2.4696" text-anchor="start" fill="currentColor">
<tspan>blessed</tspan>
</text>
<g color="rgb(100.0000%, 100.0000%, 100.0000%)">
<rect transform="translate(63.8508, 13.0783)" x="0.1229" y="-0.6480" width="1.2292" height="1.2959" ry="0.0000" fill="currentColor"/>
</g>
<text transform="translate(63.9737, 13.7262)" font-family="serif" font-weight="bold" font-size="1.7461" text-anchor="start" fill="currentColor">
<tspan>2</tspan>
</text>
<text transform="translate(63.8508, 7.4898)" font-family="sans-serif" font-size="2.6163" text-anchor="start" fill="currentColor">
<tspan>G</tspan>
</text>
<text transform="translate(65.8652, 7.4898)" font-family="sans-serif" font-size="2.6163" text-anchor="start" fill="currentColor">
<tspan/>
</text>
<text transform="translate(65.8652, 7.4898)" font-family="sans-serif" font-size="2.6163" text-anchor="start" fill="currentColor">
<tspan/>
</text>
<text transform="translate(65.8652, 6.3006)" font-family="sans-serif" font-size="1.8500" text-anchor="start" fill="currentColor">
<tspan/>
</text>
<text transform="translate(43.4986, 34.8283)" font-family="serif" font-size="2.4696" text-anchor="start" fill="currentColor">
<tspan>That</tspan>
</text>
<text transform="translate(43.5327, 32.0283)" font-family="serif" font-size="2.4696" text-anchor="start" fill="currentColor">
<tspan>Who</tspan>
</text>
<text transform="translate(45.4618, 29.2283)" font-family="serif" font-size="2.4696" text-anchor="start" fill="currentColor">
<tspan>A</tspan>
</text>
<text transform="translate(42.5255, 26.4283)" font-family="serif" font-size="2.4696" text-anchor="start" fill="currentColor">
<tspan>Man’s</tspan>
</text>
<text transform="translate(43.8230, 23.6283)" font-family="serif" font-size="2.4696" text-anchor="start" fill="currentColor">
<tspan>Was</tspan>
</text>
<text transform="translate(42.6621, 20.8283)" font-family="serif" font-size="2.4696" text-anchor="start" fill="currentColor">
<tspan>There</tspan>
</text>
<g color="rgb(100.0000%, 100.0000%, 100.0000%)">
<rect transform="translate(45.6121, 13.0783)" x="0.1229" y="-0.6480" width="1.2292" height="1.2959" ry="0.0000" fill="currentColor"/>
</g>
<text transform="translate(45.7350, 13.7262)" font-family="serif" font-weight="bold" font-size="1.7461" text-anchor="start" fill="currentColor">
<tspan>2</tspan>
</text>
<text transform="translate(50.2651, 29.2283)" font-family="serif" font-size="2.4696" text-anchor="start" fill="currentColor">
<tspan>prince</tspan>
</text>
<rect transform="translate(46.3496, 15.3283)" x="-0.0650" y="-6.5000" width="0.1300" height="3.3752" ry="0.0400" fill="currentColor"/>
<text transform="translate(50.9309, 32.0283)" font-family="serif" font-size="2.4696" text-anchor="start" fill="currentColor">
<tspan>came</tspan>
</text>
<text transform="translate(50.6236, 26.4283)" font-family="serif" font-size="2.4696" text-anchor="start" fill="currentColor">
<tspan>sweet</tspan>
</text>
<text transform="translate(52.1942, 23.6283)" font-family="serif" font-size="2.4696" text-anchor="start" fill="currentColor">
<tspan>but</tspan>
</text>
<text transform="translate(51.8528, 20.8283)" font-family="serif" font-size="2.4696" text-anchor="start" fill="currentColor">
<tspan>was</tspan>
</text>
<g color="rgb(100.0000%, 100.0000%, 100.0000%)">
<rect transform="translate(53.5395, 13.0783)" x="0.1229" y="-0.6603" width="1.2292" height="1.3207" ry="0.0000" fill="currentColor"/>
</g>
<text transform="translate(53.6624, 13.7138)" font-family="serif" font-weight="bold" font-size="1.7461" text-anchor="start" fill="currentColor">
<tspan>3</tspan>
</text>
<text transform="translate(53.5395, 7.4898)" font-family="sans-serif" font-size="2.6163" text-anchor="start" fill="currentColor">
<tspan>F</tspan>
</text>
<text transform="translate(55.0418, 7.4898)" font-family="sans-serif" font-size="2.6163" text-anchor="start" fill="currentColor">
<tspan/>
</text>
<text transform="translate(55.0418, 7.4898)" font-family="sans-serif" font-size="2.6163" text-anchor="start" fill="currentColor">
<tspan/>
</text>
<text transform="translate(55.0418, 6.3006)" font-family="sans-serif" font-size="1.8500" text-anchor="start" fill="currentColor">
<tspan/>
</text>
<text transform="translate(4.9166, 165.1062)" font-family="serif" font-size="2.2001" text-anchor="start" fill="currentColor">
<tspan>Loosely adapted from https://www.music-for-music-teachers.com/support-files/wexford-carol-g.pdf</tspan>
</text>
</svg>
