<svg xmlns="http://www.w3.org/2000/svg" xmlns:xlink="http://www.w3.org/1999/xlink" version="1.2" width="210.00mm" height="297.00mm" viewBox="0 0 119.5016 169.0094">
<style text="style/css">
<![CDATA[
tspan { white-space: pre; }
]]>
</style>
<!-- Page: 2/2 -->
<text transform="translate(5.6906, 4.5168)" font-family="serif" font-size="2.2001" text-anchor="start" fill="currentColor">
<tspan>2</tspan>
</text>
<text transform="translate(51.5223, 4.5168)" font-family="serif" font-size="2.2001" text-anchor="start" fill="currentColor">
<tspan>Low-G Ukulele</tspan>
</text>
<text transform="translate(113.8110, 4.5168)" font-family="serif" font-size="2.2001" text-anchor="start" fill="currentColor">
<tspan/>
</text>
<line transform="translate(5.6906, 17.5791)" stroke-linejoin="round" stroke-linecap="round" stroke-width="0.1000" stroke="currentColor" x1="0.0500" y1="-0.0000" x2="99.2095" y2="-0.0000"/>
<line transform="translate(5.6906, 16.0791)" stroke-linejoin="round" stroke-linecap="round" stroke-width="0.1000" stroke="currentColor" x1="0.0500" y1="-0.0000" x2="99.2095" y2="-0.0000"/>
<line transform="translate(5.6906, 14.5791)" stroke-linejoin="round" stroke-linecap="round" stroke-width="0.1000" stroke="currentColor" x1="0.0500" y1="-0.0000" x2="99.2095" y2="-0.0000"/>
<line transform="translate(5.6906, 13.0791)" stroke-linejoin="round" stroke-linecap="round" stroke-width="0.1000" stroke="currentColor" x1="0.0500" y1="-0.0000" x2="99.2095" y2="-0.0000"/>
<rect transform="translate(35.9760, 15.3291)" x="0.0000" y="-2.2500" width="0.1900" height="4.5000" ry="0.0000" fill="currentColor"/>
<rect transform="translate(51.8415, 15.3291)" x="0.0000" y="-2.2500" width="0.1900" height="4.5000" ry="0.0000" fill="currentColor"/>
<rect transform="translate(104.3501, 15.3291)" x="0.0000" y="-2.2500" width="0.6000" height="4.5000" ry="0.0000" fill="currentColor"/>
<rect transform="translate(103.8601, 15.3291)" x="0.0000" y="-2.2500" width="0.1900" height="4.5000" ry="0.0000" fill="currentColor"/>
<rect transform="translate(73.8046, 15.3291)" x="0.0000" y="-2.2500" width="0.1900" height="4.5000" ry="0.0000" fill="currentColor"/>
<rect transform="translate(94.3292, 15.3291)" x="0.0000" y="-2.2500" width="0.1900" height="4.5000" ry="0.0000" fill="currentColor"/>
<g color="rgb(100.0000%, 100.0000%, 100.0000%)">
<rect transform="translate(90.4432, 14.5791)" x="0.1229" y="-0.6480" width="1.2292" height="1.2959" ry="0.0000" fill="currentColor"/>
</g>
<text transform="translate(90.5661, 15.2271)" font-family="serif" font-weight="bold" font-size="1.7461" text-anchor="start" fill="currentColor">
<tspan>1</tspan>
</text>
<rect transform="translate(85.5594, 15.3291)" x="-0.0650" y="3.1414" width="0.1300" height="3.3586" ry="0.0400" fill="currentColor"/>
<rect transform="translate(86.0594, 15.3291)" x="-0.0650" y="3.1414" width="0.1300" height="3.3586" ry="0.0400" fill="currentColor"/>
<rect transform="translate(85.8094, 15.3291)" x="-0.0650" y="-5.5000" width="0.1300" height="3.8586" ry="0.0400" fill="currentColor"/>
<path transform="translate(86.8740, 13.8291) scale(0.0040, -0.0040)" d="M0 0c0 31 25 56 56 56s56 -25 56 -56s-25 -56 -56 -56s-56 25 -56 56z" fill="currentColor"/>
<text transform="translate(83.4023, 38.2055)" font-family="serif" font-size="2.4696" text-anchor="start" fill="currentColor">
<tspan>Son</tspan>
</text>
<text transform="translate(83.4877, 35.4055)" font-family="serif" font-size="2.4696" text-anchor="start" fill="currentColor">
<tspan>end</tspan>
</text>
<text transform="translate(84.5803, 32.6055)" font-family="serif" font-size="2.4696" text-anchor="start" fill="currentColor">
<tspan>Je</tspan>
</text>
<text transform="translate(83.9998, 29.8055)" font-family="serif" font-size="2.4696" text-anchor="start" fill="currentColor">
<tspan>for</tspan>
</text>
<text transform="translate(84.3583, 27.0055)" font-family="serif" font-size="2.4696" text-anchor="start" fill="currentColor">
<tspan>ox</tspan>
</text>
<text transform="translate(84.7851, 24.2055)" font-family="serif" font-size="2.4696" text-anchor="start" fill="currentColor">
<tspan>si</tspan>
</text>
<g color="rgb(100.0000%, 100.0000%, 100.0000%)">
<rect transform="translate(85.0719, 16.0791)" x="0.1229" y="-0.6603" width="1.2292" height="1.3207" ry="0.0000" fill="currentColor"/>
</g>
<text transform="translate(85.1948, 16.7147)" font-family="serif" font-weight="bold" font-size="1.7461" text-anchor="start" fill="currentColor">
<tspan>0</tspan>
</text>
<g color="rgb(100.0000%, 100.0000%, 100.0000%)">
<rect transform="translate(85.0719, 17.5791)" x="0.1229" y="-0.6480" width="1.2292" height="1.2959" ry="0.0000" fill="currentColor"/>
</g>
<text transform="translate(85.1948, 18.2271)" font-family="serif" font-weight="bold" font-size="1.7461" text-anchor="start" fill="currentColor">
<tspan>2</tspan>
</text>
<g color="rgb(100.0000%, 100.0000%, 100.0000%)">
<rect transform="translate(85.0719, 14.5791)" x="0.1229" y="-0.6603" width="1.2292" height="1.3207" ry="0.0000" fill="currentColor"/>
</g>
<text transform="translate(85.1948, 15.2147)" font-family="serif" font-weight="bold" font-size="1.7461" text-anchor="start" fill="currentColor">
<tspan>3</tspan>
</text>
<text transform="translate(85.0719, 7.4898)" font-family="sans-serif" font-size="2.6163" text-anchor="start" fill="currentColor">
<tspan>F</tspan>
</text>
<text transform="translate(86.5742, 7.4898)" font-family="sans-serif" font-size="2.6163" text-anchor="start" fill="currentColor">
<tspan/>
</text>
<text transform="translate(86.5742, 7.4898)" font-family="sans-serif" font-size="2.6163" text-anchor="start" fill="currentColor">
<tspan/>
</text>
<text transform="translate(86.5742, 6.3006)" font-family="sans-serif" font-size="1.8500" text-anchor="start" fill="currentColor">
<tspan/>
</text>
<g color="rgb(100.0000%, 100.0000%, 100.0000%)">
<rect transform="translate(96.9195, 14.5791)" x="0.1229" y="-0.6603" width="1.2292" height="1.3207" ry="0.0000" fill="currentColor"/>
</g>
<text transform="translate(97.0424, 15.2147)" font-family="serif" font-weight="bold" font-size="1.7461" text-anchor="start" fill="currentColor">
<tspan>3</tspan>
</text>
<text transform="translate(63.8730, 38.2055)" font-family="serif" font-size="2.4696" text-anchor="start" fill="currentColor">
<tspan>us</tspan>
</text>
<rect transform="translate(97.4070, 15.3291)" x="-0.0650" y="-5.5000" width="0.1300" height="3.8586" ry="0.0400" fill="currentColor"/>
<rect transform="translate(97.9070, 15.3291)" x="-0.0650" y="-5.5000" width="0.1300" height="3.8586" ry="0.0400" fill="currentColor"/>
<path transform="translate(98.7216, 13.8291) scale(0.0040, -0.0040)" d="M0 0c0 31 25 56 56 56s56 -25 56 -56s-25 -56 -56 -56s-56 25 -56 56z" fill="currentColor"/>
<text transform="translate(94.1914, 38.2055)" font-family="serif" font-size="2.4696" text-anchor="start" fill="currentColor">
<tspan>giv’n.</tspan>
</text>
<text transform="translate(93.9524, 35.4055)" font-family="serif" font-size="2.4696" text-anchor="start" fill="currentColor">
<tspan>strife.</tspan>
</text>
<text transform="translate(93.6964, 32.6055)" font-family="serif" font-size="2.4696" text-anchor="start" fill="currentColor">
<tspan>born.”</tspan>
</text>
<text transform="translate(95.7450, 29.8055)" font-family="serif" font-size="2.4696" text-anchor="start" fill="currentColor">
<tspan>be.</tspan>
</text>
<text transform="translate(94.6182, 27.0055)" font-family="serif" font-size="2.4696" text-anchor="start" fill="currentColor">
<tspan>stall.</tspan>
</text>
<text transform="translate(94.3280, 24.2055)" font-family="serif" font-size="2.4696" text-anchor="start" fill="currentColor">
<tspan>born.</tspan>
</text>
<g color="rgb(100.0000%, 100.0000%, 100.0000%)">
<rect transform="translate(96.9195, 16.0791)" x="0.1229" y="-0.6480" width="1.2292" height="1.2959" ry="0.0000" fill="currentColor"/>
</g>
<text transform="translate(97.0424, 16.7271)" font-family="serif" font-weight="bold" font-size="1.7461" text-anchor="start" fill="currentColor">
<tspan>2</tspan>
</text>
<g color="rgb(100.0000%, 100.0000%, 100.0000%)">
<rect transform="translate(96.9195, 17.5791)" x="0.1229" y="-0.6480" width="1.2292" height="1.2959" ry="0.0000" fill="currentColor"/>
</g>
<text transform="translate(97.0424, 18.2271)" font-family="serif" font-weight="bold" font-size="1.7461" text-anchor="start" fill="currentColor">
<tspan>4</tspan>
</text>
<text transform="translate(89.6442, 24.2055)" font-family="serif" font-size="2.4696" text-anchor="start" fill="currentColor">
<tspan>ah</tspan>
</text>
<text transform="translate(96.9195, 7.4898)" font-family="sans-serif" font-size="2.6163" text-anchor="start" fill="currentColor">
<tspan>G</tspan>
</text>
<text transform="translate(98.9339, 7.4898)" font-family="sans-serif" font-size="2.6163" text-anchor="start" fill="currentColor">
<tspan/>
</text>
<text transform="translate(98.9339, 7.4898)" font-family="sans-serif" font-size="2.6163" text-anchor="start" fill="currentColor">
<tspan/>
</text>
<text transform="translate(98.9339, 6.3006)" font-family="sans-serif" font-size="1.8500" text-anchor="start" fill="currentColor">
<tspan/>
</text>
<path transform="translate(91.2457, 9.7441) scale(0.0040, -0.0040)" d="M0 0v-250h-16v250h16zM0 0c0 -197 207 -336 207 -533c0 -71 -15 -141 -41 -207c-5 -8 -13 -12 -20 -12c-13 0 -26 11 -23 27c26 61 42 126 42 192c0 103 -94 208 -165 283v250z" fill="currentColor"/>
<rect transform="translate(91.1807, 15.3291)" x="-0.0650" y="-5.6250" width="0.1300" height="4.0002" ry="0.0400" fill="currentColor"/>
<text transform="translate(89.0126, 38.2055)" font-family="serif" font-size="2.4696" text-anchor="start" fill="currentColor">
<tspan>has</tspan>
</text>
<text transform="translate(89.6613, 35.4055)" font-family="serif" font-size="2.4696" text-anchor="start" fill="currentColor">
<tspan>all</tspan>
</text>
<text transform="translate(89.1150, 32.6055)" font-family="serif" font-size="2.4696" text-anchor="start" fill="currentColor">
<tspan>sus</tspan>
</text>
<text transform="translate(89.9345, 29.8055)" font-family="serif" font-size="2.4696" text-anchor="start" fill="currentColor">
<tspan>to</tspan>
</text>
<text transform="translate(90.1564, 27.0055)" font-family="serif" font-size="2.4696" text-anchor="start" fill="currentColor">
<tspan>’s</tspan>
</text>
<rect transform="translate(67.1445, 15.3291)" x="-0.0650" y="-5.2719" width="0.1300" height="3.6305" ry="0.0400" fill="currentColor"/>
<g color="rgb(100.0000%, 100.0000%, 100.0000%)">
<rect transform="translate(75.0277, 17.5791)" x="0.1229" y="-0.6603" width="1.2292" height="1.3207" ry="0.0000" fill="currentColor"/>
</g>
<text transform="translate(75.1506, 18.2147)" font-family="serif" font-weight="bold" font-size="1.7461" text-anchor="start" fill="currentColor">
<tspan>0</tspan>
</text>
<g color="rgb(100.0000%, 100.0000%, 100.0000%)">
<rect transform="translate(75.0277, 16.0791)" x="0.1229" y="-0.6480" width="1.2292" height="1.2959" ry="0.0000" fill="currentColor"/>
</g>
<text transform="translate(75.1506, 16.7271)" font-family="serif" font-weight="bold" font-size="1.7461" text-anchor="start" fill="currentColor">
<tspan>2</tspan>
</text>
<g color="rgb(100.0000%, 100.0000%, 100.0000%)">
<rect transform="translate(75.0277, 14.5791)" x="0.1229" y="-0.6603" width="1.2292" height="1.3207" ry="0.0000" fill="currentColor"/>
</g>
<text transform="translate(75.1506, 15.2147)" font-family="serif" font-weight="bold" font-size="1.7461" text-anchor="start" fill="currentColor">
<tspan>3</tspan>
</text>
<rect transform="translate(70.0514, 15.3291)" x="-0.0650" y="-5.5000" width="0.1300" height="3.8586" ry="0.0400" fill="currentColor"/>
<g color="rgb(100.0000%, 100.0000%, 100.0000%)">
<rect transform="translate(69.3139, 14.5791)" x="0.1229" y="-0.6603" width="1.2292" height="1.3207" ry="0.0000" fill="currentColor"/>
</g>
<text transform="translate(69.4368, 15.2147)" font-family="serif" font-weight="bold" font-size="1.7461" text-anchor="start" fill="currentColor">
<tspan>3</tspan>
</text>
<g color="rgb(100.0000%, 100.0000%, 100.0000%)">
<rect transform="translate(66.4070, 14.5791)" x="0.1229" y="-0.6603" width="1.2292" height="1.3207" ry="0.0000" fill="currentColor"/>
</g>
<text transform="translate(66.5299, 15.2147)" font-family="serif" font-weight="bold" font-size="1.7461" text-anchor="start" fill="currentColor">
<tspan>3</tspan>
</text>
<rect transform="translate(64.2376, 15.3291)" x="-0.0650" y="3.1248" width="0.1300" height="3.3752" ry="0.0400" fill="currentColor"/>
<rect transform="translate(64.7376, 15.3291)" x="-0.0650" y="3.1248" width="0.1300" height="3.3752" ry="0.0400" fill="currentColor"/>
<rect transform="translate(64.4876, 15.3291)" x="-0.0650" y="-6.1681" width="0.1300" height="3.0433" ry="0.0400" fill="currentColor"/>
<rect transform="translate(20.0814, 24.2055)" x="0.0000" y="-0.5500" width="0.6600" height="0.1300" ry="0.0400" fill="currentColor"/>
<rect transform="translate(80.4769, 15.3291)" x="-0.0650" y="-6.5000" width="0.1300" height="3.3586" ry="0.0400" fill="currentColor"/>
<text transform="translate(78.3771, 38.2055)" font-family="serif" font-size="2.4696" text-anchor="start" fill="currentColor">
<tspan>His</tspan>
</text>
<text transform="translate(79.2307, 35.4055)" font-family="serif" font-size="2.4696" text-anchor="start" fill="currentColor">
<tspan>to</tspan>
</text>
<text transform="translate(76.8236, 32.6055)" font-family="serif" font-size="2.4696" text-anchor="start" fill="currentColor">
<tspan>sweet</tspan>
</text>
<text transform="translate(78.0357, 29.8055)" font-family="serif" font-size="2.4696" text-anchor="start" fill="currentColor">
<tspan>tion</tspan>
</text>
<text transform="translate(78.5649, 27.0055)" font-family="serif" font-size="2.4696" text-anchor="start" fill="currentColor">
<tspan>ble</tspan>
</text>
<text transform="translate(77.8479, 24.2055)" font-family="serif" font-size="2.4696" text-anchor="start" fill="currentColor">
<tspan>Mes</tspan>
</text>
<g color="rgb(100.0000%, 100.0000%, 100.0000%)">
<rect transform="translate(79.7394, 13.0791)" x="0.1229" y="-0.6603" width="1.2292" height="1.3207" ry="0.0000" fill="currentColor"/>
</g>
<text transform="translate(79.8623, 13.7147)" font-family="serif" font-weight="bold" font-size="1.7461" text-anchor="start" fill="currentColor">
<tspan>0</tspan>
</text>
<rect transform="translate(75.7652, 15.3291)" x="-0.0650" y="3.1248" width="0.1300" height="3.3752" ry="0.0400" fill="currentColor"/>
<rect transform="translate(75.7652, 15.3291)" x="-0.0650" y="-5.5000" width="0.1300" height="3.8586" ry="0.0400" fill="currentColor"/>
<rect transform="translate(58.2460, 32.6055)" x="0.0000" y="-0.5500" width="0.6173" height="0.1300" ry="0.0400" fill="currentColor"/>
<rect transform="translate(56.9442, 38.2055)" x="0.0000" y="-0.5500" width="0.6600" height="0.1300" ry="0.0400" fill="currentColor"/>
<rect transform="translate(62.4986, 29.8055)" x="0.0000" y="-0.5500" width="0.6600" height="0.1300" ry="0.0400" fill="currentColor"/>
<path transform="translate(63.7501, 15.3291)" stroke-width="0.0800" stroke-linejoin="round" stroke-linecap="round" stroke="currentColor" fill="currentColor" d="M0.8684 -7.1581C1.8471 -7.6003 3.0145 -7.2066 3.5254 -6.2619L3.5254 -6.2619C2.9761 -7.0929 1.8088 -7.4866 0.8684 -7.1581z"/>
<rect transform="translate(73.6716, 27.0055)" x="0.0000" y="-0.5500" width="0.6600" height="0.1300" ry="0.0400" fill="currentColor"/>
<rect transform="translate(72.0584, 29.8055)" x="0.0000" y="-0.5500" width="0.6600" height="0.1300" ry="0.0400" fill="currentColor"/>
<rect transform="translate(66.8210, 38.2055)" x="0.0000" y="-0.0800" width="9.5587" height="0.0800" ry="0.0320" fill="currentColor"/>
<path transform="translate(63.7501, 15.3291)" stroke-width="0.0800" stroke-linejoin="round" stroke-linecap="round" stroke="currentColor" fill="currentColor" d="M1.5521 1.1699C2.7697 2.1054 9.9829 2.1054 11.2005 1.1699L11.2005 1.1699C9.9829 1.9854 2.7697 1.9854 1.5521 1.1699z"/>
<path transform="translate(63.7501, 15.3291)" stroke-width="0.0800" stroke-linejoin="round" stroke-linecap="round" stroke="currentColor" fill="currentColor" d="M1.1625 3.2500C2.4167 4.1946 10.3359 4.1946 11.5901 3.2500L11.5901 3.2500C10.3359 4.0746 2.4167 4.0746 1.1625 3.2500z"/>
<rect transform="translate(33.6059, 29.8055)" x="0.0000" y="-0.5500" width="0.6600" height="0.1300" ry="0.0400" fill="currentColor"/>
<rect transform="translate(27.0955, 27.0055)" x="0.0000" y="-0.5500" width="0.6600" height="0.1300" ry="0.0400" fill="currentColor"/>
<rect transform="translate(27.7784, 32.6055)" x="0.0000" y="-0.5500" width="0.6600" height="0.1300" ry="0.0400" fill="currentColor"/>
<path transform="translate(98.7216, 16.8291) scale(0.0040, -0.0040)" d="M0 0c0 31 25 56 56 56s56 -25 56 -56s-25 -56 -56 -56s-56 25 -56 56z" fill="currentColor"/>
<rect transform="translate(97.4070, 15.3291)" x="-0.0650" y="3.1248" width="0.1300" height="3.3752" ry="0.0400" fill="currentColor"/>
<rect transform="translate(97.9070, 15.3291)" x="-0.0650" y="3.1248" width="0.1300" height="3.3752" ry="0.0400" fill="currentColor"/>
<path transform="translate(98.7216, 18.3291) scale(0.0040, -0.0040)" d="M0 0c0 31 25 56 56 56s56 -25 56 -56s-25 -56 -56 -56s-56 25 -56 56z" fill="currentColor"/>
<rect transform="translate(87.9090, 24.2055)" x="0.0000" y="-0.5500" width="0.6600" height="0.1300" ry="0.0400" fill="currentColor"/>
<path transform="translate(66.4070, 15.3291)" stroke-width="0.0800" stroke-linejoin="round" stroke-linecap="round" stroke="currentColor" fill="currentColor" d="M1.5521 -1.2697C1.8938 -1.7048 2.4881 -1.7048 2.8298 -1.2697L2.8298 -1.2697C2.4881 -1.5848 1.8938 -1.5848 1.5521 -1.2697z"/>
<polygon transform="translate(64.4226, 9.1391)" stroke-linejoin="round" stroke-linecap="round" stroke-width="0.0800" fill="currentColor" stroke="currentColor" points="2.7469 0.7400 2.7469 1.1400 0.0400 0.2000 0.0400 -0.2000"/>
<path transform="translate(69.3139, 15.3291)" stroke-width="0.0800" stroke-linejoin="round" stroke-linecap="round" stroke="currentColor" fill="currentColor" d="M1.5521 -1.2040C2.3464 -1.9853 4.8424 -1.9853 5.6367 -1.2040L5.6367 -1.2040C4.8424 -1.8653 2.3464 -1.8653 1.5521 -1.2040z"/>
<rect transform="translate(83.6155, 24.2055)" x="0.0000" y="-0.5500" width="0.6600" height="0.1300" ry="0.0400" fill="currentColor"/>
<rect transform="translate(88.3784, 27.0055)" x="0.0000" y="-0.5500" width="0.6600" height="0.1300" ry="0.0400" fill="currentColor"/>
<rect transform="translate(87.7468, 32.6055)" x="0.0000" y="-0.5500" width="0.6600" height="0.1300" ry="0.0400" fill="currentColor"/>
<rect transform="translate(23.9740, 15.3291)" x="-0.0650" y="-6.5000" width="0.1300" height="3.3752" ry="0.0400" fill="currentColor"/>
<text transform="translate(21.4473, 38.2055)" font-family="serif" font-size="2.4696" text-anchor="start" fill="currentColor">
<tspan>God</tspan>
</text>
<text transform="translate(21.0206, 35.4055)" font-family="serif" font-size="2.4696" text-anchor="start" fill="currentColor">
<tspan>Lord</tspan>
</text>
<text transform="translate(21.6522, 32.6055)" font-family="serif" font-size="2.4696" text-anchor="start" fill="currentColor">
<tspan>hap</tspan>
</text>
<text transform="translate(18.5110, 29.8055)" font-family="serif" font-size="2.4696" text-anchor="start" fill="currentColor">
<tspan>Heav’n’s</tspan>
</text>
<text transform="translate(22.1814, 27.0055)" font-family="serif" font-size="2.4696" text-anchor="start" fill="currentColor">
<tspan>ref</tspan>
</text>
<text transform="translate(22.4204, 24.2055)" font-family="serif" font-size="2.4696" text-anchor="start" fill="currentColor">
<tspan>on</tspan>
</text>
<g color="rgb(100.0000%, 100.0000%, 100.0000%)">
<rect transform="translate(23.2365, 14.5791)" x="0.1229" y="-0.6603" width="1.2292" height="1.3207" ry="0.0000" fill="currentColor"/>
</g>
<text transform="translate(23.3594, 15.2147)" font-family="serif" font-weight="bold" font-size="1.7461" text-anchor="start" fill="currentColor">
<tspan>3</tspan>
</text>
<g color="rgb(100.0000%, 100.0000%, 100.0000%)">
<rect transform="translate(23.2365, 13.0791)" x="0.1229" y="-0.6480" width="1.2292" height="1.2959" ry="0.0000" fill="currentColor"/>
</g>
<text transform="translate(23.3594, 13.7271)" font-family="serif" font-weight="bold" font-size="1.7461" text-anchor="start" fill="currentColor">
<tspan>2</tspan>
</text>
<text transform="translate(23.2365, 7.4898)" font-family="sans-serif" font-size="2.6163" text-anchor="start" fill="currentColor">
<tspan>E</tspan>
</text>
<text transform="translate(24.8753, 7.4898)" font-family="sans-serif" font-size="2.6163" text-anchor="start" fill="currentColor">
<tspan/>
</text>
<text transform="translate(24.8753, 7.4898)" font-family="sans-serif" font-size="2.6163" text-anchor="start" fill="currentColor">
<tspan>m</tspan>
</text>
<text transform="translate(27.4361, 6.3006)" font-family="sans-serif" font-size="1.8500" text-anchor="start" fill="currentColor">
<tspan/>
</text>
<rect transform="translate(16.8148, 15.3291)" x="-0.0650" y="1.6414" width="0.1300" height="3.8586" ry="0.0400" fill="currentColor"/>
<rect transform="translate(16.8148, 15.3291)" x="-0.0650" y="-6.5000" width="0.1300" height="3.3586" ry="0.0400" fill="currentColor"/>
<text transform="translate(14.7833, 38.2055)" font-family="serif" font-size="2.4696" text-anchor="start" fill="currentColor">
<tspan>the</tspan>
</text>
<text transform="translate(14.7833, 35.4055)" font-family="serif" font-size="2.4696" text-anchor="start" fill="currentColor">
<tspan>the</tspan>
</text>
<text transform="translate(14.4930, 32.6055)" font-family="serif" font-size="2.4696" text-anchor="start" fill="currentColor">
<tspan>this</tspan>
</text>
<text transform="translate(15.5686, 29.8055)" font-family="serif" font-size="2.4696" text-anchor="start" fill="currentColor">
<tspan>to</tspan>
</text>
<text transform="translate(13.7931, 27.0055)" font-family="serif" font-size="2.4696" text-anchor="start" fill="currentColor">
<tspan>their</tspan>
</text>
<text transform="translate(30.1942, 38.2055)" font-family="serif" font-size="2.4696" text-anchor="start" fill="currentColor">
<tspan>of</tspan>
</text>
<g color="rgb(100.0000%, 100.0000%, 100.0000%)">
<rect transform="translate(37.3670, 14.5791)" x="0.1229" y="-0.6480" width="1.2292" height="1.2959" ry="0.0000" fill="currentColor"/>
</g>
<text transform="translate(37.4899, 15.2271)" font-family="serif" font-weight="bold" font-size="1.7461" text-anchor="start" fill="currentColor">
<tspan>2</tspan>
</text>
<g color="rgb(100.0000%, 100.0000%, 100.0000%)">
<rect transform="translate(37.3670, 13.0791)" x="0.1229" y="-0.6488" width="1.2292" height="1.2976" ry="0.0000" fill="currentColor"/>
</g>
<text transform="translate(37.4899, 13.7032)" font-family="serif" font-weight="bold" font-size="1.7461" text-anchor="start" fill="currentColor">
<tspan>5</tspan>
</text>
<text transform="translate(37.3670, 7.4898)" font-family="sans-serif" font-size="2.6163" text-anchor="start" fill="currentColor">
<tspan>D</tspan>
</text>
<text transform="translate(39.3814, 7.4898)" font-family="sans-serif" font-size="2.6163" text-anchor="start" fill="currentColor">
<tspan/>
</text>
<text transform="translate(39.3814, 7.4898)" font-family="sans-serif" font-size="2.6163" text-anchor="start" fill="currentColor">
<tspan/>
</text>
<text transform="translate(39.3814, 6.3006)" font-family="sans-serif" font-size="1.8500" text-anchor="start" fill="currentColor">
<tspan/>
</text>
<rect transform="translate(31.4063, 15.3291)" x="-0.0650" y="0.1414" width="0.1300" height="4.3586" ry="0.0400" fill="currentColor"/>
<rect transform="translate(31.4063, 15.3291)" x="-0.0650" y="-6.5000" width="0.1300" height="3.3586" ry="0.0400" fill="currentColor"/>
<text transform="translate(15.2271, 24.2055)" font-family="serif" font-size="2.4696" text-anchor="start" fill="currentColor">
<tspan>up</tspan>
</text>
<text transform="translate(30.1942, 35.4055)" font-family="serif" font-size="2.4696" text-anchor="start" fill="currentColor">
<tspan>of</tspan>
</text>
<text transform="translate(29.9210, 32.6055)" font-family="serif" font-size="2.4696" text-anchor="start" fill="currentColor">
<tspan>py</tspan>
</text>
<text transform="translate(29.8869, 29.8055)" font-family="serif" font-size="2.4696" text-anchor="start" fill="currentColor">
<tspan>de</tspan>
</text>
<text transform="translate(29.0845, 27.0055)" font-family="serif" font-size="2.4696" text-anchor="start" fill="currentColor">
<tspan>uge</tspan>
</text>
<text transform="translate(28.8797, 24.2055)" font-family="serif" font-size="2.4696" text-anchor="start" fill="currentColor">
<tspan>that</tspan>
</text>
<g color="rgb(100.0000%, 100.0000%, 100.0000%)">
<rect transform="translate(30.6688, 14.5791)" x="0.1229" y="-0.6603" width="1.2292" height="1.3207" ry="0.0000" fill="currentColor"/>
</g>
<text transform="translate(30.7917, 15.2147)" font-family="serif" font-weight="bold" font-size="1.7461" text-anchor="start" fill="currentColor">
<tspan>3</tspan>
</text>
<g color="rgb(100.0000%, 100.0000%, 100.0000%)">
<rect transform="translate(30.6688, 13.0791)" x="0.1229" y="-0.6603" width="1.2292" height="1.3207" ry="0.0000" fill="currentColor"/>
</g>
<text transform="translate(30.7917, 13.7147)" font-family="serif" font-weight="bold" font-size="1.7461" text-anchor="start" fill="currentColor">
<tspan>3</tspan>
</text>
<rect transform="translate(23.9740, 15.3291)" x="-0.0650" y="0.1414" width="0.1300" height="4.3586" ry="0.0400" fill="currentColor"/>
<rect transform="translate(11.6935, 24.2055)" x="0.0000" y="-0.0800" width="1.4200" height="0.0800" ry="0.0320" fill="currentColor"/>
<path transform="translate(5.6906, 15.3291)" stroke-width="0.0800" stroke-linejoin="round" stroke-linecap="round" stroke="currentColor" fill="currentColor" d="M3.5650 1.2782C4.0814 1.8767 5.2065 1.8767 5.7229 1.2782L5.7229 1.2782C5.2065 1.7567 4.0814 1.7567 3.5650 1.2782z"/>
<path transform="translate(5.6906, 15.3291)" stroke-width="0.0800" stroke-linejoin="round" stroke-linecap="round" stroke="currentColor" fill="currentColor" d="M3.5650 3.0000C4.0814 3.5985 5.2065 3.5985 5.7229 3.0000L5.7229 3.0000C5.2065 3.4785 4.0814 3.4785 3.5650 3.0000z"/>
<path transform="translate(5.6906, 15.3291)" stroke-width="0.0800" stroke-linejoin="round" stroke-linecap="round" stroke="currentColor" fill="currentColor" d="M3.5650 -1.2782C4.0814 -1.8767 5.2065 -1.8767 5.7229 -1.2782L5.7229 -1.2782C5.2065 -1.7567 4.0814 -1.7567 3.5650 -1.2782z"/>
<rect transform="translate(11.6935, 38.2055)" x="0.0000" y="-0.0800" width="1.4200" height="0.0800" ry="0.0320" fill="currentColor"/>
<rect transform="translate(11.6935, 35.4055)" x="0.0000" y="-0.0800" width="1.4200" height="0.0800" ry="0.0320" fill="currentColor"/>
<rect transform="translate(11.6935, 32.6055)" x="0.0000" y="-0.0800" width="1.4200" height="0.0800" ry="0.0320" fill="currentColor"/>
<rect transform="translate(11.9821, 29.8055)" x="0.0000" y="-0.5500" width="0.6600" height="0.1300" ry="0.0400" fill="currentColor"/>
<rect transform="translate(11.6935, 27.0055)" x="0.0000" y="-0.0800" width="1.4200" height="0.0800" ry="0.0320" fill="currentColor"/>
<g color="rgb(100.0000%, 100.0000%, 100.0000%)">
<rect transform="translate(11.4906, 17.5791)" x="0.1229" y="-0.6480" width="1.2292" height="1.2959" ry="0.0000" fill="currentColor"/>
</g>
<text transform="translate(11.6135, 18.2271)" font-family="serif" font-weight="bold" font-size="1.7461" text-anchor="start" fill="currentColor">
<tspan>4</tspan>
</text>
<g color="rgb(100.0000%, 100.0000%, 100.0000%)">
<rect transform="translate(16.0773, 16.0791)" x="0.1229" y="-0.6603" width="1.2292" height="1.3207" ry="0.0000" fill="currentColor"/>
</g>
<text transform="translate(16.2002, 16.7147)" font-family="serif" font-weight="bold" font-size="1.7461" text-anchor="start" fill="currentColor">
<tspan>0</tspan>
</text>
<g color="rgb(100.0000%, 100.0000%, 100.0000%)">
<rect transform="translate(16.0773, 13.0791)" x="0.1229" y="-0.6603" width="1.2292" height="1.3207" ry="0.0000" fill="currentColor"/>
</g>
<text transform="translate(16.2002, 13.7147)" font-family="serif" font-weight="bold" font-size="1.7461" text-anchor="start" fill="currentColor">
<tspan>0</tspan>
</text>
<rect transform="translate(12.2280, 15.3291)" x="-0.0650" y="3.1248" width="0.1300" height="3.3752" ry="0.0400" fill="currentColor"/>
<rect transform="translate(12.2280, 15.3291)" x="-0.0650" y="-5.5000" width="0.1300" height="3.8586" ry="0.0400" fill="currentColor"/>
<g color="rgb(100.0000%, 100.0000%, 100.0000%)">
<rect transform="translate(11.4906, 16.0791)" x="0.1229" y="-0.6480" width="1.2292" height="1.2959" ry="0.0000" fill="currentColor"/>
</g>
<text transform="translate(11.6135, 16.7271)" font-family="serif" font-weight="bold" font-size="1.7461" text-anchor="start" fill="currentColor">
<tspan>2</tspan>
</text>
<text transform="translate(63.8730, 32.6055)" font-family="serif" font-size="2.4696" text-anchor="start" fill="currentColor">
<tspan>babe</tspan>
</text>
<g color="rgb(100.0000%, 100.0000%, 100.0000%)">
<rect transform="translate(11.4906, 14.5791)" x="0.1229" y="-0.6603" width="1.2292" height="1.3207" ry="0.0000" fill="currentColor"/>
</g>
<text transform="translate(11.6135, 15.2147)" font-family="serif" font-weight="bold" font-size="1.7461" text-anchor="start" fill="currentColor">
<tspan>3</tspan>
</text>
<path transform="translate(6.4906, 16.8291) scale(0.0040, -0.0040)" d="M266 -635h-6c-108 0 -195 88 -195 197c0 58 53 103 112 103c54 0 95 -47 95 -103c0 -52 -43 -95 -95 -95c-11 0 -21 2 -31 6c26 -39 68 -65 117 -65h4zM461 -203c68 24 113 95 113 164c0 90 -66 179 -173 190c24 -116 46 -231 60 -354zM74 28c0 -135 129 -247 264 -247
c28 0 55 2 82 6c-14 127 -37 245 -63 364c-79 -8 -124 -61 -124 -119c0 -44 25 -91 81 -123c5 -5 7 -10 7 -15c0 -11 -10 -22 -22 -22c-3 0 -6 1 -9 2c-80 43 -117 115 -117 185c0 88 58 174 160 197c-14 58 -29 117 -46 175c-107 -121 -213 -243 -213 -403zM335 -262
c-188 0 -333 172 -333 374c0 177 131 306 248 441c-19 62 -37 125 -45 190c-6 52 -7 104 -7 156c0 115 55 224 149 292c6 5 14 5 20 0c71 -84 133 -245 133 -358c0 -143 -86 -255 -180 -364c21 -68 39 -138 56 -207c4 0 9 1 13 1c155 0 256 -128 256 -261
c0 -76 -33 -154 -107 -210c-22 -17 -47 -28 -73 -36c3 -35 5 -70 5 -105c0 -19 -1 -39 -2 -58c-7 -119 -88 -225 -202 -228l1 43c93 2 153 92 159 191c1 18 2 37 2 55c0 31 -1 61 -4 92c-29 -5 -58 -8 -89 -8zM428 916c0 55 -4 79 -20 129c-99 -48 -162 -149 -162 -259
c0 -74 18 -133 36 -194c80 97 146 198 146 324z" fill="currentColor"/>
<text transform="translate(3.4371, 12.0044)" font-family="serif" font-size="1.7461" text-anchor="start" fill="currentColor">
<tspan>20</tspan>
</text>
<text transform="translate(50.8181, 35.4055)" font-family="serif" font-size="2.4696" text-anchor="start" fill="currentColor">
<tspan>came</tspan>
</text>
<rect transform="translate(53.9141, 15.3291)" x="-0.0650" y="3.1414" width="0.1300" height="3.3586" ry="0.0400" fill="currentColor"/>
<rect transform="translate(54.4141, 15.3291)" x="-0.0650" y="3.1414" width="0.1300" height="3.3586" ry="0.0400" fill="currentColor"/>
<rect transform="translate(54.1641, 15.3291)" x="-0.0650" y="-6.5000" width="0.1300" height="3.3586" ry="0.0400" fill="currentColor"/>
<text transform="translate(52.5594, 38.2055)" font-family="serif" font-size="2.4696" text-anchor="start" fill="currentColor">
<tspan>un</tspan>
</text>
<text transform="translate(50.1523, 32.6055)" font-family="serif" font-size="2.4696" text-anchor="start" fill="currentColor">
<tspan>prince</tspan>
</text>
<text transform="translate(50.5108, 29.8055)" font-family="serif" font-size="2.4696" text-anchor="start" fill="currentColor">
<tspan>sweet</tspan>
</text>
<text transform="translate(52.0814, 27.0055)" font-family="serif" font-size="2.4696" text-anchor="start" fill="currentColor">
<tspan>but</tspan>
</text>
<text transform="translate(51.7399, 24.2055)" font-family="serif" font-size="2.4696" text-anchor="start" fill="currentColor">
<tspan>was</tspan>
</text>
<g color="rgb(100.0000%, 100.0000%, 100.0000%)">
<rect transform="translate(53.4266, 17.5791)" x="0.1229" y="-0.6480" width="1.2292" height="1.2959" ry="0.0000" fill="currentColor"/>
</g>
<text transform="translate(53.5495, 18.2271)" font-family="serif" font-weight="bold" font-size="1.7461" text-anchor="start" fill="currentColor">
<tspan>2</tspan>
</text>
<g color="rgb(100.0000%, 100.0000%, 100.0000%)">
<rect transform="translate(53.4266, 14.5791)" x="0.1229" y="-0.6603" width="1.2292" height="1.3207" ry="0.0000" fill="currentColor"/>
</g>
<text transform="translate(53.5495, 15.2147)" font-family="serif" font-weight="bold" font-size="1.7461" text-anchor="start" fill="currentColor">
<tspan>0</tspan>
</text>
<g color="rgb(100.0000%, 100.0000%, 100.0000%)">
<rect transform="translate(53.4266, 13.0791)" x="0.1229" y="-0.6603" width="1.2292" height="1.3207" ry="0.0000" fill="currentColor"/>
</g>
<text transform="translate(53.5495, 13.7147)" font-family="serif" font-weight="bold" font-size="1.7461" text-anchor="start" fill="currentColor">
<tspan>3</tspan>
</text>
<text transform="translate(53.4266, 7.4898)" font-family="sans-serif" font-size="2.6163" text-anchor="start" fill="currentColor">
<tspan>F</tspan>
</text>
<text transform="translate(54.9289, 7.4898)" font-family="sans-serif" font-size="2.6163" text-anchor="start" fill="currentColor">
<tspan/>
</text>
<text transform="translate(54.9289, 7.4898)" font-family="sans-serif" font-size="2.6163" text-anchor="start" fill="currentColor">
<tspan/>
</text>
<text transform="translate(54.9289, 6.3006)" font-family="sans-serif" font-size="1.8500" text-anchor="start" fill="currentColor">
<tspan/>
</text>
<text transform="translate(58.7796, 38.2055)" font-family="serif" font-size="2.4696" text-anchor="start" fill="currentColor">
<tspan>to</tspan>
</text>
<text transform="translate(63.8730, 35.4055)" font-family="serif" font-size="2.4696" text-anchor="start" fill="currentColor">
<tspan>earth</tspan>
</text>
<text transform="translate(63.8730, 29.8055)" font-family="serif" font-size="2.4696" text-anchor="start" fill="currentColor">
<tspan>va</tspan>
</text>
<text transform="translate(63.8730, 27.0055)" font-family="serif" font-size="2.4696" text-anchor="start" fill="currentColor">
<tspan>hum</tspan>
</text>
<text transform="translate(63.8730, 24.2055)" font-family="serif" font-size="2.4696" text-anchor="start" fill="currentColor">
<tspan>blessed</tspan>
</text>
<g color="rgb(100.0000%, 100.0000%, 100.0000%)">
<rect transform="translate(63.7501, 17.5791)" x="0.1229" y="-0.6603" width="1.2292" height="1.3207" ry="0.0000" fill="currentColor"/>
</g>
<text transform="translate(63.8730, 18.2147)" font-family="serif" font-weight="bold" font-size="1.7461" text-anchor="start" fill="currentColor">
<tspan>0</tspan>
</text>
<g color="rgb(100.0000%, 100.0000%, 100.0000%)">
<rect transform="translate(63.7501, 16.0791)" x="0.1229" y="-0.6480" width="1.2292" height="1.2959" ry="0.0000" fill="currentColor"/>
</g>
<text transform="translate(63.8730, 16.7271)" font-family="serif" font-weight="bold" font-size="1.7461" text-anchor="start" fill="currentColor">
<tspan>2</tspan>
</text>
<g color="rgb(100.0000%, 100.0000%, 100.0000%)">
<rect transform="translate(63.7501, 13.0791)" x="0.1229" y="-0.6480" width="1.2292" height="1.2959" ry="0.0000" fill="currentColor"/>
</g>
<text transform="translate(63.8730, 13.7271)" font-family="serif" font-weight="bold" font-size="1.7461" text-anchor="start" fill="currentColor">
<tspan>2</tspan>
</text>
<text transform="translate(63.7501, 7.4898)" font-family="sans-serif" font-size="2.6163" text-anchor="start" fill="currentColor">
<tspan>G</tspan>
</text>
<text transform="translate(65.7645, 7.4898)" font-family="sans-serif" font-size="2.6163" text-anchor="start" fill="currentColor">
<tspan/>
</text>
<text transform="translate(65.7645, 7.4898)" font-family="sans-serif" font-size="2.6163" text-anchor="start" fill="currentColor">
<tspan/>
</text>
<text transform="translate(65.7645, 6.3006)" font-family="sans-serif" font-size="1.8500" text-anchor="start" fill="currentColor">
<tspan/>
</text>
<rect transform="translate(60.0258, 15.3291)" x="-0.0650" y="-6.5000" width="0.1300" height="3.3741" ry="0.0400" fill="currentColor"/>
<text transform="translate(34.3829, 24.2055)" font-family="serif" font-size="2.4696" text-anchor="start" fill="currentColor">
<tspan>morn,</tspan>
</text>
<text transform="translate(58.7796, 35.4055)" font-family="serif" font-size="2.4696" text-anchor="start" fill="currentColor">
<tspan>to</tspan>
</text>
<text transform="translate(58.9332, 32.6055)" font-family="serif" font-size="2.4696" text-anchor="start" fill="currentColor">
<tspan>ly</tspan>
</text>
<text transform="translate(58.2674, 29.8055)" font-family="serif" font-size="2.4696" text-anchor="start" fill="currentColor">
<tspan>sal</tspan>
</text>
<text transform="translate(59.2917, 27.0055)" font-family="serif" font-size="2.4696" text-anchor="start" fill="currentColor">
<tspan>a</tspan>
</text>
<text transform="translate(59.2917, 24.2055)" font-family="serif" font-size="2.4696" text-anchor="start" fill="currentColor">
<tspan>a</tspan>
</text>
<g color="rgb(100.0000%, 100.0000%, 100.0000%)">
<rect transform="translate(59.2883, 13.0791)" x="0.1229" y="-0.6488" width="1.2292" height="1.2976" ry="0.0000" fill="currentColor"/>
</g>
<text transform="translate(59.4112, 13.7032)" font-family="serif" font-weight="bold" font-size="1.7461" text-anchor="start" fill="currentColor">
<tspan>5</tspan>
</text>
<path transform="translate(39.1691, 16.8291) scale(0.0040, -0.0040)" d="M0 0c0 31 25 56 56 56s56 -25 56 -56s-25 -56 -56 -56s-56 25 -56 56z" fill="currentColor"/>
<rect transform="translate(37.8545, 15.3291)" x="-0.0650" y="1.6248" width="0.1300" height="3.8752" ry="0.0400" fill="currentColor"/>
<rect transform="translate(38.3545, 15.3291)" x="-0.0650" y="1.6248" width="0.1300" height="3.8752" ry="0.0400" fill="currentColor"/>
<path transform="translate(39.1691, 15.3291) scale(0.0040, -0.0040)" d="M0 0c0 31 25 56 56 56s56 -25 56 -56s-25 -56 -56 -56s-56 25 -56 56z" fill="currentColor"/>
<rect transform="translate(37.8545, 15.3291)" x="-0.0650" y="-6.5000" width="0.1300" height="3.3741" ry="0.0400" fill="currentColor"/>
<rect transform="translate(38.3545, 15.3291)" x="-0.0650" y="-6.5000" width="0.1300" height="3.3741" ry="0.0400" fill="currentColor"/>
<path transform="translate(39.1691, 12.3291) scale(0.0040, -0.0040)" d="M0 0c0 31 25 56 56 56s56 -25 56 -56s-25 -56 -56 -56s-56 25 -56 56z" fill="currentColor"/>
<text transform="translate(33.2732, 38.2055)" font-family="serif" font-size="2.4696" text-anchor="start" fill="currentColor">
<tspan>Heav’n,</tspan>
</text>
<text transform="translate(35.6974, 35.4055)" font-family="serif" font-size="2.4696" text-anchor="start" fill="currentColor">
<tspan>Life</tspan>
</text>
<text transform="translate(34.7755, 32.6055)" font-family="serif" font-size="2.4696" text-anchor="start" fill="currentColor">
<tspan>morn</tspan>
</text>
<text transform="translate(34.9462, 29.8055)" font-family="serif" font-size="2.4696" text-anchor="start" fill="currentColor">
<tspan>cree,</tspan>
</text>
<text transform="translate(36.5851, 27.0055)" font-family="serif" font-size="2.4696" text-anchor="start" fill="currentColor">
<tspan>all</tspan>
</text>
<g color="rgb(100.0000%, 100.0000%, 100.0000%)">
<rect transform="translate(37.3670, 16.0791)" x="0.1229" y="-0.6480" width="1.2292" height="1.2959" ry="0.0000" fill="currentColor"/>
</g>
<text transform="translate(37.4899, 16.7271)" font-family="serif" font-weight="bold" font-size="1.7461" text-anchor="start" fill="currentColor">
<tspan>2</tspan>
</text>
<rect transform="translate(46.2367, 15.3291)" x="-0.0650" y="0.1248" width="0.1300" height="4.3752" ry="0.0400" fill="currentColor"/>
<rect transform="translate(46.2367, 15.3291)" x="-0.0650" y="-6.5000" width="0.1300" height="3.3752" ry="0.0400" fill="currentColor"/>
<text transform="translate(43.3858, 38.2055)" font-family="serif" font-size="2.4696" text-anchor="start" fill="currentColor">
<tspan>That</tspan>
</text>
<text transform="translate(43.4199, 35.4055)" font-family="serif" font-size="2.4696" text-anchor="start" fill="currentColor">
<tspan>Who</tspan>
</text>
<text transform="translate(45.3490, 32.6055)" font-family="serif" font-size="2.4696" text-anchor="start" fill="currentColor">
<tspan>A</tspan>
</text>
<text transform="translate(42.4127, 29.8055)" font-family="serif" font-size="2.4696" text-anchor="start" fill="currentColor">
<tspan>Man’s</tspan>
</text>
<text transform="translate(43.7101, 27.0055)" font-family="serif" font-size="2.4696" text-anchor="start" fill="currentColor">
<tspan>Was</tspan>
</text>
<text transform="translate(42.5493, 24.2055)" font-family="serif" font-size="2.4696" text-anchor="start" fill="currentColor">
<tspan>There</tspan>
</text>
<g color="rgb(100.0000%, 100.0000%, 100.0000%)">
<rect transform="translate(45.4992, 13.0791)" x="0.1229" y="-0.6480" width="1.2292" height="1.2959" ry="0.0000" fill="currentColor"/>
</g>
<text transform="translate(45.6221, 13.7271)" font-family="serif" font-weight="bold" font-size="1.7461" text-anchor="start" fill="currentColor">
<tspan>2</tspan>
</text>
<g color="rgb(100.0000%, 100.0000%, 100.0000%)">
<rect transform="translate(45.4992, 14.5791)" x="0.1229" y="-0.6480" width="1.2292" height="1.2959" ry="0.0000" fill="currentColor"/>
</g>
<text transform="translate(45.6221, 15.2271)" font-family="serif" font-weight="bold" font-size="1.7461" text-anchor="start" fill="currentColor">
<tspan>2</tspan>
</text>
<text transform="translate(4.9166, 165.1062)" font-family="serif" font-size="2.2001" text-anchor="start" fill="currentColor">
<tspan>Loosely adapted from https://www.music-for-music-teachers.com/support-files/wexford-carol-g.pdf</tspan>
</text>
</svg>
