<svg xmlns="http://www.w3.org/2000/svg" xmlns:xlink="http://www.w3.org/1999/xlink" version="1.2" width="210.00mm" height="297.00mm" viewBox="0 0 119.5016 169.0094">
<style text="style/css">
<![CDATA[
tspan { white-space: pre; }
]]>
</style>
<!-- Page: 2/2 -->
<text transform="translate(5.6906, 4.5168)" font-family="serif" font-size="2.2001" text-anchor="start" fill="currentColor">
<tspan>2</tspan>
</text>
<text transform="translate(51.5223, 4.5168)" font-family="serif" font-size="2.2001" text-anchor="start" fill="currentColor">
<tspan>Low-G Ukulele</tspan>
</text>
<text transform="translate(113.8110, 4.5168)" font-family="serif" font-size="2.2001" text-anchor="start" fill="currentColor">
<tspan/>
</text>
<rect transform="translate(36.0239, 15.3283)" x="0.0000" y="-2.2500" width="0.1900" height="4.5000" ry="0.0000" fill="currentColor"/>
<rect transform="translate(73.8860, 15.3283)" x="0.0000" y="-2.2500" width="0.1900" height="4.5000" ry="0.0000" fill="currentColor"/>
<rect transform="translate(51.8982, 15.3283)" x="0.0000" y="-2.2500" width="0.1900" height="4.5000" ry="0.0000" fill="currentColor"/>
<rect transform="translate(104.3849, 15.3283)" x="0.0000" y="-2.2500" width="0.6000" height="4.5000" ry="0.0000" fill="currentColor"/>
<rect transform="translate(103.8949, 15.3283)" x="0.0000" y="-2.2500" width="0.1900" height="4.5000" ry="0.0000" fill="currentColor"/>
<rect transform="translate(94.3836, 15.3283)" x="0.0000" y="-2.2500" width="0.1900" height="4.5000" ry="0.0000" fill="currentColor"/>
<line transform="translate(5.6906, 17.5783)" stroke-linejoin="round" stroke-linecap="round" stroke-width="0.1000" stroke="currentColor" x1="0.0500" y1="-0.0000" x2="99.2444" y2="-0.0000"/>
<line transform="translate(5.6906, 16.0783)" stroke-linejoin="round" stroke-linecap="round" stroke-width="0.1000" stroke="currentColor" x1="0.0500" y1="-0.0000" x2="99.2444" y2="-0.0000"/>
<line transform="translate(5.6906, 14.5783)" stroke-linejoin="round" stroke-linecap="round" stroke-width="0.1000" stroke="currentColor" x1="0.0500" y1="-0.0000" x2="99.2444" y2="-0.0000"/>
<line transform="translate(5.6906, 13.0783)" stroke-linejoin="round" stroke-linecap="round" stroke-width="0.1000" stroke="currentColor" x1="0.0500" y1="-0.0000" x2="99.2444" y2="-0.0000"/>
<rect transform="translate(85.6279, 15.3283)" x="-0.0650" y="3.1248" width="0.1300" height="3.3752" ry="0.0400" fill="currentColor"/>
<rect transform="translate(86.1279, 15.3283)" x="-0.0650" y="3.1248" width="0.1300" height="3.3752" ry="0.0400" fill="currentColor"/>
<g color="rgb(100.0000%, 100.0000%, 100.0000%)">
<rect transform="translate(85.1404, 14.5783)" x="0.1229" y="-0.6603" width="1.2292" height="1.3207" ry="0.0000" fill="currentColor"/>
</g>
<text transform="translate(85.2633, 15.2139)" font-family="serif" font-weight="bold" font-size="1.7461" text-anchor="start" fill="currentColor">
<tspan>3</tspan>
</text>
<text transform="translate(90.2108, 27.0047)" font-family="serif" font-size="2.4696" text-anchor="start" fill="currentColor">
<tspan>’s</tspan>
</text>
<text transform="translate(89.6986, 24.2047)" font-family="serif" font-size="2.4696" text-anchor="start" fill="currentColor">
<tspan>ah</tspan>
</text>
<g color="rgb(100.0000%, 100.0000%, 100.0000%)">
<rect transform="translate(90.4976, 14.5783)" x="0.1229" y="-0.6480" width="1.2292" height="1.2959" ry="0.0000" fill="currentColor"/>
</g>
<text transform="translate(90.6205, 15.2263)" font-family="serif" font-weight="bold" font-size="1.7461" text-anchor="start" fill="currentColor">
<tspan>1</tspan>
</text>
<text transform="translate(84.4268, 27.0047)" font-family="serif" font-size="2.4696" text-anchor="start" fill="currentColor">
<tspan>ox</tspan>
</text>
<g color="rgb(100.0000%, 100.0000%, 100.0000%)">
<rect transform="translate(85.1404, 17.5783)" x="0.1229" y="-0.6480" width="1.2292" height="1.2959" ry="0.0000" fill="currentColor"/>
</g>
<text transform="translate(85.2633, 18.2263)" font-family="serif" font-weight="bold" font-size="1.7461" text-anchor="start" fill="currentColor">
<tspan>2</tspan>
</text>
<rect transform="translate(85.8779, 15.3283)" x="-0.0650" y="-5.5000" width="0.1300" height="3.8586" ry="0.0400" fill="currentColor"/>
<path transform="translate(86.9425, 13.8283) scale(0.0040, -0.0040)" d="M0 0c0 31 25 56 56 56s56 -25 56 -56s-25 -56 -56 -56s-56 25 -56 56z" fill="currentColor"/>
<text transform="translate(83.4708, 38.2047)" font-family="serif" font-size="2.4696" text-anchor="start" fill="currentColor">
<tspan>Son</tspan>
</text>
<text transform="translate(83.5562, 35.4047)" font-family="serif" font-size="2.4696" text-anchor="start" fill="currentColor">
<tspan>end</tspan>
</text>
<text transform="translate(84.6487, 32.6047)" font-family="serif" font-size="2.4696" text-anchor="start" fill="currentColor">
<tspan>Je</tspan>
</text>
<text transform="translate(84.0683, 29.8047)" font-family="serif" font-size="2.4696" text-anchor="start" fill="currentColor">
<tspan>for</tspan>
</text>
<text transform="translate(84.8536, 24.2047)" font-family="serif" font-size="2.4696" text-anchor="start" fill="currentColor">
<tspan>si</tspan>
</text>
<text transform="translate(94.3824, 24.2047)" font-family="serif" font-size="2.4696" text-anchor="start" fill="currentColor">
<tspan>born.</tspan>
</text>
<rect transform="translate(97.4614, 15.3283)" x="-0.0650" y="-5.5000" width="0.1300" height="3.8586" ry="0.0400" fill="currentColor"/>
<rect transform="translate(97.9614, 15.3283)" x="-0.0650" y="-5.5000" width="0.1300" height="3.8586" ry="0.0400" fill="currentColor"/>
<path transform="translate(98.7760, 13.8283) scale(0.0040, -0.0040)" d="M0 0c0 31 25 56 56 56s56 -25 56 -56s-25 -56 -56 -56s-56 25 -56 56z" fill="currentColor"/>
<text transform="translate(94.2458, 38.2047)" font-family="serif" font-size="2.4696" text-anchor="start" fill="currentColor">
<tspan>giv’n.</tspan>
</text>
<text transform="translate(94.0068, 35.4047)" font-family="serif" font-size="2.4696" text-anchor="start" fill="currentColor">
<tspan>strife.</tspan>
</text>
<text transform="translate(93.7508, 32.6047)" font-family="serif" font-size="2.4696" text-anchor="start" fill="currentColor">
<tspan>born.”</tspan>
</text>
<text transform="translate(95.7994, 29.8047)" font-family="serif" font-size="2.4696" text-anchor="start" fill="currentColor">
<tspan>be.</tspan>
</text>
<text transform="translate(94.6726, 27.0047)" font-family="serif" font-size="2.4696" text-anchor="start" fill="currentColor">
<tspan>stall.</tspan>
</text>
<text transform="translate(89.9889, 29.8047)" font-family="serif" font-size="2.4696" text-anchor="start" fill="currentColor">
<tspan>to</tspan>
</text>
<g color="rgb(100.0000%, 100.0000%, 100.0000%)">
<rect transform="translate(96.9739, 17.5783)" x="0.1229" y="-0.6480" width="1.2292" height="1.2959" ry="0.0000" fill="currentColor"/>
</g>
<text transform="translate(97.0968, 18.2263)" font-family="serif" font-weight="bold" font-size="1.7461" text-anchor="start" fill="currentColor">
<tspan>4</tspan>
</text>
<g color="rgb(100.0000%, 100.0000%, 100.0000%)">
<rect transform="translate(96.9739, 14.5783)" x="0.1229" y="-0.6603" width="1.2292" height="1.3207" ry="0.0000" fill="currentColor"/>
</g>
<text transform="translate(97.0968, 15.2139)" font-family="serif" font-weight="bold" font-size="1.7461" text-anchor="start" fill="currentColor">
<tspan>3</tspan>
</text>
<text transform="translate(96.9739, 7.4898)" font-family="sans-serif" font-size="2.6163" text-anchor="start" fill="currentColor">
<tspan>G</tspan>
</text>
<text transform="translate(98.9883, 7.4898)" font-family="sans-serif" font-size="2.6163" text-anchor="start" fill="currentColor">
<tspan/>
</text>
<text transform="translate(98.9883, 7.4898)" font-family="sans-serif" font-size="2.6163" text-anchor="start" fill="currentColor">
<tspan/>
</text>
<text transform="translate(98.9883, 6.3006)" font-family="sans-serif" font-size="1.8500" text-anchor="start" fill="currentColor">
<tspan/>
</text>
<path transform="translate(91.3001, 9.7433) scale(0.0040, -0.0040)" d="M0 0v-250h-16v250h16zM0 0c0 -197 207 -336 207 -533c0 -71 -15 -141 -41 -207c-5 -8 -13 -12 -20 -12c-13 0 -26 11 -23 27c26 61 42 126 42 192c0 103 -94 208 -165 283v250z" fill="currentColor"/>
<rect transform="translate(91.2351, 15.3283)" x="-0.0650" y="-5.6250" width="0.1300" height="4.0002" ry="0.0400" fill="currentColor"/>
<text transform="translate(89.0670, 38.2047)" font-family="serif" font-size="2.4696" text-anchor="start" fill="currentColor">
<tspan>has</tspan>
</text>
<text transform="translate(89.7157, 35.4047)" font-family="serif" font-size="2.4696" text-anchor="start" fill="currentColor">
<tspan>all</tspan>
</text>
<text transform="translate(89.1694, 32.6047)" font-family="serif" font-size="2.4696" text-anchor="start" fill="currentColor">
<tspan>sus</tspan>
</text>
<rect transform="translate(75.8446, 15.3283)" x="-0.0650" y="-5.5000" width="0.1300" height="3.8586" ry="0.0400" fill="currentColor"/>
<g color="rgb(100.0000%, 100.0000%, 100.0000%)">
<rect transform="translate(75.1071, 16.0783)" x="0.1229" y="-0.6480" width="1.2292" height="1.2959" ry="0.0000" fill="currentColor"/>
</g>
<text transform="translate(75.2300, 16.7263)" font-family="serif" font-weight="bold" font-size="1.7461" text-anchor="start" fill="currentColor">
<tspan>2</tspan>
</text>
<g color="rgb(100.0000%, 100.0000%, 100.0000%)">
<rect transform="translate(75.1071, 14.5783)" x="0.1229" y="-0.6603" width="1.2292" height="1.3207" ry="0.0000" fill="currentColor"/>
</g>
<text transform="translate(75.2300, 15.2139)" font-family="serif" font-weight="bold" font-size="1.7461" text-anchor="start" fill="currentColor">
<tspan>3</tspan>
</text>
<rect transform="translate(70.1437, 15.3283)" x="-0.0650" y="-5.5000" width="0.1300" height="3.8586" ry="0.0400" fill="currentColor"/>
<g color="rgb(100.0000%, 100.0000%, 100.0000%)">
<rect transform="translate(69.4062, 14.5783)" x="0.1229" y="-0.6603" width="1.2292" height="1.3207" ry="0.0000" fill="currentColor"/>
</g>
<text transform="translate(69.5291, 15.2139)" font-family="serif" font-weight="bold" font-size="1.7461" text-anchor="start" fill="currentColor">
<tspan>3</tspan>
</text>
<rect transform="translate(67.2422, 15.3283)" x="-0.0650" y="-5.2720" width="0.1300" height="3.6305" ry="0.0400" fill="currentColor"/>
<g color="rgb(100.0000%, 100.0000%, 100.0000%)">
<rect transform="translate(66.5047, 14.5783)" x="0.1229" y="-0.6603" width="1.2292" height="1.3207" ry="0.0000" fill="currentColor"/>
</g>
<text transform="translate(66.6277, 15.2139)" font-family="serif" font-weight="bold" font-size="1.7461" text-anchor="start" fill="currentColor">
<tspan>3</tspan>
</text>
<rect transform="translate(64.3408, 15.3283)" x="-0.0650" y="1.6248" width="0.1300" height="3.8752" ry="0.0400" fill="currentColor"/>
<rect transform="translate(64.8408, 15.3283)" x="-0.0650" y="1.6248" width="0.1300" height="3.8752" ry="0.0400" fill="currentColor"/>
<rect transform="translate(20.1955, 24.2047)" x="0.0000" y="-0.5500" width="0.6600" height="0.1300" ry="0.0400" fill="currentColor"/>
<rect transform="translate(80.5454, 15.3283)" x="-0.0650" y="-6.5000" width="0.1300" height="3.3586" ry="0.0400" fill="currentColor"/>
<text transform="translate(78.4456, 38.2047)" font-family="serif" font-size="2.4696" text-anchor="start" fill="currentColor">
<tspan>His</tspan>
</text>
<text transform="translate(79.2992, 35.4047)" font-family="serif" font-size="2.4696" text-anchor="start" fill="currentColor">
<tspan>to</tspan>
</text>
<text transform="translate(76.8921, 32.6047)" font-family="serif" font-size="2.4696" text-anchor="start" fill="currentColor">
<tspan>sweet</tspan>
</text>
<text transform="translate(78.1042, 29.8047)" font-family="serif" font-size="2.4696" text-anchor="start" fill="currentColor">
<tspan>tion</tspan>
</text>
<text transform="translate(78.6334, 27.0047)" font-family="serif" font-size="2.4696" text-anchor="start" fill="currentColor">
<tspan>ble</tspan>
</text>
<text transform="translate(77.9164, 24.2047)" font-family="serif" font-size="2.4696" text-anchor="start" fill="currentColor">
<tspan>Mes</tspan>
</text>
<g color="rgb(100.0000%, 100.0000%, 100.0000%)">
<rect transform="translate(79.8079, 13.0783)" x="0.1229" y="-0.6603" width="1.2292" height="1.3207" ry="0.0000" fill="currentColor"/>
</g>
<text transform="translate(79.9308, 13.7139)" font-family="serif" font-weight="bold" font-size="1.7461" text-anchor="start" fill="currentColor">
<tspan>0</tspan>
</text>
<text transform="translate(85.1404, 7.4898)" font-family="sans-serif" font-size="2.6163" text-anchor="start" fill="currentColor">
<tspan>F</tspan>
</text>
<text transform="translate(86.6427, 7.4898)" font-family="sans-serif" font-size="2.6163" text-anchor="start" fill="currentColor">
<tspan/>
</text>
<text transform="translate(86.6427, 7.4898)" font-family="sans-serif" font-size="2.6163" text-anchor="start" fill="currentColor">
<tspan/>
</text>
<text transform="translate(86.6427, 6.3006)" font-family="sans-serif" font-size="1.8500" text-anchor="start" fill="currentColor">
<tspan/>
</text>
<rect transform="translate(75.8446, 15.3283)" x="-0.0650" y="1.6248" width="0.1300" height="3.8752" ry="0.0400" fill="currentColor"/>
<rect transform="translate(58.3601, 32.6047)" x="0.0000" y="-0.5500" width="0.6173" height="0.1300" ry="0.0400" fill="currentColor"/>
<rect transform="translate(57.0583, 38.2047)" x="0.0000" y="-0.5500" width="0.6600" height="0.1300" ry="0.0400" fill="currentColor"/>
<rect transform="translate(62.6073, 29.8047)" x="0.0000" y="-0.5500" width="0.6600" height="0.1300" ry="0.0400" fill="currentColor"/>
<path transform="translate(63.8533, 15.3283)" stroke-width="0.0800" stroke-linejoin="round" stroke-linecap="round" stroke="currentColor" fill="currentColor" d="M0.8687 -7.1580C1.8461 -7.5990 3.0106 -7.2054 3.5201 -6.2620L3.5201 -6.2620C2.9722 -7.0918 1.8076 -7.4853 0.8687 -7.1580z"/>
<rect transform="translate(73.7575, 27.0047)" x="0.0000" y="-0.5500" width="0.6600" height="0.1300" ry="0.0400" fill="currentColor"/>
<rect transform="translate(72.1442, 29.8047)" x="0.0000" y="-0.5500" width="0.6600" height="0.1300" ry="0.0400" fill="currentColor"/>
<rect transform="translate(66.9242, 38.2047)" x="0.0000" y="-0.0800" width="9.5349" height="0.0800" ry="0.0320" fill="currentColor"/>
<path transform="translate(63.8533, 15.3283)" stroke-width="0.0800" stroke-linejoin="round" stroke-linecap="round" stroke="currentColor" fill="currentColor" d="M1.5521 1.1657C2.7685 2.1009 9.9603 2.1009 11.1767 1.1657L11.1767 1.1657C9.9603 1.9809 2.7685 1.9809 1.5521 1.1657z"/>
<rect transform="translate(33.7200, 29.8047)" x="0.0000" y="-0.5500" width="0.6600" height="0.1300" ry="0.0400" fill="currentColor"/>
<rect transform="translate(27.2096, 27.0047)" x="0.0000" y="-0.5500" width="0.6600" height="0.1300" ry="0.0400" fill="currentColor"/>
<rect transform="translate(27.8925, 32.6047)" x="0.0000" y="-0.5500" width="0.6600" height="0.1300" ry="0.0400" fill="currentColor"/>
<rect transform="translate(97.4614, 15.3283)" x="-0.0650" y="3.1248" width="0.1300" height="3.3752" ry="0.0400" fill="currentColor"/>
<rect transform="translate(97.9614, 15.3283)" x="-0.0650" y="3.1248" width="0.1300" height="3.3752" ry="0.0400" fill="currentColor"/>
<path transform="translate(66.5047, 15.3283)" stroke-width="0.0800" stroke-linejoin="round" stroke-linecap="round" stroke="currentColor" fill="currentColor" d="M1.5521 -1.2700C1.8926 -1.7038 2.4838 -1.7038 2.8244 -1.2700L2.8244 -1.2700C2.4838 -1.5838 1.8926 -1.5838 1.5521 -1.2700z"/>
<polygon transform="translate(64.5258, 9.1383)" stroke-linejoin="round" stroke-linecap="round" stroke-width="0.0800" fill="currentColor" stroke="currentColor" points="2.7415 0.7400 2.7415 1.1400 0.0400 0.2000 0.0400 -0.2000"/>
<path transform="translate(69.4062, 15.3283)" stroke-width="0.0800" stroke-linejoin="round" stroke-linecap="round" stroke="currentColor" fill="currentColor" d="M1.5521 -1.2042C2.3449 -1.9847 4.8310 -1.9847 5.6238 -1.2042L5.6238 -1.2042C4.8310 -1.8647 2.3449 -1.8647 1.5521 -1.2042z"/>
<rect transform="translate(83.6840, 24.2047)" x="0.0000" y="-0.5500" width="0.6600" height="0.1300" ry="0.0400" fill="currentColor"/>
<path transform="translate(98.7760, 18.3283) scale(0.0040, -0.0040)" d="M0 0c0 31 25 56 56 56s56 -25 56 -56s-25 -56 -56 -56s-56 25 -56 56z" fill="currentColor"/>
<rect transform="translate(87.9704, 24.2047)" x="0.0000" y="-0.5500" width="0.6600" height="0.1300" ry="0.0400" fill="currentColor"/>
<rect transform="translate(88.4399, 27.0047)" x="0.0000" y="-0.5500" width="0.6600" height="0.1300" ry="0.0400" fill="currentColor"/>
<rect transform="translate(87.8082, 32.6047)" x="0.0000" y="-0.5500" width="0.6600" height="0.1300" ry="0.0400" fill="currentColor"/>
<rect transform="translate(24.0881, 15.3283)" x="-0.0650" y="-6.5000" width="0.1300" height="3.3752" ry="0.0400" fill="currentColor"/>
<text transform="translate(21.5615, 38.2047)" font-family="serif" font-size="2.4696" text-anchor="start" fill="currentColor">
<tspan>God</tspan>
</text>
<text transform="translate(21.1347, 35.4047)" font-family="serif" font-size="2.4696" text-anchor="start" fill="currentColor">
<tspan>Lord</tspan>
</text>
<text transform="translate(21.7663, 32.6047)" font-family="serif" font-size="2.4696" text-anchor="start" fill="currentColor">
<tspan>hap</tspan>
</text>
<text transform="translate(18.6251, 29.8047)" font-family="serif" font-size="2.4696" text-anchor="start" fill="currentColor">
<tspan>Heav’n’s</tspan>
</text>
<text transform="translate(22.2955, 27.0047)" font-family="serif" font-size="2.4696" text-anchor="start" fill="currentColor">
<tspan>ref</tspan>
</text>
<text transform="translate(22.5345, 24.2047)" font-family="serif" font-size="2.4696" text-anchor="start" fill="currentColor">
<tspan>on</tspan>
</text>
<g color="rgb(100.0000%, 100.0000%, 100.0000%)">
<rect transform="translate(23.3506, 14.5783)" x="0.1229" y="-0.6603" width="1.2292" height="1.3207" ry="0.0000" fill="currentColor"/>
</g>
<text transform="translate(23.4735, 15.2139)" font-family="serif" font-weight="bold" font-size="1.7461" text-anchor="start" fill="currentColor">
<tspan>3</tspan>
</text>
<g color="rgb(100.0000%, 100.0000%, 100.0000%)">
<rect transform="translate(23.3506, 13.0783)" x="0.1229" y="-0.6480" width="1.2292" height="1.2959" ry="0.0000" fill="currentColor"/>
</g>
<text transform="translate(23.4735, 13.7263)" font-family="serif" font-weight="bold" font-size="1.7461" text-anchor="start" fill="currentColor">
<tspan>2</tspan>
</text>
<text transform="translate(23.3506, 7.4898)" font-family="sans-serif" font-size="2.6163" text-anchor="start" fill="currentColor">
<tspan>E</tspan>
</text>
<text transform="translate(24.9894, 7.4898)" font-family="sans-serif" font-size="2.6163" text-anchor="start" fill="currentColor">
<tspan/>
</text>
<text transform="translate(24.9894, 7.4898)" font-family="sans-serif" font-size="2.6163" text-anchor="start" fill="currentColor">
<tspan>m</tspan>
</text>
<text transform="translate(27.5502, 6.3006)" font-family="sans-serif" font-size="1.8500" text-anchor="start" fill="currentColor">
<tspan/>
</text>
<rect transform="translate(16.9289, 15.3283)" x="-0.0650" y="1.6414" width="0.1300" height="3.8586" ry="0.0400" fill="currentColor"/>
<rect transform="translate(16.9289, 15.3283)" x="-0.0650" y="-6.5000" width="0.1300" height="3.3586" ry="0.0400" fill="currentColor"/>
<text transform="translate(14.8974, 38.2047)" font-family="serif" font-size="2.4696" text-anchor="start" fill="currentColor">
<tspan>the</tspan>
</text>
<text transform="translate(14.8974, 35.4047)" font-family="serif" font-size="2.4696" text-anchor="start" fill="currentColor">
<tspan>the</tspan>
</text>
<text transform="translate(14.6072, 32.6047)" font-family="serif" font-size="2.4696" text-anchor="start" fill="currentColor">
<tspan>this</tspan>
</text>
<text transform="translate(15.6827, 29.8047)" font-family="serif" font-size="2.4696" text-anchor="start" fill="currentColor">
<tspan>to</tspan>
</text>
<text transform="translate(13.9072, 27.0047)" font-family="serif" font-size="2.4696" text-anchor="start" fill="currentColor">
<tspan>their</tspan>
</text>
<text transform="translate(30.0351, 32.6047)" font-family="serif" font-size="2.4696" text-anchor="start" fill="currentColor">
<tspan>py</tspan>
</text>
<text transform="translate(37.4811, 7.4898)" font-family="sans-serif" font-size="2.6163" text-anchor="start" fill="currentColor">
<tspan>D</tspan>
</text>
<text transform="translate(39.4955, 7.4898)" font-family="sans-serif" font-size="2.6163" text-anchor="start" fill="currentColor">
<tspan/>
</text>
<text transform="translate(39.4955, 7.4898)" font-family="sans-serif" font-size="2.6163" text-anchor="start" fill="currentColor">
<tspan/>
</text>
<text transform="translate(39.4955, 6.3006)" font-family="sans-serif" font-size="1.8500" text-anchor="start" fill="currentColor">
<tspan/>
</text>
<rect transform="translate(31.5204, 15.3283)" x="-0.0650" y="0.1414" width="0.1300" height="4.3586" ry="0.0400" fill="currentColor"/>
<rect transform="translate(31.5204, 15.3283)" x="-0.0650" y="-6.5000" width="0.1300" height="3.3586" ry="0.0400" fill="currentColor"/>
<text transform="translate(30.3083, 38.2047)" font-family="serif" font-size="2.4696" text-anchor="start" fill="currentColor">
<tspan>of</tspan>
</text>
<text transform="translate(30.3083, 35.4047)" font-family="serif" font-size="2.4696" text-anchor="start" fill="currentColor">
<tspan>of</tspan>
</text>
<text transform="translate(15.3412, 24.2047)" font-family="serif" font-size="2.4696" text-anchor="start" fill="currentColor">
<tspan>up</tspan>
</text>
<text transform="translate(30.0010, 29.8047)" font-family="serif" font-size="2.4696" text-anchor="start" fill="currentColor">
<tspan>de</tspan>
</text>
<text transform="translate(29.1986, 27.0047)" font-family="serif" font-size="2.4696" text-anchor="start" fill="currentColor">
<tspan>uge</tspan>
</text>
<text transform="translate(28.9938, 24.2047)" font-family="serif" font-size="2.4696" text-anchor="start" fill="currentColor">
<tspan>that</tspan>
</text>
<g color="rgb(100.0000%, 100.0000%, 100.0000%)">
<rect transform="translate(30.7829, 14.5783)" x="0.1229" y="-0.6603" width="1.2292" height="1.3207" ry="0.0000" fill="currentColor"/>
</g>
<text transform="translate(30.9058, 15.2139)" font-family="serif" font-weight="bold" font-size="1.7461" text-anchor="start" fill="currentColor">
<tspan>3</tspan>
</text>
<g color="rgb(100.0000%, 100.0000%, 100.0000%)">
<rect transform="translate(30.7829, 13.0783)" x="0.1229" y="-0.6603" width="1.2292" height="1.3207" ry="0.0000" fill="currentColor"/>
</g>
<text transform="translate(30.9058, 13.7139)" font-family="serif" font-weight="bold" font-size="1.7461" text-anchor="start" fill="currentColor">
<tspan>3</tspan>
</text>
<rect transform="translate(24.0881, 15.3283)" x="-0.0650" y="0.1414" width="0.1300" height="4.3586" ry="0.0400" fill="currentColor"/>
<path transform="translate(5.6906, 15.3283)" stroke-width="0.0800" stroke-linejoin="round" stroke-linecap="round" stroke="currentColor" fill="currentColor" d="M3.5650 3.0000C4.0814 3.5985 5.2065 3.5985 5.7229 3.0000L5.7229 3.0000C5.2065 3.4785 4.0814 3.4785 3.5650 3.0000z"/>
<path transform="translate(5.6906, 15.3283)" stroke-width="0.0800" stroke-linejoin="round" stroke-linecap="round" stroke="currentColor" fill="currentColor" d="M3.5650 -1.2782C4.0814 -1.8767 5.2065 -1.8767 5.7229 -1.2782L5.7229 -1.2782C5.2065 -1.7567 4.0814 -1.7567 3.5650 -1.2782z"/>
<rect transform="translate(11.6935, 38.2047)" x="0.0000" y="-0.0800" width="1.4200" height="0.0800" ry="0.0320" fill="currentColor"/>
<rect transform="translate(11.6935, 35.4047)" x="0.0000" y="-0.0800" width="1.4200" height="0.0800" ry="0.0320" fill="currentColor"/>
<rect transform="translate(11.6935, 32.6047)" x="0.0000" y="-0.0800" width="1.4200" height="0.0800" ry="0.0320" fill="currentColor"/>
<rect transform="translate(12.0391, 29.8047)" x="0.0000" y="-0.5500" width="0.6600" height="0.1300" ry="0.0400" fill="currentColor"/>
<rect transform="translate(11.6935, 27.0047)" x="0.0000" y="-0.0800" width="1.4200" height="0.0800" ry="0.0320" fill="currentColor"/>
<rect transform="translate(11.6935, 24.2047)" x="0.0000" y="-0.0800" width="1.4200" height="0.0800" ry="0.0320" fill="currentColor"/>
<g color="rgb(100.0000%, 100.0000%, 100.0000%)">
<rect transform="translate(11.4906, 14.5783)" x="0.1229" y="-0.6603" width="1.2292" height="1.3207" ry="0.0000" fill="currentColor"/>
</g>
<text transform="translate(11.6135, 15.2139)" font-family="serif" font-weight="bold" font-size="1.7461" text-anchor="start" fill="currentColor">
<tspan>3</tspan>
</text>
<g color="rgb(100.0000%, 100.0000%, 100.0000%)">
<rect transform="translate(16.1914, 16.0783)" x="0.1229" y="-0.6603" width="1.2292" height="1.3207" ry="0.0000" fill="currentColor"/>
</g>
<text transform="translate(16.3143, 16.7139)" font-family="serif" font-weight="bold" font-size="1.7461" text-anchor="start" fill="currentColor">
<tspan>0</tspan>
</text>
<g color="rgb(100.0000%, 100.0000%, 100.0000%)">
<rect transform="translate(16.1914, 13.0783)" x="0.1229" y="-0.6603" width="1.2292" height="1.3207" ry="0.0000" fill="currentColor"/>
</g>
<text transform="translate(16.3143, 13.7139)" font-family="serif" font-weight="bold" font-size="1.7461" text-anchor="start" fill="currentColor">
<tspan>0</tspan>
</text>
<rect transform="translate(12.2280, 15.3283)" x="-0.0650" y="3.1248" width="0.1300" height="3.3752" ry="0.0400" fill="currentColor"/>
<rect transform="translate(12.2280, 15.3283)" x="-0.0650" y="-5.5000" width="0.1300" height="3.8586" ry="0.0400" fill="currentColor"/>
<g color="rgb(100.0000%, 100.0000%, 100.0000%)">
<rect transform="translate(11.4906, 17.5783)" x="0.1229" y="-0.6480" width="1.2292" height="1.2959" ry="0.0000" fill="currentColor"/>
</g>
<text transform="translate(11.6135, 18.2263)" font-family="serif" font-weight="bold" font-size="1.7461" text-anchor="start" fill="currentColor">
<tspan>4</tspan>
</text>
<path transform="translate(6.4906, 16.8283) scale(0.0040, -0.0040)" d="M266 -635h-6c-108 0 -195 88 -195 197c0 58 53 103 112 103c54 0 95 -47 95 -103c0 -52 -43 -95 -95 -95c-11 0 -21 2 -31 6c26 -39 68 -65 117 -65h4zM461 -203c68 24 113 95 113 164c0 90 -66 179 -173 190c24 -116 46 -231 60 -354zM74 28c0 -135 129 -247 264 -247
c28 0 55 2 82 6c-14 127 -37 245 -63 364c-79 -8 -124 -61 -124 -119c0 -44 25 -91 81 -123c5 -5 7 -10 7 -15c0 -11 -10 -22 -22 -22c-3 0 -6 1 -9 2c-80 43 -117 115 -117 185c0 88 58 174 160 197c-14 58 -29 117 -46 175c-107 -121 -213 -243 -213 -403zM335 -262
c-188 0 -333 172 -333 374c0 177 131 306 248 441c-19 62 -37 125 -45 190c-6 52 -7 104 -7 156c0 115 55 224 149 292c6 5 14 5 20 0c71 -84 133 -245 133 -358c0 -143 -86 -255 -180 -364c21 -68 39 -138 56 -207c4 0 9 1 13 1c155 0 256 -128 256 -261
c0 -76 -33 -154 -107 -210c-22 -17 -47 -28 -73 -36c3 -35 5 -70 5 -105c0 -19 -1 -39 -2 -58c-7 -119 -88 -225 -202 -228l1 43c93 2 153 92 159 191c1 18 2 37 2 55c0 31 -1 61 -4 92c-29 -5 -58 -8 -89 -8zM428 916c0 55 -4 79 -20 129c-99 -48 -162 -149 -162 -259
c0 -74 18 -133 36 -194c80 97 146 198 146 324z" fill="currentColor"/>
<text transform="translate(3.4371, 12.0036)" font-family="serif" font-size="1.7461" text-anchor="start" fill="currentColor">
<tspan>20</tspan>
</text>
<rect transform="translate(54.0282, 15.3283)" x="-0.0650" y="0.1414" width="0.1300" height="4.3586" ry="0.0400" fill="currentColor"/>
<rect transform="translate(54.5282, 15.3283)" x="-0.0650" y="0.1414" width="0.1300" height="4.3586" ry="0.0400" fill="currentColor"/>
<rect transform="translate(54.2782, 15.3283)" x="-0.0650" y="-6.5000" width="0.1300" height="3.3586" ry="0.0400" fill="currentColor"/>
<text transform="translate(52.6735, 38.2047)" font-family="serif" font-size="2.4696" text-anchor="start" fill="currentColor">
<tspan>un</tspan>
</text>
<text transform="translate(50.9322, 35.4047)" font-family="serif" font-size="2.4696" text-anchor="start" fill="currentColor">
<tspan>came</tspan>
</text>
<text transform="translate(50.2664, 32.6047)" font-family="serif" font-size="2.4696" text-anchor="start" fill="currentColor">
<tspan>prince</tspan>
</text>
<text transform="translate(50.6249, 29.8047)" font-family="serif" font-size="2.4696" text-anchor="start" fill="currentColor">
<tspan>sweet</tspan>
</text>
<text transform="translate(52.1955, 27.0047)" font-family="serif" font-size="2.4696" text-anchor="start" fill="currentColor">
<tspan>but</tspan>
</text>
<text transform="translate(51.8540, 24.2047)" font-family="serif" font-size="2.4696" text-anchor="start" fill="currentColor">
<tspan>was</tspan>
</text>
<g color="rgb(100.0000%, 100.0000%, 100.0000%)">
<rect transform="translate(37.4811, 13.0783)" x="0.1229" y="-0.6488" width="1.2292" height="1.2976" ry="0.0000" fill="currentColor"/>
</g>
<text transform="translate(37.6040, 13.7024)" font-family="serif" font-weight="bold" font-size="1.7461" text-anchor="start" fill="currentColor">
<tspan>5</tspan>
</text>
<g color="rgb(100.0000%, 100.0000%, 100.0000%)">
<rect transform="translate(53.5407, 13.0783)" x="0.1229" y="-0.6603" width="1.2292" height="1.3207" ry="0.0000" fill="currentColor"/>
</g>
<text transform="translate(53.6636, 13.7139)" font-family="serif" font-weight="bold" font-size="1.7461" text-anchor="start" fill="currentColor">
<tspan>3</tspan>
</text>
<text transform="translate(53.5407, 7.4898)" font-family="sans-serif" font-size="2.6163" text-anchor="start" fill="currentColor">
<tspan>F</tspan>
</text>
<text transform="translate(55.0430, 7.4898)" font-family="sans-serif" font-size="2.6163" text-anchor="start" fill="currentColor">
<tspan/>
</text>
<text transform="translate(55.0430, 7.4898)" font-family="sans-serif" font-size="2.6163" text-anchor="start" fill="currentColor">
<tspan/>
</text>
<text transform="translate(55.0430, 6.3006)" font-family="sans-serif" font-size="1.8500" text-anchor="start" fill="currentColor">
<tspan/>
</text>
<rect transform="translate(64.5908, 15.3283)" x="-0.0650" y="-6.1680" width="0.1300" height="3.0433" ry="0.0400" fill="currentColor"/>
<text transform="translate(63.9762, 38.2047)" font-family="serif" font-size="2.4696" text-anchor="start" fill="currentColor">
<tspan>us</tspan>
</text>
<text transform="translate(63.9762, 35.4047)" font-family="serif" font-size="2.4696" text-anchor="start" fill="currentColor">
<tspan>earth</tspan>
</text>
<text transform="translate(63.9762, 32.6047)" font-family="serif" font-size="2.4696" text-anchor="start" fill="currentColor">
<tspan>babe</tspan>
</text>
<text transform="translate(63.9762, 29.8047)" font-family="serif" font-size="2.4696" text-anchor="start" fill="currentColor">
<tspan>va</tspan>
</text>
<text transform="translate(63.9762, 27.0047)" font-family="serif" font-size="2.4696" text-anchor="start" fill="currentColor">
<tspan>hum</tspan>
</text>
<text transform="translate(63.9762, 24.2047)" font-family="serif" font-size="2.4696" text-anchor="start" fill="currentColor">
<tspan>blessed</tspan>
</text>
<g color="rgb(100.0000%, 100.0000%, 100.0000%)">
<rect transform="translate(63.8533, 16.0783)" x="0.1229" y="-0.6480" width="1.2292" height="1.2959" ry="0.0000" fill="currentColor"/>
</g>
<text transform="translate(63.9762, 16.7263)" font-family="serif" font-weight="bold" font-size="1.7461" text-anchor="start" fill="currentColor">
<tspan>2</tspan>
</text>
<g color="rgb(100.0000%, 100.0000%, 100.0000%)">
<rect transform="translate(63.8533, 13.0783)" x="0.1229" y="-0.6480" width="1.2292" height="1.2959" ry="0.0000" fill="currentColor"/>
</g>
<text transform="translate(63.9762, 13.7263)" font-family="serif" font-weight="bold" font-size="1.7461" text-anchor="start" fill="currentColor">
<tspan>2</tspan>
</text>
<text transform="translate(63.8533, 7.4898)" font-family="sans-serif" font-size="2.6163" text-anchor="start" fill="currentColor">
<tspan>G</tspan>
</text>
<text transform="translate(65.8677, 7.4898)" font-family="sans-serif" font-size="2.6163" text-anchor="start" fill="currentColor">
<tspan/>
</text>
<text transform="translate(65.8677, 7.4898)" font-family="sans-serif" font-size="2.6163" text-anchor="start" fill="currentColor">
<tspan/>
</text>
<text transform="translate(65.8677, 6.3006)" font-family="sans-serif" font-size="1.8500" text-anchor="start" fill="currentColor">
<tspan/>
</text>
<g color="rgb(100.0000%, 100.0000%, 100.0000%)">
<rect transform="translate(53.5407, 14.5783)" x="0.1229" y="-0.6603" width="1.2292" height="1.3207" ry="0.0000" fill="currentColor"/>
</g>
<text transform="translate(53.6636, 15.2139)" font-family="serif" font-weight="bold" font-size="1.7461" text-anchor="start" fill="currentColor">
<tspan>0</tspan>
</text>
<rect transform="translate(60.1399, 15.3283)" x="-0.0650" y="-6.5000" width="0.1300" height="3.3741" ry="0.0400" fill="currentColor"/>
<text transform="translate(58.8937, 38.2047)" font-family="serif" font-size="2.4696" text-anchor="start" fill="currentColor">
<tspan>to</tspan>
</text>
<text transform="translate(58.8937, 35.4047)" font-family="serif" font-size="2.4696" text-anchor="start" fill="currentColor">
<tspan>to</tspan>
</text>
<text transform="translate(59.0473, 32.6047)" font-family="serif" font-size="2.4696" text-anchor="start" fill="currentColor">
<tspan>ly</tspan>
</text>
<text transform="translate(58.3816, 29.8047)" font-family="serif" font-size="2.4696" text-anchor="start" fill="currentColor">
<tspan>sal</tspan>
</text>
<text transform="translate(59.4058, 27.0047)" font-family="serif" font-size="2.4696" text-anchor="start" fill="currentColor">
<tspan>a</tspan>
</text>
<text transform="translate(59.4058, 24.2047)" font-family="serif" font-size="2.4696" text-anchor="start" fill="currentColor">
<tspan>a</tspan>
</text>
<g color="rgb(100.0000%, 100.0000%, 100.0000%)">
<rect transform="translate(59.4024, 13.0783)" x="0.1229" y="-0.6488" width="1.2292" height="1.2976" ry="0.0000" fill="currentColor"/>
</g>
<text transform="translate(59.5254, 13.7024)" font-family="serif" font-weight="bold" font-size="1.7461" text-anchor="start" fill="currentColor">
<tspan>5</tspan>
</text>
<text transform="translate(35.8115, 35.4047)" font-family="serif" font-size="2.4696" text-anchor="start" fill="currentColor">
<tspan>Life</tspan>
</text>
<text transform="translate(33.3873, 38.2047)" font-family="serif" font-size="2.4696" text-anchor="start" fill="currentColor">
<tspan>Heav’n,</tspan>
</text>
<path transform="translate(39.2832, 12.3283) scale(0.0040, -0.0040)" d="M0 0c0 31 25 56 56 56s56 -25 56 -56s-25 -56 -56 -56s-56 25 -56 56z" fill="currentColor"/>
<rect transform="translate(37.9686, 15.3283)" x="-0.0650" y="0.1248" width="0.1300" height="4.3752" ry="0.0400" fill="currentColor"/>
<rect transform="translate(38.4686, 15.3283)" x="-0.0650" y="0.1248" width="0.1300" height="4.3752" ry="0.0400" fill="currentColor"/>
<path transform="translate(39.2832, 15.3283) scale(0.0040, -0.0040)" d="M0 0c0 31 25 56 56 56s56 -25 56 -56s-25 -56 -56 -56s-56 25 -56 56z" fill="currentColor"/>
<rect transform="translate(37.9686, 15.3283)" x="-0.0650" y="-6.5000" width="0.1300" height="3.3741" ry="0.0400" fill="currentColor"/>
<rect transform="translate(38.4686, 15.3283)" x="-0.0650" y="-6.5000" width="0.1300" height="3.3741" ry="0.0400" fill="currentColor"/>
<text transform="translate(45.4631, 32.6047)" font-family="serif" font-size="2.4696" text-anchor="start" fill="currentColor">
<tspan>A</tspan>
</text>
<g color="rgb(100.0000%, 100.0000%, 100.0000%)">
<rect transform="translate(37.4811, 14.5783)" x="0.1229" y="-0.6480" width="1.2292" height="1.2959" ry="0.0000" fill="currentColor"/>
</g>
<text transform="translate(37.6040, 15.2263)" font-family="serif" font-weight="bold" font-size="1.7461" text-anchor="start" fill="currentColor">
<tspan>2</tspan>
</text>
<rect transform="translate(46.3508, 15.3283)" x="-0.0650" y="-6.5000" width="0.1300" height="3.3752" ry="0.0400" fill="currentColor"/>
<text transform="translate(43.4999, 38.2047)" font-family="serif" font-size="2.4696" text-anchor="start" fill="currentColor">
<tspan>That</tspan>
</text>
<text transform="translate(43.5340, 35.4047)" font-family="serif" font-size="2.4696" text-anchor="start" fill="currentColor">
<tspan>Who</tspan>
</text>
<text transform="translate(34.4970, 24.2047)" font-family="serif" font-size="2.4696" text-anchor="start" fill="currentColor">
<tspan>morn,</tspan>
</text>
<text transform="translate(36.6992, 27.0047)" font-family="serif" font-size="2.4696" text-anchor="start" fill="currentColor">
<tspan>all</tspan>
</text>
<text transform="translate(42.5268, 29.8047)" font-family="serif" font-size="2.4696" text-anchor="start" fill="currentColor">
<tspan>Man’s</tspan>
</text>
<text transform="translate(43.8242, 27.0047)" font-family="serif" font-size="2.4696" text-anchor="start" fill="currentColor">
<tspan>Was</tspan>
</text>
<text transform="translate(42.6634, 24.2047)" font-family="serif" font-size="2.4696" text-anchor="start" fill="currentColor">
<tspan>There</tspan>
</text>
<g color="rgb(100.0000%, 100.0000%, 100.0000%)">
<rect transform="translate(45.6133, 13.0783)" x="0.1229" y="-0.6480" width="1.2292" height="1.2959" ry="0.0000" fill="currentColor"/>
</g>
<text transform="translate(45.7363, 13.7263)" font-family="serif" font-weight="bold" font-size="1.7461" text-anchor="start" fill="currentColor">
<tspan>2</tspan>
</text>
<text transform="translate(35.0603, 29.8047)" font-family="serif" font-size="2.4696" text-anchor="start" fill="currentColor">
<tspan>cree,</tspan>
</text>
<text transform="translate(34.8896, 32.6047)" font-family="serif" font-size="2.4696" text-anchor="start" fill="currentColor">
<tspan>morn</tspan>
</text>
<text transform="translate(4.9166, 165.1062)" font-family="serif" font-size="2.2001" text-anchor="start" fill="currentColor">
<tspan>Loosely adapted from https://www.music-for-music-teachers.com/support-files/wexford-carol-g.pdf</tspan>
</text>
</svg>
