<svg xmlns="http://www.w3.org/2000/svg" xmlns:xlink="http://www.w3.org/1999/xlink" version="1.2" width="210.00mm" height="297.00mm" viewBox="0 0 119.5016 169.0094">
<style type="text/css">
<![CDATA[
tspan { white-space: pre; }
]]>
</style>
<!-- Page: 2/2 -->
<g transform="translate(5.6906, 4.5168)">
<text font-family="serif" font-size="2.2001" text-anchor="start" fill="currentColor">
<tspan>2</tspan>
</text>
</g>
<g transform="translate(51.5223, 4.5168)">
<text font-family="serif" font-size="2.2001" text-anchor="start" fill="currentColor">
<tspan>Low-G Ukulele</tspan>
</text>
</g>
<g transform="translate(21.3383, 27.0779)">
<rect x="0.0000" y="-2.3000" width="0.1900" height="4.5500" ry="0.0000" fill="currentColor"/>
</g>
<g transform="translate(113.2110, 10.3131)">
<rect x="0.0000" y="3.9918" width="0.6000" height="10.5230" ry="0.0000" fill="currentColor"/>
</g>
<g transform="translate(112.7210, 10.3131)">
<rect x="0.0000" y="3.9918" width="0.1900" height="10.5230" ry="0.0000" fill="currentColor"/>
</g>
<g transform="translate(113.2110, 27.0779)">
<rect x="0.0000" y="-2.3000" width="0.6000" height="4.5500" ry="0.0000" fill="currentColor"/>
</g>
<g transform="translate(112.7210, 27.0779)">
<rect x="0.0000" y="-2.3000" width="0.1900" height="4.5500" ry="0.0000" fill="currentColor"/>
</g>
<g transform="translate(57.4315, 12.2549)">
<rect x="0.0000" y="-2.0000" width="0.1900" height="4.0500" ry="0.0000" fill="currentColor"/>
</g>
<g transform="translate(113.2110, 12.2549)">
<rect x="0.0000" y="-2.0000" width="0.6000" height="4.0500" ry="0.0000" fill="currentColor"/>
</g>
<g transform="translate(112.7210, 12.2549)">
<rect x="0.0000" y="-2.0000" width="0.1900" height="4.0500" ry="0.0000" fill="currentColor"/>
</g>
<g transform="translate(102.7863, 10.3131)">
<rect x="0.0000" y="3.9918" width="0.1900" height="10.5230" ry="0.0000" fill="currentColor"/>
</g>
<g transform="translate(102.7863, 27.0779)">
<rect x="0.0000" y="-2.3000" width="0.1900" height="4.5500" ry="0.0000" fill="currentColor"/>
</g>
<g transform="translate(69.3127, 12.2549)">
<rect x="0.0000" y="-2.0000" width="0.1900" height="4.0500" ry="0.0000" fill="currentColor"/>
</g>
<g transform="translate(102.7863, 12.2549)">
<rect x="0.0000" y="-2.0000" width="0.1900" height="4.0500" ry="0.0000" fill="currentColor"/>
</g>
<g transform="translate(69.3127, 27.0779)">
<rect x="0.0000" y="-2.3000" width="0.1900" height="4.5500" ry="0.0000" fill="currentColor"/>
</g>
<g transform="translate(69.3127, 10.3131)">
<rect x="0.0000" y="3.9918" width="0.1900" height="10.5230" ry="0.0000" fill="currentColor"/>
</g>
<g transform="translate(46.3176, 10.3131)">
<rect x="0.0000" y="3.9918" width="0.1900" height="10.5230" ry="0.0000" fill="currentColor"/>
</g>
<g transform="translate(46.3176, 27.0779)">
<rect x="0.0000" y="-2.3000" width="0.1900" height="4.5500" ry="0.0000" fill="currentColor"/>
</g>
<g transform="translate(21.3383, 12.2549)">
<rect x="0.0000" y="-2.0000" width="0.1900" height="4.0500" ry="0.0000" fill="currentColor"/>
</g>
<g transform="translate(21.3383, 10.3131)">
<rect x="0.0000" y="3.9918" width="0.1900" height="10.5230" ry="0.0000" fill="currentColor"/>
</g>
<g transform="translate(46.3176, 12.2549)">
<rect x="0.0000" y="-2.0000" width="0.1900" height="4.0500" ry="0.0000" fill="currentColor"/>
</g>
<g transform="translate(91.9227, 10.3131)">
<rect x="0.0000" y="3.9918" width="0.1900" height="10.5230" ry="0.0000" fill="currentColor"/>
</g>
<g transform="translate(91.9227, 27.0779)">
<rect x="0.0000" y="-2.3000" width="0.1900" height="4.5500" ry="0.0000" fill="currentColor"/>
</g>
<g transform="translate(82.1072, 12.2549)">
<rect x="0.0000" y="-2.0000" width="0.1900" height="4.0500" ry="0.0000" fill="currentColor"/>
</g>
<g transform="translate(91.9227, 12.2549)">
<rect x="0.0000" y="-2.0000" width="0.1900" height="4.0500" ry="0.0000" fill="currentColor"/>
</g>
<g transform="translate(82.1072, 27.0779)">
<rect x="0.0000" y="-2.3000" width="0.1900" height="4.5500" ry="0.0000" fill="currentColor"/>
</g>
<g transform="translate(82.1072, 10.3131)">
<rect x="0.0000" y="3.9918" width="0.1900" height="10.5230" ry="0.0000" fill="currentColor"/>
</g>
<g transform="translate(34.8285, 12.2549)">
<rect x="0.0000" y="-2.0000" width="0.1900" height="4.0500" ry="0.0000" fill="currentColor"/>
</g>
<g transform="translate(34.8285, 27.0779)">
<rect x="0.0000" y="-2.3000" width="0.1900" height="4.5500" ry="0.0000" fill="currentColor"/>
</g>
<g transform="translate(34.8285, 10.3131)">
<rect x="0.0000" y="3.9918" width="0.1900" height="10.5230" ry="0.0000" fill="currentColor"/>
</g>
<g transform="translate(5.6906, 15.2549)">
<rect x="100.1745" y="-0.1000" width="1.9563" height="0.2000" ry="0.1000" fill="currentColor"/>
</g>
<g transform="translate(5.6906, 15.2549)">
<rect x="93.4124" y="-0.1000" width="1.9563" height="0.2000" ry="0.1000" fill="currentColor"/>
</g>
<g transform="translate(5.6906, 15.2549)">
<rect x="88.1671" y="-0.1000" width="1.9563" height="0.2000" ry="0.1000" fill="currentColor"/>
</g>
<g transform="translate(5.6906, 15.2549)">
<rect x="82.5488" y="-0.1000" width="1.9563" height="0.2000" ry="0.1000" fill="currentColor"/>
</g>
<g transform="translate(5.6906, 16.2549)">
<rect x="82.5488" y="-0.1000" width="1.9563" height="0.2000" ry="0.1000" fill="currentColor"/>
</g>
<g transform="translate(5.6906, 15.2549)">
<rect x="7.0240" y="-0.1000" width="1.9563" height="0.2000" ry="0.1000" fill="currentColor"/>
</g>
<g transform="translate(5.6906, 14.2549)">
<line stroke-linejoin="round" stroke-linecap="round" stroke-width="0.1000" stroke="currentColor" x1="0.0500" y1="0" x2="108.0705" y2="0"/>
</g>
<g transform="translate(5.6906, 13.2549)">
<line stroke-linejoin="round" stroke-linecap="round" stroke-width="0.1000" stroke="currentColor" x1="0.0500" y1="0" x2="108.0705" y2="0"/>
</g>
<g transform="translate(5.6906, 12.2549)">
<line stroke-linejoin="round" stroke-linecap="round" stroke-width="0.1000" stroke="currentColor" x1="0.0500" y1="0" x2="108.0705" y2="0"/>
</g>
<g transform="translate(5.6906, 11.2549)">
<line stroke-linejoin="round" stroke-linecap="round" stroke-width="0.1000" stroke="currentColor" x1="0.0500" y1="0" x2="108.0705" y2="0"/>
</g>
<g transform="translate(5.6906, 10.2549)">
<line stroke-linejoin="round" stroke-linecap="round" stroke-width="0.1000" stroke="currentColor" x1="0.0500" y1="0" x2="108.0705" y2="0"/>
</g>
<g transform="translate(57.4315, 10.3131)">
<rect x="0.0000" y="3.9918" width="0.1900" height="10.5230" ry="0.0000" fill="currentColor"/>
</g>
<g transform="translate(57.4315, 27.0779)">
<rect x="0.0000" y="-2.3000" width="0.1900" height="4.5500" ry="0.0000" fill="currentColor"/>
</g>
<g transform="translate(5.6906, 29.3279)">
<line stroke-linejoin="round" stroke-linecap="round" stroke-width="0.1000" stroke="currentColor" x1="0.0500" y1="0" x2="108.0705" y2="0"/>
</g>
<g transform="translate(5.6906, 27.8279)">
<line stroke-linejoin="round" stroke-linecap="round" stroke-width="0.1000" stroke="currentColor" x1="0.0500" y1="0" x2="108.0705" y2="0"/>
</g>
<g transform="translate(5.6906, 26.3279)">
<line stroke-linejoin="round" stroke-linecap="round" stroke-width="0.1000" stroke="currentColor" x1="0.0500" y1="0" x2="108.0705" y2="0"/>
</g>
<g transform="translate(5.6906, 24.8279)">
<line stroke-linejoin="round" stroke-linecap="round" stroke-width="0.1000" stroke="currentColor" x1="0.0500" y1="0" x2="108.0705" y2="0"/>
</g>
<g color="rgb(100.0000%, 100.0000%, 100.0000%)">
<g transform="translate(83.5076, 26.3279)">
<rect x="0.1229" y="-0.6603" width="1.2292" height="1.3207" ry="0.0000" fill="currentColor"/>
</g>
</g>
<g transform="translate(83.6305, 26.9635)">
<text font-family="serif" font-weight="bold" font-size="1.7461" text-anchor="start" fill="currentColor">
<tspan>3</tspan>
</text>
</g>
<g transform="translate(64.2345, 22.1312)">
<text font-family="serif" font-size="2.4696" text-anchor="start" fill="currentColor">
<tspan>ing,</tspan>
</text>
</g>
<g color="rgb(100.0000%, 100.0000%, 100.0000%)">
<g transform="translate(83.5076, 27.8279)">
<rect x="0.1229" y="-0.6480" width="1.2292" height="1.2959" ry="0.0000" fill="currentColor"/>
</g>
</g>
<g transform="translate(83.6305, 28.4758)">
<text font-family="serif" font-weight="bold" font-size="1.7461" text-anchor="start" fill="currentColor">
<tspan>4</tspan>
</text>
</g>
<g transform="translate(84.7468, 12.2549)">
<rect x="-0.0650" y="-2.5000" width="0.1300" height="3.3139" ry="0.0400" fill="currentColor"/>
</g>
<g color="rgb(100.0000%, 100.0000%, 100.0000%)">
<g transform="translate(65.9554, 26.3279)">
<rect x="0.1229" y="-0.6603" width="1.2292" height="1.3207" ry="0.0000" fill="currentColor"/>
</g>
</g>
<g transform="translate(66.0783, 26.9635)">
<text font-family="serif" font-weight="bold" font-size="1.7461" text-anchor="start" fill="currentColor">
<tspan>3</tspan>
</text>
</g>
<g color="rgb(100.0000%, 100.0000%, 100.0000%)">
<g transform="translate(65.9554, 24.8279)">
<rect x="0.1229" y="-0.6480" width="1.2292" height="1.2959" ry="0.0000" fill="currentColor"/>
</g>
</g>
<g transform="translate(66.0783, 25.4758)">
<text font-family="serif" font-weight="bold" font-size="1.7461" text-anchor="start" fill="currentColor">
<tspan>2</tspan>
</text>
</g>
<g transform="translate(83.5726, 12.2549)">
<rect x="-0.0650" y="2.1861" width="0.1300" height="2.4806" ry="0.0400" fill="currentColor"/>
</g>
<g transform="translate(82.9134, 22.1312)">
<text font-family="serif" font-size="2.4696" text-anchor="start" fill="currentColor">
<tspan>to</tspan>
</text>
</g>
<g transform="translate(67.1946, 12.2549)">
<rect x="-0.0650" y="-3.3750" width="0.1300" height="3.1889" ry="0.0400" fill="currentColor"/>
</g>
<g transform="translate(83.5076, 13.2549)">
<path transform="scale(0.0040, -0.0040)" d="M218 136c55 0 108 -28 108 -89c0 -71 -55 -121 -102 -149c-35 -21 -75 -34 -116 -34c-55 0 -108 28 -108 89c0 71 55 121 102 149c35 21 75 34 116 34z" fill="currentColor"/>
</g>
<g transform="translate(83.5076, 14.2549)">
<path transform="scale(0.0040, -0.0040)" d="M218 136c55 0 108 -28 108 -89c0 -71 -55 -121 -102 -149c-35 -21 -75 -34 -116 -34c-55 0 -108 28 -108 89c0 71 55 121 102 149c35 21 75 34 116 34z" fill="currentColor"/>
</g>
<g color="rgb(100.0000%, 100.0000%, 100.0000%)">
<g transform="translate(88.5654, 27.8279)">
<rect x="0.1229" y="-0.6480" width="1.2292" height="1.2959" ry="0.0000" fill="currentColor"/>
</g>
</g>
<g transform="translate(88.6883, 28.4758)">
<text font-family="serif" font-weight="bold" font-size="1.7461" text-anchor="start" fill="currentColor">
<tspan>2</tspan>
</text>
</g>
<g transform="translate(88.5654, 14.7549)">
<path transform="scale(0.0040, -0.0040)" d="M218 136c55 0 108 -28 108 -89c0 -71 -55 -121 -102 -149c-35 -21 -75 -34 -116 -34c-55 0 -108 28 -108 89c0 71 55 121 102 149c35 21 75 34 116 34z" fill="currentColor"/>
</g>
<g transform="translate(88.5654, 16.7549)">
<path transform="scale(0.0040, -0.0040)" d="M218 136c55 0 108 -28 108 -89c0 -71 -55 -121 -102 -149c-35 -21 -75 -34 -116 -34c-55 0 -108 28 -108 89c0 71 55 121 102 149c35 21 75 34 116 34z" fill="currentColor"/>
</g>
<g transform="translate(86.8958, 22.1312)">
<text font-family="serif" font-size="2.4696" text-anchor="start" fill="currentColor">
<tspan>Thy</tspan>
</text>
</g>
<g color="rgb(100.0000%, 100.0000%, 100.0000%)">
<g transform="translate(88.5654, 29.3279)">
<rect x="0.1229" y="-0.6603" width="1.2292" height="1.3207" ry="0.0000" fill="currentColor"/>
</g>
</g>
<g transform="translate(88.6883, 29.9635)">
<text font-family="serif" font-weight="bold" font-size="1.7461" text-anchor="start" fill="currentColor">
<tspan>0</tspan>
</text>
</g>
<g transform="translate(89.8046, 12.2549)">
<rect x="-0.0650" y="-1.0000" width="0.1300" height="3.3139" ry="0.0400" fill="currentColor"/>
</g>
<g transform="translate(89.8696, 11.2949)">
<path transform="scale(0.0040, -0.0040)" d="M0 0v-250h-16v250h16zM0 0c0 -197 207 -336 207 -533c0 -71 -15 -141 -41 -207c-5 -8 -13 -12 -20 -12c-13 0 -26 11 -23 27c26 61 42 126 42 192c0 103 -94 208 -165 283v250z" fill="currentColor"/>
</g>
<g transform="translate(88.6304, 12.2549)">
<rect x="-0.0650" y="4.6861" width="0.1300" height="2.8139" ry="0.0400" fill="currentColor"/>
</g>
<g transform="translate(65.9554, 13.2549)">
<path transform="scale(0.0040, -0.0040)" d="M218 136c55 0 108 -28 108 -89c0 -71 -55 -121 -102 -149c-35 -21 -75 -34 -116 -34c-55 0 -108 28 -108 89c0 71 55 121 102 149c35 21 75 34 116 34z" fill="currentColor"/>
</g>
<g color="rgb(100.0000%, 100.0000%, 100.0000%)">
<g transform="translate(73.1613, 27.8279)">
<rect x="0.1229" y="-0.6480" width="1.2292" height="1.2959" ry="0.0000" fill="currentColor"/>
</g>
</g>
<g transform="translate(73.2842, 28.4758)">
<text font-family="serif" font-weight="bold" font-size="1.7461" text-anchor="start" fill="currentColor">
<tspan>2</tspan>
</text>
</g>
<g transform="translate(74.4005, 12.2549)">
<rect x="-0.0650" y="-2.5000" width="0.1300" height="3.3139" ry="0.0400" fill="currentColor"/>
</g>
<g transform="translate(66.0854, 16.3399)">
<path transform="scale(0.0040, -0.0040)" d="M0 0h-16v250h16v-250zM0 0v250c97 59 224 148 224 259c0 57 -15 112 -40 163c-3 16 10 27 23 27c7 0 15 -3 20 -11c25 -56 40 -117 40 -179c0 -203 -267 -306 -267 -509z" fill="currentColor"/>
</g>
<g transform="translate(73.2263, 12.2549)">
<rect x="-0.0650" y="2.6861" width="0.1300" height="2.3139" ry="0.0400" fill="currentColor"/>
</g>
<g transform="translate(73.1613, 7.4898)">
<text font-family="sans-serif" font-size="2.6163" text-anchor="start" fill="currentColor">
<tspan>G</tspan>
</text>
</g>
<g transform="translate(73.1613, 13.2549)">
<path transform="scale(0.0040, -0.0040)" d="M218 136c55 0 108 -28 108 -89c0 -71 -55 -121 -102 -149c-35 -21 -75 -34 -116 -34c-55 0 -108 28 -108 89c0 71 55 121 102 149c35 21 75 34 116 34z" fill="currentColor"/>
</g>
<g transform="translate(73.1613, 14.7549)">
<path transform="scale(0.0040, -0.0040)" d="M218 136c55 0 108 -28 108 -89c0 -71 -55 -121 -102 -149c-35 -21 -75 -34 -116 -34c-55 0 -108 28 -108 89c0 71 55 121 102 149c35 21 75 34 116 34z" fill="currentColor"/>
</g>
<g transform="translate(70.1089, 22.1312)">
<text font-family="serif" font-size="2.4696" text-anchor="start" fill="currentColor">
<tspan>Guide</tspan>
</text>
</g>
<g color="rgb(100.0000%, 100.0000%, 100.0000%)">
<g transform="translate(73.1613, 26.3279)">
<rect x="0.1229" y="-0.6603" width="1.2292" height="1.3207" ry="0.0000" fill="currentColor"/>
</g>
</g>
<g transform="translate(73.2842, 26.9635)">
<text font-family="serif" font-weight="bold" font-size="1.7461" text-anchor="start" fill="currentColor">
<tspan>3</tspan>
</text>
</g>
<g transform="translate(80.0541, 9.7949)">
<path transform="scale(0.0040, -0.0040)" d="M0 0v-250h-16v250h16zM0 0c0 -197 207 -336 207 -533c0 -71 -15 -141 -41 -207c-5 -8 -13 -12 -20 -12c-13 0 -26 11 -23 27c26 61 42 126 42 192c0 103 -94 208 -165 283v250z" fill="currentColor"/>
</g>
<g transform="translate(78.7499, 13.2549)">
<path transform="scale(0.0040, -0.0040)" d="M218 136c55 0 108 -28 108 -89c0 -71 -55 -121 -102 -149c-35 -21 -75 -34 -116 -34c-55 0 -108 28 -108 89c0 71 55 121 102 149c35 21 75 34 116 34z" fill="currentColor"/>
</g>
<g transform="translate(78.7499, 14.7549)">
<path transform="scale(0.0040, -0.0040)" d="M218 136c55 0 108 -28 108 -89c0 -71 -55 -121 -102 -149c-35 -21 -75 -34 -116 -34c-55 0 -108 28 -108 89c0 71 55 121 102 149c35 21 75 34 116 34z" fill="currentColor"/>
</g>
<g transform="translate(77.9679, 22.1312)">
<text font-family="serif" font-size="2.4696" text-anchor="start" fill="currentColor">
<tspan>us</tspan>
</text>
</g>
<g color="rgb(100.0000%, 100.0000%, 100.0000%)">
<g transform="translate(78.7499, 26.3279)">
<rect x="0.1229" y="-0.6603" width="1.2292" height="1.3207" ry="0.0000" fill="currentColor"/>
</g>
</g>
<g transform="translate(78.8728, 26.9635)">
<text font-family="serif" font-weight="bold" font-size="1.7461" text-anchor="start" fill="currentColor">
<tspan>3</tspan>
</text>
</g>
<g transform="translate(65.9554, 12.2549)">
<path transform="scale(0.0040, -0.0040)" d="M218 136c55 0 108 -28 108 -89c0 -71 -55 -121 -102 -149c-35 -21 -75 -34 -116 -34c-55 0 -108 28 -108 89c0 71 55 121 102 149c35 21 75 34 116 34z" fill="currentColor"/>
</g>
<g color="rgb(100.0000%, 100.0000%, 100.0000%)">
<g transform="translate(78.7499, 27.8279)">
<rect x="0.1229" y="-0.6480" width="1.2292" height="1.2959" ry="0.0000" fill="currentColor"/>
</g>
</g>
<g transform="translate(78.8728, 28.4758)">
<text font-family="serif" font-weight="bold" font-size="1.7461" text-anchor="start" fill="currentColor">
<tspan>2</tspan>
</text>
</g>
<g transform="translate(79.9891, 12.2549)">
<rect x="-0.0650" y="-2.5000" width="0.1300" height="3.3139" ry="0.0400" fill="currentColor"/>
</g>
<g transform="translate(78.8149, 12.2549)">
<rect x="-0.0650" y="2.6861" width="0.1300" height="2.8139" ry="0.0400" fill="currentColor"/>
</g>
<g transform="translate(78.8799, 17.7149)">
<path transform="scale(0.0040, -0.0040)" d="M0 0h-16v250h16v-250zM0 0v250c97 59 224 148 224 259c0 57 -15 112 -40 163c-3 16 10 27 23 27c7 0 15 -3 20 -11c25 -56 40 -117 40 -179c0 -203 -267 -306 -267 -509z" fill="currentColor"/>
</g>
<g transform="translate(66.0204, 12.2549)">
<rect x="-0.0650" y="1.1861" width="0.1300" height="2.9389" ry="0.0400" fill="currentColor"/>
</g>
<g transform="translate(67.2596, 8.9199)">
<path transform="scale(0.0040, -0.0040)" d="M0 0v-250h-16v250h16zM0 0c0 -197 207 -336 207 -533c0 -71 -15 -141 -41 -207c-5 -8 -13 -12 -20 -12c-13 0 -26 11 -23 27c26 61 42 126 42 192c0 103 -94 208 -165 283v250z" fill="currentColor"/>
</g>
<g transform="translate(106.2561, 12.2549)">
<rect x="-0.0650" y="3.6861" width="0.1300" height="2.3139" ry="0.0400" fill="currentColor"/>
</g>
<g color="rgb(100.0000%, 100.0000%, 100.0000%)">
<g transform="translate(106.1911, 26.3279)">
<rect x="0.1229" y="-0.6603" width="1.2292" height="1.3207" ry="0.0000" fill="currentColor"/>
</g>
</g>
<g transform="translate(106.3140, 26.9635)">
<text font-family="serif" font-weight="bold" font-size="1.7461" text-anchor="start" fill="currentColor">
<tspan>3</tspan>
</text>
</g>
<g transform="translate(106.1911, 7.4898)">
<text font-family="sans-serif" font-size="2.6163" text-anchor="start" fill="currentColor">
<tspan>G</tspan>
</text>
</g>
<g transform="translate(106.1911, 13.2549)">
<path transform="scale(0.0040, -0.0040)" d="M218 136c55 0 108 -28 108 -89c0 -71 -55 -121 -102 -149c-35 -21 -75 -34 -116 -34c-55 0 -108 28 -108 89c0 71 55 121 102 149c35 21 75 34 116 34z" fill="currentColor"/>
</g>
<g transform="translate(106.8432, 9.4789)">
<path transform="scale(0.0040, -0.0040)" d="M-67 48c0 37 30 67 67 67s67 -30 67 -67s-30 -67 -67 -67s-67 30 -67 67zM0 363c157 0 332 -176 332 -366c0 -9 -10 -15 -19 -15s-17 5 -19 18c-26 148 -146 262 -294 262s-268 -114 -294 -262c-2 -13 -10 -18 -19 -18s-19 6 -19 15c0 190 175 366 332 366z" fill="currentColor"/>
</g>
<g transform="translate(106.1911, 15.7549)">
<path transform="scale(0.0040, -0.0040)" d="M218 136c55 0 108 -28 108 -89c0 -71 -55 -121 -102 -149c-35 -21 -75 -34 -116 -34c-55 0 -108 28 -108 89c0 71 55 121 102 149c35 21 75 34 116 34z" fill="currentColor"/>
</g>
<g transform="translate(103.5825, 22.1312)">
<text font-family="serif" font-size="2.4696" text-anchor="start" fill="currentColor">
<tspan>light.</tspan>
</text>
</g>
<g color="rgb(100.0000%, 100.0000%, 100.0000%)">
<g transform="translate(106.1911, 29.3279)">
<rect x="0.1229" y="-0.6480" width="1.2292" height="1.2959" ry="0.0000" fill="currentColor"/>
</g>
</g>
<g transform="translate(106.3140, 29.9758)">
<text font-family="serif" font-weight="bold" font-size="1.7461" text-anchor="start" fill="currentColor">
<tspan>4</tspan>
</text>
</g>
<g transform="translate(107.9453, 12.7549)">
<path transform="scale(0.0040, -0.0040)" d="M0 0c0 31 25 56 56 56s56 -25 56 -56s-25 -56 -56 -56s-56 25 -56 56z" fill="currentColor"/>
</g>
<g transform="translate(107.4303, 12.2549)">
<rect x="-0.0650" y="-2.5000" width="0.1300" height="3.3139" ry="0.0400" fill="currentColor"/>
</g>
<g transform="translate(107.9453, 15.7549)">
<path transform="scale(0.0040, -0.0040)" d="M0 0c0 31 25 56 56 56s56 -25 56 -56s-25 -56 -56 -56s-56 25 -56 56z" fill="currentColor"/>
</g>
<g transform="translate(97.0227, 22.1312)">
<rect x="0.0000" y="-0.5500" width="0.5984" height="0.1300" ry="0.0400" fill="currentColor"/>
</g>
<g transform="translate(57.2140, 22.1312)">
<rect x="0.0000" y="-0.5500" width="0.6600" height="0.1300" ry="0.0400" fill="currentColor"/>
</g>
<g color="rgb(100.0000%, 100.0000%, 100.0000%)">
<g transform="translate(94.1837, 26.3279)">
<rect x="0.1229" y="-0.6603" width="1.2292" height="1.3207" ry="0.0000" fill="currentColor"/>
</g>
</g>
<g transform="translate(94.3066, 26.9635)">
<text font-family="serif" font-weight="bold" font-size="1.7461" text-anchor="start" fill="currentColor">
<tspan>3</tspan>
</text>
</g>
<g color="rgb(100.0000%, 100.0000%, 100.0000%)">
<g transform="translate(94.1837, 27.8279)">
<rect x="0.1229" y="-0.6603" width="1.2292" height="1.3207" ry="0.0000" fill="currentColor"/>
</g>
</g>
<g transform="translate(94.3066, 28.4635)">
<text font-family="serif" font-weight="bold" font-size="1.7461" text-anchor="start" fill="currentColor">
<tspan>0</tspan>
</text>
</g>
<g transform="translate(95.4229, 12.2549)">
<rect x="-0.0650" y="-2.5000" width="0.1300" height="3.3139" ry="0.0400" fill="currentColor"/>
</g>
<g transform="translate(94.2487, 12.2549)">
<rect x="-0.0650" y="3.1861" width="0.1300" height="2.3139" ry="0.0400" fill="currentColor"/>
</g>
<g transform="translate(92.7189, 22.1312)">
<text font-family="serif" font-size="2.4696" text-anchor="start" fill="currentColor">
<tspan>per</tspan>
</text>
</g>
<g transform="translate(88.6954, 19.7149)">
<path transform="scale(0.0040, -0.0040)" d="M0 0h-16v250h16v-250zM0 0v250c97 59 224 148 224 259c0 57 -15 112 -40 163c-3 16 10 27 23 27c7 0 15 -3 20 -11c25 -56 40 -117 40 -179c0 -203 -267 -306 -267 -509z" fill="currentColor"/>
</g>
<g transform="translate(94.1837, 7.4898)">
<text font-family="sans-serif" font-size="2.6163" text-anchor="start" fill="currentColor">
<tspan>C</tspan>
</text>
</g>
<g transform="translate(94.1837, 13.2549)">
<path transform="scale(0.0040, -0.0040)" d="M218 136c55 0 108 -28 108 -89c0 -71 -55 -121 -102 -149c-35 -21 -75 -34 -116 -34c-55 0 -108 28 -108 89c0 71 55 121 102 149c35 21 75 34 116 34z" fill="currentColor"/>
</g>
<g transform="translate(94.1837, 15.2549)">
<path transform="scale(0.0040, -0.0040)" d="M218 136c55 0 108 -28 108 -89c0 -71 -55 -121 -102 -149c-35 -21 -75 -34 -116 -34c-55 0 -108 28 -108 89c0 71 55 121 102 149c35 21 75 34 116 34z" fill="currentColor"/>
</g>
<g transform="translate(100.6682, 12.2549)">
<rect x="-0.0650" y="-1.5000" width="0.1300" height="3.3139" ry="0.0400" fill="currentColor"/>
</g>
<g transform="translate(100.7332, 10.7949)">
<path transform="scale(0.0040, -0.0040)" d="M0 0v-250h-16v250h16zM0 0c0 -197 207 -336 207 -533c0 -71 -15 -141 -41 -207c-5 -8 -13 -12 -20 -12c-13 0 -26 11 -23 27c26 61 42 126 42 192c0 103 -94 208 -165 283v250z" fill="currentColor"/>
</g>
<g transform="translate(99.4940, 12.2549)">
<rect x="-0.0650" y="3.1861" width="0.1300" height="2.8139" ry="0.0400" fill="currentColor"/>
</g>
<g transform="translate(99.5590, 18.2149)">
<path transform="scale(0.0040, -0.0040)" d="M0 0h-16v250h16v-250zM0 0v250c97 59 224 148 224 259c0 57 -15 112 -40 163c-3 16 10 27 23 27c7 0 15 -3 20 -11c25 -56 40 -117 40 -179c0 -203 -267 -306 -267 -509z" fill="currentColor"/>
</g>
<g color="rgb(100.0000%, 100.0000%, 100.0000%)">
<g transform="translate(99.4290, 27.8279)">
<rect x="0.1229" y="-0.6603" width="1.2292" height="1.3207" ry="0.0000" fill="currentColor"/>
</g>
</g>
<g transform="translate(99.5519, 28.4635)">
<text font-family="serif" font-weight="bold" font-size="1.7461" text-anchor="start" fill="currentColor">
<tspan>0</tspan>
</text>
</g>
<g transform="translate(99.4290, 14.2549)">
<path transform="scale(0.0040, -0.0040)" d="M218 136c55 0 108 -28 108 -89c0 -71 -55 -121 -102 -149c-35 -21 -75 -34 -116 -34c-55 0 -108 28 -108 89c0 71 55 121 102 149c35 21 75 34 116 34z" fill="currentColor"/>
</g>
<g transform="translate(99.4290, 15.2549)">
<path transform="scale(0.0040, -0.0040)" d="M218 136c55 0 108 -28 108 -89c0 -71 -55 -121 -102 -149c-35 -21 -75 -34 -116 -34c-55 0 -108 28 -108 89c0 71 55 121 102 149c35 21 75 34 116 34z" fill="currentColor"/>
</g>
<g transform="translate(97.6911, 22.1312)">
<text font-family="serif" font-size="2.4696" text-anchor="start" fill="currentColor">
<tspan>fect</tspan>
</text>
</g>
<g color="rgb(100.0000%, 100.0000%, 100.0000%)">
<g transform="translate(99.4290, 26.3279)">
<rect x="0.1229" y="-0.6603" width="1.2292" height="1.3207" ry="0.0000" fill="currentColor"/>
</g>
</g>
<g transform="translate(99.5519, 26.9635)">
<text font-family="serif" font-weight="bold" font-size="1.7461" text-anchor="start" fill="currentColor">
<tspan>0</tspan>
</text>
</g>
<g transform="translate(32.1053, 9.7949)">
<path transform="scale(0.0040, -0.0040)" d="M0 0v-250h-16v250h16zM0 0c0 -197 207 -336 207 -533c0 -71 -15 -141 -41 -207c-5 -8 -13 -12 -20 -12c-13 0 -26 11 -23 27c26 61 42 126 42 192c0 103 -94 208 -165 283v250z" fill="currentColor"/>
</g>
<g transform="translate(30.8010, 13.2549)">
<path transform="scale(0.0040, -0.0040)" d="M218 136c55 0 108 -28 108 -89c0 -71 -55 -121 -102 -149c-35 -21 -75 -34 -116 -34c-55 0 -108 28 -108 89c0 71 55 121 102 149c35 21 75 34 116 34z" fill="currentColor"/>
</g>
<g transform="translate(30.8010, 14.2549)">
<path transform="scale(0.0040, -0.0040)" d="M218 136c55 0 108 -28 108 -89c0 -71 -55 -121 -102 -149c-35 -21 -75 -34 -116 -34c-55 0 -108 28 -108 89c0 71 55 121 102 149c35 21 75 34 116 34z" fill="currentColor"/>
</g>
<g transform="translate(28.2778, 22.1312)">
<text font-family="serif" font-size="2.4696" text-anchor="start" fill="currentColor">
<tspan>ward</tspan>
</text>
</g>
<g color="rgb(100.0000%, 100.0000%, 100.0000%)">
<g transform="translate(30.8010, 26.3279)">
<rect x="0.1229" y="-0.6603" width="1.2292" height="1.3207" ry="0.0000" fill="currentColor"/>
</g>
</g>
<g transform="translate(30.9240, 26.9635)">
<text font-family="serif" font-weight="bold" font-size="1.7461" text-anchor="start" fill="currentColor">
<tspan>3</tspan>
</text>
</g>
<g color="rgb(100.0000%, 100.0000%, 100.0000%)">
<g transform="translate(30.8010, 27.8279)">
<rect x="0.1229" y="-0.6480" width="1.2292" height="1.2959" ry="0.0000" fill="currentColor"/>
</g>
</g>
<g transform="translate(30.9240, 28.4758)">
<text font-family="serif" font-weight="bold" font-size="1.7461" text-anchor="start" fill="currentColor">
<tspan>4</tspan>
</text>
</g>
<g transform="translate(32.0403, 12.2549)">
<rect x="-0.0650" y="-2.5000" width="0.1300" height="3.3139" ry="0.0400" fill="currentColor"/>
</g>
<g transform="translate(30.8660, 12.2549)">
<rect x="-0.0650" y="2.1861" width="0.1300" height="2.8139" ry="0.0400" fill="currentColor"/>
</g>
<g transform="translate(30.9310, 17.2149)">
<path transform="scale(0.0040, -0.0040)" d="M0 0h-16v250h16v-250zM0 0v250c97 59 224 148 224 259c0 57 -15 112 -40 163c-3 16 10 27 23 27c7 0 15 -3 20 -11c25 -56 40 -117 40 -179c0 -203 -267 -306 -267 -509z" fill="currentColor"/>
</g>
<g transform="translate(37.7175, 12.2549)">
<rect x="-0.0650" y="1.6861" width="0.1300" height="2.6472" ry="0.0400" fill="currentColor"/>
</g>
<g transform="translate(65.9554, 7.4898)">
<text font-family="sans-serif" font-size="2.6163" text-anchor="start" fill="currentColor">
<tspan>G</tspan>
</text>
</g>
<g transform="translate(37.6525, 7.4898)">
<text font-family="sans-serif" font-size="2.6163" text-anchor="start" fill="currentColor">
<tspan>D</tspan>
</text>
</g>
<g transform="translate(37.6525, 12.7549)">
<path transform="scale(0.0040, -0.0040)" d="M218 136c55 0 108 -28 108 -89c0 -71 -55 -121 -102 -149c-35 -21 -75 -34 -116 -34c-55 0 -108 28 -108 89c0 71 55 121 102 149c35 21 75 34 116 34z" fill="currentColor"/>
</g>
<g transform="translate(37.6525, 13.7549)">
<path transform="scale(0.0040, -0.0040)" d="M218 136c55 0 108 -28 108 -89c0 -71 -55 -121 -102 -149c-35 -21 -75 -34 -116 -34c-55 0 -108 28 -108 89c0 71 55 121 102 149c35 21 75 34 116 34z" fill="currentColor"/>
</g>
<g transform="translate(35.6585, 22.1312)">
<text font-family="serif" font-size="2.4696" text-anchor="start" fill="currentColor">
<tspan>lead</tspan>
</text>
</g>
<g color="rgb(100.0000%, 100.0000%, 100.0000%)">
<g transform="translate(37.6525, 24.8279)">
<rect x="0.1229" y="-0.6603" width="1.2292" height="1.3207" ry="0.0000" fill="currentColor"/>
</g>
</g>
<g transform="translate(37.7754, 25.4635)">
<text font-family="serif" font-weight="bold" font-size="1.7461" text-anchor="start" fill="currentColor">
<tspan>0</tspan>
</text>
</g>
<g color="rgb(100.0000%, 100.0000%, 100.0000%)">
<g transform="translate(37.6525, 26.3279)">
<rect x="0.1229" y="-0.6480" width="1.2292" height="1.2959" ry="0.0000" fill="currentColor"/>
</g>
</g>
<g transform="translate(37.7754, 26.9758)">
<text font-family="serif" font-weight="bold" font-size="1.7461" text-anchor="start" fill="currentColor">
<tspan>2</tspan>
</text>
</g>
<g transform="translate(38.8917, 12.2549)">
<rect x="-0.0650" y="-3.0000" width="0.1300" height="3.3139" ry="0.0400" fill="currentColor"/>
</g>
<g transform="translate(13.0406, 15.7549)">
<path transform="scale(0.0040, -0.0040)" d="M218 136c55 0 108 -28 108 -89c0 -71 -55 -121 -102 -149c-35 -21 -75 -34 -116 -34c-55 0 -108 28 -108 89c0 71 55 121 102 149c35 21 75 34 116 34z" fill="currentColor"/>
</g>
<g transform="translate(13.0406, 7.4898)">
<text font-family="sans-serif" font-size="2.6163" text-anchor="start" fill="currentColor">
<tspan>G</tspan>
</text>
</g>
<g transform="translate(13.0406, 13.2549)">
<path transform="scale(0.0040, -0.0040)" d="M218 136c55 0 108 -28 108 -89c0 -71 -55 -121 -102 -149c-35 -21 -75 -34 -116 -34c-55 0 -108 28 -108 89c0 71 55 121 102 149c35 21 75 34 116 34z" fill="currentColor"/>
</g>
<g transform="translate(9.4418, 22.1312)">
<text font-family="serif" font-size="2.4696" text-anchor="start" fill="currentColor">
<tspan>bright,</tspan>
</text>
</g>
<g color="rgb(100.0000%, 100.0000%, 100.0000%)">
<g transform="translate(13.0406, 26.3279)">
<rect x="0.1229" y="-0.6603" width="1.2292" height="1.3207" ry="0.0000" fill="currentColor"/>
</g>
</g>
<g transform="translate(13.1635, 26.9635)">
<text font-family="serif" font-weight="bold" font-size="1.7461" text-anchor="start" fill="currentColor">
<tspan>3</tspan>
</text>
</g>
<g color="rgb(100.0000%, 100.0000%, 100.0000%)">
<g transform="translate(13.0406, 29.3279)">
<rect x="0.1229" y="-0.6480" width="1.2292" height="1.2959" ry="0.0000" fill="currentColor"/>
</g>
</g>
<g transform="translate(13.1635, 29.9758)">
<text font-family="serif" font-weight="bold" font-size="1.7461" text-anchor="start" fill="currentColor">
<tspan>4</tspan>
</text>
</g>
<g transform="translate(14.2798, 12.2549)">
<rect x="-0.0650" y="-2.5000" width="0.1300" height="3.3139" ry="0.0400" fill="currentColor"/>
</g>
<g transform="translate(13.1056, 12.2549)">
<rect x="-0.0650" y="3.6861" width="0.1300" height="2.3139" ry="0.0400" fill="currentColor"/>
</g>
<g transform="translate(4.3806, 9.9799)">
<path transform="scale(0.0040, -0.0040)" d="M0 -56v87c0 14 11 25 25 25h50c159 0 271 136 362 270c11 17 37 -1 26 -18c-99 -144 -215 -364 -388 -364h-75z" fill="currentColor"/>
</g>
<g transform="translate(4.3806, 29.6029)">
<path transform="scale(0.0040, -0.0040)" d="M0 56h75c173 0 289 -220 388 -364c11 -17 -15 -35 -26 -18c-91 134 -203 270 -362 270h-50c-14 0 -25 11 -25 25v87z" fill="currentColor"/>
</g>
<g transform="translate(4.3806, 19.7914)">
<rect x="0.0000" y="-9.6315" width="0.4500" height="19.2630" ry="0.0000" fill="currentColor"/>
</g>
<g transform="translate(5.6306, 19.7914)">
<rect x="0.0000" y="-9.5865" width="0.1600" height="19.1730" ry="0.0500" fill="currentColor"/>
</g>
<g transform="translate(3.4371, 9.2049)">
<text font-family="serif" font-size="1.7461" text-anchor="start" fill="currentColor">
<tspan>24</tspan>
</text>
</g>
<g transform="translate(6.4906, 13.2549)">
<path transform="scale(0.0040, -0.0040)" d="M266 -635h-6c-108 0 -195 88 -195 197c0 58 53 103 112 103c54 0 95 -47 95 -103c0 -52 -43 -95 -95 -95c-11 0 -21 2 -31 6c26 -39 68 -65 117 -65h4zM461 -203c68 24 113 95 113 164c0 90 -66 179 -173 190c24 -116 46 -231 60 -354zM74 28c0 -135 129 -247 264 -247
c28 0 55 2 82 6c-14 127 -37 245 -63 364c-79 -8 -124 -61 -124 -119c0 -44 25 -91 81 -123c5 -5 7 -10 7 -15c0 -11 -10 -22 -22 -22c-3 0 -6 1 -9 2c-80 43 -117 115 -117 185c0 88 58 174 160 197c-14 58 -29 117 -46 175c-107 -121 -213 -243 -213 -403zM335 -262
c-188 0 -333 172 -333 374c0 177 131 306 248 441c-19 62 -37 125 -45 190c-6 52 -7 104 -7 156c0 115 55 224 149 292c6 5 14 5 20 0c71 -84 133 -245 133 -358c0 -143 -86 -255 -180 -364c21 -68 39 -138 56 -207c4 0 9 1 13 1c155 0 256 -128 256 -261
c0 -76 -33 -154 -107 -210c-22 -17 -47 -28 -73 -36c3 -35 5 -70 5 -105c0 -19 -1 -39 -2 -58c-7 -119 -88 -225 -202 -228l1 43c93 2 153 92 159 191c1 18 2 37 2 55c0 31 -1 61 -4 92c-29 -5 -58 -8 -89 -8zM428 916c0 55 -4 79 -20 129c-99 -48 -162 -149 -162 -259
c0 -74 18 -133 36 -194c80 97 146 198 146 324z" fill="currentColor"/>
</g>
<g transform="translate(9.9906, 10.2549)">
<path transform="scale(0.0040, -0.0040)" d="M216 -312c0 -10 -8 -19 -18 -19s-19 9 -19 19v145l-83 -31v-158c0 -10 -9 -19 -19 -19s-18 9 -18 19v145l-32 -12c-2 -1 -5 -1 -7 -1c-11 0 -20 9 -20 20v60c0 8 5 16 13 19l46 16v160l-32 -11c-2 -1 -5 -1 -7 -1c-11 0 -20 9 -20 20v60c0 8 5 15 13 18l46 17v158
c0 10 8 19 18 19s19 -9 19 -19v-145l83 31v158c0 10 9 19 19 19s18 -9 18 -19v-145l32 12c2 1 5 1 7 1c11 0 20 -9 20 -20v-60c0 -8 -5 -16 -13 -19l-46 -16v-160l32 11c2 1 5 1 7 1c11 0 20 -9 20 -20v-60c0 -8 -5 -15 -13 -18l-46 -17v-158zM96 65v-160l83 30v160z" fill="currentColor"/>
</g>
<g transform="translate(6.4906, 27.0779)">
<path transform="scale(0.0040, -0.0040)" d="M267 -425c0 -24 -23 -27 -43 -27c-45 0 -84 31 -84 75c0 82 118 130 234 130c104 0 215 -22 215 -103c0 -51 -31 -86 -69 -110c58 -11 102 -36 102 -91c0 -90 -94 -158 -179 -158c-41 0 -80 15 -108 52c-2 2 -3 5 -3 8c0 12 16 25 28 25c4 0 8 -1 10 -4
c11 -15 27 -21 44 -21c43 0 95 40 95 93c0 46 -49 63 -100 63h-1c-6 0 -8 8 -8 16c0 11 5 24 18 24c36 0 69 39 69 77c0 45 -36 68 -80 76c-11 -62 -31 -173 -40 -220c-20 -102 -84 -202 -159 -202c-44 0 -68 34 -96 53c-3 2 -4 5 -4 9c0 11 12 26 24 26c3 0 5 0 7 -2
c20 -13 36 -35 65 -35c65 0 89 99 89 195v8c0 35 9 109 18 163c-39 -13 -70 -40 -70 -70c0 -15 8 -28 19 -34c4 -3 7 -9 7 -16zM301 -83c-43 -41 -114 -105 -173 -105c-33 0 -52 21 -78 32c-3 1 -5 5 -5 9c0 11 11 28 25 28c2 0 5 -1 7 -2c16 -7 30 -18 50 -18
c34 0 65 27 91 54c100 102 175 219 214 336c9 27 33 37 57 37c29 0 57 -15 57 -31c0 -2 -1 -4 -2 -6c-4 -116 -9 -233 -16 -350v-9c0 -16 3 -30 21 -30c16 0 35 13 53 19l2 1c5 0 9 -8 9 -17c0 -8 -3 -16 -12 -19c-29 -9 -54 -34 -87 -34c-32 0 -45 29 -53 58
c-16 61 -26 125 -31 191c-27 -35 -56 -68 -87 -101c11 -20 33 -33 64 -33c4 0 8 1 12 1c5 0 8 -7 8 -15c0 -25 -34 -29 -56 -29c-32 0 -56 12 -70 33zM288 540c0 -23 -23 -24 -42 -24c-49 0 -91 36 -91 84c0 95 125 120 232 120c49 0 119 -41 171 -41c38 0 77 15 110 41
c3 2 6 3 9 3c11 0 23 -11 23 -19c0 -2 -1 -3 -2 -4c-40 -45 -95 -71 -148 -71c-15 0 -31 2 -44 6c-9 -59 -26 -151 -35 -193c-22 -96 -88 -185 -163 -185c-52 0 -81 42 -115 64c-3 2 -4 5 -4 9c0 11 12 26 23 26c2 0 5 -1 7 -2c23 -15 43 -46 75 -46c56 0 82 77 85 150
c2 45 13 150 22 208c-12 3 -31 5 -32 5c-51 0 -113 -21 -113 -70c0 -18 10 -36 24 -43c5 -3 8 -10 8 -18z" fill="currentColor"/>
</g>
<g transform="translate(24.5040, 7.4898)">
<text font-family="sans-serif" font-size="2.6163" text-anchor="start" fill="currentColor">
<tspan>G</tspan>
</text>
</g>
<g transform="translate(24.5040, 13.2549)">
<path transform="scale(0.0040, -0.0040)" d="M218 136c55 0 108 -28 108 -89c0 -71 -55 -121 -102 -149c-35 -21 -75 -34 -116 -34c-55 0 -108 28 -108 89c0 71 55 121 102 149c35 21 75 34 116 34z" fill="currentColor"/>
</g>
<g transform="translate(24.5040, 14.2549)">
<path transform="scale(0.0040, -0.0040)" d="M218 136c55 0 108 -28 108 -89c0 -71 -55 -121 -102 -149c-35 -21 -75 -34 -116 -34c-55 0 -108 28 -108 89c0 71 55 121 102 149c35 21 75 34 116 34z" fill="currentColor"/>
</g>
<g transform="translate(22.1345, 22.1312)">
<text font-family="serif" font-size="2.4696" text-anchor="start" fill="currentColor">
<tspan>West</tspan>
</text>
</g>
<g color="rgb(100.0000%, 100.0000%, 100.0000%)">
<g transform="translate(24.5040, 26.3279)">
<rect x="0.1229" y="-0.6603" width="1.2292" height="1.3207" ry="0.0000" fill="currentColor"/>
</g>
</g>
<g transform="translate(24.6269, 26.9635)">
<text font-family="serif" font-weight="bold" font-size="1.7461" text-anchor="start" fill="currentColor">
<tspan>3</tspan>
</text>
</g>
<g color="rgb(100.0000%, 100.0000%, 100.0000%)">
<g transform="translate(24.5040, 27.8279)">
<rect x="0.1229" y="-0.6480" width="1.2292" height="1.2959" ry="0.0000" fill="currentColor"/>
</g>
</g>
<g transform="translate(24.6269, 28.4758)">
<text font-family="serif" font-weight="bold" font-size="1.7461" text-anchor="start" fill="currentColor">
<tspan>4</tspan>
</text>
</g>
<g transform="translate(25.7432, 12.2549)">
<rect x="-0.0650" y="-2.5000" width="0.1300" height="3.3139" ry="0.0400" fill="currentColor"/>
</g>
<g transform="translate(24.5690, 12.2549)">
<rect x="-0.0650" y="2.1861" width="0.1300" height="2.4806" ry="0.0400" fill="currentColor"/>
</g>
<g transform="translate(18.3484, 12.2549)">
<path transform="scale(0.0040, -0.0040)" d="M72 -250l117 326c-34 -12 -69 -22 -105 -22c-46 0 -87 33 -87 79c0 40 33 72 73 72c25 0 48 -15 56 -39c10 -28 6 -59 35 -59c16 0 54 48 61 63c6 12 23 12 28 0l-123 -420c-8 -7 -17 -10 -27 -10s-20 3 -28 10z" fill="currentColor"/>
</g>
<g transform="translate(55.3784, 8.9199)">
<path transform="scale(0.0040, -0.0040)" d="M0 0v-250h-16v250h16zM0 0c0 -197 207 -336 207 -533c0 -71 -15 -141 -41 -207c-5 -8 -13 -12 -20 -12c-13 0 -26 11 -23 27c26 61 42 126 42 192c0 103 -94 208 -165 283v250z" fill="currentColor"/>
</g>
<g transform="translate(54.1392, 12.2549)">
<rect x="-0.0650" y="1.1861" width="0.1300" height="2.9389" ry="0.0400" fill="currentColor"/>
</g>
<g transform="translate(54.2042, 16.3399)">
<path transform="scale(0.0040, -0.0040)" d="M0 0h-16v250h16v-250zM0 0v250c97 59 224 148 224 259c0 57 -15 112 -40 163c-3 16 10 27 23 27c7 0 15 -3 20 -11c25 -56 40 -117 40 -179c0 -203 -267 -306 -267 -509z" fill="currentColor"/>
</g>
<g transform="translate(54.0742, 7.4898)">
<text font-family="sans-serif" font-size="2.6163" text-anchor="start" fill="currentColor">
<tspan>G</tspan>
</text>
</g>
<g transform="translate(54.0742, 12.2549)">
<path transform="scale(0.0040, -0.0040)" d="M218 136c55 0 108 -28 108 -89c0 -71 -55 -121 -102 -149c-35 -21 -75 -34 -116 -34c-55 0 -108 28 -108 89c0 71 55 121 102 149c35 21 75 34 116 34z" fill="currentColor"/>
</g>
<g transform="translate(54.0742, 13.2549)">
<path transform="scale(0.0040, -0.0040)" d="M218 136c55 0 108 -28 108 -89c0 -71 -55 -121 -102 -149c-35 -21 -75 -34 -116 -34c-55 0 -108 28 -108 89c0 71 55 121 102 149c35 21 75 34 116 34z" fill="currentColor"/>
</g>
<g transform="translate(52.5924, 22.1312)">
<text font-family="serif" font-size="2.4696" text-anchor="start" fill="currentColor">
<tspan>pro</tspan>
</text>
</g>
<g color="rgb(100.0000%, 100.0000%, 100.0000%)">
<g transform="translate(54.0742, 24.8279)">
<rect x="0.1229" y="-0.6480" width="1.2292" height="1.2959" ry="0.0000" fill="currentColor"/>
</g>
</g>
<g transform="translate(54.1971, 25.4758)">
<text font-family="serif" font-weight="bold" font-size="1.7461" text-anchor="start" fill="currentColor">
<tspan>2</tspan>
</text>
</g>
<g color="rgb(100.0000%, 100.0000%, 100.0000%)">
<g transform="translate(54.0742, 26.3279)">
<rect x="0.1229" y="-0.6603" width="1.2292" height="1.3207" ry="0.0000" fill="currentColor"/>
</g>
</g>
<g transform="translate(54.1971, 26.9635)">
<text font-family="serif" font-weight="bold" font-size="1.7461" text-anchor="start" fill="currentColor">
<tspan>3</tspan>
</text>
</g>
<g transform="translate(55.3134, 12.2549)">
<rect x="-0.0650" y="-3.3750" width="0.1300" height="3.1889" ry="0.0400" fill="currentColor"/>
</g>
<g transform="translate(60.5290, 7.4898)">
<text font-family="sans-serif" font-size="2.6163" text-anchor="start" fill="currentColor">
<tspan>D</tspan>
</text>
</g>
<g transform="translate(60.5290, 12.7549)">
<path transform="scale(0.0040, -0.0040)" d="M218 136c55 0 108 -28 108 -89c0 -71 -55 -121 -102 -149c-35 -21 -75 -34 -116 -34c-55 0 -108 28 -108 89c0 71 55 121 102 149c35 21 75 34 116 34z" fill="currentColor"/>
</g>
<g transform="translate(60.5290, 13.7549)">
<path transform="scale(0.0040, -0.0040)" d="M218 136c55 0 108 -28 108 -89c0 -71 -55 -121 -102 -149c-35 -21 -75 -34 -116 -34c-55 0 -108 28 -108 89c0 71 55 121 102 149c35 21 75 34 116 34z" fill="currentColor"/>
</g>
<g transform="translate(58.2277, 22.1312)">
<text font-family="serif" font-size="2.4696" text-anchor="start" fill="currentColor">
<tspan>ceed</tspan>
</text>
</g>
<g color="rgb(100.0000%, 100.0000%, 100.0000%)">
<g transform="translate(60.5290, 24.8279)">
<rect x="0.1229" y="-0.6603" width="1.2292" height="1.3207" ry="0.0000" fill="currentColor"/>
</g>
</g>
<g transform="translate(60.6519, 25.4635)">
<text font-family="serif" font-weight="bold" font-size="1.7461" text-anchor="start" fill="currentColor">
<tspan>0</tspan>
</text>
</g>
<g color="rgb(100.0000%, 100.0000%, 100.0000%)">
<g transform="translate(60.5290, 26.3279)">
<rect x="0.1229" y="-0.6480" width="1.2292" height="1.2959" ry="0.0000" fill="currentColor"/>
</g>
</g>
<g transform="translate(60.6519, 26.9758)">
<text font-family="serif" font-weight="bold" font-size="1.7461" text-anchor="start" fill="currentColor">
<tspan>2</tspan>
</text>
</g>
<g transform="translate(61.7682, 12.2549)">
<rect x="-0.0650" y="-3.0000" width="0.1300" height="3.3139" ry="0.0400" fill="currentColor"/>
</g>
<g transform="translate(60.5940, 12.2549)">
<rect x="-0.0650" y="1.6861" width="0.1300" height="2.6472" ry="0.0400" fill="currentColor"/>
</g>
<g transform="translate(47.1138, 22.1312)">
<text font-family="serif" font-size="2.4696" text-anchor="start" fill="currentColor">
<tspan>still</tspan>
</text>
</g>
<g transform="translate(48.7664, 11.7549)">
<path transform="scale(0.0040, -0.0040)" d="M218 136c55 0 108 -28 108 -89c0 -71 -55 -121 -102 -149c-35 -21 -75 -34 -116 -34c-55 0 -108 28 -108 89c0 71 55 121 102 149c35 21 75 34 116 34z" fill="currentColor"/>
</g>
<g transform="translate(48.7664, 7.4898)">
<text font-family="sans-serif" font-size="2.6163" text-anchor="start" fill="currentColor">
<tspan>C</tspan>
</text>
</g>
<g transform="translate(42.9603, 7.4898)">
<text font-family="sans-serif" font-size="2.6163" text-anchor="start" fill="currentColor">
<tspan>G</tspan>
</text>
</g>
<g transform="translate(42.9603, 12.2549)">
<path transform="scale(0.0040, -0.0040)" d="M218 136c55 0 108 -28 108 -89c0 -71 -55 -121 -102 -149c-35 -21 -75 -34 -116 -34c-55 0 -108 28 -108 89c0 71 55 121 102 149c35 21 75 34 116 34z" fill="currentColor"/>
</g>
<g transform="translate(42.9603, 13.2549)">
<path transform="scale(0.0040, -0.0040)" d="M218 136c55 0 108 -28 108 -89c0 -71 -55 -121 -102 -149c-35 -21 -75 -34 -116 -34c-55 0 -108 28 -108 89c0 71 55 121 102 149c35 21 75 34 116 34z" fill="currentColor"/>
</g>
<g transform="translate(48.7664, 13.2549)">
<path transform="scale(0.0040, -0.0040)" d="M218 136c55 0 108 -28 108 -89c0 -71 -55 -121 -102 -149c-35 -21 -75 -34 -116 -34c-55 0 -108 28 -108 89c0 71 55 121 102 149c35 21 75 34 116 34z" fill="currentColor"/>
</g>
<g transform="translate(43.0903, 16.3399)">
<path transform="scale(0.0040, -0.0040)" d="M0 0h-16v250h16v-250zM0 0v250c97 59 224 148 224 259c0 57 -15 112 -40 163c-3 16 10 27 23 27c7 0 15 -3 20 -11c25 -56 40 -117 40 -179c0 -203 -267 -306 -267 -509z" fill="currentColor"/>
</g>
<g transform="translate(41.2395, 22.1312)">
<text font-family="serif" font-size="2.4696" text-anchor="start" fill="currentColor">
<tspan>ing,</tspan>
</text>
</g>
<g color="rgb(100.0000%, 100.0000%, 100.0000%)">
<g transform="translate(42.9603, 24.8279)">
<rect x="0.1229" y="-0.6480" width="1.2292" height="1.2959" ry="0.0000" fill="currentColor"/>
</g>
</g>
<g transform="translate(43.0832, 25.4758)">
<text font-family="serif" font-weight="bold" font-size="1.7461" text-anchor="start" fill="currentColor">
<tspan>2</tspan>
</text>
</g>
<g color="rgb(100.0000%, 100.0000%, 100.0000%)">
<g transform="translate(42.9603, 26.3279)">
<rect x="0.1229" y="-0.6603" width="1.2292" height="1.3207" ry="0.0000" fill="currentColor"/>
</g>
</g>
<g transform="translate(43.0832, 26.9635)">
<text font-family="serif" font-weight="bold" font-size="1.7461" text-anchor="start" fill="currentColor">
<tspan>3</tspan>
</text>
</g>
<g transform="translate(44.1995, 12.2549)">
<rect x="-0.0650" y="-3.3750" width="0.1300" height="3.1889" ry="0.0400" fill="currentColor"/>
</g>
<g transform="translate(43.0253, 12.2549)">
<rect x="-0.0650" y="1.1861" width="0.1300" height="2.9389" ry="0.0400" fill="currentColor"/>
</g>
<g transform="translate(44.2645, 8.9199)">
<path transform="scale(0.0040, -0.0040)" d="M0 0v-250h-16v250h16zM0 0c0 -197 207 -336 207 -533c0 -71 -15 -141 -41 -207c-5 -8 -13 -12 -20 -12c-13 0 -26 11 -23 27c26 61 42 126 42 192c0 103 -94 208 -165 283v250z" fill="currentColor"/>
</g>
<g color="rgb(100.0000%, 100.0000%, 100.0000%)">
<g transform="translate(48.7664, 24.8279)">
<rect x="0.1229" y="-0.6603" width="1.2292" height="1.3207" ry="0.0000" fill="currentColor"/>
</g>
</g>
<g transform="translate(48.8893, 25.4635)">
<text font-family="serif" font-weight="bold" font-size="1.7461" text-anchor="start" fill="currentColor">
<tspan>3</tspan>
</text>
</g>
<g color="rgb(100.0000%, 100.0000%, 100.0000%)">
<g transform="translate(48.7664, 26.3279)">
<rect x="0.1229" y="-0.6603" width="1.2292" height="1.3207" ry="0.0000" fill="currentColor"/>
</g>
</g>
<g transform="translate(48.8893, 26.9635)">
<text font-family="serif" font-weight="bold" font-size="1.7461" text-anchor="start" fill="currentColor">
<tspan>3</tspan>
</text>
</g>
<g transform="translate(50.0056, 12.2549)">
<rect x="-0.0650" y="-3.6667" width="0.1300" height="2.9806" ry="0.0400" fill="currentColor"/>
</g>
<g transform="translate(48.8314, 12.2549)">
<rect x="-0.0650" y="1.1861" width="0.1300" height="2.8139" ry="0.0400" fill="currentColor"/>
</g>
<g transform="translate(32.4361, 165.1062)">
<text font-family="serif" font-size="2.2001" text-anchor="start" fill="currentColor">
<tspan>Adapted from https://github.com/maiamcc/carols</tspan>
</text>
</g>
</svg>
