<svg xmlns="http://www.w3.org/2000/svg" xmlns:xlink="http://www.w3.org/1999/xlink" version="1.2" width="210.00mm" height="297.00mm" viewBox="0 0 119.5016 169.0094">
<style text="style/css">
<![CDATA[
tspan { white-space: pre; }
]]>
</style>
<!-- Page: 2/2 -->
<text transform="translate(5.6906, 4.5168)" font-family="serif" font-size="2.2001" text-anchor="start" fill="currentColor">
<tspan>2</tspan>
</text>
<text transform="translate(55.4487, 4.5168)" font-family="serif" font-size="2.2001" text-anchor="start" fill="currentColor">
<tspan>Ukulele</tspan>
</text>
<text transform="translate(113.8110, 4.5168)" font-family="serif" font-size="2.2001" text-anchor="start" fill="currentColor">
<tspan/>
</text>
<line transform="translate(5.6906, 25.6620)" stroke-linejoin="round" stroke-linecap="round" stroke-width="0.1000" stroke="currentColor" x1="0.0500" y1="-0.0000" x2="108.0705" y2="-0.0000"/>
<line transform="translate(5.6906, 24.1620)" stroke-linejoin="round" stroke-linecap="round" stroke-width="0.1000" stroke="currentColor" x1="0.0500" y1="-0.0000" x2="108.0705" y2="-0.0000"/>
<line transform="translate(5.6906, 22.6620)" stroke-linejoin="round" stroke-linecap="round" stroke-width="0.1000" stroke="currentColor" x1="0.0500" y1="-0.0000" x2="108.0705" y2="-0.0000"/>
<line transform="translate(5.6906, 21.1620)" stroke-linejoin="round" stroke-linecap="round" stroke-width="0.1000" stroke="currentColor" x1="0.0500" y1="-0.0000" x2="108.0705" y2="-0.0000"/>
<rect transform="translate(37.6878, 23.4120)" x="0.0000" y="-2.2500" width="0.1900" height="4.5000" ry="0.0000" fill="currentColor"/>
<rect transform="translate(97.4523, 23.4120)" x="0.0000" y="-2.2500" width="0.1900" height="4.5000" ry="0.0000" fill="currentColor"/>
<rect transform="translate(69.4754, 23.4120)" x="0.0000" y="-2.2500" width="0.1900" height="4.5000" ry="0.0000" fill="currentColor"/>
<rect transform="translate(113.2110, 23.4120)" x="0.0000" y="-2.2500" width="0.6000" height="4.5000" ry="0.0000" fill="currentColor"/>
<rect transform="translate(112.7210, 23.4120)" x="0.0000" y="-2.2500" width="0.1900" height="4.5000" ry="0.0000" fill="currentColor"/>
<rect transform="translate(83.9107, 9.6137)" x="2.9750" y="-0.0250" width="0.0500" height="5.0500" ry="0.0250" fill="currentColor"/>
<rect transform="translate(83.9107, 9.6137)" x="1.9750" y="-0.0250" width="0.0500" height="5.0500" ry="0.0250" fill="currentColor"/>
<rect transform="translate(83.9107, 9.6137)" x="0.9750" y="-0.0250" width="0.0500" height="5.0500" ry="0.0250" fill="currentColor"/>
<rect transform="translate(83.9107, 9.6137)" x="-0.0250" y="-0.0250" width="0.0500" height="5.0500" ry="0.0250" fill="currentColor"/>
<line transform="translate(83.9107, 9.6137)" stroke-linejoin="round" stroke-linecap="round" stroke-width="0.0500" stroke="currentColor" x1="0.0000" y1="0" x2="3.0000" y2="0"/>
<line transform="translate(83.9107, 9.6137)" stroke-linejoin="round" stroke-linecap="round" stroke-width="0.0500" stroke="currentColor" x1="0.0000" y1="1.0000" x2="3.0000" y2="1.0000"/>
<line transform="translate(83.9107, 9.6137)" stroke-linejoin="round" stroke-linecap="round" stroke-width="0.0500" stroke="currentColor" x1="0.0000" y1="2.0000" x2="3.0000" y2="2.0000"/>
<line transform="translate(83.9107, 9.6137)" stroke-linejoin="round" stroke-linecap="round" stroke-width="0.0500" stroke="currentColor" x1="0.0000" y1="3.0000" x2="3.0000" y2="3.0000"/>
<line transform="translate(83.9107, 9.6137)" stroke-linejoin="round" stroke-linecap="round" stroke-width="0.0500" stroke="currentColor" x1="0.0000" y1="4.0000" x2="3.0000" y2="4.0000"/>
<g color="rgb(0%, 0%, 0%)">
<circle transform="translate(86.9107, 12.2137)" stroke-linejoin="round" stroke-linecap="round" fill="currentColor" stroke="currentColor" stroke-width="0.0500" r="0.2500"/>
</g>
<text transform="translate(86.4839, 15.8933)" font-family="sans-serif" font-size="1.3198" text-anchor="start" fill="currentColor">
<tspan>3</tspan>
</text>
<rect transform="translate(83.9107, 9.6137)" x="-0.0250" y="-0.1250" width="3.0500" height="0.1500" ry="0.0250" fill="currentColor"/>
<text transform="translate(83.5693, 9.2762)" font-family="sans-serif" font-size="0.8803" text-anchor="start" fill="currentColor">
<tspan>O</tspan>
</text>
<text transform="translate(84.5693, 9.2762)" font-family="sans-serif" font-size="0.8803" text-anchor="start" fill="currentColor">
<tspan>O</tspan>
</text>
<text transform="translate(85.5693, 9.2762)" font-family="sans-serif" font-size="0.8803" text-anchor="start" fill="currentColor">
<tspan>O</tspan>
</text>
<rect transform="translate(85.4372, 23.4120)" x="-0.0650" y="-6.5000" width="0.1300" height="3.3586" ry="0.0400" fill="currentColor"/>
<text transform="translate(82.2961, 31.7120)" font-family="serif" font-size="2.4696" text-anchor="start" fill="currentColor">
<tspan>arms</tspan>
</text>
<text transform="translate(82.0741, 28.9120)" font-family="serif" font-size="2.4696" text-anchor="start" fill="currentColor">
<tspan>come</tspan>
</text>
<g color="rgb(100.0000%, 100.0000%, 100.0000%)">
<rect transform="translate(84.6997, 21.1620)" x="0.1229" y="-0.6603" width="1.2292" height="1.3207" ry="0.0000" fill="currentColor"/>
</g>
<text transform="translate(84.8227, 21.7976)" font-family="serif" font-weight="bold" font-size="1.7461" text-anchor="start" fill="currentColor">
<tspan>3</tspan>
</text>
<text transform="translate(84.6997, 8.0858)" font-family="sans-serif" font-size="2.6163" text-anchor="start" fill="currentColor">
<tspan>C</tspan>
</text>
<text transform="translate(86.5435, 8.0858)" font-family="sans-serif" font-size="2.6163" text-anchor="start" fill="currentColor">
<tspan/>
</text>
<text transform="translate(86.5435, 8.0858)" font-family="sans-serif" font-size="2.6163" text-anchor="start" fill="currentColor">
<tspan/>
</text>
<text transform="translate(86.5435, 6.8966)" font-family="sans-serif" font-size="1.8500" text-anchor="start" fill="currentColor">
<tspan/>
</text>
<rect transform="translate(78.7004, 23.4120)" x="-0.0650" y="-5.5000" width="0.1300" height="3.8586" ry="0.0400" fill="currentColor"/>
<g color="rgb(100.0000%, 100.0000%, 100.0000%)">
<rect transform="translate(77.9629, 22.6620)" x="0.1229" y="-0.6603" width="1.2292" height="1.3207" ry="0.0000" fill="currentColor"/>
</g>
<text transform="translate(78.0859, 23.2976)" font-family="serif" font-weight="bold" font-size="1.7461" text-anchor="start" fill="currentColor">
<tspan>3</tspan>
</text>
<text transform="translate(90.9366, 8.0858)" font-family="sans-serif" font-size="2.6163" text-anchor="start" fill="currentColor">
<tspan>C</tspan>
</text>
<text transform="translate(92.7803, 8.0858)" font-family="sans-serif" font-size="2.6163" text-anchor="start" fill="currentColor">
<tspan/>
</text>
<text transform="translate(92.7803, 8.0858)" font-family="sans-serif" font-size="2.6163" text-anchor="start" fill="currentColor">
<tspan/>
</text>
<text transform="translate(92.7803, 6.8966)" font-family="sans-serif" font-size="1.8500" text-anchor="start" fill="currentColor">
<tspan/>
</text>
<text transform="translate(92.7803, 6.8966)" font-family="sans-serif" font-size="1.8500" text-anchor="start" fill="currentColor">
<tspan>7</tspan>
</text>
<rect transform="translate(90.1475, 9.6137)" x="2.9750" y="-0.0250" width="0.0500" height="5.0500" ry="0.0250" fill="currentColor"/>
<rect transform="translate(90.1475, 9.6137)" x="1.9750" y="-0.0250" width="0.0500" height="5.0500" ry="0.0250" fill="currentColor"/>
<rect transform="translate(90.1475, 9.6137)" x="0.9750" y="-0.0250" width="0.0500" height="5.0500" ry="0.0250" fill="currentColor"/>
<rect transform="translate(90.1475, 9.6137)" x="-0.0250" y="-0.0250" width="0.0500" height="5.0500" ry="0.0250" fill="currentColor"/>
<line transform="translate(90.1475, 9.6137)" stroke-linejoin="round" stroke-linecap="round" stroke-width="0.0500" stroke="currentColor" x1="0.0000" y1="0" x2="3.0000" y2="0"/>
<line transform="translate(90.1475, 9.6137)" stroke-linejoin="round" stroke-linecap="round" stroke-width="0.0500" stroke="currentColor" x1="0.0000" y1="1.0000" x2="3.0000" y2="1.0000"/>
<line transform="translate(90.1475, 9.6137)" stroke-linejoin="round" stroke-linecap="round" stroke-width="0.0500" stroke="currentColor" x1="0.0000" y1="2.0000" x2="3.0000" y2="2.0000"/>
<line transform="translate(90.1475, 9.6137)" stroke-linejoin="round" stroke-linecap="round" stroke-width="0.0500" stroke="currentColor" x1="0.0000" y1="3.0000" x2="3.0000" y2="3.0000"/>
<line transform="translate(90.1475, 9.6137)" stroke-linejoin="round" stroke-linecap="round" stroke-width="0.0500" stroke="currentColor" x1="0.0000" y1="4.0000" x2="3.0000" y2="4.0000"/>
<g color="rgb(0%, 0%, 0%)">
<circle transform="translate(93.1475, 10.2137)" stroke-linejoin="round" stroke-linecap="round" fill="currentColor" stroke="currentColor" stroke-width="0.0500" r="0.2500"/>
</g>
<text transform="translate(92.7207, 15.8759)" font-family="sans-serif" font-size="1.3198" text-anchor="start" fill="currentColor">
<tspan>1</tspan>
</text>
<rect transform="translate(90.1475, 9.6137)" x="-0.0250" y="-0.1250" width="3.0500" height="0.1500" ry="0.0250" fill="currentColor"/>
<text transform="translate(89.8061, 9.2762)" font-family="sans-serif" font-size="0.8803" text-anchor="start" fill="currentColor">
<tspan>O</tspan>
</text>
<text transform="translate(90.8061, 9.2762)" font-family="sans-serif" font-size="0.8803" text-anchor="start" fill="currentColor">
<tspan>O</tspan>
</text>
<text transform="translate(91.8061, 9.2762)" font-family="sans-serif" font-size="0.8803" text-anchor="start" fill="currentColor">
<tspan>O</tspan>
</text>
<g color="rgb(100.0000%, 100.0000%, 100.0000%)">
<rect transform="translate(90.9366, 22.6620)" x="0.1229" y="-0.6603" width="1.2292" height="1.3207" ry="0.0000" fill="currentColor"/>
</g>
<text transform="translate(91.0595, 23.2976)" font-family="serif" font-weight="bold" font-size="1.7461" text-anchor="start" fill="currentColor">
<tspan>0</tspan>
</text>
<text transform="translate(90.4278, 28.9120)" font-family="serif" font-size="2.4696" text-anchor="start" fill="currentColor">
<tspan>to</tspan>
</text>
<text transform="translate(90.4278, 31.7120)" font-family="serif" font-size="2.4696" text-anchor="start" fill="currentColor">
<tspan>to</tspan>
</text>
<rect transform="translate(91.6740, 23.4120)" x="-0.0650" y="-5.5000" width="0.1300" height="3.8586" ry="0.0400" fill="currentColor"/>
<text transform="translate(100.4531, 8.0858)" font-family="sans-serif" font-size="2.6163" text-anchor="start" fill="currentColor">
<tspan>F</tspan>
</text>
<text transform="translate(101.9554, 8.0858)" font-family="sans-serif" font-size="2.6163" text-anchor="start" fill="currentColor">
<tspan/>
</text>
<text transform="translate(101.9554, 8.0858)" font-family="sans-serif" font-size="2.6163" text-anchor="start" fill="currentColor">
<tspan/>
</text>
<text transform="translate(101.9554, 6.8966)" font-family="sans-serif" font-size="1.8500" text-anchor="start" fill="currentColor">
<tspan/>
</text>
<rect transform="translate(72.2136, 23.4120)" x="-0.0650" y="-5.5000" width="0.1300" height="3.8586" ry="0.0400" fill="currentColor"/>
<text transform="translate(64.5487, 28.9120)" font-family="serif" font-size="2.4696" text-anchor="start" fill="currentColor">
<tspan>fer</tspan>
</text>
<rect transform="translate(66.3413, 23.4120)" x="-0.0650" y="-3.7500" width="0.1300" height="3.6086" ry="0.0400" fill="currentColor"/>
<text transform="translate(71.4761, 8.0858)" font-family="sans-serif" font-size="2.6163" text-anchor="start" fill="currentColor">
<tspan>C</tspan>
</text>
<text transform="translate(73.3199, 8.0858)" font-family="sans-serif" font-size="2.6163" text-anchor="start" fill="currentColor">
<tspan/>
</text>
<text transform="translate(73.3199, 8.0858)" font-family="sans-serif" font-size="2.6163" text-anchor="start" fill="currentColor">
<tspan/>
</text>
<text transform="translate(73.3199, 6.8966)" font-family="sans-serif" font-size="1.8500" text-anchor="start" fill="currentColor">
<tspan/>
</text>
<text transform="translate(73.3199, 6.8966)" font-family="sans-serif" font-size="1.8500" text-anchor="start" fill="currentColor">
<tspan>7</tspan>
</text>
<rect transform="translate(70.6871, 9.6137)" x="2.9750" y="-0.0250" width="0.0500" height="5.0500" ry="0.0250" fill="currentColor"/>
<rect transform="translate(70.6871, 9.6137)" x="1.9750" y="-0.0250" width="0.0500" height="5.0500" ry="0.0250" fill="currentColor"/>
<rect transform="translate(70.6871, 9.6137)" x="0.9750" y="-0.0250" width="0.0500" height="5.0500" ry="0.0250" fill="currentColor"/>
<rect transform="translate(70.6871, 9.6137)" x="-0.0250" y="-0.0250" width="0.0500" height="5.0500" ry="0.0250" fill="currentColor"/>
<line transform="translate(70.6871, 9.6137)" stroke-linejoin="round" stroke-linecap="round" stroke-width="0.0500" stroke="currentColor" x1="0.0000" y1="0" x2="3.0000" y2="0"/>
<line transform="translate(70.6871, 9.6137)" stroke-linejoin="round" stroke-linecap="round" stroke-width="0.0500" stroke="currentColor" x1="0.0000" y1="1.0000" x2="3.0000" y2="1.0000"/>
<line transform="translate(70.6871, 9.6137)" stroke-linejoin="round" stroke-linecap="round" stroke-width="0.0500" stroke="currentColor" x1="0.0000" y1="2.0000" x2="3.0000" y2="2.0000"/>
<line transform="translate(70.6871, 9.6137)" stroke-linejoin="round" stroke-linecap="round" stroke-width="0.0500" stroke="currentColor" x1="0.0000" y1="3.0000" x2="3.0000" y2="3.0000"/>
<line transform="translate(70.6871, 9.6137)" stroke-linejoin="round" stroke-linecap="round" stroke-width="0.0500" stroke="currentColor" x1="0.0000" y1="4.0000" x2="3.0000" y2="4.0000"/>
<g color="rgb(0%, 0%, 0%)">
<circle transform="translate(73.6871, 10.2137)" stroke-linejoin="round" stroke-linecap="round" fill="currentColor" stroke="currentColor" stroke-width="0.0500" r="0.2500"/>
</g>
<text transform="translate(73.2603, 15.8759)" font-family="sans-serif" font-size="1.3198" text-anchor="start" fill="currentColor">
<tspan>1</tspan>
</text>
<rect transform="translate(70.6871, 9.6137)" x="-0.0250" y="-0.1250" width="3.0500" height="0.1500" ry="0.0250" fill="currentColor"/>
<text transform="translate(70.3457, 9.2762)" font-family="sans-serif" font-size="0.8803" text-anchor="start" fill="currentColor">
<tspan>O</tspan>
</text>
<text transform="translate(71.3457, 9.2762)" font-family="sans-serif" font-size="0.8803" text-anchor="start" fill="currentColor">
<tspan>O</tspan>
</text>
<text transform="translate(72.3457, 9.2762)" font-family="sans-serif" font-size="0.8803" text-anchor="start" fill="currentColor">
<tspan>O</tspan>
</text>
<g color="rgb(100.0000%, 100.0000%, 100.0000%)">
<rect transform="translate(71.4761, 22.6620)" x="0.1229" y="-0.6603" width="1.2292" height="1.3207" ry="0.0000" fill="currentColor"/>
</g>
<text transform="translate(71.5990, 23.2976)" font-family="serif" font-weight="bold" font-size="1.7461" text-anchor="start" fill="currentColor">
<tspan>0</tspan>
</text>
<text transform="translate(69.0042, 28.9120)" font-family="serif" font-size="2.4696" text-anchor="start" fill="currentColor">
<tspan>them</tspan>
</text>
<text transform="translate(70.9674, 31.7120)" font-family="serif" font-size="2.4696" text-anchor="start" fill="currentColor">
<tspan>to</tspan>
</text>
<text transform="translate(76.8225, 31.7120)" font-family="serif" font-size="2.4696" text-anchor="start" fill="currentColor">
<tspan>my</tspan>
</text>
<text transform="translate(98.2543, 28.9120)" font-family="serif" font-size="2.4696" text-anchor="start" fill="currentColor">
<tspan>me.”</tspan>
</text>
<text transform="translate(77.4542, 28.9120)" font-family="serif" font-size="2.4696" text-anchor="start" fill="currentColor">
<tspan>to</tspan>
</text>
<polygon transform="translate(60.6194, 19.6620)" stroke-linejoin="round" stroke-linecap="round" stroke-width="0.0800" fill="currentColor" stroke="currentColor" points="5.7469 -0.2000 5.7469 0.2000 0.0400 0.2000 0.0400 -0.2000"/>
<rect transform="translate(69.1267, 31.7120)" x="0.0000" y="-0.5500" width="0.6600" height="0.1300" ry="0.0400" fill="currentColor"/>
<rect transform="translate(63.6608, 28.9120)" x="0.0000" y="-0.5500" width="0.6600" height="0.1300" ry="0.0400" fill="currentColor"/>
<rect transform="translate(43.1687, 31.7120)" x="0.0000" y="-0.5500" width="0.6600" height="0.1300" ry="0.0400" fill="currentColor"/>
<g color="rgb(100.0000%, 100.0000%, 100.0000%)">
<rect transform="translate(100.4531, 22.6620)" x="0.1229" y="-0.6480" width="1.2292" height="1.2959" ry="0.0000" fill="currentColor"/>
</g>
<text transform="translate(100.5760, 23.3099)" font-family="serif" font-weight="bold" font-size="1.7461" text-anchor="start" fill="currentColor">
<tspan>1</tspan>
</text>
<text transform="translate(64.7365, 31.7120)" font-family="serif" font-size="2.4696" text-anchor="start" fill="currentColor">
<tspan>un</tspan>
</text>
<text transform="translate(97.7763, 31.7120)" font-family="serif" font-size="2.4696" text-anchor="start" fill="currentColor">
<tspan>stay.”</tspan>
</text>
<path transform="translate(102.2552, 21.9120) scale(0.0040, -0.0040)" d="M0 0c0 31 25 56 56 56s56 -25 56 -56s-25 -56 -56 -56s-56 25 -56 56z" fill="currentColor"/>
<rect transform="translate(100.9406, 23.4120)" x="-0.0650" y="-5.5000" width="0.1300" height="3.8752" ry="0.0400" fill="currentColor"/>
<rect transform="translate(101.4406, 23.4120)" x="-0.0650" y="-5.5000" width="0.1300" height="3.8752" ry="0.0400" fill="currentColor"/>
<rect transform="translate(99.7494, 9.6137)" x="2.9750" y="-0.0250" width="0.0500" height="5.0500" ry="0.0250" fill="currentColor"/>
<rect transform="translate(99.7494, 9.6137)" x="1.9750" y="-0.0250" width="0.0500" height="5.0500" ry="0.0250" fill="currentColor"/>
<rect transform="translate(99.7494, 9.6137)" x="0.9750" y="-0.0250" width="0.0500" height="5.0500" ry="0.0250" fill="currentColor"/>
<rect transform="translate(99.7494, 9.6137)" x="-0.0250" y="-0.0250" width="0.0500" height="5.0500" ry="0.0250" fill="currentColor"/>
<line transform="translate(99.7494, 9.6137)" stroke-linejoin="round" stroke-linecap="round" stroke-width="0.0500" stroke="currentColor" x1="0.0000" y1="0" x2="3.0000" y2="0"/>
<line transform="translate(99.7494, 9.6137)" stroke-linejoin="round" stroke-linecap="round" stroke-width="0.0500" stroke="currentColor" x1="0.0000" y1="1.0000" x2="3.0000" y2="1.0000"/>
<line transform="translate(99.7494, 9.6137)" stroke-linejoin="round" stroke-linecap="round" stroke-width="0.0500" stroke="currentColor" x1="0.0000" y1="2.0000" x2="3.0000" y2="2.0000"/>
<line transform="translate(99.7494, 9.6137)" stroke-linejoin="round" stroke-linecap="round" stroke-width="0.0500" stroke="currentColor" x1="0.0000" y1="3.0000" x2="3.0000" y2="3.0000"/>
<line transform="translate(99.7494, 9.6137)" stroke-linejoin="round" stroke-linecap="round" stroke-width="0.0500" stroke="currentColor" x1="0.0000" y1="4.0000" x2="3.0000" y2="4.0000"/>
<g color="rgb(0%, 0%, 0%)">
<circle transform="translate(101.7494, 10.2137)" stroke-linejoin="round" stroke-linecap="round" fill="currentColor" stroke="currentColor" stroke-width="0.0500" r="0.2500"/>
</g>
<text transform="translate(101.3226, 15.8759)" font-family="sans-serif" font-size="1.3198" text-anchor="start" fill="currentColor">
<tspan>1</tspan>
</text>
<g color="rgb(0%, 0%, 0%)">
<circle transform="translate(99.7494, 11.2137)" stroke-linejoin="round" stroke-linecap="round" fill="currentColor" stroke="currentColor" stroke-width="0.0500" r="0.2500"/>
</g>
<text transform="translate(99.3226, 15.8933)" font-family="sans-serif" font-size="1.3198" text-anchor="start" fill="currentColor">
<tspan>2</tspan>
</text>
<rect transform="translate(99.7494, 9.6137)" x="-0.0250" y="-0.1250" width="3.0500" height="0.1500" ry="0.0250" fill="currentColor"/>
<text transform="translate(100.4080, 9.2762)" font-family="sans-serif" font-size="0.8803" text-anchor="start" fill="currentColor">
<tspan>O</tspan>
</text>
<text transform="translate(102.4080, 9.2762)" font-family="sans-serif" font-size="0.8803" text-anchor="start" fill="currentColor">
<tspan>O</tspan>
</text>
<text transform="translate(30.7435, 28.9120)" font-family="serif" font-size="2.4696" text-anchor="start" fill="currentColor">
<tspan>in</tspan>
</text>
<text transform="translate(24.7142, 8.0858)" font-family="sans-serif" font-size="2.6163" text-anchor="start" fill="currentColor">
<tspan>A</tspan>
</text>
<text transform="translate(26.4896, 8.0858)" font-family="sans-serif" font-size="2.6163" text-anchor="start" fill="currentColor">
<tspan/>
</text>
<text transform="translate(26.4896, 8.0858)" font-family="sans-serif" font-size="2.6163" text-anchor="start" fill="currentColor">
<tspan>m</tspan>
</text>
<text transform="translate(29.0504, 6.8966)" font-family="sans-serif" font-size="1.8500" text-anchor="start" fill="currentColor">
<tspan/>
</text>
<text transform="translate(29.0504, 6.8966)" font-family="sans-serif" font-size="1.8500" text-anchor="start" fill="currentColor">
<tspan>7</tspan>
</text>
<rect transform="translate(23.9849, 9.6137)" x="2.9750" y="-0.0250" width="0.0500" height="5.0500" ry="0.0250" fill="currentColor"/>
<rect transform="translate(23.9849, 9.6137)" x="1.9750" y="-0.0250" width="0.0500" height="5.0500" ry="0.0250" fill="currentColor"/>
<rect transform="translate(23.9849, 9.6137)" x="0.9750" y="-0.0250" width="0.0500" height="5.0500" ry="0.0250" fill="currentColor"/>
<rect transform="translate(23.9849, 9.6137)" x="-0.0250" y="-0.0250" width="0.0500" height="5.0500" ry="0.0250" fill="currentColor"/>
<line transform="translate(23.9849, 9.6137)" stroke-linejoin="round" stroke-linecap="round" stroke-width="0.0500" stroke="currentColor" x1="0.0000" y1="0" x2="3.0000" y2="0"/>
<line transform="translate(23.9849, 9.6137)" stroke-linejoin="round" stroke-linecap="round" stroke-width="0.0500" stroke="currentColor" x1="0.0000" y1="1.0000" x2="3.0000" y2="1.0000"/>
<line transform="translate(23.9849, 9.6137)" stroke-linejoin="round" stroke-linecap="round" stroke-width="0.0500" stroke="currentColor" x1="0.0000" y1="2.0000" x2="3.0000" y2="2.0000"/>
<line transform="translate(23.9849, 9.6137)" stroke-linejoin="round" stroke-linecap="round" stroke-width="0.0500" stroke="currentColor" x1="0.0000" y1="3.0000" x2="3.0000" y2="3.0000"/>
<line transform="translate(23.9849, 9.6137)" stroke-linejoin="round" stroke-linecap="round" stroke-width="0.0500" stroke="currentColor" x1="0.0000" y1="4.0000" x2="3.0000" y2="4.0000"/>
<g color="rgb(0%, 0%, 0%)">
<circle transform="translate(26.9849, 12.2137)" stroke-linejoin="round" stroke-linecap="round" fill="currentColor" stroke="currentColor" stroke-width="0.0500" r="0.2500"/>
</g>
<text transform="translate(26.5581, 15.8759)" font-family="sans-serif" font-size="1.3198" text-anchor="start" fill="currentColor">
<tspan>4</tspan>
</text>
<g color="rgb(0%, 0%, 0%)">
<circle transform="translate(25.9849, 12.2137)" stroke-linejoin="round" stroke-linecap="round" fill="currentColor" stroke="currentColor" stroke-width="0.0500" r="0.2500"/>
</g>
<text transform="translate(25.5581, 15.8933)" font-family="sans-serif" font-size="1.3198" text-anchor="start" fill="currentColor">
<tspan>3</tspan>
</text>
<g color="rgb(0%, 0%, 0%)">
<circle transform="translate(23.9849, 11.2137)" stroke-linejoin="round" stroke-linecap="round" fill="currentColor" stroke="currentColor" stroke-width="0.0500" r="0.2500"/>
</g>
<text transform="translate(23.5581, 15.8933)" font-family="sans-serif" font-size="1.3198" text-anchor="start" fill="currentColor">
<tspan>2</tspan>
</text>
<rect transform="translate(23.9849, 9.6137)" x="-0.0250" y="-0.1250" width="3.0500" height="0.1500" ry="0.0250" fill="currentColor"/>
<text transform="translate(24.6435, 9.2762)" font-family="sans-serif" font-size="0.8803" text-anchor="start" fill="currentColor">
<tspan>O</tspan>
</text>
<g color="rgb(100.0000%, 100.0000%, 100.0000%)">
<rect transform="translate(24.7142, 21.1620)" x="0.1229" y="-0.6603" width="1.2292" height="1.3207" ry="0.0000" fill="currentColor"/>
</g>
<text transform="translate(24.8371, 21.7976)" font-family="serif" font-weight="bold" font-size="1.7461" text-anchor="start" fill="currentColor">
<tspan>3</tspan>
</text>
<text transform="translate(22.9080, 28.9120)" font-family="serif" font-size="2.4696" text-anchor="start" fill="currentColor">
<tspan>said</tspan>
</text>
<text transform="translate(22.4812, 31.7120)" font-family="serif" font-size="2.4696" text-anchor="start" fill="currentColor">
<tspan>well,</tspan>
</text>
<rect transform="translate(25.4517, 23.4120)" x="-0.0650" y="-6.5000" width="0.1300" height="3.3586" ry="0.0400" fill="currentColor"/>
<text transform="translate(3.4371, 20.1119)" font-family="serif" font-size="1.7461" text-anchor="start" fill="currentColor">
<tspan>21</tspan>
</text>
<g color="rgb(100.0000%, 100.0000%, 100.0000%)">
<rect transform="translate(31.2010, 21.1620)" x="0.1229" y="-0.6480" width="1.2292" height="1.2959" ry="0.0000" fill="currentColor"/>
</g>
<text transform="translate(31.3239, 21.8099)" font-family="serif" font-weight="bold" font-size="1.7461" text-anchor="start" fill="currentColor">
<tspan>4</tspan>
</text>
<text transform="translate(30.0606, 31.7120)" font-family="serif" font-size="2.4696" text-anchor="start" fill="currentColor">
<tspan>my</tspan>
</text>
<rect transform="translate(31.9385, 23.4120)" x="-0.0650" y="-6.5000" width="0.1300" height="3.3752" ry="0.0400" fill="currentColor"/>
<g color="rgb(100.0000%, 100.0000%, 100.0000%)">
<rect transform="translate(65.6038, 24.1620)" x="0.1229" y="-0.6603" width="1.2292" height="1.3207" ry="0.0000" fill="currentColor"/>
</g>
<text transform="translate(65.7267, 24.7976)" font-family="serif" font-weight="bold" font-size="1.7461" text-anchor="start" fill="currentColor">
<tspan>3</tspan>
</text>
<text transform="translate(39.6885, 8.0858)" font-family="sans-serif" font-size="2.6163" text-anchor="start" fill="currentColor">
<tspan>B</tspan>
</text>
<path transform="translate(41.7200, 7.7858) scale(0.0042, -0.0042)" d="M27 41l-1 -66v-11c0 -22 1 -44 4 -66c45 38 93 80 93 139c0 33 -14 67 -43 67c-31 0 -52 -30 -53 -63zM-15 -138l-12 595c8 5 18 8 27 8s19 -3 27 -8l-7 -345c25 21 58 34 91 34c52 0 89 -48 89 -102c0 -80 -86 -117 -147 -169c-15 -13 -24 -38 -45 -38
c-13 0 -23 11 -23 25z" fill="currentColor"/>
<text transform="translate(42.5676, 8.0858)" font-family="sans-serif" font-size="2.6163" text-anchor="start" fill="currentColor">
<tspan/>
</text>
<text transform="translate(42.5676, 6.8966)" font-family="sans-serif" font-size="1.8500" text-anchor="start" fill="currentColor">
<tspan/>
</text>
<path transform="translate(38.9593, 9.6137)" stroke-width="0.1000" stroke-linejoin="round" stroke-linecap="round" stroke="currentColor" fill="currentColor" d="M2.0000 0.6000C2.2000 0.2000 2.8000 0.2000 3.0000 0.6000C2.8000 0.1000 2.2000 0.1000 2.0000 0.6000z"/>
<rect transform="translate(38.9593, 9.6137)" x="2.9750" y="-0.0250" width="0.0500" height="5.0500" ry="0.0250" fill="currentColor"/>
<rect transform="translate(38.9593, 9.6137)" x="1.9750" y="-0.0250" width="0.0500" height="5.0500" ry="0.0250" fill="currentColor"/>
<rect transform="translate(38.9593, 9.6137)" x="0.9750" y="-0.0250" width="0.0500" height="5.0500" ry="0.0250" fill="currentColor"/>
<rect transform="translate(38.9593, 9.6137)" x="-0.0250" y="-0.0250" width="0.0500" height="5.0500" ry="0.0250" fill="currentColor"/>
<line transform="translate(38.9593, 9.6137)" stroke-linejoin="round" stroke-linecap="round" stroke-width="0.0500" stroke="currentColor" x1="0.0000" y1="0" x2="3.0000" y2="0"/>
<line transform="translate(38.9593, 9.6137)" stroke-linejoin="round" stroke-linecap="round" stroke-width="0.0500" stroke="currentColor" x1="0.0000" y1="1.0000" x2="3.0000" y2="1.0000"/>
<line transform="translate(38.9593, 9.6137)" stroke-linejoin="round" stroke-linecap="round" stroke-width="0.0500" stroke="currentColor" x1="0.0000" y1="2.0000" x2="3.0000" y2="2.0000"/>
<line transform="translate(38.9593, 9.6137)" stroke-linejoin="round" stroke-linecap="round" stroke-width="0.0500" stroke="currentColor" x1="0.0000" y1="3.0000" x2="3.0000" y2="3.0000"/>
<line transform="translate(38.9593, 9.6137)" stroke-linejoin="round" stroke-linecap="round" stroke-width="0.0500" stroke="currentColor" x1="0.0000" y1="4.0000" x2="3.0000" y2="4.0000"/>
<g color="rgb(0%, 0%, 0%)">
<circle transform="translate(41.9593, 10.2137)" stroke-linejoin="round" stroke-linecap="round" fill="currentColor" stroke="currentColor" stroke-width="0.0500" r="0.2500"/>
</g>
<text transform="translate(41.5325, 15.8759)" font-family="sans-serif" font-size="1.3198" text-anchor="start" fill="currentColor">
<tspan>1</tspan>
</text>
<g color="rgb(0%, 0%, 0%)">
<circle transform="translate(40.9593, 10.2137)" stroke-linejoin="round" stroke-linecap="round" fill="currentColor" stroke="currentColor" stroke-width="0.0500" r="0.2500"/>
</g>
<text transform="translate(40.5325, 15.8759)" font-family="sans-serif" font-size="1.3198" text-anchor="start" fill="currentColor">
<tspan>1</tspan>
</text>
<g color="rgb(0%, 0%, 0%)">
<circle transform="translate(39.9593, 11.2137)" stroke-linejoin="round" stroke-linecap="round" fill="currentColor" stroke="currentColor" stroke-width="0.0500" r="0.2500"/>
</g>
<text transform="translate(39.5325, 15.8933)" font-family="sans-serif" font-size="1.3198" text-anchor="start" fill="currentColor">
<tspan>2</tspan>
</text>
<g color="rgb(0%, 0%, 0%)">
<circle transform="translate(38.9593, 12.2137)" stroke-linejoin="round" stroke-linecap="round" fill="currentColor" stroke="currentColor" stroke-width="0.0500" r="0.2500"/>
</g>
<text transform="translate(38.5325, 15.8933)" font-family="sans-serif" font-size="1.3198" text-anchor="start" fill="currentColor">
<tspan>3</tspan>
</text>
<rect transform="translate(38.9593, 9.6137)" x="-0.0250" y="-0.1250" width="3.0500" height="0.1500" ry="0.0250" fill="currentColor"/>
<g color="rgb(100.0000%, 100.0000%, 100.0000%)">
<rect transform="translate(39.6885, 21.1620)" x="0.1229" y="-0.6488" width="1.2292" height="1.2976" ry="0.0000" fill="currentColor"/>
</g>
<text transform="translate(39.8115, 21.7860)" font-family="serif" font-weight="bold" font-size="1.7461" text-anchor="start" fill="currentColor">
<tspan>5</tspan>
</text>
<text transform="translate(11.4906, 8.0858)" font-family="sans-serif" font-size="2.6163" text-anchor="start" fill="currentColor">
<tspan>F</tspan>
</text>
<text transform="translate(12.9929, 8.0858)" font-family="sans-serif" font-size="2.6163" text-anchor="start" fill="currentColor">
<tspan/>
</text>
<text transform="translate(12.9929, 8.0858)" font-family="sans-serif" font-size="2.6163" text-anchor="start" fill="currentColor">
<tspan/>
</text>
<text transform="translate(12.9929, 6.8966)" font-family="sans-serif" font-size="1.8500" text-anchor="start" fill="currentColor">
<tspan/>
</text>
<rect transform="translate(10.7869, 9.6137)" x="2.9750" y="-0.0250" width="0.0500" height="5.0500" ry="0.0250" fill="currentColor"/>
<rect transform="translate(10.7869, 9.6137)" x="1.9750" y="-0.0250" width="0.0500" height="5.0500" ry="0.0250" fill="currentColor"/>
<rect transform="translate(10.7869, 9.6137)" x="0.9750" y="-0.0250" width="0.0500" height="5.0500" ry="0.0250" fill="currentColor"/>
<rect transform="translate(10.7869, 9.6137)" x="-0.0250" y="-0.0250" width="0.0500" height="5.0500" ry="0.0250" fill="currentColor"/>
<line transform="translate(10.7869, 9.6137)" stroke-linejoin="round" stroke-linecap="round" stroke-width="0.0500" stroke="currentColor" x1="0.0000" y1="0" x2="3.0000" y2="0"/>
<line transform="translate(10.7869, 9.6137)" stroke-linejoin="round" stroke-linecap="round" stroke-width="0.0500" stroke="currentColor" x1="0.0000" y1="1.0000" x2="3.0000" y2="1.0000"/>
<line transform="translate(10.7869, 9.6137)" stroke-linejoin="round" stroke-linecap="round" stroke-width="0.0500" stroke="currentColor" x1="0.0000" y1="2.0000" x2="3.0000" y2="2.0000"/>
<line transform="translate(10.7869, 9.6137)" stroke-linejoin="round" stroke-linecap="round" stroke-width="0.0500" stroke="currentColor" x1="0.0000" y1="3.0000" x2="3.0000" y2="3.0000"/>
<line transform="translate(10.7869, 9.6137)" stroke-linejoin="round" stroke-linecap="round" stroke-width="0.0500" stroke="currentColor" x1="0.0000" y1="4.0000" x2="3.0000" y2="4.0000"/>
<g color="rgb(0%, 0%, 0%)">
<circle transform="translate(12.7869, 10.2137)" stroke-linejoin="round" stroke-linecap="round" fill="currentColor" stroke="currentColor" stroke-width="0.0500" r="0.2500"/>
</g>
<text transform="translate(12.3601, 15.8759)" font-family="sans-serif" font-size="1.3198" text-anchor="start" fill="currentColor">
<tspan>1</tspan>
</text>
<g color="rgb(0%, 0%, 0%)">
<circle transform="translate(10.7869, 11.2137)" stroke-linejoin="round" stroke-linecap="round" fill="currentColor" stroke="currentColor" stroke-width="0.0500" r="0.2500"/>
</g>
<text transform="translate(10.3601, 15.8933)" font-family="sans-serif" font-size="1.3198" text-anchor="start" fill="currentColor">
<tspan>2</tspan>
</text>
<rect transform="translate(10.7869, 9.6137)" x="-0.0250" y="-0.1250" width="3.0500" height="0.1500" ry="0.0250" fill="currentColor"/>
<text transform="translate(11.4454, 9.2762)" font-family="sans-serif" font-size="0.8803" text-anchor="start" fill="currentColor">
<tspan>O</tspan>
</text>
<text transform="translate(13.4454, 9.2762)" font-family="sans-serif" font-size="0.8803" text-anchor="start" fill="currentColor">
<tspan>O</tspan>
</text>
<g color="rgb(100.0000%, 100.0000%, 100.0000%)">
<rect transform="translate(11.4906, 22.6620)" x="0.1229" y="-0.6480" width="1.2292" height="1.2959" ry="0.0000" fill="currentColor"/>
</g>
<text transform="translate(11.6135, 23.3099)" font-family="serif" font-weight="bold" font-size="1.7461" text-anchor="start" fill="currentColor">
<tspan>1</tspan>
</text>
<text transform="translate(8.6259, 28.9120)" font-family="serif" font-size="2.4696" text-anchor="start" fill="currentColor">
<tspan>cause</tspan>
</text>
<text transform="translate(8.0455, 31.7120)" font-family="serif" font-size="2.4696" text-anchor="start" fill="currentColor">
<tspan>served</tspan>
</text>
<rect transform="translate(12.2280, 23.4120)" x="-0.0650" y="-5.5000" width="0.1300" height="3.8752" ry="0.0400" fill="currentColor"/>
<text transform="translate(37.5751, 28.9120)" font-family="serif" font-size="2.4696" text-anchor="start" fill="currentColor">
<tspan>days</tspan>
</text>
<path transform="translate(6.2906, 23.4120) scale(0.0040, -0.0040)" d="M267 -425c0 -24 -23 -27 -43 -27c-45 0 -84 31 -84 75c0 82 118 130 234 130c104 0 215 -22 215 -103c0 -51 -31 -86 -69 -110c58 -11 102 -36 102 -91c0 -90 -94 -158 -179 -158c-41 0 -80 15 -108 52c-2 2 -3 5 -3 8c0 12 16 25 28 25c4 0 8 -1 10 -4
c11 -15 27 -21 44 -21c43 0 95 40 95 93c0 46 -49 63 -100 63h-1c-6 0 -8 8 -8 16c0 11 5 24 18 24h1c36 0 68 39 68 77c0 45 -36 68 -80 76c-11 -62 -31 -173 -40 -220c-20 -102 -84 -202 -159 -202c-44 0 -68 34 -96 53c-3 2 -4 5 -4 9c0 11 12 26 24 26c3 0 5 0 7 -2
c20 -13 36 -35 65 -35c65 0 89 99 89 195v8c0 35 9 109 18 163c-39 -13 -70 -40 -70 -70c0 -15 8 -28 19 -34c4 -3 7 -9 7 -16zM301 -83c-43 -41 -114 -105 -173 -105c-33 0 -52 21 -78 32c-3 1 -5 5 -5 9c0 11 11 28 25 28c2 0 5 -1 7 -2c16 -7 30 -18 50 -18
c34 0 65 27 91 54c100 102 175 219 214 336c9 27 33 37 57 37c29 0 57 -15 57 -31c0 -2 -1 -4 -2 -6c-4 -116 -9 -233 -16 -350v-9c0 -16 3 -30 21 -30c16 0 35 13 53 19l2 1c5 0 9 -8 9 -17c0 -8 -3 -16 -12 -19c-29 -9 -54 -34 -87 -34c-32 0 -45 29 -53 58
c-16 61 -26 125 -31 191c-27 -35 -56 -68 -87 -101c11 -20 33 -33 64 -33c4 0 8 1 12 1c5 0 8 -7 8 -15c0 -25 -34 -29 -56 -29c-32 0 -56 12 -70 33zM288 540c0 -23 -23 -24 -42 -24c-49 0 -91 36 -91 84c0 95 125 120 232 120c49 0 119 -41 171 -41c38 0 77 15 110 41
c3 2 6 3 9 3c11 0 23 -11 23 -19c0 -2 -1 -3 -2 -4c-40 -45 -95 -71 -148 -71c-15 0 -31 2 -44 6c-9 -59 -26 -151 -35 -193c-22 -96 -88 -185 -163 -185c-52 0 -81 42 -115 64c-3 2 -4 5 -4 9c0 11 12 26 23 26c2 0 5 -1 7 -2c23 -15 43 -46 75 -46c56 0 82 77 85 150
c2 45 13 150 22 208c-12 3 -31 5 -32 5c-51 0 -113 -21 -113 -70c0 -18 10 -36 24 -43c5 -3 8 -10 8 -18z" fill="currentColor"/>
<g color="rgb(100.0000%, 100.0000%, 100.0000%)">
<rect transform="translate(18.2274, 21.1620)" x="0.1229" y="-0.6603" width="1.2292" height="1.3207" ry="0.0000" fill="currentColor"/>
</g>
<text transform="translate(18.3503, 21.7976)" font-family="serif" font-weight="bold" font-size="1.7461" text-anchor="start" fill="currentColor">
<tspan>0</tspan>
</text>
<text transform="translate(17.4284, 28.9120)" font-family="serif" font-size="2.4696" text-anchor="start" fill="currentColor">
<tspan>he</tspan>
</text>
<text transform="translate(17.0528, 31.7120)" font-family="serif" font-size="2.4696" text-anchor="start" fill="currentColor">
<tspan>me</tspan>
</text>
<rect transform="translate(18.9649, 23.4120)" x="-0.0650" y="-6.5000" width="0.1300" height="3.3586" ry="0.0400" fill="currentColor"/>
<text transform="translate(52.4122, 8.0858)" font-family="sans-serif" font-size="2.6163" text-anchor="start" fill="currentColor">
<tspan>G</tspan>
</text>
<text transform="translate(54.4266, 8.0858)" font-family="sans-serif" font-size="2.6163" text-anchor="start" fill="currentColor">
<tspan/>
</text>
<text transform="translate(54.4266, 8.0858)" font-family="sans-serif" font-size="2.6163" text-anchor="start" fill="currentColor">
<tspan>m</tspan>
</text>
<text transform="translate(56.9874, 6.8966)" font-family="sans-serif" font-size="1.8500" text-anchor="start" fill="currentColor">
<tspan/>
</text>
<rect transform="translate(51.6231, 9.6137)" x="2.9750" y="-0.0250" width="0.0500" height="5.0500" ry="0.0250" fill="currentColor"/>
<rect transform="translate(51.6231, 9.6137)" x="1.9750" y="-0.0250" width="0.0500" height="5.0500" ry="0.0250" fill="currentColor"/>
<rect transform="translate(51.6231, 9.6137)" x="0.9750" y="-0.0250" width="0.0500" height="5.0500" ry="0.0250" fill="currentColor"/>
<rect transform="translate(51.6231, 9.6137)" x="-0.0250" y="-0.0250" width="0.0500" height="5.0500" ry="0.0250" fill="currentColor"/>
<line transform="translate(51.6231, 9.6137)" stroke-linejoin="round" stroke-linecap="round" stroke-width="0.0500" stroke="currentColor" x1="0.0000" y1="0" x2="3.0000" y2="0"/>
<line transform="translate(51.6231, 9.6137)" stroke-linejoin="round" stroke-linecap="round" stroke-width="0.0500" stroke="currentColor" x1="0.0000" y1="1.0000" x2="3.0000" y2="1.0000"/>
<line transform="translate(51.6231, 9.6137)" stroke-linejoin="round" stroke-linecap="round" stroke-width="0.0500" stroke="currentColor" x1="0.0000" y1="2.0000" x2="3.0000" y2="2.0000"/>
<line transform="translate(51.6231, 9.6137)" stroke-linejoin="round" stroke-linecap="round" stroke-width="0.0500" stroke="currentColor" x1="0.0000" y1="3.0000" x2="3.0000" y2="3.0000"/>
<line transform="translate(51.6231, 9.6137)" stroke-linejoin="round" stroke-linecap="round" stroke-width="0.0500" stroke="currentColor" x1="0.0000" y1="4.0000" x2="3.0000" y2="4.0000"/>
<g color="rgb(0%, 0%, 0%)">
<circle transform="translate(54.6231, 10.2137)" stroke-linejoin="round" stroke-linecap="round" fill="currentColor" stroke="currentColor" stroke-width="0.0500" r="0.2500"/>
</g>
<text transform="translate(54.1963, 15.8759)" font-family="sans-serif" font-size="1.3198" text-anchor="start" fill="currentColor">
<tspan>1</tspan>
</text>
<g color="rgb(0%, 0%, 0%)">
<circle transform="translate(53.6231, 12.2137)" stroke-linejoin="round" stroke-linecap="round" fill="currentColor" stroke="currentColor" stroke-width="0.0500" r="0.2500"/>
</g>
<text transform="translate(53.1963, 15.8933)" font-family="sans-serif" font-size="1.3198" text-anchor="start" fill="currentColor">
<tspan>3</tspan>
</text>
<g color="rgb(0%, 0%, 0%)">
<circle transform="translate(52.6231, 11.2137)" stroke-linejoin="round" stroke-linecap="round" fill="currentColor" stroke="currentColor" stroke-width="0.0500" r="0.2500"/>
</g>
<text transform="translate(52.1963, 15.8933)" font-family="sans-serif" font-size="1.3198" text-anchor="start" fill="currentColor">
<tspan>2</tspan>
</text>
<rect transform="translate(51.6231, 9.6137)" x="-0.0250" y="-0.1250" width="3.0500" height="0.1500" ry="0.0250" fill="currentColor"/>
<text transform="translate(51.2817, 9.2762)" font-family="sans-serif" font-size="0.8803" text-anchor="start" fill="currentColor">
<tspan>O</tspan>
</text>
<path transform="translate(53.1497, 18.5360) scale(0.0040, -0.0040)" d="M-67 48c0 37 30 67 67 67s67 -30 67 -67s-30 -67 -67 -67s-67 30 -67 67zM0 363c157 0 332 -176 332 -366c0 -9 -10 -15 -19 -15s-17 5 -19 18c-26 148 -146 262 -294 262s-268 -114 -294 -262c-2 -13 -10 -18 -19 -18s-19 6 -19 15c0 190 175 366 332 366z" fill="currentColor"/>
<g color="rgb(100.0000%, 100.0000%, 100.0000%)">
<rect transform="translate(52.4122, 24.1620)" x="0.1229" y="-0.6480" width="1.2292" height="1.2959" ry="0.0000" fill="currentColor"/>
</g>
<text transform="translate(52.5351, 24.8099)" font-family="serif" font-weight="bold" font-size="1.7461" text-anchor="start" fill="currentColor">
<tspan>2</tspan>
</text>
<text transform="translate(51.4425, 28.9120)" font-family="serif" font-size="2.4696" text-anchor="start" fill="currentColor">
<tspan>by,</tspan>
</text>
<text transform="translate(49.6670, 31.7120)" font-family="serif" font-size="2.4696" text-anchor="start" fill="currentColor">
<tspan>child;</tspan>
</text>
<rect transform="translate(53.1497, 23.4120)" x="-0.0650" y="-4.5000" width="0.1300" height="4.3752" ry="0.0400" fill="currentColor"/>
<g color="rgb(100.0000%, 100.0000%, 100.0000%)">
<rect transform="translate(59.9469, 24.1620)" x="0.1229" y="-0.6480" width="1.2292" height="1.2959" ry="0.0000" fill="currentColor"/>
</g>
<text transform="translate(60.0698, 24.8099)" font-family="serif" font-weight="bold" font-size="1.7461" text-anchor="start" fill="currentColor">
<tspan>2</tspan>
</text>
<text transform="translate(57.9359, 28.9120)" font-family="serif" font-size="2.4696" text-anchor="start" fill="currentColor">
<tspan>“Suf</tspan>
</text>
<text transform="translate(57.0823, 31.7120)" font-family="serif" font-size="2.4696" text-anchor="start" fill="currentColor">
<tspan>Come</tspan>
</text>
<rect transform="translate(60.6844, 23.4120)" x="-0.0650" y="-3.7500" width="0.1300" height="3.6252" ry="0.0400" fill="currentColor"/>
<text transform="translate(39.1457, 31.7120)" font-family="serif" font-size="2.4696" text-anchor="start" fill="currentColor">
<tspan>lit</tspan>
</text>
<rect transform="translate(40.4260, 23.4120)" x="-0.0650" y="-6.5000" width="0.1300" height="3.3741" ry="0.0400" fill="currentColor"/>
<g color="rgb(100.0000%, 100.0000%, 100.0000%)">
<rect transform="translate(46.1754, 21.1620)" x="0.1229" y="-0.6488" width="1.2292" height="1.2976" ry="0.0000" fill="currentColor"/>
</g>
<text transform="translate(46.2983, 21.7860)" font-family="serif" font-weight="bold" font-size="1.7461" text-anchor="start" fill="currentColor">
<tspan>5</tspan>
</text>
<text transform="translate(43.8400, 28.9120)" font-family="serif" font-size="2.4696" text-anchor="start" fill="currentColor">
<tspan>gone</tspan>
</text>
<text transform="translate(45.2910, 31.7120)" font-family="serif" font-size="2.4696" text-anchor="start" fill="currentColor">
<tspan>tle</tspan>
</text>
<rect transform="translate(46.9129, 23.4120)" x="-0.0650" y="-6.5000" width="0.1300" height="3.3741" ry="0.0400" fill="currentColor"/>
<text transform="translate(8.0920, 165.1062)" font-family="serif" font-size="2.2001" text-anchor="start" fill="currentColor">
<tspan>https://www.churchofjesuschrist.org/music/library/childrens-songbook/when-he-comes-again</tspan>
</text>
</svg>
