<svg xmlns="http://www.w3.org/2000/svg" xmlns:xlink="http://www.w3.org/1999/xlink" version="1.2" width="210.00mm" height="297.00mm" viewBox="0 0 119.5016 169.0094">
<style text="style/css">
<![CDATA[
tspan { white-space: pre; }
]]>
</style>
<!-- Page: 2/2 -->
<text transform="translate(5.6906, 4.5168)" font-family="serif" font-size="2.2001" text-anchor="start" fill="currentColor">
<tspan>2</tspan>
</text>
<text transform="translate(52.4783, 4.5168)" font-family="serif" font-size="2.2001" text-anchor="start" fill="currentColor">
<tspan>Easy Ukulele</tspan>
</text>
<text transform="translate(113.8110, 4.5168)" font-family="serif" font-size="2.2001" text-anchor="start" fill="currentColor">
<tspan/>
</text>
<rect transform="translate(5.6906, 15.4139)" x="101.8264" y="-0.1000" width="1.9563" height="0.2000" ry="0.1000" fill="currentColor"/>
<rect transform="translate(5.6906, 15.4139)" x="88.7390" y="-0.1000" width="2.0660" height="0.2000" ry="0.1000" fill="currentColor"/>
<rect transform="translate(5.6906, 16.4139)" x="88.7390" y="-0.1000" width="2.0660" height="0.2000" ry="0.1000" fill="currentColor"/>
<rect transform="translate(5.6906, 15.4139)" x="72.6103" y="-0.1000" width="2.0660" height="0.2000" ry="0.1000" fill="currentColor"/>
<rect transform="translate(5.6906, 15.4139)" x="61.2817" y="-0.1000" width="2.0660" height="0.2000" ry="0.1000" fill="currentColor"/>
<rect transform="translate(5.6906, 16.4139)" x="61.2817" y="-0.1000" width="2.0660" height="0.2000" ry="0.1000" fill="currentColor"/>
<rect transform="translate(5.6906, 15.4139)" x="46.7440" y="-0.1000" width="2.0660" height="0.2000" ry="0.1000" fill="currentColor"/>
<rect transform="translate(5.6906, 15.4139)" x="34.5441" y="-0.1000" width="2.0660" height="0.2000" ry="0.1000" fill="currentColor"/>
<rect transform="translate(5.6906, 15.4139)" x="20.3115" y="-0.1000" width="2.0660" height="0.2000" ry="0.1000" fill="currentColor"/>
<rect transform="translate(5.6906, 16.4139)" x="20.3115" y="-0.1000" width="2.0660" height="0.2000" ry="0.1000" fill="currentColor"/>
<rect transform="translate(5.6906, 15.4139)" x="6.8257" y="-0.1000" width="2.0660" height="0.2000" ry="0.1000" fill="currentColor"/>
<rect transform="translate(37.8122, 9.8760)" x="0.0000" y="4.5878" width="0.1900" height="12.3217" ry="0.0000" fill="currentColor"/>
<rect transform="translate(37.8122, 29.0355)" x="0.0000" y="-2.3000" width="0.1900" height="4.5500" ry="0.0000" fill="currentColor"/>
<rect transform="translate(63.9523, 9.8760)" x="0.0000" y="4.5878" width="0.1900" height="12.3217" ry="0.0000" fill="currentColor"/>
<rect transform="translate(90.8487, 9.8760)" x="0.0000" y="4.5878" width="0.1900" height="12.3217" ry="0.0000" fill="currentColor"/>
<rect transform="translate(63.9523, 29.0355)" x="0.0000" y="-2.3000" width="0.1900" height="4.5500" ry="0.0000" fill="currentColor"/>
<rect transform="translate(113.6210, 12.4139)" x="0.0000" y="-2.0000" width="0.1900" height="4.0500" ry="0.0000" fill="currentColor"/>
<rect transform="translate(90.8487, 29.0355)" x="0.0000" y="-2.3000" width="0.1900" height="4.5500" ry="0.0000" fill="currentColor"/>
<rect transform="translate(113.6210, 29.0355)" x="0.0000" y="-2.3000" width="0.1900" height="4.5500" ry="0.0000" fill="currentColor"/>
<rect transform="translate(113.6210, 9.8760)" x="0.0000" y="4.5878" width="0.1900" height="12.3217" ry="0.0000" fill="currentColor"/>
<rect transform="translate(63.9523, 12.4139)" x="0.0000" y="-2.0000" width="0.1900" height="4.0500" ry="0.0000" fill="currentColor"/>
<rect transform="translate(37.8122, 12.4139)" x="0.0000" y="-2.0000" width="0.1900" height="4.0500" ry="0.0000" fill="currentColor"/>
<rect transform="translate(90.8487, 12.4139)" x="0.0000" y="-2.0000" width="0.1900" height="4.0500" ry="0.0000" fill="currentColor"/>
<line transform="translate(5.6906, 14.4139)" stroke-linejoin="round" stroke-linecap="round" stroke-width="0.1000" stroke="currentColor" x1="0.0500" y1="-0.0000" x2="108.0705" y2="-0.0000"/>
<line transform="translate(5.6906, 13.4139)" stroke-linejoin="round" stroke-linecap="round" stroke-width="0.1000" stroke="currentColor" x1="0.0500" y1="-0.0000" x2="108.0705" y2="-0.0000"/>
<line transform="translate(5.6906, 12.4139)" stroke-linejoin="round" stroke-linecap="round" stroke-width="0.1000" stroke="currentColor" x1="0.0500" y1="-0.0000" x2="108.0705" y2="-0.0000"/>
<line transform="translate(5.6906, 11.4139)" stroke-linejoin="round" stroke-linecap="round" stroke-width="0.1000" stroke="currentColor" x1="0.0500" y1="-0.0000" x2="108.0705" y2="-0.0000"/>
<line transform="translate(5.6906, 10.4139)" stroke-linejoin="round" stroke-linecap="round" stroke-width="0.1000" stroke="currentColor" x1="0.0500" y1="-0.0000" x2="108.0705" y2="-0.0000"/>
<line transform="translate(5.6906, 31.2855)" stroke-linejoin="round" stroke-linecap="round" stroke-width="0.1000" stroke="currentColor" x1="0.0500" y1="-0.0000" x2="108.0705" y2="-0.0000"/>
<line transform="translate(5.6906, 29.7855)" stroke-linejoin="round" stroke-linecap="round" stroke-width="0.1000" stroke="currentColor" x1="0.0500" y1="-0.0000" x2="108.0705" y2="-0.0000"/>
<line transform="translate(5.6906, 28.2855)" stroke-linejoin="round" stroke-linecap="round" stroke-width="0.1000" stroke="currentColor" x1="0.0500" y1="-0.0000" x2="108.0705" y2="-0.0000"/>
<line transform="translate(5.6906, 26.7855)" stroke-linejoin="round" stroke-linecap="round" stroke-width="0.1000" stroke="currentColor" x1="0.0500" y1="-0.0000" x2="108.0705" y2="-0.0000"/>
<text transform="translate(78.6452, 8.5434)" font-family="sans-serif" font-size="2.6163" text-anchor="start" fill="currentColor">
<tspan>C</tspan>
</text>
<text transform="translate(80.4890, 8.5434)" font-family="sans-serif" font-size="2.6163" text-anchor="start" fill="currentColor">
<tspan/>
</text>
<text transform="translate(80.4890, 8.5434)" font-family="sans-serif" font-size="2.6163" text-anchor="start" fill="currentColor">
<tspan/>
</text>
<text transform="translate(80.4890, 7.3542)" font-family="sans-serif" font-size="1.8500" text-anchor="start" fill="currentColor">
<tspan/>
</text>
<text transform="translate(83.8787, 21.7902)" font-family="serif" font-size="2.4696" text-anchor="start" fill="currentColor">
<tspan>his</tspan>
</text>
<text transform="translate(82.9909, 24.5902)" font-family="serif" font-size="2.4696" text-anchor="start" fill="currentColor">
<tspan>he’ll</tspan>
</text>
<path transform="translate(78.6452, 14.4139) scale(0.0040, -0.0040)" d="M218 136c55 0 108 -28 108 -89c0 -71 -55 -121 -102 -149c-35 -21 -75 -34 -116 -34c-55 0 -108 28 -108 89c0 71 55 121 102 149c35 21 75 34 116 34z" fill="currentColor"/>
<rect transform="translate(73.9715, 12.4139)" x="-0.0650" y="-1.0000" width="0.1300" height="3.3139" ry="0.0400" fill="currentColor"/>
<g color="rgb(100.0000%, 100.0000%, 100.0000%)">
<rect transform="translate(85.0532, 29.7855)" x="0.1229" y="-0.6480" width="1.2292" height="1.2959" ry="0.0000" fill="currentColor"/>
</g>
<text transform="translate(85.1761, 30.4334)" font-family="serif" font-weight="bold" font-size="1.7461" text-anchor="start" fill="currentColor">
<tspan>2</tspan>
</text>
<rect transform="translate(86.2924, 12.4139)" x="-0.0650" y="-1.0000" width="0.1300" height="3.3139" ry="0.0400" fill="currentColor"/>
<g color="rgb(100.0000%, 100.0000%, 100.0000%)">
<rect transform="translate(72.7323, 29.7855)" x="0.1229" y="-0.6480" width="1.2292" height="1.2959" ry="0.0000" fill="currentColor"/>
</g>
<text transform="translate(72.8552, 30.4334)" font-family="serif" font-weight="bold" font-size="1.7461" text-anchor="start" fill="currentColor">
<tspan>2</tspan>
</text>
<text transform="translate(59.2796, 21.7902)" font-family="serif" font-size="2.4696" text-anchor="start" fill="currentColor">
<tspan>To</tspan>
</text>
<text transform="translate(71.4724, 24.5902)" font-family="serif" font-size="2.4696" text-anchor="start" fill="currentColor">
<tspan>me</tspan>
</text>
<text transform="translate(72.0528, 21.7902)" font-family="serif" font-size="2.4696" text-anchor="start" fill="currentColor">
<tspan>er</tspan>
</text>
<path transform="translate(72.7323, 14.9139) scale(0.0040, -0.0040)" d="M218 136c55 0 108 -28 108 -89c0 -71 -55 -121 -102 -149c-35 -21 -75 -34 -116 -34c-55 0 -108 28 -108 89c0 71 55 121 102 149c35 21 75 34 116 34z" fill="currentColor"/>
<rect transform="translate(78.7102, 12.4139)" x="-0.0650" y="3.7590" width="0.1300" height="2.2410" ry="0.0400" fill="currentColor"/>
<rect transform="translate(79.8844, 12.4139)" x="-0.0650" y="-1.5000" width="0.1300" height="3.3139" ry="0.0400" fill="currentColor"/>
<g color="rgb(100.0000%, 100.0000%, 100.0000%)">
<rect transform="translate(78.6452, 31.2855)" x="0.1229" y="-0.6603" width="1.2292" height="1.3207" ry="0.0000" fill="currentColor"/>
</g>
<text transform="translate(78.7681, 31.9211)" font-family="serif" font-weight="bold" font-size="1.7461" text-anchor="start" fill="currentColor">
<tspan>3</tspan>
</text>
<g color="rgb(100.0000%, 100.0000%, 100.0000%)">
<rect transform="translate(78.6452, 28.2855)" x="0.1229" y="-0.6603" width="1.2292" height="1.3207" ry="0.0000" fill="currentColor"/>
</g>
<text transform="translate(78.7681, 28.9211)" font-family="serif" font-weight="bold" font-size="1.7461" text-anchor="start" fill="currentColor">
<tspan>0</tspan>
</text>
<text transform="translate(76.9756, 24.5902)" font-family="serif" font-size="2.4696" text-anchor="start" fill="currentColor">
<tspan>and</tspan>
</text>
<text transform="translate(75.1660, 21.7902)" font-family="serif" font-size="2.4696" text-anchor="start" fill="currentColor">
<tspan>’round</tspan>
</text>
<path transform="translate(85.0532, 14.9139) scale(0.0040, -0.0040)" d="M218 136c55 0 108 -28 108 -89c0 -71 -55 -121 -102 -149c-35 -21 -75 -34 -116 -34c-55 0 -108 28 -108 89c0 71 55 121 102 149c35 21 75 34 116 34z" fill="currentColor"/>
<path transform="translate(78.6452, 15.9139) scale(0.0040, -0.0040)" d="M314 65c0 24 -21 41 -42 41c-4 0 -8 0 -12 -1c-31 -9 -78 -40 -115 -64s-84 -53 -104 -78c-7 -8 -10 -18 -10 -28c0 -24 21 -41 42 -41c4 0 8 0 12 1c31 9 77 40 114 64s84 53 104 78c7 8 11 18 11 28zM262 136c46 0 82 -21 82 -71c0 -19 -4 -39 -10 -57
c-12 -37 -32 -72 -64 -94c-53 -36 -113 -50 -187 -50c-46 0 -83 21 -83 71c0 19 5 39 11 57c12 37 31 72 63 94c53 36 114 50 188 50z" fill="currentColor"/>
<rect transform="translate(68.5558, 12.4139)" x="-0.0650" y="-3.3333" width="0.1300" height="3.1472" ry="0.0400" fill="currentColor"/>
<g color="rgb(100.0000%, 100.0000%, 100.0000%)">
<rect transform="translate(67.3166, 31.2855)" x="0.1229" y="-0.6603" width="1.2292" height="1.3207" ry="0.0000" fill="currentColor"/>
</g>
<text transform="translate(67.4395, 31.9211)" font-family="serif" font-weight="bold" font-size="1.7461" text-anchor="start" fill="currentColor">
<tspan>0</tspan>
</text>
<g color="rgb(100.0000%, 100.0000%, 100.0000%)">
<rect transform="translate(67.3166, 26.7855)" x="0.1229" y="-0.6480" width="1.2292" height="1.2959" ry="0.0000" fill="currentColor"/>
</g>
<text transform="translate(67.4395, 27.4334)" font-family="serif" font-weight="bold" font-size="1.7461" text-anchor="start" fill="currentColor">
<tspan>1</tspan>
</text>
<text transform="translate(65.3909, 24.5902)" font-family="serif" font-size="2.4696" text-anchor="start" fill="currentColor">
<tspan>love</tspan>
</text>
<text transform="translate(65.1518, 21.7902)" font-family="serif" font-size="2.4696" text-anchor="start" fill="currentColor">
<tspan>geth</tspan>
</text>
<path transform="translate(67.3166, 16.9139) scale(0.0040, -0.0040)" d="M314 65c0 24 -21 41 -42 41c-4 0 -8 0 -12 -1c-31 -9 -78 -40 -115 -64s-84 -53 -104 -78c-7 -8 -10 -18 -10 -28c0 -24 21 -41 42 -41c4 0 8 0 12 1c31 9 77 40 114 64s84 53 104 78c7 8 11 18 11 28zM262 136c46 0 82 -21 82 -71c0 -19 -4 -39 -10 -57
c-12 -37 -32 -72 -64 -94c-53 -36 -113 -50 -187 -50c-46 0 -83 21 -83 71c0 19 5 39 11 57c12 37 31 72 63 94c53 36 114 50 188 50z" fill="currentColor"/>
<path transform="translate(67.3166, 12.4139) scale(0.0040, -0.0040)" d="M218 136c55 0 108 -28 108 -89c0 -71 -55 -121 -102 -149c-35 -21 -75 -34 -116 -34c-55 0 -108 28 -108 89c0 71 55 121 102 149c35 21 75 34 116 34z" fill="currentColor"/>
<text transform="translate(67.3166, 8.5434)" font-family="sans-serif" font-size="2.6163" text-anchor="start" fill="currentColor">
<tspan>G</tspan>
</text>
<text transform="translate(69.3310, 8.5434)" font-family="sans-serif" font-size="2.6163" text-anchor="start" fill="currentColor">
<tspan/>
</text>
<text transform="translate(69.3310, 8.5434)" font-family="sans-serif" font-size="2.6163" text-anchor="start" fill="currentColor">
<tspan>m</tspan>
</text>
<text transform="translate(71.8918, 7.3542)" font-family="sans-serif" font-size="1.8500" text-anchor="start" fill="currentColor">
<tspan/>
</text>
<path transform="translate(61.4169, 11.4539) scale(0.0040, -0.0040)" d="M0 0v-250h-16v250h16zM0 0c0 -197 207 -336 207 -533c0 -71 -15 -141 -41 -207c-5 -8 -13 -12 -20 -12c-13 0 -26 11 -23 27c26 61 42 126 42 192c0 103 -94 208 -165 283v250z" fill="currentColor"/>
<rect transform="translate(61.3519, 12.4139)" x="-0.0650" y="-1.0000" width="0.1300" height="3.3139" ry="0.0400" fill="currentColor"/>
<g color="rgb(100.0000%, 100.0000%, 100.0000%)">
<rect transform="translate(60.1127, 29.7855)" x="0.1229" y="-0.6480" width="1.2292" height="1.2959" ry="0.0000" fill="currentColor"/>
</g>
<text transform="translate(60.2356, 30.4334)" font-family="serif" font-weight="bold" font-size="1.7461" text-anchor="start" fill="currentColor">
<tspan>2</tspan>
</text>
<text transform="translate(57.7773, 24.5902)" font-family="serif" font-size="2.4696" text-anchor="start" fill="currentColor">
<tspan>He’ll</tspan>
</text>
<rect transform="translate(67.3816, 12.4139)" x="-0.0650" y="4.7590" width="0.1300" height="2.2410" ry="0.0400" fill="currentColor"/>
<rect transform="translate(109.0822, 12.4139)" x="-0.0650" y="-0.5000" width="0.1300" height="3.3139" ry="0.0400" fill="currentColor"/>
<g color="rgb(100.0000%, 100.0000%, 100.0000%)">
<rect transform="translate(107.8430, 29.7855)" x="0.1229" y="-0.6603" width="1.2292" height="1.3207" ry="0.0000" fill="currentColor"/>
</g>
<text transform="translate(107.9659, 30.4211)" font-family="serif" font-weight="bold" font-size="1.7461" text-anchor="start" fill="currentColor">
<tspan>0</tspan>
</text>
<rect transform="translate(30.3293, 24.5902)" x="0.0000" y="-0.5500" width="0.6600" height="0.1300" ry="0.0400" fill="currentColor"/>
<rect transform="translate(44.3348, 21.7902)" x="0.0000" y="-0.5500" width="0.6600" height="0.1300" ry="0.0400" fill="currentColor"/>
<text transform="translate(103.7492, 24.5902)" font-family="serif" font-size="2.4696" text-anchor="start" fill="currentColor">
<tspan>“You’ve</tspan>
</text>
<rect transform="translate(63.3709, 21.7902)" x="0.0000" y="-0.5500" width="0.6600" height="0.1300" ry="0.0400" fill="currentColor"/>
<rect transform="translate(71.0892, 21.7902)" x="0.0000" y="-0.5500" width="0.6600" height="0.1300" ry="0.0400" fill="currentColor"/>
<g color="rgb(100.0000%, 100.0000%, 100.0000%)">
<rect transform="translate(94.7739, 31.2855)" x="0.1229" y="-0.6480" width="1.2292" height="1.2959" ry="0.0000" fill="currentColor"/>
</g>
<text transform="translate(94.8968, 31.9334)" font-family="serif" font-weight="bold" font-size="1.7461" text-anchor="start" fill="currentColor">
<tspan>2</tspan>
</text>
<rect transform="translate(94.8389, 12.4139)" x="-0.0650" y="4.2590" width="0.1300" height="2.2410" ry="0.0400" fill="currentColor"/>
<rect transform="translate(96.0862, 12.4139)" x="-0.0650" y="-0.5000" width="0.1300" height="3.2410" ry="0.0400" fill="currentColor"/>
<path transform="translate(96.6012, 14.9139) scale(0.0040, -0.0040)" d="M0 0c0 31 25 56 56 56s56 -25 56 -56s-25 -56 -56 -56s-56 25 -56 56z" fill="currentColor"/>
<g color="rgb(100.0000%, 100.0000%, 100.0000%)">
<rect transform="translate(94.7739, 29.7855)" x="0.1229" y="-0.6603" width="1.2292" height="1.3207" ry="0.0000" fill="currentColor"/>
</g>
<text transform="translate(94.8968, 30.4211)" font-family="serif" font-weight="bold" font-size="1.7461" text-anchor="start" fill="currentColor">
<tspan>0</tspan>
</text>
<text transform="translate(93.1750, 24.5902)" font-family="serif" font-size="2.4696" text-anchor="start" fill="currentColor">
<tspan>say,</tspan>
</text>
<text transform="translate(92.0482, 21.7902)" font-family="serif" font-size="2.4696" text-anchor="start" fill="currentColor">
<tspan>knee,</tspan>
</text>
<path transform="translate(94.7739, 16.4139) scale(0.0040, -0.0040)" d="M314 65c0 24 -21 41 -42 41c-4 0 -8 0 -12 -1c-31 -9 -78 -40 -115 -64s-84 -53 -104 -78c-7 -8 -10 -18 -10 -28c0 -24 21 -41 42 -41c4 0 8 0 12 1c31 9 77 40 114 64s84 53 104 78c7 8 11 18 11 28zM262 136c46 0 82 -21 82 -71c0 -19 -4 -39 -10 -57
c-12 -37 -32 -72 -64 -94c-53 -36 -113 -50 -187 -50c-46 0 -83 21 -83 71c0 19 5 39 11 57c12 37 31 72 63 94c53 36 114 50 188 50z" fill="currentColor"/>
<path transform="translate(94.7739, 15.4139) scale(0.0040, -0.0040)" d="M314 65c0 24 -21 41 -42 41c-4 0 -8 0 -12 -1c-31 -9 -78 -40 -115 -64s-84 -53 -104 -78c-7 -8 -10 -18 -10 -28c0 -24 21 -41 42 -41c4 0 8 0 12 1c31 9 77 40 114 64s84 53 104 78c7 8 11 18 11 28zM262 136c46 0 82 -21 82 -71c0 -19 -4 -39 -10 -57
c-12 -37 -32 -72 -64 -94c-53 -36 -113 -50 -187 -50c-46 0 -83 21 -83 71c0 19 5 39 11 57c12 37 31 72 63 94c53 36 114 50 188 50z" fill="currentColor"/>
<text transform="translate(94.7739, 8.5434)" font-family="sans-serif" font-size="2.6163" text-anchor="start" fill="currentColor">
<tspan>F</tspan>
</text>
<text transform="translate(96.2762, 8.5434)" font-family="sans-serif" font-size="2.6163" text-anchor="start" fill="currentColor">
<tspan/>
</text>
<text transform="translate(96.2762, 8.5434)" font-family="sans-serif" font-size="2.6163" text-anchor="start" fill="currentColor">
<tspan/>
</text>
<text transform="translate(96.2762, 7.3542)" font-family="sans-serif" font-size="1.8500" text-anchor="start" fill="currentColor">
<tspan/>
</text>
<text transform="translate(106.8562, 21.7902)" font-family="serif" font-size="2.4696" text-anchor="start" fill="currentColor">
<tspan>Be</tspan>
</text>
<path transform="translate(107.8430, 15.4139) scale(0.0040, -0.0040)" d="M218 136c55 0 108 -28 108 -89c0 -71 -55 -121 -102 -149c-35 -21 -75 -34 -116 -34c-55 0 -108 28 -108 89c0 71 55 121 102 149c35 21 75 34 116 34z" fill="currentColor"/>
<text transform="translate(24.7791, 21.7902)" font-family="serif" font-size="2.4696" text-anchor="start" fill="currentColor">
<tspan>call</tspan>
</text>
<path transform="translate(26.3463, 16.4139) scale(0.0040, -0.0040)" d="M314 65c0 24 -21 41 -42 41c-4 0 -8 0 -12 -1c-31 -9 -78 -40 -115 -64s-84 -53 -104 -78c-7 -8 -10 -18 -10 -28c0 -24 21 -41 42 -41c4 0 8 0 12 1c31 9 77 40 114 64s84 53 104 78c7 8 11 18 11 28zM262 136c46 0 82 -21 82 -71c0 -19 -4 -39 -10 -57
c-12 -37 -32 -72 -64 -94c-53 -36 -113 -50 -187 -50c-46 0 -83 21 -83 71c0 19 5 39 11 57c12 37 31 72 63 94c53 36 114 50 188 50z" fill="currentColor"/>
<path transform="translate(26.3463, 13.4139) scale(0.0040, -0.0040)" d="M218 136c55 0 108 -28 108 -89c0 -71 -55 -121 -102 -149c-35 -21 -75 -34 -116 -34c-55 0 -108 28 -108 89c0 71 55 121 102 149c35 21 75 34 116 34z" fill="currentColor"/>
<text transform="translate(26.3463, 8.5434)" font-family="sans-serif" font-size="2.6163" text-anchor="start" fill="currentColor">
<tspan>A</tspan>
</text>
<text transform="translate(28.1218, 8.5434)" font-family="sans-serif" font-size="2.6163" text-anchor="start" fill="currentColor">
<tspan/>
</text>
<text transform="translate(28.1218, 8.5434)" font-family="sans-serif" font-size="2.6163" text-anchor="start" fill="currentColor">
<tspan>m</tspan>
</text>
<text transform="translate(30.6825, 7.3542)" font-family="sans-serif" font-size="1.8500" text-anchor="start" fill="currentColor">
<tspan/>
</text>
<text transform="translate(30.6825, 7.3542)" font-family="sans-serif" font-size="1.8500" text-anchor="start" fill="currentColor">
<tspan>7</tspan>
</text>
<path transform="translate(21.4986, 9.9539) scale(0.0040, -0.0040)" d="M0 0v-250h-16v250h16zM0 0c0 -197 207 -336 207 -533c0 -71 -15 -141 -41 -207c-5 -8 -13 -12 -20 -12c-13 0 -26 11 -23 27c26 61 42 126 42 192c0 103 -94 208 -165 283v250z" fill="currentColor"/>
<text transform="translate(23.8231, 24.5902)" font-family="serif" font-size="2.4696" text-anchor="start" fill="currentColor">
<tspan>bless</tspan>
</text>
<rect transform="translate(21.4336, 12.4139)" x="-0.0650" y="-2.5000" width="0.1300" height="3.3139" ry="0.0400" fill="currentColor"/>
<g color="rgb(100.0000%, 100.0000%, 100.0000%)">
<rect transform="translate(20.1944, 28.2855)" x="0.1229" y="-0.6603" width="1.2292" height="1.3207" ry="0.0000" fill="currentColor"/>
</g>
<text transform="translate(20.3173, 28.9211)" font-family="serif" font-weight="bold" font-size="1.7461" text-anchor="start" fill="currentColor">
<tspan>3</tspan>
</text>
<text transform="translate(18.3199, 24.5902)" font-family="serif" font-size="2.4696" text-anchor="start" fill="currentColor">
<tspan>that</tspan>
</text>
<text transform="translate(18.1321, 21.7902)" font-family="serif" font-size="2.4696" text-anchor="start" fill="currentColor">
<tspan>he’ll</tspan>
</text>
<path transform="translate(20.1944, 13.4139) scale(0.0040, -0.0040)" d="M218 136c55 0 108 -28 108 -89c0 -71 -55 -121 -102 -149c-35 -21 -75 -34 -116 -34c-55 0 -108 28 -108 89c0 71 55 121 102 149c35 21 75 34 116 34z" fill="currentColor"/>
<rect transform="translate(33.2513, 12.4139)" x="-0.0650" y="-2.0000" width="0.1300" height="3.3139" ry="0.0400" fill="currentColor"/>
<g color="rgb(100.0000%, 100.0000%, 100.0000%)">
<rect transform="translate(32.0121, 28.2855)" x="0.1229" y="-0.6480" width="1.2292" height="1.2959" ry="0.0000" fill="currentColor"/>
</g>
<text transform="translate(32.1350, 28.9334)" font-family="serif" font-weight="bold" font-size="1.7461" text-anchor="start" fill="currentColor">
<tspan>1</tspan>
</text>
<text transform="translate(31.1448, 24.5902)" font-family="serif" font-size="2.4696" text-anchor="start" fill="currentColor">
<tspan>ed</tspan>
</text>
<text transform="translate(30.8375, 21.7902)" font-family="serif" font-size="2.4696" text-anchor="start" fill="currentColor">
<tspan>his</tspan>
</text>
<path transform="translate(60.1127, 14.9139) scale(0.0040, -0.0040)" d="M218 136c55 0 108 -28 108 -89c0 -71 -55 -121 -102 -149c-35 -21 -75 -34 -116 -34c-55 0 -108 28 -108 89c0 71 55 121 102 149c35 21 75 34 116 34z" fill="currentColor"/>
<rect transform="translate(26.4113, 12.4139)" x="-0.0650" y="4.2590" width="0.1300" height="2.2410" ry="0.0400" fill="currentColor"/>
<rect transform="translate(27.5856, 12.4139)" x="-0.0650" y="-2.5000" width="0.1300" height="3.3139" ry="0.0400" fill="currentColor"/>
<g color="rgb(100.0000%, 100.0000%, 100.0000%)">
<rect transform="translate(26.3463, 31.2855)" x="0.1229" y="-0.6480" width="1.2292" height="1.2959" ry="0.0000" fill="currentColor"/>
</g>
<text transform="translate(26.4693, 31.9334)" font-family="serif" font-weight="bold" font-size="1.7461" text-anchor="start" fill="currentColor">
<tspan>2</tspan>
</text>
<g color="rgb(100.0000%, 100.0000%, 100.0000%)">
<rect transform="translate(26.3463, 28.2855)" x="0.1229" y="-0.6603" width="1.2292" height="1.3207" ry="0.0000" fill="currentColor"/>
</g>
<text transform="translate(26.4693, 28.9211)" font-family="serif" font-weight="bold" font-size="1.7461" text-anchor="start" fill="currentColor">
<tspan>3</tspan>
</text>
<path transform="translate(6.4906, 29.0355) scale(0.0040, -0.0040)" d="M267 -425c0 -24 -23 -27 -43 -27c-45 0 -84 31 -84 75c0 82 118 130 234 130c104 0 215 -22 215 -103c0 -51 -31 -86 -69 -110c58 -11 102 -36 102 -91c0 -90 -94 -158 -179 -158c-41 0 -80 15 -108 52c-2 2 -3 5 -3 8c0 12 16 25 28 25c4 0 8 -1 10 -4
c11 -15 27 -21 44 -21c43 0 95 40 95 93c0 46 -49 63 -100 63h-1c-6 0 -8 8 -8 16c0 11 5 24 18 24h1c36 0 68 39 68 77c0 45 -36 68 -80 76c-11 -62 -31 -173 -40 -220c-20 -102 -84 -202 -159 -202c-44 0 -68 34 -96 53c-3 2 -4 5 -4 9c0 11 12 26 24 26c3 0 5 0 7 -2
c20 -13 36 -35 65 -35c65 0 89 99 89 195v8c0 35 9 109 18 163c-39 -13 -70 -40 -70 -70c0 -15 8 -28 19 -34c4 -3 7 -9 7 -16zM301 -83c-43 -41 -114 -105 -173 -105c-33 0 -52 21 -78 32c-3 1 -5 5 -5 9c0 11 11 28 25 28c2 0 5 -1 7 -2c16 -7 30 -18 50 -18
c34 0 65 27 91 54c100 102 175 219 214 336c9 27 33 37 57 37c29 0 57 -15 57 -31c0 -2 -1 -4 -2 -6c-4 -116 -9 -233 -16 -350v-9c0 -16 3 -30 21 -30c16 0 35 13 53 19l2 1c5 0 9 -8 9 -17c0 -8 -3 -16 -12 -19c-29 -9 -54 -34 -87 -34c-32 0 -45 29 -53 58
c-16 61 -26 125 -31 191c-27 -35 -56 -68 -87 -101c11 -20 33 -33 64 -33c4 0 8 1 12 1c5 0 8 -7 8 -15c0 -25 -34 -29 -56 -29c-32 0 -56 12 -70 33zM288 540c0 -23 -23 -24 -42 -24c-49 0 -91 36 -91 84c0 95 125 120 232 120c49 0 119 -41 171 -41c38 0 77 15 110 41
c3 2 6 3 9 3c11 0 23 -11 23 -19c0 -2 -1 -3 -2 -4c-40 -45 -95 -71 -148 -71c-15 0 -31 2 -44 6c-9 -59 -26 -151 -35 -193c-22 -96 -88 -185 -163 -185c-52 0 -81 42 -115 64c-3 2 -4 5 -4 9c0 11 12 26 23 26c2 0 5 -1 7 -2c23 -15 43 -46 75 -46c56 0 82 77 85 150
c2 45 13 150 22 208c-12 3 -31 5 -32 5c-51 0 -113 -21 -113 -70c0 -18 10 -36 24 -43c5 -3 8 -10 8 -18z" fill="currentColor"/>
<path transform="translate(10.1106, 12.4139) scale(0.0040, -0.0040)" d="M27 41l-1 -66v-11c0 -22 1 -44 4 -66c45 38 93 80 93 139c0 33 -14 67 -43 67c-31 0 -52 -30 -53 -63zM-15 -138l-12 595c8 5 18 8 27 8s19 -3 27 -8l-7 -345c25 21 58 34 91 34c52 0 89 -48 89 -102c0 -80 -86 -117 -147 -169c-15 -13 -24 -38 -45 -38
c-13 0 -23 11 -23 25z" fill="currentColor"/>
<path transform="translate(6.4906, 13.4139) scale(0.0040, -0.0040)" d="M266 -635h-6c-108 0 -195 88 -195 197c0 58 53 103 112 103c54 0 95 -47 95 -103c0 -52 -43 -95 -95 -95c-11 0 -21 2 -31 6c26 -39 68 -65 117 -65h4zM461 -203c68 24 113 95 113 164c0 90 -66 179 -173 190c24 -116 46 -231 60 -354zM74 28c0 -135 129 -247 264 -247
c28 0 55 2 82 6c-14 127 -37 245 -63 364c-79 -8 -124 -61 -124 -119c0 -44 25 -91 81 -123c5 -5 7 -10 7 -15c0 -11 -10 -22 -22 -22c-3 0 -6 1 -9 2c-80 43 -117 115 -117 185c0 88 58 174 160 197c-14 58 -29 117 -46 175c-107 -121 -213 -243 -213 -403zM335 -262
c-188 0 -333 172 -333 374c0 177 131 306 248 441c-19 62 -37 125 -45 190c-6 52 -7 104 -7 156c0 115 55 224 149 292c6 5 14 5 20 0c71 -84 133 -245 133 -358c0 -143 -86 -255 -180 -364c21 -68 39 -138 56 -207c4 0 9 1 13 1c155 0 256 -128 256 -261
c0 -76 -33 -154 -107 -210c-22 -17 -47 -28 -73 -36c3 -35 5 -70 5 -105c0 -19 -1 -39 -2 -58c-7 -119 -88 -225 -202 -228l1 43c93 2 153 92 159 191c1 18 2 37 2 55c0 31 -1 61 -4 92c-29 -5 -58 -8 -89 -8zM428 916c0 55 -4 79 -20 129c-99 -48 -162 -149 -162 -259
c0 -74 18 -133 36 -194c80 97 146 198 146 324z" fill="currentColor"/>
<text transform="translate(3.4371, 9.3638)" font-family="serif" font-size="1.7461" text-anchor="start" fill="currentColor">
<tspan>17</tspan>
</text>
<rect transform="translate(111.5475, 21.7902)" x="0.0000" y="-0.5500" width="0.6600" height="0.1300" ry="0.0400" fill="currentColor"/>
<rect transform="translate(5.6306, 20.8497)" x="0.0000" y="-10.4858" width="0.1600" height="20.9717" ry="0.0500" fill="currentColor"/>
<path transform="translate(4.3806, 10.1389) scale(0.0040, -0.0040)" d="M0 -56v87c0 14 11 25 25 25h50c159 0 271 136 362 270c11 17 37 -1 26 -18c-99 -144 -215 -364 -388 -364h-75z" fill="currentColor"/>
<path transform="translate(4.3806, 31.5605) scale(0.0040, -0.0040)" d="M0 56h75c173 0 289 -220 388 -364c11 -17 -15 -35 -26 -18c-91 134 -203 270 -362 270h-50c-14 0 -25 11 -25 25v87z" fill="currentColor"/>
<rect transform="translate(4.3806, 20.8497)" x="0.0000" y="-10.5308" width="0.4500" height="21.0617" ry="0.0000" fill="currentColor"/>
<path transform="translate(14.6148, 12.9139) scale(0.0040, -0.0040)" d="M0 0c0 31 25 56 56 56s56 -25 56 -56s-25 -56 -56 -56s-56 25 -56 56z" fill="currentColor"/>
<rect transform="translate(12.9256, 12.4139)" x="-0.0650" y="3.2590" width="0.1300" height="2.2410" ry="0.0400" fill="currentColor"/>
<rect transform="translate(14.0998, 12.4139)" x="-0.0650" y="-3.0000" width="0.1300" height="3.3139" ry="0.0400" fill="currentColor"/>
<path transform="translate(32.0121, 13.9139) scale(0.0040, -0.0040)" d="M218 136c55 0 108 -28 108 -89c0 -71 -55 -121 -102 -149c-35 -21 -75 -34 -116 -34c-55 0 -108 28 -108 89c0 71 55 121 102 149c35 21 75 34 116 34z" fill="currentColor"/>
<g color="rgb(100.0000%, 100.0000%, 100.0000%)">
<rect transform="translate(12.8606, 29.7855)" x="0.1229" y="-0.6603" width="1.2292" height="1.3207" ry="0.0000" fill="currentColor"/>
</g>
<text transform="translate(12.9835, 30.4211)" font-family="serif" font-weight="bold" font-size="1.7461" text-anchor="start" fill="currentColor">
<tspan>0</tspan>
</text>
<g color="rgb(100.0000%, 100.0000%, 100.0000%)">
<rect transform="translate(12.8606, 26.7855)" x="0.1229" y="-0.6603" width="1.2292" height="1.3207" ry="0.0000" fill="currentColor"/>
</g>
<text transform="translate(12.9835, 27.4211)" font-family="serif" font-weight="bold" font-size="1.7461" text-anchor="start" fill="currentColor">
<tspan>0</tspan>
</text>
<text transform="translate(10.1154, 24.5902)" font-family="serif" font-size="2.4696" text-anchor="start" fill="currentColor">
<tspan>when</tspan>
</text>
<text transform="translate(10.7471, 21.7902)" font-family="serif" font-size="2.4696" text-anchor="start" fill="currentColor">
<tspan>sure</tspan>
</text>
<path transform="translate(12.8606, 15.4139) scale(0.0040, -0.0040)" d="M314 65c0 24 -21 41 -42 41c-4 0 -8 0 -12 -1c-31 -9 -78 -40 -115 -64s-84 -53 -104 -78c-7 -8 -10 -18 -10 -28c0 -24 21 -41 42 -41c4 0 8 0 12 1c31 9 77 40 114 64s84 53 104 78c7 8 11 18 11 28zM262 136c46 0 82 -21 82 -71c0 -19 -4 -39 -10 -57
c-12 -37 -32 -72 -64 -94c-53 -36 -113 -50 -187 -50c-46 0 -83 21 -83 71c0 19 5 39 11 57c12 37 31 72 63 94c53 36 114 50 188 50z" fill="currentColor"/>
<path transform="translate(12.8606, 12.9139) scale(0.0040, -0.0040)" d="M218 136c55 0 108 -28 108 -89c0 -71 -55 -121 -102 -149c-35 -21 -75 -34 -116 -34c-55 0 -108 28 -108 89c0 71 55 121 102 149c35 21 75 34 116 34z" fill="currentColor"/>
<text transform="translate(12.8606, 8.5434)" font-family="sans-serif" font-size="2.6163" text-anchor="start" fill="currentColor">
<tspan>F</tspan>
</text>
<text transform="translate(14.3629, 8.5434)" font-family="sans-serif" font-size="2.6163" text-anchor="start" fill="currentColor">
<tspan/>
</text>
<text transform="translate(14.3629, 8.5434)" font-family="sans-serif" font-size="2.6163" text-anchor="start" fill="currentColor">
<tspan/>
</text>
<text transform="translate(14.3629, 7.3542)" font-family="sans-serif" font-size="1.8500" text-anchor="start" fill="currentColor">
<tspan/>
</text>
<rect transform="translate(49.0270, 12.4139)" x="-0.0650" y="-1.0000" width="0.1300" height="3.3139" ry="0.0400" fill="currentColor"/>
<path transform="translate(52.7789, 15.9139) scale(0.0040, -0.0040)" d="M314 65c0 24 -21 41 -42 41c-4 0 -8 0 -12 -1c-31 -9 -78 -40 -115 -64s-84 -53 -104 -78c-7 -8 -10 -18 -10 -28c0 -24 21 -41 42 -41c4 0 8 0 12 1c31 9 77 40 114 64s84 53 104 78c7 8 11 18 11 28zM262 136c46 0 82 -21 82 -71c0 -19 -4 -39 -10 -57
c-12 -37 -32 -72 -64 -94c-53 -36 -113 -50 -187 -50c-46 0 -83 21 -83 71c0 19 5 39 11 57c12 37 31 72 63 94c53 36 114 50 188 50z" fill="currentColor"/>
<path transform="translate(52.7789, 14.4139) scale(0.0040, -0.0040)" d="M218 136c55 0 108 -28 108 -89c0 -71 -55 -121 -102 -149c-35 -21 -75 -34 -116 -34c-55 0 -108 28 -108 89c0 71 55 121 102 149c35 21 75 34 116 34z" fill="currentColor"/>
<text transform="translate(52.7789, 8.5434)" font-family="sans-serif" font-size="2.6163" text-anchor="start" fill="currentColor">
<tspan>C</tspan>
</text>
<text transform="translate(54.6226, 8.5434)" font-family="sans-serif" font-size="2.6163" text-anchor="start" fill="currentColor">
<tspan/>
</text>
<text transform="translate(54.6226, 8.5434)" font-family="sans-serif" font-size="2.6163" text-anchor="start" fill="currentColor">
<tspan/>
</text>
<text transform="translate(54.6226, 7.3542)" font-family="sans-serif" font-size="1.8500" text-anchor="start" fill="currentColor">
<tspan/>
</text>
<text transform="translate(54.6226, 7.3542)" font-family="sans-serif" font-size="1.8500" text-anchor="start" fill="currentColor">
<tspan>7</tspan>
</text>
<path transform="translate(49.0920, 11.4539) scale(0.0040, -0.0040)" d="M0 0v-250h-16v250h16zM0 0c0 -197 207 -336 207 -533c0 -71 -15 -141 -41 -207c-5 -8 -13 -12 -20 -12c-13 0 -26 11 -23 27c26 61 42 126 42 192c0 103 -94 208 -165 283v250z" fill="currentColor"/>
<text transform="translate(50.5117, 21.7902)" font-family="serif" font-size="2.4696" text-anchor="start" fill="currentColor">
<tspan>ones</tspan>
</text>
<g color="rgb(100.0000%, 100.0000%, 100.0000%)">
<rect transform="translate(47.7878, 29.7855)" x="0.1229" y="-0.6480" width="1.2292" height="1.2959" ry="0.0000" fill="currentColor"/>
</g>
<text transform="translate(47.9107, 30.4334)" font-family="serif" font-weight="bold" font-size="1.7461" text-anchor="start" fill="currentColor">
<tspan>2</tspan>
</text>
<text transform="translate(47.4156, 24.5902)" font-family="serif" font-size="2.4696" text-anchor="start" fill="currentColor">
<tspan>is</tspan>
</text>
<text transform="translate(46.8181, 21.7902)" font-family="serif" font-size="2.4696" text-anchor="start" fill="currentColor">
<tspan>tle</tspan>
</text>
<path transform="translate(47.7878, 14.9139) scale(0.0040, -0.0040)" d="M218 136c55 0 108 -28 108 -89c0 -71 -55 -121 -102 -149c-35 -21 -75 -34 -116 -34c-55 0 -108 28 -108 89c0 71 55 121 102 149c35 21 75 34 116 34z" fill="currentColor"/>
<rect transform="translate(52.8439, 12.4139)" x="-0.0650" y="3.7590" width="0.1300" height="2.2410" ry="0.0400" fill="currentColor"/>
<rect transform="translate(54.0181, 12.4139)" x="-0.0650" y="-1.5000" width="0.1300" height="3.3139" ry="0.0400" fill="currentColor"/>
<path transform="translate(54.5331, 13.9139) scale(0.0040, -0.0040)" d="M0 0c0 31 25 56 56 56s56 -25 56 -56s-25 -56 -56 -56s-56 25 -56 56z" fill="currentColor"/>
<g color="rgb(100.0000%, 100.0000%, 100.0000%)">
<rect transform="translate(52.7789, 31.2855)" x="0.1229" y="-0.6603" width="1.2292" height="1.3207" ry="0.0000" fill="currentColor"/>
</g>
<text transform="translate(52.9018, 31.9211)" font-family="serif" font-weight="bold" font-size="1.7461" text-anchor="start" fill="currentColor">
<tspan>3</tspan>
</text>
<g color="rgb(100.0000%, 100.0000%, 100.0000%)">
<rect transform="translate(52.7789, 28.2855)" x="0.1229" y="-0.6603" width="1.2292" height="1.3207" ry="0.0000" fill="currentColor"/>
</g>
<text transform="translate(52.9018, 28.9211)" font-family="serif" font-weight="bold" font-size="1.7461" text-anchor="start" fill="currentColor">
<tspan>0</tspan>
</text>
<text transform="translate(50.1703, 24.5902)" font-family="serif" font-size="2.4696" text-anchor="start" fill="currentColor">
<tspan>here,</tspan>
</text>
<rect transform="translate(41.8182, 12.4139)" x="-0.0650" y="-2.0000" width="0.1300" height="3.3139" ry="0.0400" fill="currentColor"/>
<rect transform="translate(40.6439, 12.4139)" x="-0.0650" y="3.7590" width="0.1300" height="2.2410" ry="0.0400" fill="currentColor"/>
<path transform="translate(42.3332, 13.9139) scale(0.0040, -0.0040)" d="M0 0c0 31 25 56 56 56s56 -25 56 -56s-25 -56 -56 -56s-56 25 -56 56z" fill="currentColor"/>
<g color="rgb(100.0000%, 100.0000%, 100.0000%)">
<rect transform="translate(40.5789, 31.2855)" x="0.1229" y="-0.6603" width="1.2292" height="1.3207" ry="0.0000" fill="currentColor"/>
</g>
<text transform="translate(40.7019, 31.9211)" font-family="serif" font-weight="bold" font-size="1.7461" text-anchor="start" fill="currentColor">
<tspan>3</tspan>
</text>
<g color="rgb(100.0000%, 100.0000%, 100.0000%)">
<rect transform="translate(40.5789, 28.2855)" x="0.1229" y="-0.6480" width="1.2292" height="1.2959" ry="0.0000" fill="currentColor"/>
</g>
<text transform="translate(40.7019, 28.9334)" font-family="serif" font-weight="bold" font-size="1.7461" text-anchor="start" fill="currentColor">
<tspan>1</tspan>
</text>
<text transform="translate(39.0117, 24.5902)" font-family="serif" font-size="2.4696" text-anchor="start" fill="currentColor">
<tspan>day</tspan>
</text>
<text transform="translate(39.9507, 21.7902)" font-family="serif" font-size="2.4696" text-anchor="start" fill="currentColor">
<tspan>lit</tspan>
</text>
<path transform="translate(40.5789, 15.9139) scale(0.0040, -0.0040)" d="M314 65c0 24 -21 41 -42 41c-4 0 -8 0 -12 -1c-31 -9 -78 -40 -115 -64s-84 -53 -104 -78c-7 -8 -10 -18 -10 -28c0 -24 21 -41 42 -41c4 0 8 0 12 1c31 9 77 40 114 64s84 53 104 78c7 8 11 18 11 28zM262 136c46 0 82 -21 82 -71c0 -19 -4 -39 -10 -57
c-12 -37 -32 -72 -64 -94c-53 -36 -113 -50 -187 -50c-46 0 -83 21 -83 71c0 19 5 39 11 57c12 37 31 72 63 94c53 36 114 50 188 50z" fill="currentColor"/>
<path transform="translate(40.5789, 13.9139) scale(0.0040, -0.0040)" d="M218 136c55 0 108 -28 108 -89c0 -71 -55 -121 -102 -149c-35 -21 -75 -34 -116 -34c-55 0 -108 28 -108 89c0 71 55 121 102 149c35 21 75 34 116 34z" fill="currentColor"/>
<text transform="translate(40.5789, 8.5434)" font-family="sans-serif" font-size="2.6163" text-anchor="start" fill="currentColor">
<tspan>G</tspan>
</text>
<text transform="translate(42.5934, 8.5434)" font-family="sans-serif" font-size="2.6163" text-anchor="start" fill="currentColor">
<tspan/>
</text>
<text transform="translate(42.5934, 8.5434)" font-family="sans-serif" font-size="2.6163" text-anchor="start" fill="currentColor">
<tspan>m</tspan>
</text>
<text transform="translate(45.1542, 7.3542)" font-family="sans-serif" font-size="1.8500" text-anchor="start" fill="currentColor">
<tspan/>
</text>
<rect transform="translate(5.6906, 49.3356)" x="95.5377" y="-0.1000" width="2.0660" height="0.2000" ry="0.1000" fill="currentColor"/>
<rect transform="translate(5.6906, 50.3356)" x="95.5377" y="-0.1000" width="2.0660" height="0.2000" ry="0.1000" fill="currentColor"/>
<rect transform="translate(5.6906, 49.3356)" x="85.5940" y="-0.1000" width="1.9563" height="0.2000" ry="0.1000" fill="currentColor"/>
<rect transform="translate(5.6906, 49.3356)" x="67.7152" y="-0.1000" width="2.0660" height="0.2000" ry="0.1000" fill="currentColor"/>
<rect transform="translate(5.6906, 49.3356)" x="47.1050" y="-0.1000" width="2.0660" height="0.2000" ry="0.1000" fill="currentColor"/>
<rect transform="translate(5.6906, 50.3356)" x="47.1050" y="-0.1000" width="2.0660" height="0.2000" ry="0.1000" fill="currentColor"/>
<rect transform="translate(5.6906, 49.3356)" x="6.8257" y="-0.1000" width="2.0660" height="0.2000" ry="0.1000" fill="currentColor"/>
<rect transform="translate(69.9280, 46.3356)" x="0.0000" y="-2.0000" width="0.1900" height="4.0500" ry="0.0000" fill="currentColor"/>
<rect transform="translate(37.6406, 63.4586)" x="0.0000" y="-2.3000" width="0.1900" height="4.5500" ry="0.0000" fill="currentColor"/>
<rect transform="translate(113.2110, 43.7978)" x="0.0000" y="4.5878" width="0.6000" height="12.8230" ry="0.0000" fill="currentColor"/>
<rect transform="translate(112.7210, 43.7978)" x="0.0000" y="4.5878" width="0.1900" height="12.8230" ry="0.0000" fill="currentColor"/>
<rect transform="translate(37.6406, 43.7978)" x="0.0000" y="4.5878" width="0.1900" height="12.8230" ry="0.0000" fill="currentColor"/>
<rect transform="translate(113.2110, 63.4586)" x="0.0000" y="-2.3000" width="0.6000" height="4.5500" ry="0.0000" fill="currentColor"/>
<rect transform="translate(112.7210, 63.4586)" x="0.0000" y="-2.3000" width="0.1900" height="4.5500" ry="0.0000" fill="currentColor"/>
<rect transform="translate(97.5822, 46.3356)" x="0.0000" y="-2.0000" width="0.1900" height="4.0500" ry="0.0000" fill="currentColor"/>
<rect transform="translate(37.6406, 46.3356)" x="0.0000" y="-2.0000" width="0.1900" height="4.0500" ry="0.0000" fill="currentColor"/>
<rect transform="translate(113.2110, 46.3356)" x="0.0000" y="-2.0000" width="0.6000" height="4.0500" ry="0.0000" fill="currentColor"/>
<rect transform="translate(112.7210, 46.3356)" x="0.0000" y="-2.0000" width="0.1900" height="4.0500" ry="0.0000" fill="currentColor"/>
<rect transform="translate(69.9280, 63.4586)" x="0.0000" y="-2.3000" width="0.1900" height="4.5500" ry="0.0000" fill="currentColor"/>
<rect transform="translate(69.9280, 43.7978)" x="0.0000" y="4.5878" width="0.1900" height="12.8230" ry="0.0000" fill="currentColor"/>
<rect transform="translate(97.5822, 43.7978)" x="0.0000" y="4.5878" width="0.1900" height="12.8230" ry="0.0000" fill="currentColor"/>
<line transform="translate(5.6906, 48.3356)" stroke-linejoin="round" stroke-linecap="round" stroke-width="0.1000" stroke="currentColor" x1="0.0500" y1="-0.0000" x2="108.0705" y2="-0.0000"/>
<line transform="translate(5.6906, 47.3356)" stroke-linejoin="round" stroke-linecap="round" stroke-width="0.1000" stroke="currentColor" x1="0.0500" y1="-0.0000" x2="108.0705" y2="-0.0000"/>
<line transform="translate(5.6906, 46.3356)" stroke-linejoin="round" stroke-linecap="round" stroke-width="0.1000" stroke="currentColor" x1="0.0500" y1="-0.0000" x2="108.0705" y2="-0.0000"/>
<line transform="translate(5.6906, 45.3356)" stroke-linejoin="round" stroke-linecap="round" stroke-width="0.1000" stroke="currentColor" x1="0.0500" y1="-0.0000" x2="108.0705" y2="-0.0000"/>
<line transform="translate(5.6906, 44.3356)" stroke-linejoin="round" stroke-linecap="round" stroke-width="0.1000" stroke="currentColor" x1="0.0500" y1="-0.0000" x2="108.0705" y2="-0.0000"/>
<rect transform="translate(97.5822, 63.4586)" x="0.0000" y="-2.3000" width="0.1900" height="4.5500" ry="0.0000" fill="currentColor"/>
<line transform="translate(5.6906, 65.7086)" stroke-linejoin="round" stroke-linecap="round" stroke-width="0.1000" stroke="currentColor" x1="0.0500" y1="-0.0000" x2="108.0705" y2="-0.0000"/>
<line transform="translate(5.6906, 64.2086)" stroke-linejoin="round" stroke-linecap="round" stroke-width="0.1000" stroke="currentColor" x1="0.0500" y1="-0.0000" x2="108.0705" y2="-0.0000"/>
<line transform="translate(5.6906, 62.7086)" stroke-linejoin="round" stroke-linecap="round" stroke-width="0.1000" stroke="currentColor" x1="0.0500" y1="-0.0000" x2="108.0705" y2="-0.0000"/>
<line transform="translate(5.6906, 61.2086)" stroke-linejoin="round" stroke-linecap="round" stroke-width="0.1000" stroke="currentColor" x1="0.0500" y1="-0.0000" x2="108.0705" y2="-0.0000"/>
<rect transform="translate(81.0262, 46.3356)" x="-0.0650" y="-2.5000" width="0.1300" height="3.3139" ry="0.0400" fill="currentColor"/>
<text transform="translate(83.2378, 55.7119)" font-family="serif" font-size="2.4696" text-anchor="start" fill="currentColor">
<tspan>come</tspan>
</text>
<path transform="translate(85.9488, 48.3356) scale(0.0040, -0.0040)" d="M218 136c55 0 108 -28 108 -89c0 -71 -55 -121 -102 -149c-35 -21 -75 -34 -116 -34c-55 0 -108 28 -108 89c0 71 55 121 102 149c35 21 75 34 116 34z" fill="currentColor"/>
<rect transform="translate(92.8498, 46.3356)" x="-0.0650" y="-1.5000" width="0.1300" height="3.3139" ry="0.0400" fill="currentColor"/>
<path transform="translate(85.9488, 45.8356) scale(0.0040, -0.0040)" d="M218 136c55 0 108 -28 108 -89c0 -71 -55 -121 -102 -149c-35 -21 -75 -34 -116 -34c-55 0 -108 28 -108 89c0 71 55 121 102 149c35 21 75 34 116 34z" fill="currentColor"/>
<path transform="translate(79.7870, 47.3356) scale(0.0040, -0.0040)" d="M218 136c55 0 108 -28 108 -89c0 -71 -55 -121 -102 -149c-35 -21 -75 -34 -116 -34c-55 0 -108 28 -108 89c0 71 55 121 102 149c35 21 75 34 116 34z" fill="currentColor"/>
<text transform="translate(79.1928, 55.7119)" font-family="serif" font-size="2.4696" text-anchor="start" fill="currentColor">
<tspan>to</tspan>
</text>
<text transform="translate(85.9488, 41.4999)" font-family="sans-serif" font-size="2.6163" text-anchor="start" fill="currentColor">
<tspan>C</tspan>
</text>
<text transform="translate(87.7925, 41.4999)" font-family="sans-serif" font-size="2.6163" text-anchor="start" fill="currentColor">
<tspan/>
</text>
<text transform="translate(87.7925, 41.4999)" font-family="sans-serif" font-size="2.6163" text-anchor="start" fill="currentColor">
<tspan/>
</text>
<text transform="translate(87.7925, 40.3107)" font-family="sans-serif" font-size="1.8500" text-anchor="start" fill="currentColor">
<tspan/>
</text>
<text transform="translate(78.5612, 58.5119)" font-family="serif" font-size="2.4696" text-anchor="start" fill="currentColor">
<tspan>my</tspan>
</text>
<g color="rgb(100.0000%, 100.0000%, 100.0000%)">
<rect transform="translate(79.7870, 62.7086)" x="0.1229" y="-0.6603" width="1.2292" height="1.3207" ry="0.0000" fill="currentColor"/>
</g>
<text transform="translate(79.9099, 63.3442)" font-family="serif" font-weight="bold" font-size="1.7461" text-anchor="start" fill="currentColor">
<tspan>3</tspan>
</text>
<g color="rgb(100.0000%, 100.0000%, 100.0000%)">
<rect transform="translate(66.3315, 64.2086)" x="0.1229" y="-0.6603" width="1.2292" height="1.3207" ry="0.0000" fill="currentColor"/>
</g>
<text transform="translate(66.4544, 64.8442)" font-family="serif" font-weight="bold" font-size="1.7461" text-anchor="start" fill="currentColor">
<tspan>3</tspan>
</text>
<g color="rgb(100.0000%, 100.0000%, 100.0000%)">
<rect transform="translate(91.6106, 64.2086)" x="0.1229" y="-0.6603" width="1.2292" height="1.3207" ry="0.0000" fill="currentColor"/>
</g>
<text transform="translate(91.7335, 64.8442)" font-family="serif" font-weight="bold" font-size="1.7461" text-anchor="start" fill="currentColor">
<tspan>0</tspan>
</text>
<g color="rgb(100.0000%, 100.0000%, 100.0000%)">
<rect transform="translate(91.6106, 62.7086)" x="0.1229" y="-0.6603" width="1.2292" height="1.3207" ry="0.0000" fill="currentColor"/>
</g>
<text transform="translate(91.7335, 63.3442)" font-family="serif" font-weight="bold" font-size="1.7461" text-anchor="start" fill="currentColor">
<tspan>0</tspan>
</text>
<text transform="translate(91.0165, 58.5119)" font-family="serif" font-size="2.4696" text-anchor="start" fill="currentColor">
<tspan>to</tspan>
</text>
<text transform="translate(91.0165, 55.7119)" font-family="serif" font-size="2.4696" text-anchor="start" fill="currentColor">
<tspan>to</tspan>
</text>
<path transform="translate(91.6106, 49.3356) scale(0.0040, -0.0040)" d="M218 136c55 0 108 -28 108 -89c0 -71 -55 -121 -102 -149c-35 -21 -75 -34 -116 -34c-55 0 -108 28 -108 89c0 71 55 121 102 149c35 21 75 34 116 34z" fill="currentColor"/>
<path transform="translate(91.6106, 48.3356) scale(0.0040, -0.0040)" d="M218 136c55 0 108 -28 108 -89c0 -71 -55 -121 -102 -149c-35 -21 -75 -34 -116 -34c-55 0 -108 28 -108 89c0 71 55 121 102 149c35 21 75 34 116 34z" fill="currentColor"/>
<text transform="translate(91.6106, 41.4999)" font-family="sans-serif" font-size="2.6163" text-anchor="start" fill="currentColor">
<tspan>C</tspan>
</text>
<text transform="translate(93.4544, 41.4999)" font-family="sans-serif" font-size="2.6163" text-anchor="start" fill="currentColor">
<tspan/>
</text>
<text transform="translate(93.4544, 41.4999)" font-family="sans-serif" font-size="2.6163" text-anchor="start" fill="currentColor">
<tspan/>
</text>
<text transform="translate(93.4544, 40.3107)" font-family="sans-serif" font-size="1.8500" text-anchor="start" fill="currentColor">
<tspan/>
</text>
<text transform="translate(93.4544, 40.3107)" font-family="sans-serif" font-size="1.8500" text-anchor="start" fill="currentColor">
<tspan>7</tspan>
</text>
<text transform="translate(83.4597, 58.5119)" font-family="serif" font-size="2.4696" text-anchor="start" fill="currentColor">
<tspan>arms</tspan>
</text>
<rect transform="translate(86.0138, 46.3356)" x="-0.0650" y="2.1861" width="0.1300" height="2.4806" ry="0.0400" fill="currentColor"/>
<rect transform="translate(87.1880, 46.3356)" x="-0.0650" y="-3.6667" width="0.1300" height="2.9806" ry="0.0400" fill="currentColor"/>
<g color="rgb(100.0000%, 100.0000%, 100.0000%)">
<rect transform="translate(85.9488, 62.7086)" x="0.1229" y="-0.6603" width="1.2292" height="1.3207" ry="0.0000" fill="currentColor"/>
</g>
<text transform="translate(86.0717, 63.3442)" font-family="serif" font-weight="bold" font-size="1.7461" text-anchor="start" fill="currentColor">
<tspan>0</tspan>
</text>
<g color="rgb(100.0000%, 100.0000%, 100.0000%)">
<rect transform="translate(85.9488, 61.2086)" x="0.1229" y="-0.6603" width="1.2292" height="1.3207" ry="0.0000" fill="currentColor"/>
</g>
<text transform="translate(86.0717, 61.8442)" font-family="serif" font-weight="bold" font-size="1.7461" text-anchor="start" fill="currentColor">
<tspan>3</tspan>
</text>
<rect transform="translate(74.9893, 46.3356)" x="-0.0650" y="-1.5000" width="0.1300" height="3.3139" ry="0.0400" fill="currentColor"/>
<g color="rgb(100.0000%, 100.0000%, 100.0000%)">
<rect transform="translate(73.7501, 65.7086)" x="0.1229" y="-0.6603" width="1.2292" height="1.3207" ry="0.0000" fill="currentColor"/>
</g>
<text transform="translate(73.8730, 66.3442)" font-family="serif" font-weight="bold" font-size="1.7461" text-anchor="start" fill="currentColor">
<tspan>3</tspan>
</text>
<g color="rgb(100.0000%, 100.0000%, 100.0000%)">
<rect transform="translate(73.7501, 62.7086)" x="0.1229" y="-0.6603" width="1.2292" height="1.3207" ry="0.0000" fill="currentColor"/>
</g>
<text transform="translate(73.8730, 63.3442)" font-family="serif" font-weight="bold" font-size="1.7461" text-anchor="start" fill="currentColor">
<tspan>0</tspan>
</text>
<text transform="translate(73.1560, 58.5119)" font-family="serif" font-size="2.4696" text-anchor="start" fill="currentColor">
<tspan>to</tspan>
</text>
<text transform="translate(71.1928, 55.7119)" font-family="serif" font-size="2.4696" text-anchor="start" fill="currentColor">
<tspan>them</tspan>
</text>
<path transform="translate(73.7501, 49.8356) scale(0.0040, -0.0040)" d="M314 65c0 24 -21 41 -42 41c-4 0 -8 0 -12 -1c-31 -9 -78 -40 -115 -64s-84 -53 -104 -78c-7 -8 -10 -18 -10 -28c0 -24 21 -41 42 -41c4 0 8 0 12 1c31 9 77 40 114 64s84 53 104 78c7 8 11 18 11 28zM262 136c46 0 82 -21 82 -71c0 -19 -4 -39 -10 -57
c-12 -37 -32 -72 -64 -94c-53 -36 -113 -50 -187 -50c-46 0 -83 21 -83 71c0 19 5 39 11 57c12 37 31 72 63 94c53 36 114 50 188 50z" fill="currentColor"/>
<path transform="translate(73.7501, 48.3356) scale(0.0040, -0.0040)" d="M218 136c55 0 108 -28 108 -89c0 -71 -55 -121 -102 -149c-35 -21 -75 -34 -116 -34c-55 0 -108 28 -108 89c0 71 55 121 102 149c35 21 75 34 116 34z" fill="currentColor"/>
<text transform="translate(73.7501, 41.4999)" font-family="sans-serif" font-size="2.6163" text-anchor="start" fill="currentColor">
<tspan>C</tspan>
</text>
<text transform="translate(75.5939, 41.4999)" font-family="sans-serif" font-size="2.6163" text-anchor="start" fill="currentColor">
<tspan/>
</text>
<text transform="translate(75.5939, 41.4999)" font-family="sans-serif" font-size="2.6163" text-anchor="start" fill="currentColor">
<tspan/>
</text>
<text transform="translate(75.5939, 40.3107)" font-family="sans-serif" font-size="1.8500" text-anchor="start" fill="currentColor">
<tspan/>
</text>
<text transform="translate(75.5939, 40.3107)" font-family="sans-serif" font-size="1.8500" text-anchor="start" fill="currentColor">
<tspan>7</tspan>
</text>
<path transform="translate(64.8815, 48.8356) scale(0.0040, -0.0040)" d="M216 -312c0 -10 -8 -19 -18 -19s-19 9 -19 19v145l-83 -31v-158c0 -10 -9 -19 -19 -19s-18 9 -18 19v145l-32 -12c-2 -1 -5 -1 -7 -1c-11 0 -20 9 -20 20v60c0 8 5 16 13 19l46 16v160l-32 -11c-2 -1 -5 -1 -7 -1c-11 0 -20 9 -20 20v60c0 8 5 15 13 18l46 17v158
c0 10 8 19 18 19s19 -9 19 -19v-145l83 31v158c0 10 9 19 19 19s18 -9 18 -19v-145l32 12c2 1 5 1 7 1c11 0 20 -9 20 -20v-60c0 -8 -5 -16 -13 -19l-46 -16v-160l32 11c2 1 5 1 7 1c11 0 20 -9 20 -20v-60c0 -8 -5 -15 -13 -18l-46 -17v-158zM96 65v-160l83 30v160z" fill="currentColor"/>
<rect transform="translate(67.5707, 46.3356)" x="-0.0650" y="-0.8100" width="0.1300" height="3.1239" ry="0.0400" fill="currentColor"/>
<rect transform="translate(73.8151, 46.3356)" x="-0.0650" y="3.7590" width="0.1300" height="2.2410" ry="0.0400" fill="currentColor"/>
<rect transform="translate(44.4425, 58.5119)" x="0.0000" y="-0.5500" width="0.6600" height="0.1300" ry="0.0400" fill="currentColor"/>
<rect transform="translate(64.3031, 55.7119)" x="0.0000" y="-0.5500" width="0.6600" height="0.1300" ry="0.0400" fill="currentColor"/>
<rect transform="translate(70.5421, 58.5119)" x="0.0000" y="-0.5500" width="0.6600" height="0.1300" ry="0.0400" fill="currentColor"/>
<polygon transform="translate(61.8488, 45.5256)" stroke-linejoin="round" stroke-linecap="round" stroke-width="0.0800" fill="currentColor" stroke="currentColor" points="5.7469 -0.2000 5.7469 0.2000 0.0400 0.2000 0.0400 -0.2000"/>
<g color="rgb(100.0000%, 100.0000%, 100.0000%)">
<rect transform="translate(101.5726, 65.7086)" x="0.1229" y="-0.6480" width="1.2292" height="1.2959" ry="0.0000" fill="currentColor"/>
</g>
<text transform="translate(101.6955, 66.3565)" font-family="serif" font-weight="bold" font-size="1.7461" text-anchor="start" fill="currentColor">
<tspan>2</tspan>
</text>
<g color="rgb(100.0000%, 100.0000%, 100.0000%)">
<rect transform="translate(101.5726, 64.2086)" x="0.1229" y="-0.6603" width="1.2292" height="1.3207" ry="0.0000" fill="currentColor"/>
</g>
<text transform="translate(101.6955, 64.8442)" font-family="serif" font-weight="bold" font-size="1.7461" text-anchor="start" fill="currentColor">
<tspan>0</tspan>
</text>
<g color="rgb(100.0000%, 100.0000%, 100.0000%)">
<rect transform="translate(101.5726, 62.7086)" x="0.1229" y="-0.6480" width="1.2292" height="1.2959" ry="0.0000" fill="currentColor"/>
</g>
<text transform="translate(101.6955, 63.3565)" font-family="serif" font-weight="bold" font-size="1.7461" text-anchor="start" fill="currentColor">
<tspan>1</tspan>
</text>
<text transform="translate(98.8469, 58.5119)" font-family="serif" font-size="2.4696" text-anchor="start" fill="currentColor">
<tspan>stay.”</tspan>
</text>
<text transform="translate(99.3249, 55.7119)" font-family="serif" font-size="2.4696" text-anchor="start" fill="currentColor">
<tspan>me.”</tspan>
</text>
<path transform="translate(101.5726, 50.3356) scale(0.0040, -0.0040)" d="M314 65c0 24 -21 41 -42 41c-4 0 -8 0 -12 -1c-31 -9 -78 -40 -115 -64s-84 -53 -104 -78c-7 -8 -10 -18 -10 -28c0 -24 21 -41 42 -41c4 0 8 0 12 1c31 9 77 40 114 64s84 53 104 78c7 8 11 18 11 28zM262 136c46 0 82 -21 82 -71c0 -19 -4 -39 -10 -57
c-12 -37 -32 -72 -64 -94c-53 -36 -113 -50 -187 -50c-46 0 -83 21 -83 71c0 19 5 39 11 57c12 37 31 72 63 94c53 36 114 50 188 50z" fill="currentColor"/>
<path transform="translate(101.5726, 49.3356) scale(0.0040, -0.0040)" d="M314 65c0 24 -21 41 -42 41c-4 0 -8 0 -12 -1c-31 -9 -78 -40 -115 -64s-84 -53 -104 -78c-7 -8 -10 -18 -10 -28c0 -24 21 -41 42 -41c4 0 8 0 12 1c31 9 77 40 114 64s84 53 104 78c7 8 11 18 11 28zM262 136c46 0 82 -21 82 -71c0 -19 -4 -39 -10 -57
c-12 -37 -32 -72 -64 -94c-53 -36 -113 -50 -187 -50c-46 0 -83 21 -83 71c0 19 5 39 11 57c12 37 31 72 63 94c53 36 114 50 188 50z" fill="currentColor"/>
<path transform="translate(101.5726, 47.8356) scale(0.0040, -0.0040)" d="M314 65c0 24 -21 41 -42 41c-4 0 -8 0 -12 -1c-31 -9 -78 -40 -115 -64s-84 -53 -104 -78c-7 -8 -10 -18 -10 -28c0 -24 21 -41 42 -41c4 0 8 0 12 1c31 9 77 40 114 64s84 53 104 78c7 8 11 18 11 28zM262 136c46 0 82 -21 82 -71c0 -19 -4 -39 -10 -57
c-12 -37 -32 -72 -64 -94c-53 -36 -113 -50 -187 -50c-46 0 -83 21 -83 71c0 19 5 39 11 57c12 37 31 72 63 94c53 36 114 50 188 50z" fill="currentColor"/>
<text transform="translate(101.5726, 41.4999)" font-family="sans-serif" font-size="2.6163" text-anchor="start" fill="currentColor">
<tspan>F</tspan>
</text>
<text transform="translate(103.0749, 41.4999)" font-family="sans-serif" font-size="2.6163" text-anchor="start" fill="currentColor">
<tspan/>
</text>
<text transform="translate(103.0749, 41.4999)" font-family="sans-serif" font-size="2.6163" text-anchor="start" fill="currentColor">
<tspan/>
</text>
<text transform="translate(103.0749, 40.3107)" font-family="sans-serif" font-size="1.8500" text-anchor="start" fill="currentColor">
<tspan/>
</text>
<path transform="translate(103.3999, 47.8356) scale(0.0040, -0.0040)" d="M0 0c0 31 25 56 56 56s56 -25 56 -56s-25 -56 -56 -56s-56 25 -56 56z" fill="currentColor"/>
<rect transform="translate(91.6756, 46.3356)" x="-0.0650" y="3.1861" width="0.1300" height="2.3139" ry="0.0400" fill="currentColor"/>
<path transform="translate(103.3999, 50.8356) scale(0.0040, -0.0040)" d="M0 0c0 31 25 56 56 56s56 -25 56 -56s-25 -56 -56 -56s-56 25 -56 56z" fill="currentColor"/>
<rect transform="translate(101.6376, 46.3356)" x="-0.0650" y="3.2590" width="0.1300" height="3.2410" ry="0.0400" fill="currentColor"/>
<path transform="translate(103.3999, 49.8356) scale(0.0040, -0.0040)" d="M0 0c0 31 25 56 56 56s56 -25 56 -56s-25 -56 -56 -56s-56 25 -56 56z" fill="currentColor"/>
<rect transform="translate(102.8849, 46.3356)" x="-0.0650" y="-2.0000" width="0.1300" height="3.2410" ry="0.0400" fill="currentColor"/>
<rect transform="translate(25.5070, 46.3356)" x="-0.0650" y="1.7590" width="0.1300" height="2.5743" ry="0.0400" fill="currentColor"/>
<rect transform="translate(26.6812, 46.3356)" x="-0.0650" y="-3.6667" width="0.1300" height="2.9806" ry="0.0400" fill="currentColor"/>
<g color="rgb(100.0000%, 100.0000%, 100.0000%)">
<rect transform="translate(25.4420, 62.7086)" x="0.1229" y="-0.6480" width="1.2292" height="1.2959" ry="0.0000" fill="currentColor"/>
</g>
<text transform="translate(25.5649, 63.3565)" font-family="serif" font-weight="bold" font-size="1.7461" text-anchor="start" fill="currentColor">
<tspan>1</tspan>
</text>
<g color="rgb(100.0000%, 100.0000%, 100.0000%)">
<rect transform="translate(25.4420, 61.2086)" x="0.1229" y="-0.6603" width="1.2292" height="1.3207" ry="0.0000" fill="currentColor"/>
</g>
<text transform="translate(25.5649, 61.8442)" font-family="serif" font-weight="bold" font-size="1.7461" text-anchor="start" fill="currentColor">
<tspan>3</tspan>
</text>
<text transform="translate(23.1236, 58.5119)" font-family="serif" font-size="2.4696" text-anchor="start" fill="currentColor">
<tspan>well,</tspan>
</text>
<text transform="translate(23.5504, 55.7119)" font-family="serif" font-size="2.4696" text-anchor="start" fill="currentColor">
<tspan>said</tspan>
</text>
<path transform="translate(25.4420, 47.8356) scale(0.0040, -0.0040)" d="M314 65c0 24 -21 41 -42 41c-4 0 -8 0 -12 -1c-31 -9 -78 -40 -115 -64s-84 -53 -104 -78c-7 -8 -10 -18 -10 -28c0 -24 21 -41 42 -41c4 0 8 0 12 1c31 9 77 40 114 64s84 53 104 78c7 8 11 18 11 28zM262 136c46 0 82 -21 82 -71c0 -19 -4 -39 -10 -57
c-12 -37 -32 -72 -64 -94c-53 -36 -113 -50 -187 -50c-46 0 -83 21 -83 71c0 19 5 39 11 57c12 37 31 72 63 94c53 36 114 50 188 50z" fill="currentColor"/>
<path transform="translate(25.4420, 45.8356) scale(0.0040, -0.0040)" d="M218 136c55 0 108 -28 108 -89c0 -71 -55 -121 -102 -149c-35 -21 -75 -34 -116 -34c-55 0 -108 28 -108 89c0 71 55 121 102 149c35 21 75 34 116 34z" fill="currentColor"/>
<text transform="translate(25.4420, 41.4999)" font-family="sans-serif" font-size="2.6163" text-anchor="start" fill="currentColor">
<tspan>A</tspan>
</text>
<text transform="translate(27.2174, 41.4999)" font-family="sans-serif" font-size="2.6163" text-anchor="start" fill="currentColor">
<tspan/>
</text>
<text transform="translate(27.2174, 41.4999)" font-family="sans-serif" font-size="2.6163" text-anchor="start" fill="currentColor">
<tspan>m</tspan>
</text>
<text transform="translate(29.7782, 40.3107)" font-family="sans-serif" font-size="1.8500" text-anchor="start" fill="currentColor">
<tspan/>
</text>
<text transform="translate(29.7782, 40.3107)" font-family="sans-serif" font-size="1.8500" text-anchor="start" fill="currentColor">
<tspan>7</tspan>
</text>
<rect transform="translate(20.6444, 46.3356)" x="-0.0650" y="-3.0000" width="0.1300" height="3.3139" ry="0.0400" fill="currentColor"/>
<g color="rgb(100.0000%, 100.0000%, 100.0000%)">
<rect transform="translate(19.4051, 61.2086)" x="0.1229" y="-0.6603" width="1.2292" height="1.3207" ry="0.0000" fill="currentColor"/>
</g>
<text transform="translate(19.5281, 61.8442)" font-family="serif" font-weight="bold" font-size="1.7461" text-anchor="start" fill="currentColor">
<tspan>0</tspan>
</text>
<text transform="translate(18.1452, 58.5119)" font-family="serif" font-size="2.4696" text-anchor="start" fill="currentColor">
<tspan>me</tspan>
</text>
<text transform="translate(18.5208, 55.7119)" font-family="serif" font-size="2.4696" text-anchor="start" fill="currentColor">
<tspan>he</tspan>
</text>
<path transform="translate(19.4051, 46.8356) scale(0.0040, -0.0040)" d="M218 136c55 0 108 -28 108 -89c0 -71 -55 -121 -102 -149c-35 -21 -75 -34 -116 -34c-55 0 -108 28 -108 89c0 71 55 121 102 149c35 21 75 34 116 34z" fill="currentColor"/>
<text transform="translate(31.1389, 55.7119)" font-family="serif" font-size="2.4696" text-anchor="start" fill="currentColor">
<tspan>in</tspan>
</text>
<text transform="translate(65.3788, 58.5119)" font-family="serif" font-size="2.4696" text-anchor="start" fill="currentColor">
<tspan>un</tspan>
</text>
<path transform="translate(30.2318, 45.8356) scale(0.0040, -0.0040)" d="M216 -312c0 -10 -8 -19 -18 -19s-19 9 -19 19v145l-83 -31v-158c0 -10 -9 -19 -19 -19s-18 9 -18 19v145l-32 -12c-2 -1 -5 -1 -7 -1c-11 0 -20 9 -20 20v60c0 8 5 16 13 19l46 16v160l-32 -11c-2 -1 -5 -1 -7 -1c-11 0 -20 9 -20 20v60c0 8 5 15 13 18l46 17v158
c0 10 8 19 18 19s19 -9 19 -19v-145l83 31v158c0 10 9 19 19 19s18 -9 18 -19v-145l32 12c2 1 5 1 7 1c11 0 20 -9 20 -20v-60c0 -8 -5 -16 -13 -19l-46 -16v-160l32 11c2 1 5 1 7 1c11 0 20 -9 20 -20v-60c0 -8 -5 -15 -13 -18l-46 -17v-158zM96 65v-160l83 30v160z" fill="currentColor"/>
<rect transform="translate(32.9210, 46.3356)" x="-0.0650" y="-3.6667" width="0.1300" height="2.9806" ry="0.0400" fill="currentColor"/>
<g color="rgb(100.0000%, 100.0000%, 100.0000%)">
<rect transform="translate(31.6818, 61.2086)" x="0.1229" y="-0.6480" width="1.2292" height="1.2959" ry="0.0000" fill="currentColor"/>
</g>
<text transform="translate(31.8047, 61.8565)" font-family="serif" font-weight="bold" font-size="1.7461" text-anchor="start" fill="currentColor">
<tspan>4</tspan>
</text>
<text transform="translate(30.4561, 58.5119)" font-family="serif" font-size="2.4696" text-anchor="start" fill="currentColor">
<tspan>my</tspan>
</text>
<path transform="translate(31.6818, 45.8356) scale(0.0040, -0.0040)" d="M218 136c55 0 108 -28 108 -89c0 -71 -55 -121 -102 -149c-35 -21 -75 -34 -116 -34c-55 0 -108 28 -108 89c0 71 55 121 102 149c35 21 75 34 116 34z" fill="currentColor"/>
<path transform="translate(6.4906, 63.4586) scale(0.0040, -0.0040)" d="M267 -425c0 -24 -23 -27 -43 -27c-45 0 -84 31 -84 75c0 82 118 130 234 130c104 0 215 -22 215 -103c0 -51 -31 -86 -69 -110c58 -11 102 -36 102 -91c0 -90 -94 -158 -179 -158c-41 0 -80 15 -108 52c-2 2 -3 5 -3 8c0 12 16 25 28 25c4 0 8 -1 10 -4
c11 -15 27 -21 44 -21c43 0 95 40 95 93c0 46 -49 63 -100 63h-1c-6 0 -8 8 -8 16c0 11 5 24 18 24h1c36 0 68 39 68 77c0 45 -36 68 -80 76c-11 -62 -31 -173 -40 -220c-20 -102 -84 -202 -159 -202c-44 0 -68 34 -96 53c-3 2 -4 5 -4 9c0 11 12 26 24 26c3 0 5 0 7 -2
c20 -13 36 -35 65 -35c65 0 89 99 89 195v8c0 35 9 109 18 163c-39 -13 -70 -40 -70 -70c0 -15 8 -28 19 -34c4 -3 7 -9 7 -16zM301 -83c-43 -41 -114 -105 -173 -105c-33 0 -52 21 -78 32c-3 1 -5 5 -5 9c0 11 11 28 25 28c2 0 5 -1 7 -2c16 -7 30 -18 50 -18
c34 0 65 27 91 54c100 102 175 219 214 336c9 27 33 37 57 37c29 0 57 -15 57 -31c0 -2 -1 -4 -2 -6c-4 -116 -9 -233 -16 -350v-9c0 -16 3 -30 21 -30c16 0 35 13 53 19l2 1c5 0 9 -8 9 -17c0 -8 -3 -16 -12 -19c-29 -9 -54 -34 -87 -34c-32 0 -45 29 -53 58
c-16 61 -26 125 -31 191c-27 -35 -56 -68 -87 -101c11 -20 33 -33 64 -33c4 0 8 1 12 1c5 0 8 -7 8 -15c0 -25 -34 -29 -56 -29c-32 0 -56 12 -70 33zM288 540c0 -23 -23 -24 -42 -24c-49 0 -91 36 -91 84c0 95 125 120 232 120c49 0 119 -41 171 -41c38 0 77 15 110 41
c3 2 6 3 9 3c11 0 23 -11 23 -19c0 -2 -1 -3 -2 -4c-40 -45 -95 -71 -148 -71c-15 0 -31 2 -44 6c-9 -59 -26 -151 -35 -193c-22 -96 -88 -185 -163 -185c-52 0 -81 42 -115 64c-3 2 -4 5 -4 9c0 11 12 26 23 26c2 0 5 -1 7 -2c23 -15 43 -46 75 -46c56 0 82 77 85 150
c2 45 13 150 22 208c-12 3 -31 5 -32 5c-51 0 -113 -21 -113 -70c0 -18 10 -36 24 -43c5 -3 8 -10 8 -18z" fill="currentColor"/>
<path transform="translate(10.1106, 46.3356) scale(0.0040, -0.0040)" d="M27 41l-1 -66v-11c0 -22 1 -44 4 -66c45 38 93 80 93 139c0 33 -14 67 -43 67c-31 0 -52 -30 -53 -63zM-15 -138l-12 595c8 5 18 8 27 8s19 -3 27 -8l-7 -345c25 21 58 34 91 34c52 0 89 -48 89 -102c0 -80 -86 -117 -147 -169c-15 -13 -24 -38 -45 -38
c-13 0 -23 11 -23 25z" fill="currentColor"/>
<path transform="translate(6.4906, 47.3356) scale(0.0040, -0.0040)" d="M266 -635h-6c-108 0 -195 88 -195 197c0 58 53 103 112 103c54 0 95 -47 95 -103c0 -52 -43 -95 -95 -95c-11 0 -21 2 -31 6c26 -39 68 -65 117 -65h4zM461 -203c68 24 113 95 113 164c0 90 -66 179 -173 190c24 -116 46 -231 60 -354zM74 28c0 -135 129 -247 264 -247
c28 0 55 2 82 6c-14 127 -37 245 -63 364c-79 -8 -124 -61 -124 -119c0 -44 25 -91 81 -123c5 -5 7 -10 7 -15c0 -11 -10 -22 -22 -22c-3 0 -6 1 -9 2c-80 43 -117 115 -117 185c0 88 58 174 160 197c-14 58 -29 117 -46 175c-107 -121 -213 -243 -213 -403zM335 -262
c-188 0 -333 172 -333 374c0 177 131 306 248 441c-19 62 -37 125 -45 190c-6 52 -7 104 -7 156c0 115 55 224 149 292c6 5 14 5 20 0c71 -84 133 -245 133 -358c0 -143 -86 -255 -180 -364c21 -68 39 -138 56 -207c4 0 9 1 13 1c155 0 256 -128 256 -261
c0 -76 -33 -154 -107 -210c-22 -17 -47 -28 -73 -36c3 -35 5 -70 5 -105c0 -19 -1 -39 -2 -58c-7 -119 -88 -225 -202 -228l1 43c93 2 153 92 159 191c1 18 2 37 2 55c0 31 -1 61 -4 92c-29 -5 -58 -8 -89 -8zM428 916c0 55 -4 79 -20 129c-99 -48 -162 -149 -162 -259
c0 -74 18 -133 36 -194c80 97 146 198 146 324z" fill="currentColor"/>
<text transform="translate(3.4371, 43.2856)" font-family="serif" font-size="1.7461" text-anchor="start" fill="currentColor">
<tspan>21</tspan>
</text>
<rect transform="translate(5.6306, 55.0221)" x="0.0000" y="-10.7365" width="0.1600" height="21.4730" ry="0.0500" fill="currentColor"/>
<path transform="translate(4.3806, 44.0606) scale(0.0040, -0.0040)" d="M0 -56v87c0 14 11 25 25 25h50c159 0 271 136 362 270c11 17 37 -1 26 -18c-99 -144 -215 -364 -388 -364h-75z" fill="currentColor"/>
<path transform="translate(4.3806, 65.9836) scale(0.0040, -0.0040)" d="M0 56h75c173 0 289 -220 388 -364c11 -17 -15 -35 -26 -18c-91 134 -203 270 -362 270h-50c-14 0 -25 11 -25 25v87z" fill="currentColor"/>
<rect transform="translate(4.3806, 55.0221)" x="0.0000" y="-10.7815" width="0.4500" height="21.5630" ry="0.0000" fill="currentColor"/>
<rect transform="translate(12.9256, 46.3356)" x="-0.0650" y="3.2590" width="0.1300" height="2.2410" ry="0.0400" fill="currentColor"/>
<rect transform="translate(14.0998, 46.3356)" x="-0.0650" y="-2.0000" width="0.1300" height="3.3139" ry="0.0400" fill="currentColor"/>
<g color="rgb(100.0000%, 100.0000%, 100.0000%)">
<rect transform="translate(12.8606, 64.2086)" x="0.1229" y="-0.6603" width="1.2292" height="1.3207" ry="0.0000" fill="currentColor"/>
</g>
<text transform="translate(12.9835, 64.8442)" font-family="serif" font-weight="bold" font-size="1.7461" text-anchor="start" fill="currentColor">
<tspan>0</tspan>
</text>
<g color="rgb(100.0000%, 100.0000%, 100.0000%)">
<rect transform="translate(12.8606, 62.7086)" x="0.1229" y="-0.6480" width="1.2292" height="1.2959" ry="0.0000" fill="currentColor"/>
</g>
<text transform="translate(12.9835, 63.3565)" font-family="serif" font-weight="bold" font-size="1.7461" text-anchor="start" fill="currentColor">
<tspan>1</tspan>
</text>
<text transform="translate(9.3301, 58.5119)" font-family="serif" font-size="2.4696" text-anchor="start" fill="currentColor">
<tspan>served</tspan>
</text>
<text transform="translate(9.9106, 55.7119)" font-family="serif" font-size="2.4696" text-anchor="start" fill="currentColor">
<tspan>cause</tspan>
</text>
<path transform="translate(12.8606, 49.3356) scale(0.0040, -0.0040)" d="M314 65c0 24 -21 41 -42 41c-4 0 -8 0 -12 -1c-31 -9 -78 -40 -115 -64s-84 -53 -104 -78c-7 -8 -10 -18 -10 -28c0 -24 21 -41 42 -41c4 0 8 0 12 1c31 9 77 40 114 64s84 53 104 78c7 8 11 18 11 28zM262 136c46 0 82 -21 82 -71c0 -19 -4 -39 -10 -57
c-12 -37 -32 -72 -64 -94c-53 -36 -113 -50 -187 -50c-46 0 -83 21 -83 71c0 19 5 39 11 57c12 37 31 72 63 94c53 36 114 50 188 50z" fill="currentColor"/>
<path transform="translate(12.8606, 47.8356) scale(0.0040, -0.0040)" d="M218 136c55 0 108 -28 108 -89c0 -71 -55 -121 -102 -149c-35 -21 -75 -34 -116 -34c-55 0 -108 28 -108 89c0 71 55 121 102 149c35 21 75 34 116 34z" fill="currentColor"/>
<text transform="translate(12.8606, 41.4999)" font-family="sans-serif" font-size="2.6163" text-anchor="start" fill="currentColor">
<tspan>F</tspan>
</text>
<text transform="translate(14.3629, 41.4999)" font-family="sans-serif" font-size="2.6163" text-anchor="start" fill="currentColor">
<tspan/>
</text>
<text transform="translate(14.3629, 41.4999)" font-family="sans-serif" font-size="2.6163" text-anchor="start" fill="currentColor">
<tspan/>
</text>
<text transform="translate(14.3629, 40.3107)" font-family="sans-serif" font-size="1.8500" text-anchor="start" fill="currentColor">
<tspan/>
</text>
<g color="rgb(100.0000%, 100.0000%, 100.0000%)">
<rect transform="translate(53.1399, 65.7086)" x="0.1229" y="-0.6603" width="1.2292" height="1.3207" ry="0.0000" fill="currentColor"/>
</g>
<text transform="translate(53.2628, 66.3442)" font-family="serif" font-weight="bold" font-size="1.7461" text-anchor="start" fill="currentColor">
<tspan>0</tspan>
</text>
<g color="rgb(100.0000%, 100.0000%, 100.0000%)">
<rect transform="translate(53.1399, 64.2086)" x="0.1229" y="-0.6480" width="1.2292" height="1.2959" ry="0.0000" fill="currentColor"/>
</g>
<text transform="translate(53.2628, 64.8565)" font-family="serif" font-weight="bold" font-size="1.7461" text-anchor="start" fill="currentColor">
<tspan>2</tspan>
</text>
<text transform="translate(50.3093, 58.5119)" font-family="serif" font-size="2.4696" text-anchor="start" fill="currentColor">
<tspan>child;</tspan>
</text>
<text transform="translate(52.0848, 55.7119)" font-family="serif" font-size="2.4696" text-anchor="start" fill="currentColor">
<tspan>by,</tspan>
</text>
<path transform="translate(53.1399, 50.8356) scale(0.0040, -0.0040)" d="M314 65c0 24 -21 41 -42 41c-4 0 -8 0 -12 -1c-31 -9 -78 -40 -115 -64s-84 -53 -104 -78c-7 -8 -10 -18 -10 -28c0 -24 21 -41 42 -41c4 0 8 0 12 1c31 9 77 40 114 64s84 53 104 78c7 8 11 18 11 28zM262 136c46 0 82 -21 82 -71c0 -19 -4 -39 -10 -57
c-12 -37 -32 -72 -64 -94c-53 -36 -113 -50 -187 -50c-46 0 -83 21 -83 71c0 19 5 39 11 57c12 37 31 72 63 94c53 36 114 50 188 50z" fill="currentColor"/>
<path transform="translate(53.7920, 44.0096) scale(0.0040, -0.0040)" d="M-67 48c0 37 30 67 67 67s67 -30 67 -67s-30 -67 -67 -67s-67 30 -67 67zM0 363c157 0 332 -176 332 -366c0 -9 -10 -15 -19 -15s-17 5 -19 18c-26 148 -146 262 -294 262s-268 -114 -294 -262c-2 -13 -10 -18 -19 -18s-19 6 -19 15c0 190 175 366 332 366z" fill="currentColor"/>
<path transform="translate(53.1399, 48.8356) scale(0.0040, -0.0040)" d="M218 136c55 0 108 -28 108 -89c0 -71 -55 -121 -102 -149c-35 -21 -75 -34 -116 -34c-55 0 -108 28 -108 89c0 71 55 121 102 149c35 21 75 34 116 34z" fill="currentColor"/>
<text transform="translate(53.1399, 41.4999)" font-family="sans-serif" font-size="2.6163" text-anchor="start" fill="currentColor">
<tspan>G</tspan>
</text>
<text transform="translate(55.1543, 41.4999)" font-family="sans-serif" font-size="2.6163" text-anchor="start" fill="currentColor">
<tspan/>
</text>
<text transform="translate(55.1543, 41.4999)" font-family="sans-serif" font-size="2.6163" text-anchor="start" fill="currentColor">
<tspan>m</tspan>
</text>
<text transform="translate(57.7151, 40.3107)" font-family="sans-serif" font-size="1.8500" text-anchor="start" fill="currentColor">
<tspan/>
</text>
<rect transform="translate(54.3791, 46.3356)" x="-0.0650" y="-1.0000" width="0.1300" height="3.3139" ry="0.0400" fill="currentColor"/>
<rect transform="translate(48.7172, 46.3356)" x="-0.0650" y="-4.0000" width="0.1300" height="2.8139" ry="0.0400" fill="currentColor"/>
<g color="rgb(100.0000%, 100.0000%, 100.0000%)">
<rect transform="translate(47.4780, 61.2086)" x="0.1229" y="-0.6488" width="1.2292" height="1.2976" ry="0.0000" fill="currentColor"/>
</g>
<text transform="translate(47.6009, 61.8327)" font-family="serif" font-weight="bold" font-size="1.7461" text-anchor="start" fill="currentColor">
<tspan>5</tspan>
</text>
<text transform="translate(46.5083, 58.5119)" font-family="serif" font-size="2.4696" text-anchor="start" fill="currentColor">
<tspan>tle</tspan>
</text>
<path transform="translate(47.4780, 45.3356) scale(0.0040, -0.0040)" d="M218 136c55 0 108 -28 108 -89c0 -71 -55 -121 -102 -149c-35 -21 -75 -34 -116 -34c-55 0 -108 28 -108 89c0 71 55 121 102 149c35 21 75 34 116 34z" fill="currentColor"/>
<rect transform="translate(61.9138, 46.3356)" x="-0.0650" y="-0.8100" width="0.1300" height="3.1239" ry="0.0400" fill="currentColor"/>
<g color="rgb(100.0000%, 100.0000%, 100.0000%)">
<rect transform="translate(60.6746, 64.2086)" x="0.1229" y="-0.6480" width="1.2292" height="1.2959" ry="0.0000" fill="currentColor"/>
</g>
<text transform="translate(60.7975, 64.8565)" font-family="serif" font-weight="bold" font-size="1.7461" text-anchor="start" fill="currentColor">
<tspan>2</tspan>
</text>
<text transform="translate(57.7246, 58.5119)" font-family="serif" font-size="2.4696" text-anchor="start" fill="currentColor">
<tspan>Come</tspan>
</text>
<text transform="translate(58.5782, 55.7119)" font-family="serif" font-size="2.4696" text-anchor="start" fill="currentColor">
<tspan>“Suf</tspan>
</text>
<path transform="translate(60.6746, 48.8356) scale(0.0040, -0.0040)" d="M218 136c55 0 108 -28 108 -89c0 -71 -55 -121 -102 -149c-35 -21 -75 -34 -116 -34c-55 0 -108 28 -108 89c0 71 55 121 102 149c35 21 75 34 116 34z" fill="currentColor"/>
<text transform="translate(45.0572, 55.7119)" font-family="serif" font-size="2.4696" text-anchor="start" fill="currentColor">
<tspan>gone</tspan>
</text>
<rect transform="translate(53.2049, 46.3356)" x="-0.0650" y="4.7590" width="0.1300" height="2.2410" ry="0.0400" fill="currentColor"/>
<rect transform="translate(41.1692, 46.3356)" x="-0.0650" y="0.2590" width="0.1300" height="3.0743" ry="0.0400" fill="currentColor"/>
<rect transform="translate(42.3434, 46.3356)" x="-0.0650" y="-4.0000" width="0.1300" height="2.8139" ry="0.0400" fill="currentColor"/>
<path transform="translate(66.3315, 48.8356) scale(0.0040, -0.0040)" d="M218 136c55 0 108 -28 108 -89c0 -71 -55 -121 -102 -149c-35 -21 -75 -34 -116 -34c-55 0 -108 28 -108 89c0 71 55 121 102 149c35 21 75 34 116 34z" fill="currentColor"/>
<g color="rgb(100.0000%, 100.0000%, 100.0000%)">
<rect transform="translate(41.1042, 62.7086)" x="0.1229" y="-0.6603" width="1.2292" height="1.3207" ry="0.0000" fill="currentColor"/>
</g>
<text transform="translate(41.2271, 63.3442)" font-family="serif" font-weight="bold" font-size="1.7461" text-anchor="start" fill="currentColor">
<tspan>6</tspan>
</text>
<g color="rgb(100.0000%, 100.0000%, 100.0000%)">
<rect transform="translate(41.1042, 61.2086)" x="0.1229" y="-0.6488" width="1.2292" height="1.2976" ry="0.0000" fill="currentColor"/>
</g>
<text transform="translate(41.2271, 61.8327)" font-family="serif" font-weight="bold" font-size="1.7461" text-anchor="start" fill="currentColor">
<tspan>5</tspan>
</text>
<text transform="translate(40.4759, 58.5119)" font-family="serif" font-size="2.4696" text-anchor="start" fill="currentColor">
<tspan>lit</tspan>
</text>
<text transform="translate(38.9053, 55.7119)" font-family="serif" font-size="2.4696" text-anchor="start" fill="currentColor">
<tspan>days</tspan>
</text>
<path transform="translate(41.1042, 46.3356) scale(0.0040, -0.0040)" d="M314 65c0 24 -21 41 -42 41c-4 0 -8 0 -12 -1c-31 -9 -78 -40 -115 -64s-84 -53 -104 -78c-7 -8 -10 -18 -10 -28c0 -24 21 -41 42 -41c4 0 8 0 12 1c31 9 77 40 114 64s84 53 104 78c7 8 11 18 11 28zM262 136c46 0 82 -21 82 -71c0 -19 -4 -39 -10 -57
c-12 -37 -32 -72 -64 -94c-53 -36 -113 -50 -187 -50c-46 0 -83 21 -83 71c0 19 5 39 11 57c12 37 31 72 63 94c53 36 114 50 188 50z" fill="currentColor"/>
<path transform="translate(41.1042, 45.3356) scale(0.0040, -0.0040)" d="M218 136c55 0 108 -28 108 -89c0 -71 -55 -121 -102 -149c-35 -21 -75 -34 -116 -34c-55 0 -108 28 -108 89c0 71 55 121 102 149c35 21 75 34 116 34z" fill="currentColor"/>
<text transform="translate(41.1042, 41.4999)" font-family="sans-serif" font-size="2.6163" text-anchor="start" fill="currentColor">
<tspan>B</tspan>
</text>
<path transform="translate(43.1356, 41.1999) scale(0.0042, -0.0042)" d="M27 41l-1 -66v-11c0 -22 1 -44 4 -66c45 38 93 80 93 139c0 33 -14 67 -43 67c-31 0 -52 -30 -53 -63zM-15 -138l-12 595c8 5 18 8 27 8s19 -3 27 -8l-7 -345c25 21 58 34 91 34c52 0 89 -48 89 -102c0 -80 -86 -117 -147 -169c-15 -13 -24 -38 -45 -38
c-13 0 -23 11 -23 25z" fill="currentColor"/>
<text transform="translate(43.9832, 41.4999)" font-family="sans-serif" font-size="2.6163" text-anchor="start" fill="currentColor">
<tspan/>
</text>
<text transform="translate(43.9832, 40.3107)" font-family="sans-serif" font-size="1.8500" text-anchor="start" fill="currentColor">
<tspan/>
</text>
<text transform="translate(65.1910, 55.7119)" font-family="serif" font-size="2.4696" text-anchor="start" fill="currentColor">
<tspan>fer</tspan>
</text>
<text transform="translate(8.0920, 165.1062)" font-family="serif" font-size="2.2001" text-anchor="start" fill="currentColor">
<tspan>https://www.churchofjesuschrist.org/music/library/childrens-songbook/when-he-comes-again</tspan>
</text>
</svg>
